<svg width="479" height="72" viewBox="0 0 479 72" fill="none" xmlns="http://www.w3.org/2000/svg">
<g clip-path="url(#clip0_107_5838)">
<path d="M464.678 0.151367L434.311 22.5383L439.926 9.33033L464.678 0.151367Z" fill="#E2761B" stroke="#E2761B" stroke-linecap="round" stroke-linejoin="round"/>
<path d="M394.574 0.151367L424.697 22.7504L419.356 9.33033L394.574 0.151367ZM453.752 52.0443L445.664 64.3435L462.969 69.0693L467.944 52.3169L453.752 52.0443ZM391.369 52.3169L396.313 69.0693L413.618 64.3435L405.53 52.0443L391.369 52.3169Z" fill="#E4761B" stroke="#E4761B" stroke-linecap="round" stroke-linejoin="round"/>
<path d="M412.641 31.2629L407.819 38.503L425.002 39.2604L424.392 20.9328L412.641 31.2629ZM446.61 31.2629L434.707 20.7207L434.311 39.2604L451.463 38.503L446.61 31.2629ZM413.618 64.3435L423.934 59.345L415.022 52.4381L413.618 64.3435ZM435.318 59.345L445.664 64.3435L444.23 52.4381L435.318 59.345Z" fill="#E4761B" stroke="#E4761B" stroke-linecap="round" stroke-linejoin="round"/>
<path d="M445.664 64.3437L435.318 59.3452L436.142 66.0401L436.05 68.8574L445.664 64.3437ZM413.618 64.3437L423.232 68.8574L423.171 66.0401L423.934 59.3452L413.618 64.3437Z" fill="#D7C1B3" stroke="#D7C1B3" stroke-linecap="round" stroke-linejoin="round"/>
<path d="M423.385 48.0152L414.778 45.5009L420.851 42.7441L423.385 48.0152ZM435.867 48.0152L438.4 42.7441L444.504 45.5009L435.867 48.0152Z" fill="#233447" stroke="#233447" stroke-linecap="round" stroke-linejoin="round"/>
<path d="M413.618 64.3434L415.083 52.0442L405.53 52.3168L413.618 64.3434ZM444.199 52.0442L445.664 64.3434L453.752 52.3168L444.199 52.0442ZM451.463 38.5029L434.311 39.2603L435.898 48.0151L438.431 42.744L444.535 45.5008L451.463 38.5029ZM414.778 45.5008L420.882 42.744L423.385 48.0151L425.002 39.2603L407.819 38.5029L414.778 45.5008Z" fill="#CD6116" stroke="#CD6116" stroke-linecap="round" stroke-linejoin="round"/>
<path d="M407.819 38.5029L415.022 52.438L414.778 45.5008L407.819 38.5029ZM444.535 45.5008L444.23 52.438L451.463 38.5029L444.535 45.5008ZM425.002 39.2603L423.384 48.0151L425.399 58.3452L425.857 44.7434L425.002 39.2603ZM434.311 39.2603L433.487 44.7131L433.853 58.3452L435.898 48.0151L434.311 39.2603Z" fill="#E4751F" stroke="#E4751F" stroke-linecap="round" stroke-linejoin="round"/>
<path d="M435.898 48.0153L433.853 58.3455L435.318 59.3451L444.23 52.4382L444.535 45.501L435.898 48.0153ZM414.778 45.501L415.022 52.4382L423.934 59.3451L425.399 58.3455L423.385 48.0153L414.778 45.501Z" fill="#F6851B" stroke="#F6851B" stroke-linecap="round" stroke-linejoin="round"/>
<path d="M436.05 68.857L436.142 66.0397L435.379 65.3732H423.873L423.171 66.0397L423.232 68.857L413.618 64.3433L416.975 67.0697L423.781 71.7652H435.47L442.307 67.0697L445.664 64.3433L436.05 68.857Z" fill="#C0AD9E" stroke="#C0AD9E" stroke-linecap="round" stroke-linejoin="round"/>
<path d="M435.318 59.3449L433.853 58.3452H425.399L423.934 59.3449L423.171 66.0398L423.873 65.3733H435.379L436.142 66.0398L435.318 59.3449Z" fill="#161616" stroke="#161616" stroke-linecap="round" stroke-linejoin="round"/>
<path d="M465.96 23.9924L468.554 11.6326L464.678 0.151367L435.318 21.781L446.61 31.2629L462.572 35.8978L466.113 31.8082L464.587 30.7176L467.028 28.5062L465.136 27.0521L467.578 25.2042L465.96 23.9924ZM390.728 11.6326L393.322 23.9924L391.674 25.2042L394.116 27.0521L392.254 28.5062L394.696 30.7176L393.17 31.8082L396.679 35.8978L412.641 31.2629L423.934 21.781L394.573 0.151367L390.728 11.6326Z" fill="#763D16" stroke="#763D16" stroke-linecap="round" stroke-linejoin="round"/>
<path d="M462.572 35.898L446.61 31.2631L451.463 38.5033L444.23 52.4384L453.752 52.3172H467.944L462.572 35.898ZM412.641 31.2631L396.679 35.898L391.369 52.3172H405.53L415.022 52.4384L407.819 38.5033L412.641 31.2631ZM434.311 39.2606L435.318 21.7812L439.957 9.33057H419.356L423.934 21.7812L425.002 39.2606L425.368 44.7741L425.399 58.3456H433.853L433.914 44.7741L434.311 39.2606Z" fill="#F6851B" stroke="#F6851B" stroke-linecap="round" stroke-linejoin="round"/>
</g>
<g clip-path="url(#clip1_107_5838)">
<path d="M38.7576 48.5112V24.7803H47.5389C49.3321 24.7803 50.7644 25.0209 51.8443 25.5022C52.9243 25.9835 53.7704 26.7199 54.3854 27.7173C54.9947 28.7175 55.3037 29.7613 55.3037 30.8514C55.3037 31.8633 55.0323 32.823 54.4894 33.716C53.9465 34.6118 53.1236 35.3338 52.032 35.8847C53.4441 36.308 54.5327 37.0241 55.2922 38.0388C56.0603 39.0507 56.4385 40.251 56.4385 41.6311C56.4385 42.7415 56.2018 43.7766 55.7426 44.7305C55.2777 45.6843 54.7031 46.4237 54.0216 46.9397C53.3401 47.4558 52.4883 47.8472 51.4603 48.1111C50.4323 48.3778 49.1704 48.5083 47.6804 48.5083H38.7548L38.7576 48.5112ZM41.8561 34.7539H46.9181C48.2955 34.7539 49.2801 34.6611 49.8779 34.4785C50.6633 34.2407 51.2553 33.8493 51.6538 33.2985C52.058 32.7476 52.2573 32.0576 52.2573 31.2284C52.2573 30.3991 52.0696 29.7468 51.6971 29.1466C51.3217 28.5465 50.7904 28.1377 50.1031 27.9173C49.4072 27.697 48.2175 27.5839 46.5398 27.5839H41.859V34.7568L41.8561 34.7539ZM41.8561 45.7104H47.6833C48.6853 45.7104 49.387 45.6727 49.7912 45.5974C50.5045 45.4698 51.1022 45.2523 51.5845 44.9479C52.0609 44.6493 52.4536 44.2086 52.7626 43.6287C53.0716 43.0547 53.2275 42.3878 53.2275 41.6311C53.2275 40.7468 53.0052 39.9785 52.5576 39.3232C52.11 38.6709 51.4892 38.2128 50.698 37.9461C49.901 37.6822 48.7604 37.5518 47.2675 37.5518H41.8561V45.7104Z" fill="#0051FE"/>
<path d="M56.8197 48.5112L65.8118 24.7803H69.1527L78.7367 48.5112H75.2052L72.4764 41.3238H62.6873L60.1145 48.5112H56.8226H56.8197ZM63.5767 38.7695H71.5119L69.0719 32.1967C68.324 30.202 67.7724 28.561 67.4115 27.2766C67.1083 28.7987 66.6925 30.3093 66.1496 31.8082L63.5767 38.7695Z" fill="#0051FE"/>
<path d="M78.8436 40.8886L81.7659 40.6276C81.9045 41.8134 82.2308 42.7876 82.7333 43.5501C83.2415 44.3097 84.0269 44.9244 85.0896 45.3941C86.158 45.8609 87.3534 46.0986 88.6875 46.0986C89.8657 46.0986 90.911 45.9218 91.8148 45.5622C92.7215 45.2085 93.3915 44.7185 93.839 44.101C94.2808 43.4805 94.4974 42.805 94.4974 42.0686C94.4974 41.3321 94.2866 40.674 93.8564 40.1173C93.4348 39.5636 92.7331 39.0968 91.7484 38.7199C91.1189 38.4734 89.73 38.0878 87.5816 37.563C85.4303 37.0412 83.923 36.5454 83.0653 36.0815C81.942 35.4871 81.1075 34.7507 80.5646 33.8693C80.016 32.9908 79.7359 32.0051 79.7359 30.9178C79.7359 29.7204 80.0738 28.6013 80.7437 27.5575C81.4136 26.5166 82.3925 25.728 83.6833 25.1888C84.9683 24.6466 86.4005 24.377 87.9772 24.377C89.7155 24.377 91.2431 24.6611 92.5743 25.2265C93.8968 25.7918 94.9161 26.6239 95.6294 27.7257C96.3426 28.8274 96.7296 30.0712 96.7758 31.4658L93.8102 31.6919C93.6485 30.193 93.1085 29.0593 92.1844 28.291C91.2662 27.5256 89.9003 27.1429 88.1013 27.1429C86.3024 27.1429 84.8643 27.4879 84.0067 28.1867C83.1491 28.8825 82.7217 29.7204 82.7217 30.7033C82.7217 31.5557 83.0249 32.2573 83.6342 32.8082C84.2319 33.359 85.7855 33.9215 88.3035 34.5014C90.8215 35.0754 92.5483 35.5828 93.4896 36.0119C94.8497 36.6498 95.8575 37.4558 96.5101 38.4328C97.1569 39.4099 97.4832 40.5348 97.4832 41.8076C97.4832 43.0804 97.128 44.2576 96.4148 45.3767C95.7016 46.4929 94.6765 47.3627 93.3424 47.9832C92.0025 48.6036 90.4981 48.9139 88.8261 48.9139C86.7066 48.9139 84.9307 48.6007 83.4985 47.9745C82.0662 47.3511 80.9429 46.4088 80.1286 45.1505C79.3143 43.8951 78.8841 42.4745 78.8436 40.8886Z" fill="#0051FE"/>
<path d="M100.478 48.5112V24.7803H117.411V27.581H103.582V34.8496H116.536V37.6329H103.582V45.7104H117.954V48.5112H100.478Z" fill="#0051FE"/>
<path d="M15.6451 20.7124C7.39231 20.7124 0.695917 27.0996 0.00288762 35.209H20.5858V37.8589H0C0.672816 45.9857 7.37787 52.3961 15.6451 52.3961C24.36 52.3961 31.4231 45.3044 31.4231 36.5543C31.4231 27.8041 24.36 20.7124 15.6451 20.7124Z" fill="#0051FE"/>
</g>
<path d="M317.589 29.5891C317.497 29.6808 317.423 29.7899 317.373 29.9101C317.323 30.0303 317.297 30.1592 317.297 30.2894C317.297 30.4196 317.323 30.5485 317.373 30.6687C317.423 30.7889 317.497 30.898 317.589 30.9897L322.126 35.5266H170.689C170.428 35.5266 170.177 35.6306 169.992 35.8155C169.807 36.0005 169.703 36.2514 169.703 36.5129C169.703 36.7745 169.807 37.0254 169.992 37.2104C170.177 37.3953 170.428 37.4992 170.689 37.4992H322.106L317.589 42.0066C317.405 42.1914 317.302 42.4414 317.302 42.702C317.302 42.9626 317.405 43.2125 317.589 43.3973C317.774 43.581 318.024 43.6841 318.285 43.6841C318.545 43.6841 318.795 43.581 318.98 43.3973L325.253 37.1245C325.337 37.0434 325.404 36.9462 325.45 36.8386C325.496 36.731 325.52 36.6152 325.52 36.4981C325.52 36.3811 325.496 36.2653 325.45 36.1577C325.404 36.0501 325.337 35.9529 325.253 35.8718L318.99 29.5891C318.898 29.4967 318.789 29.4233 318.669 29.3732C318.549 29.3231 318.42 29.2974 318.289 29.2974C318.159 29.2974 318.03 29.3231 317.91 29.3732C317.79 29.4233 317.681 29.4967 317.589 29.5891Z" fill="#371A45"/>
<defs>
<clipPath id="clip0_107_5838">
<rect width="78.1316" height="71.917" fill="white" transform="translate(390.575)"/>
</clipPath>
<clipPath id="clip1_107_5838">
<rect width="117.954" height="31.6837" fill="white" transform="translate(0 20.7124)"/>
</clipPath>
</defs>
</svg>
