<svg width="481" height="95" viewBox="0 0 481 95" fill="none" xmlns="http://www.w3.org/2000/svg">
<g clip-path="url(#clip0_107_5993)">
<path d="M464.678 11.1514L434.311 33.5383L439.927 20.3303L464.678 11.1514Z" fill="#E2761B" stroke="#E2761B" stroke-linecap="round" stroke-linejoin="round"/>
<path d="M394.574 11.1514L424.697 33.7504L419.356 20.3303L394.574 11.1514ZM453.752 63.0443L445.664 75.3435L462.969 80.0693L467.944 63.3169L453.752 63.0443ZM391.369 63.3169L396.313 80.0693L413.618 75.3435L405.53 63.0443L391.369 63.3169Z" fill="#E4761B" stroke="#E4761B" stroke-linecap="round" stroke-linejoin="round"/>
<path d="M412.641 42.2629L407.819 49.503L425.002 50.2604L424.392 31.9328L412.641 42.2629ZM446.61 42.2629L434.708 31.7207L434.311 50.2604L451.463 49.503L446.61 42.2629ZM413.618 75.3435L423.934 70.345L415.022 63.4381L413.618 75.3435ZM435.318 70.345L445.664 75.3435L444.23 63.4381L435.318 70.345Z" fill="#E4761B" stroke="#E4761B" stroke-linecap="round" stroke-linejoin="round"/>
<path d="M445.664 75.3437L435.318 70.3452L436.142 77.0401L436.05 79.8574L445.664 75.3437ZM413.618 75.3437L423.232 79.8574L423.171 77.0401L423.934 70.3452L413.618 75.3437Z" fill="#D7C1B3" stroke="#D7C1B3" stroke-linecap="round" stroke-linejoin="round"/>
<path d="M423.385 59.0152L414.778 56.5009L420.851 53.7441L423.385 59.0152ZM435.867 59.0152L438.401 53.7441L444.505 56.5009L435.867 59.0152Z" fill="#233447" stroke="#233447" stroke-linecap="round" stroke-linejoin="round"/>
<path d="M413.618 75.3434L415.083 63.0442L405.53 63.3168L413.618 75.3434ZM444.199 63.0442L445.664 75.3434L453.752 63.3168L444.199 63.0442ZM451.463 49.5029L434.311 50.2603L435.898 59.0151L438.431 53.744L444.535 56.5008L451.463 49.5029ZM414.778 56.5008L420.882 53.744L423.385 59.0151L425.002 50.2603L407.819 49.5029L414.778 56.5008Z" fill="#CD6116" stroke="#CD6116" stroke-linecap="round" stroke-linejoin="round"/>
<path d="M407.819 49.5029L415.022 63.438L414.778 56.5008L407.819 49.5029ZM444.535 56.5008L444.23 63.438L451.463 49.5029L444.535 56.5008ZM425.002 50.2603L423.385 59.0151L425.399 69.3452L425.857 55.7434L425.002 50.2603ZM434.311 50.2603L433.487 55.7131L433.853 69.3452L435.898 59.0151L434.311 50.2603Z" fill="#E4751F" stroke="#E4751F" stroke-linecap="round" stroke-linejoin="round"/>
<path d="M435.898 59.0153L433.853 69.3455L435.318 70.3451L444.23 63.4382L444.535 56.501L435.898 59.0153ZM414.778 56.501L415.022 63.4382L423.934 70.3451L425.399 69.3455L423.385 59.0153L414.778 56.501Z" fill="#F6851B" stroke="#F6851B" stroke-linecap="round" stroke-linejoin="round"/>
<path d="M436.05 79.857L436.142 77.0397L435.379 76.3732H423.873L423.171 77.0397L423.232 79.857L413.618 75.3433L416.975 78.0697L423.781 82.7652H435.471L442.307 78.0697L445.664 75.3433L436.05 79.857Z" fill="#C0AD9E" stroke="#C0AD9E" stroke-linecap="round" stroke-linejoin="round"/>
<path d="M435.318 70.3449L433.853 69.3452H425.399L423.934 70.3449L423.171 77.0398L423.873 76.3733H435.379L436.142 77.0398L435.318 70.3449Z" fill="#161616" stroke="#161616" stroke-linecap="round" stroke-linejoin="round"/>
<path d="M465.96 34.9924L468.554 22.6326L464.678 11.1514L435.318 32.781L446.61 42.2629L462.572 46.8978L466.113 42.8082L464.587 41.7176L467.028 39.5062L465.136 38.0521L467.578 36.2042L465.96 34.9924ZM390.728 22.6326L393.322 34.9924L391.674 36.2042L394.116 38.0521L392.254 39.5062L394.696 41.7176L393.17 42.8082L396.679 46.8978L412.642 42.2629L423.934 32.781L394.574 11.1514L390.728 22.6326Z" fill="#763D16" stroke="#763D16" stroke-linecap="round" stroke-linejoin="round"/>
<path d="M462.573 46.898L446.61 42.2631L451.463 49.5033L444.23 63.4384L453.752 63.3172H467.944L462.573 46.898ZM412.642 42.2631L396.679 46.898L391.369 63.3172H405.53L415.022 63.4384L407.819 49.5033L412.642 42.2631ZM434.311 50.2606L435.318 32.7812L439.957 20.3306H419.356L423.934 32.7812L425.002 50.2606L425.368 55.7741L425.399 69.3456H433.853L433.914 55.7741L434.311 50.2606Z" fill="#F6851B" stroke="#F6851B" stroke-linecap="round" stroke-linejoin="round"/>
</g>
<path d="M317.589 41.8767C317.497 41.9684 317.423 42.0775 317.373 42.1977C317.323 42.3179 317.297 42.4468 317.297 42.577C317.297 42.7072 317.323 42.8361 317.373 42.9563C317.423 43.0765 317.497 43.1856 317.589 43.2773L322.126 47.8142H170.689C170.428 47.8142 170.177 47.9182 169.992 48.1031C169.807 48.2881 169.703 48.539 169.703 48.8005C169.703 49.0621 169.807 49.313 169.992 49.498C170.177 49.6829 170.428 49.7868 170.689 49.7868H322.106L317.589 54.2942C317.405 54.479 317.302 54.729 317.302 54.9896C317.302 55.2502 317.405 55.5001 317.589 55.6849C317.774 55.8686 318.024 55.9717 318.284 55.9717C318.545 55.9717 318.795 55.8686 318.98 55.6849L325.253 49.412C325.337 49.331 325.404 49.2338 325.45 49.1262C325.496 49.0185 325.52 48.9028 325.52 48.7857C325.52 48.6687 325.496 48.5529 325.45 48.4453C325.404 48.3377 325.337 48.2405 325.253 48.1594L318.99 41.8767C318.898 41.7843 318.789 41.7109 318.669 41.6608C318.548 41.6107 318.419 41.585 318.289 41.585C318.159 41.585 318.03 41.6107 317.91 41.6608C317.79 41.7109 317.681 41.7843 317.589 41.8767Z" fill="#371A45"/>
<path d="M75.1786 72.2792L78.0237 73.6935C77.6062 74.6122 71.9908 82.2779 69.5632 84.6322C67.6117 83.1979 60.557 76.6319 57.5088 74.8731C53.1621 72.3641 64.0551 70.0747 64.0551 70.0747" fill="#512717"/>
<path d="M28.7554 37.9539C21.8365 44.5835 8.02746 38.5655 6.78002 44.9942C6.02483 48.8863 10.3977 52.4964 15.3626 52.5213C21.7057 52.5538 25.3072 47.7666 26.9459 44.8981L28.7566 37.9526L28.7554 37.9539Z" fill="#FFE6D0"/>
<g opacity="0.7">
<path d="M28.7554 37.9541L28.3566 39.4808C21.2533 45.143 8.27168 39.7017 7.06536 45.9256C6.94697 46.5348 6.95445 47.1377 7.0691 47.7207C6.71518 46.8594 6.59804 45.9356 6.77998 44.9944C8.02742 38.5645 21.8365 44.5825 28.7541 37.9541H28.7554Z" fill="white"/>
</g>
<path d="M13.2253 51.3342C10.3454 50.6526 8.21562 48.7902 7.73085 46.743C7.25231 44.4399 11.0557 45.0616 15.7327 44.7358C19.3778 44.4824 22.1979 45.5709 25.7097 43.5786L26.0773 44.5423C24.1918 47.7991 20.8159 51.6188 15.3663 51.5913C14.6485 51.5876 13.9282 51.5015 13.2241 51.3342H13.2253Z" fill="#EDC5A3"/>
<path d="M15.4298 53.2182C21.6808 53.2182 25.4692 48.8867 27.5491 45.2442L26.3428 44.5527C24.4386 47.8868 20.9941 51.8539 15.3663 51.8252C12.6596 51.8114 10.0425 50.6605 8.53839 48.8218C7.87791 48.0141 7.15387 46.7172 7.46293 45.1269C7.95517 42.5929 10.8912 42.3819 15.6417 42.2458C20.3 42.1123 25.5788 41.9612 29.2364 38.4573L28.2756 37.4512C25.0044 40.5856 20.0096 40.7292 15.6018 40.854C11.0894 40.9826 6.82737 41.1049 6.09835 44.8622C5.77683 46.5175 6.2616 48.2388 7.46293 49.7068C9.22255 51.8576 12.2483 53.2033 15.3588 53.2195C15.3825 53.2195 15.4062 53.2195 15.4298 53.2195V53.2182Z" fill="#3B3B3B"/>
<path d="M15.4298 53.2182C21.6808 53.2182 25.4692 48.8867 27.5491 45.2442L26.3428 44.5527C24.4386 47.8868 20.9941 51.8539 15.3663 51.8252C12.6596 51.8114 10.0425 50.6605 8.53839 48.8218C7.87791 48.0141 7.15387 46.7172 7.46293 45.1269C7.95517 42.5929 10.8912 42.3819 15.6417 42.2458C20.3 42.1123 25.5788 41.9612 29.2364 38.4573L28.2756 37.4512C25.0044 40.5856 20.0096 40.7292 15.6018 40.854C11.0894 40.9826 6.82737 41.1049 6.09835 44.8622C5.77683 46.5175 6.2616 48.2388 7.46293 49.7068C9.22255 51.8576 12.2483 53.2033 15.3588 53.2195C15.3825 53.2195 15.4062 53.2195 15.4298 53.2195V53.2182Z" fill="#371A45"/>
<path d="M24.2765 46.2279C22.8808 48.2077 18.9964 50.9826 14.6148 50.2312C11.3086 49.6632 10.5235 47.5124 10.9398 46.4514C12.004 43.9061 21.9399 46.4102 27.2051 42.2871L24.2765 46.2279Z" fill="#FDB4B6"/>
<path d="M27.2051 42.2871L24.2766 46.2292C23.9102 46.7485 23.3743 47.3202 22.7026 47.8707C21.6845 48.7058 20.3573 49.4872 18.8444 49.9428H18.8432C17.5434 50.3335 16.109 50.4883 14.6148 50.2312C11.3099 49.6632 10.5248 47.5124 10.9411 46.4514C12.0053 43.9049 21.9412 46.4102 27.2064 42.2871H27.2051Z" fill="#FDB4B6"/>
<path d="M27.2051 42.2871L24.2765 46.2292C23.9102 46.7485 23.3743 47.3202 22.7026 47.8707C23.4541 46.751 23.0765 46.193 22.5792 46.0082C21.6807 45.6762 19.9597 46.334 18.1241 46.5275C16.4766 46.6998 14.6646 46.6037 14.3132 47.4937C13.7001 49.0428 17.3103 50.1688 18.8419 49.9416C17.5421 50.3335 16.1077 50.4871 14.6136 50.2312C11.3086 49.6632 10.5235 47.5124 10.9398 46.4514C12.004 43.9049 21.9399 46.4102 27.2051 42.2871Z" fill="#F88D94"/>
<path d="M24.2766 46.2277C21.9736 48.773 18.397 50.2821 14.9949 49.7441C13.5917 49.497 11.842 48.778 11.5454 47.2588C11.4769 46.7807 11.5803 46.5248 12.0888 46.3089C12.9798 45.9481 13.998 45.8832 14.9912 45.7821C16.3844 45.6435 17.8175 45.5761 19.2432 45.3801C20.6763 45.1966 22.1069 44.9195 23.4802 44.4527C24.8473 43.9733 26.177 43.2918 27.2039 42.2856C25.9838 43.0334 24.6554 43.5015 23.2921 43.7786C20.9193 44.3203 17.3477 44.3353 14.8927 44.4502C13.011 44.56 9.70731 44.7772 10.1883 47.486C10.6021 49.633 12.8814 50.6529 14.8504 50.8077C18.5067 51.1896 22.3001 49.291 24.2753 46.2265L24.2766 46.2277Z" fill="#371A45"/>
<path d="M25.9764 50.0123C23.9314 47.7891 24.6405 45.4161 26.4936 43.8407C25.4281 41.5114 25.8929 38.0337 29.9094 37.1812C29.9094 37.1812 32.4317 38.226 31.1693 43.5774C29.9057 48.9287 25.9777 50.0123 25.9777 50.0123H25.9764Z" fill="white"/>
<path d="M25.9764 50.0126C25.043 47.8281 25.104 46.0119 27.0207 44.4628C27.3098 44.2231 27.3858 43.8249 27.2338 43.5003C26.2705 41.2659 26.7577 38.9728 28.9411 37.6946C29.2464 37.5111 29.5704 37.3438 29.9081 37.1803C29.1616 37.1691 28.394 37.3151 27.6774 37.6659C25.3308 38.7594 24.6305 41.9537 25.7521 44.1807L25.9652 43.2182C23.7818 45.032 23.1338 48.5047 25.9764 50.0126Z" fill="#512717"/>
<path d="M30.363 80.3296C31.0011 81.4268 33.1508 85.0194 38.2801 86.234C44.2095 87.6383 47.9992 84.5063 47.9992 84.5063C53.7653 91.8637 61.1291 89.7566 62.3715 84.8696C69.7889 88.4309 75.2871 84.8409 75.7407 77.34C80.6058 78.2025 81.9255 74.9595 79.6712 71.2845C84.8753 71.6328 91.1225 65.4413 85.2815 55.5799C90.6813 51.2808 90.3236 43.0247 83.5269 38.3711C84.6697 35.6061 86.1726 29.2349 76.6703 29.3372C77.018 25.4376 74.0421 19.6119 65.9431 21.9561C64.2134 18.9191 61.0555 15.535 56.1929 14.5838C50.9925 13.5664 47.1218 15.3415 44.5734 16.8943C41.5252 14.5251 36.6538 14.0795 34.9627 19.4583C30.3094 17.9154 27.3435 20.3446 27.4208 25.0818C19.9012 24.1119 15.6978 32.7038 19.47 39.9926C13.1431 42.5915 10.7604 49.9339 14.7731 55.9144C11.2589 58.3598 11.6876 61.8999 14.9389 62.9398C11.4745 70.4082 14.8404 73.9434 20.8571 75.0381C20.553 79.9139 24.1021 82.2245 30.3618 80.3296H30.363Z" fill="white"/>
<path d="M72.3099 61.3221C70.4343 73.162 77.2298 76.842 79.468 74.6462C79.4506 74.9695 79.3683 75.2504 79.2163 75.4739C78.7577 76.1479 77.5713 76.3714 75.9612 76.0868L74.558 75.8383L74.472 77.2626C74.2938 80.2111 73.247 82.5404 71.526 83.8224C70.0032 84.9558 67.9781 85.2654 65.6689 84.7186C64.7853 84.5089 63.8607 84.1744 62.9198 83.7225L61.5228 83.0522L61.1402 84.5564C60.4835 87.1366 57.7543 88.5521 54.7896 87.8493C52.7359 87.3625 50.7333 85.9357 48.9973 83.7213L48.1935 82.6952L47.1891 83.5253C47.057 83.6314 43.7683 86.2266 38.5704 84.9958C35.4724 84.2618 33.0797 82.4767 31.4584 79.6893L30.9537 78.8217L29.9941 79.1126C27.9927 79.718 26.2343 79.8728 24.9096 79.5595C22.9082 79.0851 21.9711 77.5909 22.1256 75.1181L22.1954 73.9896L21.0838 73.7874C20.7872 73.7337 20.4969 73.6726 20.2202 73.6077C17.6643 73.0023 15.9981 71.93 15.2666 70.4208C14.4541 68.7431 14.7307 66.4076 16.0903 63.4779L16.6972 62.1684L15.3252 61.729C14.3444 61.4157 13.7176 60.8015 13.6042 60.0451C13.5394 59.6107 13.6353 59.1488 13.8733 58.6882C14.2646 61.4681 18.5528 59.8091 20.0819 53.9173C20.8458 50.9751 24.9233 51.9512 24.9233 51.9512L72.3086 61.3246L72.3099 61.3221Z" fill="#E3E3E3"/>
<path d="M56.3063 89.9999C56.8434 89.9999 57.3767 89.945 57.9014 89.8339C60.1757 89.3533 61.9852 87.8492 62.7902 85.8232C66.2708 87.3062 69.5234 87.3224 72.0183 85.8532C74.4596 84.4151 75.9899 81.6901 76.3712 78.1313C79.1303 78.4146 80.3466 77.3087 80.8401 76.5809C81.6376 75.4063 81.6164 73.7311 80.8164 71.9598C83.2764 71.7188 85.6155 70.2471 86.9963 67.9965C88.1889 66.0529 89.6257 61.9123 86.175 55.7371C88.5353 53.64 89.8139 50.6903 89.7005 47.5533C89.5709 43.9396 87.6368 40.528 84.3718 38.1176C85.0161 36.36 85.6317 33.5588 84.1749 31.4018C82.9947 29.6542 80.7142 28.728 77.3894 28.6456C77.3644 26.7008 76.6254 24.1543 74.5418 22.4341C73.09 21.2358 70.4917 20.0699 66.2708 21.1447C64.7791 18.7018 61.6786 14.9482 56.325 13.8996C51.0623 12.8685 47.1692 14.5587 44.612 16.0592C42.6131 14.6636 40.2316 14.1717 38.2963 14.7772C37.085 15.1566 35.4936 16.1303 34.5253 18.6019C32.3581 18.0264 30.4814 18.2661 29.0694 19.3059C27.6725 20.3345 26.8574 22.0983 26.7378 24.3228C23.7145 24.1717 21.0203 25.4887 19.2656 28.0027C17.025 31.2108 16.7595 35.7109 18.5304 39.648C15.6305 41.0485 13.4783 43.5089 12.5748 46.491C11.6389 49.5768 12.0901 52.8386 13.841 55.7446C12.2296 57.0628 11.4208 58.7429 11.6601 60.3358C11.8558 61.6377 12.6982 62.695 14.0092 63.3191C12.6272 66.5872 12.4789 69.3097 13.5705 71.4205C14.6435 73.4952 16.853 74.902 20.1442 75.6047C20.1442 77.6894 20.8433 79.3396 22.1855 80.4044C23.9613 81.8125 26.6705 82.0659 30.0427 81.1446C31.9369 84.1505 34.6511 86.0891 38.1181 86.9104C43.038 88.0751 46.5486 86.2975 47.8683 85.4487C50.3457 88.3784 53.3789 89.9987 56.305 89.9987L56.3063 89.9999ZM61.9067 83.8746L61.6973 84.6972C61.215 86.5946 59.6498 88.0401 57.6148 88.4708C54.5927 89.1099 51.2031 87.4672 48.5462 84.0756L48.1063 83.5139L47.5567 83.9682C47.4134 84.0856 43.9365 86.858 38.4408 85.5548C35.1833 84.7834 32.6672 82.9072 30.9649 79.9775L30.6882 79.5019L30.1624 79.6604C27.0481 80.6029 24.5221 80.4793 23.0503 79.3121C21.9524 78.4408 21.434 76.9779 21.5524 75.0792L21.591 74.4613L20.9829 74.3502C17.8126 73.7735 15.7339 72.5714 14.8068 70.7789C13.8484 68.9277 14.1064 66.3874 15.5707 63.2305L15.9034 62.514L15.152 62.2731C13.9544 61.8899 13.1842 61.1072 13.0372 60.126C12.854 58.9027 13.6515 57.5408 15.1719 56.4823L15.7339 56.0916L15.3526 55.5224C13.5493 52.8348 13.0359 49.7703 13.9082 46.8942C14.7594 44.0881 16.8829 41.8062 19.7355 40.6341L20.4383 40.3457L20.0881 39.6692C18.2076 36.0367 18.3335 31.77 20.4072 28.7991C22.0035 26.5123 24.5296 25.4088 27.3322 25.7708L28.1298 25.8732L28.1161 25.068C28.0812 22.9434 28.713 21.2945 29.8944 20.4256C31.0683 19.5606 32.7457 19.4545 34.7446 20.1173L35.4138 20.3395L35.6257 19.6654C36.2263 17.7556 37.2644 16.5572 38.7125 16.1041C40.3462 15.5935 42.4274 16.1053 44.1471 17.4423L44.526 17.7368L44.9347 17.4872C47.2813 16.0579 50.9875 14.2716 56.0595 15.264C61.2237 16.2751 64.09 20.1048 65.3399 22.2981L65.6116 22.7737L66.1375 22.6214C69.2629 21.7164 71.8637 22.0222 73.6608 23.5064C75.6086 25.1142 76.127 27.617 75.9799 29.2722L75.9114 30.0387L76.679 30.0299C79.9004 29.9962 82.0377 30.7177 83.0247 32.1795C84.317 34.0931 83.3574 36.9579 82.8851 38.1013L82.6695 38.6231L83.1356 38.9414C86.3059 41.1122 88.1926 44.2679 88.3122 47.5995C88.4157 50.488 87.1545 53.1968 84.8503 55.0305L84.3755 55.4088L84.6846 55.9318C88.1378 61.7625 86.8741 65.5348 85.8124 67.265C84.4765 69.442 82.0838 70.7489 79.7173 70.5866L78.3739 70.4968L79.078 71.6464C80.0973 73.3092 80.3266 74.8595 79.6898 75.7957C79.0904 76.6795 77.7296 76.9829 75.8603 76.6521L75.0926 76.516L75.0453 77.2962C74.8372 80.7439 73.5112 83.3566 71.3129 84.6523C69.0586 85.9805 65.9892 85.8332 62.6706 84.2404L61.9054 83.8734L61.9067 83.8746Z" fill="#371A45"/>
<path d="M79.64 50.0063C82.8626 59.0377 97.8992 59.8516 96.1396 66.1604C95.0741 69.9801 89.5509 71.2446 85.1008 69.0402C79.4157 66.224 78.3352 60.3272 78.1533 57.0279L79.64 50.0063Z" fill="#FFE6D0"/>
<g opacity="0.7">
<path d="M79.6412 50.0061L79.3147 51.549C83.1343 59.7989 97.1739 60.7576 95.4691 66.8629C95.3021 67.4609 95.0267 67.9964 94.6628 68.4657C95.3644 67.8541 95.8816 67.0814 96.1396 66.1577C97.8992 59.8501 82.8614 59.035 79.64 50.0049L79.6412 50.0061Z" fill="white"/>
</g>
<path d="M87.5434 68.9364C90.4233 69.6179 93.1599 68.9089 94.5096 67.2961C95.9676 65.4511 92.2889 64.3015 88.2524 61.9123C85.107 60.0498 82.0987 59.7577 79.8494 56.4023L79.0892 57.0989C79.3185 60.8575 80.6282 65.7869 85.5145 68.2061C86.1576 68.5244 86.8405 68.7703 87.5446 68.9376L87.5434 68.9364Z" fill="#EDC5A3"/>
<path d="M89.6955 70.819C91.0152 70.819 92.2951 70.5693 93.4229 70.0663C95.1539 69.2924 96.3564 67.9717 96.81 66.3477C97.8382 62.6615 94.0821 60.6405 90.1055 58.5009C86.2211 56.4113 81.8196 54.0433 80.2955 49.7729L78.9857 50.2423C80.6893 55.017 85.3426 57.521 89.4475 59.7293C93.6335 61.9812 96.1645 63.4878 95.4716 65.9744C95.0367 67.536 93.8104 68.3711 92.8584 68.7955C90.6912 69.7642 87.8374 69.6194 85.4111 68.4173C80.3715 65.922 79.0605 60.8265 78.8486 56.9905L77.4604 57.0679C77.6922 61.2734 79.154 66.8719 84.7942 69.6656C86.342 70.432 88.0493 70.8203 89.6968 70.8203L89.6955 70.819Z" fill="#3B3B3B"/>
<path d="M89.6955 70.819C91.0152 70.819 92.2951 70.5693 93.4229 70.0663C95.1539 69.2924 96.3564 67.9717 96.81 66.3477C97.8382 62.6615 94.0821 60.6405 90.1055 58.5009C86.2211 56.4113 81.8196 54.0433 80.2955 49.7729L78.9857 50.2423C80.6893 55.017 85.3426 57.521 89.4475 59.7293C93.6335 61.9812 96.1645 63.4878 95.4716 65.9744C95.0367 67.536 93.8104 68.3711 92.8584 68.7955C90.6912 69.7642 87.8374 69.6194 85.4111 68.4173C80.3715 65.922 79.0605 60.8265 78.8486 56.9905L77.4604 57.0679C77.6922 61.2734 79.154 66.8719 84.7942 69.6656C86.342 70.432 88.0493 70.8203 89.6968 70.8203L89.6955 70.819Z" fill="#371A45"/>
<path d="M79.9453 59.4133C80.3079 61.81 82.5411 66.0342 86.7944 67.3274C90.0046 68.3035 91.6683 66.732 91.7704 65.596C91.9561 62.8423 81.9542 60.6241 79.0892 54.5762L79.9453 59.4133Z" fill="#FDB4B6"/>
<path d="M79.0892 54.575L79.9453 59.4133C80.04 60.0412 80.2643 60.7939 80.6195 61.5866C81.1566 62.7899 81.9953 64.0844 83.143 65.1704H83.1443C84.1313 66.1041 85.3451 66.8855 86.7956 67.3262C90.0046 68.3011 91.667 66.7308 91.7704 65.5948C91.9574 62.8411 81.9542 60.6229 79.0904 54.5737L79.0892 54.575Z" fill="#FDB4B6"/>
<path d="M79.0892 54.5747L79.9453 59.4131C80.04 60.0409 80.2643 60.7937 80.6195 61.5863C80.4488 60.2482 81.0357 59.9186 81.5629 59.9773C82.515 60.0834 83.7587 61.444 85.3139 62.4401C86.7096 63.3339 88.3721 64.0604 88.2886 65.0141C88.1453 66.6743 84.4129 66.0614 83.1443 65.1714C84.1313 66.1051 85.3451 66.8865 86.7956 67.3272C90.0046 68.3021 91.667 66.7317 91.7704 65.5958C91.9574 62.8421 81.9542 60.6239 79.0904 54.5747H79.0892Z" fill="#F88D94"/>
<path d="M79.9453 59.4133C80.3404 63.0383 82.8839 66.4386 86.3234 67.7381C88.3198 68.5906 91.3493 68.5482 92.3225 66.2301C93.064 64.1742 90.5268 62.9072 89.1273 62.0359C86.9739 60.8276 83.8085 59.2235 81.9181 57.6669C80.8227 56.8069 79.8444 55.792 79.088 54.5762C79.5565 55.9356 80.4413 57.1426 81.4482 58.185C82.4664 59.2185 83.6229 60.1086 84.8217 60.915C86.0093 61.7301 87.2592 62.4329 88.4444 63.1818C89.2868 63.7161 90.1691 64.2316 90.8034 64.9544C91.1611 65.3751 91.1411 65.6509 90.8645 66.0466C89.9199 67.2725 88.0344 67.1289 86.6698 66.722C83.3873 65.6772 80.865 62.7237 79.9428 59.4145L79.9453 59.4133Z" fill="#371A45"/>
<path d="M76.7339 62.0336C79.5553 60.9638 79.9827 58.5235 79.0319 56.284C81.0258 54.6787 82.1648 51.3608 78.9558 48.7968C78.9558 48.7968 76.2329 48.5996 74.9693 53.951C73.7056 59.3024 76.7339 62.0336 76.7339 62.0336Z" fill="white"/>
<path d="M76.7339 62.0334C79.9466 61.9635 80.9236 58.5594 79.7808 55.9642L79.5416 56.9204C80.2083 56.4061 80.7404 55.7333 81.0993 54.9731C81.837 53.4939 81.7685 51.5303 80.7329 50.2321C80.2494 49.5968 79.6275 49.1224 78.9558 48.7979C79.1851 49.0949 79.3995 49.3908 79.5902 49.6916C80.9709 51.8187 80.3815 54.0818 78.5209 55.6497C78.2281 55.8806 78.1371 56.2801 78.2817 56.6059C79.3035 58.8478 78.5421 60.5067 76.7339 62.0359V62.0334Z" fill="#371A45"/>
<path d="M40.3724 79.8064C26.9833 76.9616 13.1817 67.5783 21.0103 51.9747C21.0103 51.9747 24.5595 36.8593 29.5418 33.1182C29.5418 33.1182 71.1011 40.2147 72.9056 42.4241C73.7081 50.0823 72.8283 58.5632 71.8139 64.0069C69.2654 78.4645 59.1962 83.57 40.3724 79.8064Z" fill="#FFE6D0"/>
<path d="M40.3724 79.8064C26.9833 76.9616 13.1817 67.5783 21.0103 51.9747C21.0103 51.9747 24.5595 36.8593 29.5418 33.1182C29.5418 33.1182 71.1011 40.2147 72.9056 42.4241C73.7081 50.0823 72.8283 58.5632 71.8139 64.0069C69.2654 78.4645 59.1962 83.57 40.3724 79.8064Z" fill="#FFE6D0"/>
<path d="M40.3724 79.8064C26.9833 76.9616 13.1817 67.5783 21.0103 51.9747C21.0103 51.9747 23.251 42.4291 26.673 36.6321C27.5553 35.1329 28.5186 33.8859 29.5418 33.1182C29.5418 33.1182 71.0998 40.2159 72.9056 42.4241C73.0701 43.9932 73.1635 45.5948 73.1997 47.2C73.343 53.429 72.6214 59.6791 71.8152 64.0069C69.2654 78.4645 59.1962 83.5688 40.3724 79.8052V79.8064Z" fill="#FFE6D0"/>
<path d="M40.3724 79.8066C28.1597 77.2114 15.603 69.1762 19.4351 55.9419C17.2368 68.0727 29.1803 75.4788 40.811 77.9491C58.3711 81.4605 68.3133 77.2526 71.6381 64.9358C68.8242 78.6831 58.7874 83.489 40.3724 79.8066Z" fill="#EDC5A3"/>
<path d="M40.1655 59.8604C38.3822 59.4385 37.2295 57.0293 37.6395 56.5587C38.1056 56.0244 39.1486 57.4924 40.6416 57.8456C42.1333 58.1989 43.7234 57.3551 43.9004 58.0416C44.0574 58.6458 41.9488 60.2823 40.1655 59.8604Z" fill="#371A45"/>
<path d="M41.089 59.9125C40.416 59.9886 40.1132 61.142 39.8278 61.2993H39.8266C39.6421 61.0309 39.8876 59.8638 39.3194 59.4931C39.1349 59.3458 39.5188 58.5806 39.5188 58.5806L40.3574 59.0487H40.3587L41.3183 59.0075C41.3183 59.0075 41.3195 59.8638 41.089 59.9125Z" fill="#371A45"/>
<path d="M73.1996 47.2013C67.8784 49.3184 64.3541 44.9756 63.7946 43.7985C60.2666 47.6182 55.141 47.039 51.4984 43.2767C48.8004 46.0466 41.5463 48.0738 38.214 40.0699C32.9787 42.7799 31.1755 38.6381 30.9798 36.0254C29.8022 37.3224 27.7783 37.2475 26.673 36.6321C27.5553 35.1329 28.5186 33.8859 29.5417 33.1182C29.5417 33.1182 71.0998 40.2159 72.9055 42.4241C73.07 43.9932 73.1635 45.5948 73.1996 47.2V47.2013Z" fill="#EDC5A3"/>
<path d="M51.1532 81.7016C56.6614 81.7016 61.0667 80.5382 64.4825 78.1989C68.7196 75.2992 71.3416 70.6955 72.4993 64.1283C73.0065 61.4083 74.5867 51.7803 73.5972 42.352C73.5835 42.2172 73.5299 42.0886 73.4439 41.9837C73.0588 41.5119 72.1566 40.4084 50.6797 36.2591C40.178 34.2306 29.7636 32.4493 29.6601 32.4319C29.472 32.3994 29.2788 32.4469 29.1268 32.5617C24.1383 36.3065 20.6726 50.4059 20.3548 51.7353C17.5733 57.3189 17.2892 62.4955 19.5086 67.1229C22.507 73.3718 30.2533 78.3687 40.2291 80.4883C40.2316 80.4883 40.2341 80.4895 40.2378 80.4895C44.2755 81.2972 47.9057 81.7016 51.1532 81.7016ZM72.2438 42.7789C73.1523 51.9301 71.6257 61.2273 71.131 63.8799C70.0406 70.0664 67.6092 74.3717 63.6974 77.0493C58.593 80.5444 51.0087 81.2223 40.5132 79.1251C30.9574 77.0942 23.5737 72.3819 20.7611 66.52C18.7273 62.2821 19.0201 57.4937 21.6322 52.2883C21.6571 52.2396 21.6758 52.1884 21.6882 52.1348C21.7231 51.9887 25.1227 37.6984 29.7299 33.8574C31.5095 34.1632 40.7812 35.7698 50.1812 37.5823C67.6192 40.9452 71.4525 42.2933 72.2438 42.7789Z" fill="#371A45"/>
<path d="M25.7558 33.5265C26.8425 35.8333 29.8047 35.555 31.5456 33.6376C31.7413 36.249 33.5445 40.3908 38.7798 37.682C42.1121 45.6848 49.3662 43.6576 52.0654 40.8889C55.7081 44.65 60.8324 45.2304 64.3604 41.4107C64.981 42.7151 69.0498 47.682 75.6833 45.4126C78.8499 28.1714 34.4517 16.9468 25.757 33.5277L25.7558 33.5265Z" fill="white"/>
<path d="M75.6821 45.4125C69.0474 47.6831 64.9798 42.7162 64.3592 41.4105C60.8312 45.2303 55.7056 44.6511 52.063 40.8887C49.365 43.6587 42.1109 45.6859 38.7773 37.6819C33.5433 40.3919 31.7413 36.2501 31.5444 33.6387C29.8035 35.5548 26.8413 35.8344 25.7546 33.5276C28.4376 35.0667 31.6553 32.3954 32.3482 30.9961C32.5438 33.6063 34.6499 37.1726 39.7481 34.5799C43.2349 42.7474 49.7525 40.3195 52.4007 37.3112C55.7679 41.1896 61.463 42.5502 64.9922 38.7292C65.6128 40.0337 69.0922 46.4623 75.6821 45.4138V45.4125Z" fill="#E3E3E3"/>
<path d="M25.7558 33.5266C25.8642 34.8672 27.2699 35.8097 28.5784 35.7223C29.8994 35.6661 31.1094 34.9946 31.998 34.0509L30.935 33.6839C31.3412 38.5022 34.7533 40.6281 39.1113 38.3275L38.1093 37.9617C38.6551 39.2899 39.3879 40.5856 40.426 41.6716C43.1178 44.5989 47.5318 44.7774 50.8305 42.8225C51.4772 42.4481 52.0866 41.9974 52.6312 41.4432H51.4959C55.2183 45.3653 61.0729 46.1642 64.8688 41.8826L63.7311 41.7091C64.0102 42.3033 64.3417 42.7501 64.7517 43.2245C67.0073 45.8396 70.8269 47.249 74.1617 46.1093C74.6988 45.942 75.206 45.6936 75.6821 45.4115C74.5754 45.5226 73.5162 45.6087 72.4818 45.5201C69.6704 45.3628 67.0908 43.8674 65.3735 41.6729C65.072 41.3259 64.7156 40.6118 64.4863 40.2224C62.0973 43.217 58.6142 44.1432 55.1946 42.2933C54.017 41.6779 52.9777 40.7392 52.0692 39.7555L51.4959 40.3347C49.7849 42.0236 47.0308 42.9262 44.6593 42.4006C41.8392 41.799 40.1306 39.2637 39.1412 36.686C37.6769 37.4587 35.7677 38.4011 34.1888 37.4924C32.904 36.7447 32.2958 35.0507 32.155 33.5915L32.0217 32.1797L31.0932 33.2257C29.7449 34.8061 27.23 35.2005 25.7558 33.5266Z" fill="#371A45"/>
<path fill-rule="evenodd" clip-rule="evenodd" d="M64.1872 23.1695L79.4169 6.43506L80.4961 7.44742L65.2004 24.253L64.1872 23.1695Z" fill="#371A45"/>
<path fill-rule="evenodd" clip-rule="evenodd" d="M74.4496 7.02783L86.332 0L80.2269 12.3967L78.9957 7.93034L74.4496 7.02783Z" fill="#FCBC30"/>
<path fill-rule="evenodd" clip-rule="evenodd" d="M86.332 0L80.2269 12.3967L78.9957 7.93034L86.332 0Z" fill="#EC8E22"/>
<path d="M65.3586 24.9558C66.0752 22.8899 65.0433 20.6543 63.0556 19.9627C61.068 19.2712 58.8759 20.3871 58.1606 22.453" fill="white"/>
<path d="M65.3586 24.9557C66.5562 23.6225 66.2497 21.2158 64.9723 19.99C63.6638 18.6206 61.3858 18.3447 59.7969 19.4482C58.7663 20.1348 58.0958 21.3256 58.1606 22.4541C59.4442 20.9986 61.0717 20.4019 62.7167 20.9424C64.3442 21.5354 65.2552 23.0183 65.3586 24.9569V24.9557Z" fill="#E3E3E3"/>
<path d="M63.9803 25.2963C64.9063 23.7185 66.8865 23.1643 68.4043 24.058C69.9222 24.9518 70.4007 26.954 69.4761 28.5319" fill="white"/>
<path d="M63.9803 25.2963C64.1785 23.8084 65.8746 22.6987 67.3476 22.8497C68.9277 22.9408 70.3384 24.2453 70.4992 25.8581C70.6213 26.8879 70.2288 27.9614 69.4761 28.5319C69.7054 26.9241 69.2019 25.5622 67.9669 24.8045C66.7083 24.088 65.2702 24.3102 63.9816 25.2963H63.9803Z" fill="#E3E3E3"/>
<path d="M13.3026 12.0083L30.7581 20.9323C26.2668 13.3727 18.2425 4.31639 13.3026 12.0083Z" fill="#EC8E22"/>
<path d="M12.6284 13.3252C9.32348 21.8684 21.3555 23.0493 30.0838 22.2492L12.6284 13.3252Z" fill="#EC8E22"/>
<path d="M14.3581 12.5829L29.8894 20.517C24.8984 15.3554 17.3515 9.33114 14.3581 12.5829Z" fill="#FCBC30"/>
<path d="M13.7213 13.8711C12.8452 18.2051 22.1456 20.7903 29.2526 21.8052L13.7213 13.8711Z" fill="#FCBC30"/>
<path fill-rule="evenodd" clip-rule="evenodd" d="M13.3026 12.0084L40.7637 26.0129L40.0795 27.3248L12.6284 13.3253C12.5324 13.2791 12.4514 13.0981 12.5361 12.9721L12.9424 12.1682C12.9972 12.0046 13.1692 11.9909 13.3026 12.0071V12.0084Z" fill="#371A45"/>
<path d="M40.6391 30.2519C38.9779 29.4917 38.2239 27.5756 38.9555 25.9716C39.687 24.3675 41.6273 23.6847 43.2885 24.4449" fill="white"/>
<path d="M40.6391 30.2521C39.1411 30.2072 37.865 28.6306 37.8638 27.1489C37.7927 25.5648 38.943 24.0257 40.5269 23.6999C41.5363 23.4727 42.6442 23.7536 43.2872 24.4451C41.6672 24.3814 40.3661 25.0231 39.7405 26.3313C39.1586 27.6594 39.5262 29.0687 40.6378 30.2521H40.6391Z" fill="#E3E3E3"/>
<path d="M54.3759 71.2355C54.4569 71.6898 54.8931 71.9919 55.3517 71.9108C55.8103 71.8297 56.1156 71.3965 56.0358 70.9434C55.9548 70.489 55.5186 70.1869 55.06 70.2681C54.6014 70.3492 54.2961 70.7823 54.3759 71.2355Z" fill="#FD7780"/>
<path d="M57.4353 67.5797C57.5163 68.0341 57.9524 68.3362 58.411 68.255C58.8696 68.1739 59.175 67.7407 59.0952 67.2876C59.0142 66.8332 58.578 66.5312 58.1194 66.6123C57.6608 66.6934 57.3555 67.1266 57.4353 67.5797Z" fill="#FD7780"/>
<path d="M53.4636 64.7447C53.5447 65.1991 53.9808 65.5012 54.4394 65.42C54.898 65.3389 55.2033 64.9057 55.1236 64.4526C55.0438 63.9995 54.6064 63.6962 54.1478 63.7773C53.6892 63.8584 53.3839 64.2916 53.4636 64.7447Z" fill="#FD7780"/>
<path d="M28.8688 58.2833C29.1081 57.8901 28.981 57.3734 28.5847 57.1299C28.1884 56.8865 27.6725 57.0076 27.4332 57.4021C27.1939 57.7953 27.321 58.3121 27.7173 58.5555C28.1136 58.7989 28.6295 58.6778 28.8688 58.2833Z" fill="#FD7780"/>
<path d="M24.1582 58.9938C24.3974 58.6006 24.2703 58.0838 23.874 57.8404C23.4778 57.597 22.9618 57.7181 22.7226 58.1125C22.4833 58.5057 22.6104 59.0225 23.0067 59.2659C23.403 59.5093 23.9189 59.3883 24.1582 58.9938Z" fill="#FD7780"/>
<path d="M25.2624 63.7521C25.5016 63.3589 25.3745 62.8421 24.9782 62.5987C24.5819 62.3553 24.066 62.4764 23.8268 62.8708C23.5875 63.264 23.7146 63.7808 24.1109 64.0242C24.5072 64.2676 25.0231 64.1466 25.2624 63.7521Z" fill="#FD7780"/>
<path d="M44.3116 64.811C44.0811 64.5664 43.7546 64.4253 43.4181 64.4253H35.7179C35.3801 64.4253 35.0549 64.5664 34.8243 64.811C34.5938 65.0557 34.4741 65.3877 34.4978 65.7198C34.6 67.2314 34.9838 68.5297 35.6406 69.5795C36.574 71.0749 38.0009 71.935 39.5561 71.9387H39.5686C41.1151 71.9387 42.5383 71.0911 43.4742 69.6132C44.1434 68.5621 44.5347 67.2514 44.6393 65.7198C44.6618 65.3865 44.5434 65.0544 44.3128 64.8098L44.3116 64.811Z" fill="#371A45"/>
<path d="M43.4355 65.6358C42.4647 67.8028 36.4768 67.8028 35.5047 65.637C35.3701 65.3374 35.5795 64.9942 35.9097 64.9754C38.2937 64.8469 40.669 64.8419 43.0317 64.9742C43.362 64.9929 43.5701 65.3349 43.4355 65.6358Z" fill="white"/>
<path d="M39.4702 67.7282C37.8352 67.7282 35.7042 67.2301 35.0749 65.827C34.9477 65.5449 34.9702 65.2191 35.1322 64.9557C35.2942 64.6936 35.5758 64.5263 35.8849 64.5101C38.3262 64.379 40.7401 64.379 43.058 64.5088C43.3658 64.5263 43.6462 64.6923 43.8082 64.9545C43.9702 65.2179 43.9914 65.5437 43.8655 65.8245C43.2374 67.2276 41.1077 67.7269 39.4739 67.7269H39.4702V67.7282ZM39.5051 65.3452C38.3274 65.3452 37.1348 65.3776 35.9347 65.4425C36.2899 66.2414 37.7442 66.7957 39.4689 66.7957H39.4727C41.1974 66.7957 42.6492 66.2402 43.0044 65.4475V65.445C41.8579 65.3789 40.689 65.3464 39.5038 65.3464L39.5051 65.3452Z" fill="#371A45"/>
<path d="M42.5234 69.005C41.0179 71.3818 38.0881 71.3743 36.5927 68.9788C36.6114 68.9776 36.6301 68.9751 36.6463 68.9726C38.1617 68.7416 39.7219 68.6181 41.2497 68.8028C41.3719 68.8178 42.476 69.0799 42.5234 69.0063V69.005Z" fill="#FC3669"/>
<path d="M31.7811 55.144C34.9375 55.144 37.4962 52.7101 37.4962 49.7078C37.4962 46.7054 34.9375 44.2715 31.7811 44.2715C28.6248 44.2715 26.0661 46.7054 26.0661 49.7078C26.0661 52.7101 28.6248 55.144 31.7811 55.144Z" fill="#371A45"/>
<path d="M34.7807 47.3162C34.5028 47.4947 34.124 47.4261 33.9358 47.1614C33.7476 46.8968 33.8199 46.5373 34.0991 46.3575C34.377 46.179 34.7558 46.2477 34.944 46.5123C35.1322 46.777 35.0599 47.1365 34.7807 47.3162Z" fill="white"/>
<path d="M31.9743 48.5356C32.7283 48.6742 33.2218 49.367 33.0759 50.0847C32.9301 50.8025 32.2011 51.2706 31.4472 51.1333C30.6932 50.9947 30.1997 50.3019 30.3455 49.5842C30.4913 48.8664 31.2204 48.3983 31.9743 48.5356Z" fill="white"/>
<path d="M24.3426 46.7868C24.2516 46.7868 24.1594 46.7593 24.0809 46.7007C23.8852 46.5571 23.8429 46.2825 23.9887 46.089C25.9165 43.5038 28.4513 41.9734 31.5257 41.539C31.7674 41.5053 31.9905 41.6713 32.0254 41.911C32.0603 42.1507 31.892 42.3716 31.6503 42.4066C28.7803 42.8123 26.506 44.1879 24.699 46.6108C24.6118 46.7269 24.4784 46.788 24.3438 46.788L24.3426 46.7868Z" fill="#371A45"/>
<path d="M55.7741 61.1981C59.064 61.1981 61.7309 58.6614 61.7309 55.5322C61.7309 52.4029 59.064 49.8662 55.7741 49.8662C52.4843 49.8662 49.8173 52.4029 49.8173 55.5322C49.8173 58.6614 52.4843 61.1981 55.7741 61.1981Z" fill="#371A45"/>
<path d="M52.6499 53.0382C52.9403 53.2255 53.3341 53.1531 53.531 52.8772C53.7266 52.6013 53.6506 52.2269 53.3615 52.0396C53.0711 51.8524 52.6773 51.9248 52.4804 52.2006C52.2835 52.4765 52.3608 52.851 52.6499 53.0382Z" fill="white"/>
<path d="M55.5735 54.3102C54.7884 54.455 54.2737 55.1778 54.4257 55.9242C54.5778 56.672 55.3367 57.16 56.123 57.0165C56.9082 56.8717 57.4228 56.1489 57.2708 55.4024C57.1188 54.6547 56.3598 54.1666 55.5735 54.3102Z" fill="white"/>
<path d="M63.528 52.4879C63.6227 52.4879 63.7186 52.4592 63.8009 52.3981C64.0053 52.2483 64.0489 51.9624 63.8981 51.7602C61.8892 49.0664 59.246 47.4711 56.0433 47.018C55.7916 46.9818 55.5586 47.1553 55.5224 47.4049C55.4863 47.6546 55.662 47.8855 55.9125 47.9205C58.9046 48.3436 61.2736 49.7767 63.1566 52.3019C63.2463 52.423 63.3859 52.4867 63.5267 52.4867L63.528 52.4879Z" fill="#371A45"/>
<defs>
<clipPath id="clip0_107_5993">
<rect width="78.1316" height="71.917" fill="white" transform="translate(390.575 11)"/>
</clipPath>
</defs>
</svg>
