<svg xmlns="http://www.w3.org/2000/svg" xmlns:xlink="http://www.w3.org/1999/xlink" width="470" zoomAndPan="magnify" viewBox="0 0 352.5 97.5" height="130" preserveAspectRatio="xMidYMid meet" version="1.0"><defs><g/><clipPath id="055e7f658c"><path d="M 0.652344 0 L 48 0 L 48 94 L 0.652344 94 Z M 0.652344 0 " clip-rule="nonzero"/></clipPath></defs><g clip-path="url(#055e7f658c)"><g fill="#000000" fill-opacity="1"><g transform="translate(0.65051, 91.908403)"><g><path d="M 45.21875 -17.3125 C 45.601562 -17.007812 45.851562 -16.601562 45.96875 -16.09375 C 46.082031 -15.59375 46.179688 -15.109375 46.265625 -14.640625 C 46.421875 -12.785156 46.421875 -10.925781 46.265625 -9.0625 C 46.109375 -7.207031 45.914062 -5.347656 45.6875 -3.484375 C 45.601562 -2.867188 45.484375 -2.226562 45.328125 -1.5625 C 45.171875 -0.90625 44.898438 -0.382812 44.515625 0 C 43.972656 0.539062 43.023438 0.945312 41.671875 1.21875 C 40.316406 1.488281 38.921875 1.660156 37.484375 1.734375 C 36.046875 1.816406 34.941406 1.859375 34.171875 1.859375 C 31.078125 1.859375 27.976562 1.859375 24.875 1.859375 C 21.769531 1.859375 18.671875 1.859375 15.578125 1.859375 C 14.335938 1.859375 13.097656 1.835938 11.859375 1.796875 C 10.617188 1.765625 9.378906 1.707031 8.140625 1.625 C 7.054688 1.46875 5.96875 1.210938 4.875 0.859375 C 3.789062 0.515625 2.898438 -0.0390625 2.203125 -0.8125 C 1.742188 -1.4375 1.4375 -2.132812 1.28125 -2.90625 C 1.125 -3.675781 0.96875 -4.453125 0.8125 -5.234375 C 0.269531 -10.421875 0.0546875 -15.6875 0.171875 -21.03125 C 0.285156 -26.382812 0.382812 -31.65625 0.46875 -36.84375 C 0.625 -40.71875 0.773438 -44.570312 0.921875 -48.40625 C 1.078125 -52.25 1.117188 -56.066406 1.046875 -59.859375 C 0.972656 -63.890625 0.894531 -67.921875 0.8125 -71.953125 C 0.738281 -75.984375 1.085938 -79.972656 1.859375 -83.921875 C 2.085938 -84.929688 2.375 -85.921875 2.71875 -86.890625 C 3.070312 -87.859375 3.640625 -88.648438 4.421875 -89.265625 C 5.421875 -90.273438 6.925781 -90.929688 8.9375 -91.234375 C 10.957031 -91.546875 12.628906 -91.703125 13.953125 -91.703125 C 15.492188 -91.703125 17.082031 -91.585938 18.71875 -91.359375 C 19.175781 -91.285156 19.617188 -91.171875 20.046875 -91.015625 C 20.472656 -90.859375 20.878906 -90.703125 21.265625 -90.546875 C 22.347656 -89.304688 22.945312 -87.988281 23.0625 -86.59375 C 23.1875 -85.195312 23.171875 -83.765625 23.015625 -82.296875 C 22.859375 -81.054688 22.78125 -79.773438 22.78125 -78.453125 C 22.78125 -77.140625 22.78125 -75.820312 22.78125 -74.5 C 22.78125 -71.5625 22.78125 -68.617188 22.78125 -65.671875 C 22.78125 -62.722656 22.78125 -59.78125 22.78125 -56.84375 C 22.78125 -53.269531 22.796875 -49.703125 22.828125 -46.140625 C 22.867188 -42.578125 22.851562 -38.972656 22.78125 -35.328125 C 22.707031 -32.847656 22.535156 -30.347656 22.265625 -27.828125 C 21.992188 -25.316406 21.894531 -22.78125 21.96875 -20.21875 C 21.96875 -20.144531 22.023438 -19.875 22.140625 -19.40625 C 22.253906 -18.945312 22.390625 -18.71875 22.546875 -18.71875 C 22.773438 -18.5625 23.023438 -18.460938 23.296875 -18.421875 C 23.578125 -18.378906 23.867188 -18.359375 24.171875 -18.359375 C 26.191406 -18.441406 28.226562 -18.539062 30.28125 -18.65625 C 32.332031 -18.769531 34.363281 -18.828125 36.375 -18.828125 C 37.3125 -18.828125 38.242188 -18.828125 39.171875 -18.828125 C 40.097656 -18.828125 41.023438 -18.75 41.953125 -18.59375 C 42.578125 -18.519531 43.179688 -18.40625 43.765625 -18.25 C 44.347656 -18.09375 44.832031 -17.78125 45.21875 -17.3125 Z M 45.21875 -17.3125 "/></g></g></g></g><g fill="#000000" fill-opacity="1"><g transform="translate(49.462881, 91.908403)"><g><path d="M 39.875 -9.0625 C 39.40625 -7.125 38.585938 -5.628906 37.421875 -4.578125 C 36.265625 -3.535156 34.675781 -2.820312 32.65625 -2.4375 C 31.34375 -2.207031 30.007812 -2.070312 28.65625 -2.03125 C 27.300781 -1.988281 25.960938 -1.929688 24.640625 -1.859375 C 23.085938 -1.785156 21.515625 -1.613281 19.921875 -1.34375 C 18.335938 -1.070312 16.773438 -0.894531 15.234375 -0.8125 C 14.992188 -0.8125 14.757812 -0.8125 14.53125 -0.8125 C 14.300781 -0.8125 14.03125 -0.8125 13.71875 -0.8125 C 9.6875 -0.8125 6.703125 -1.796875 4.765625 -3.765625 C 2.828125 -5.742188 1.546875 -8.285156 0.921875 -11.390625 C 0.304688 -14.492188 0 -17.707031 0 -21.03125 C 0 -26.226562 0.113281 -31.363281 0.34375 -36.4375 C 0.582031 -41.507812 0.894531 -46.644531 1.28125 -51.84375 C 1.4375 -53.625 1.585938 -55.363281 1.734375 -57.0625 C 1.890625 -58.769531 2.007812 -60.476562 2.09375 -62.1875 C 2.164062 -63.425781 2.222656 -64.664062 2.265625 -65.90625 C 2.304688 -67.144531 2.363281 -68.382812 2.4375 -69.625 C 2.519531 -70.007812 2.597656 -70.414062 2.671875 -70.84375 C 2.753906 -71.269531 2.867188 -71.640625 3.015625 -71.953125 C 3.410156 -72.804688 3.78125 -73.65625 4.125 -74.5 C 4.476562 -75.351562 4.882812 -76.171875 5.34375 -76.953125 C 5.96875 -78.109375 6.820312 -78.976562 7.90625 -79.5625 C 8.988281 -80.144531 10.148438 -80.472656 11.390625 -80.546875 C 13.867188 -80.785156 16.3125 -80.90625 18.71875 -80.90625 C 20.726562 -80.90625 22.78125 -80.828125 24.875 -80.671875 C 26.96875 -80.515625 28.984375 -80.28125 30.921875 -79.96875 C 31.921875 -79.894531 32.90625 -79.738281 33.875 -79.5 C 34.84375 -79.269531 35.832031 -79.039062 36.84375 -78.8125 C 38.238281 -78.34375 39.25 -77.453125 39.875 -76.140625 C 40.570312 -74.117188 41.128906 -72.234375 41.546875 -70.484375 C 41.972656 -68.742188 42.34375 -66.753906 42.65625 -64.515625 C 42.738281 -63.816406 42.738281 -63.078125 42.65625 -62.296875 C 42.582031 -61.523438 42.503906 -60.753906 42.421875 -59.984375 C 42.421875 -58.117188 42.421875 -56.234375 42.421875 -54.328125 C 42.421875 -52.429688 42.421875 -50.554688 42.421875 -48.703125 C 42.347656 -47.773438 42.289062 -46.84375 42.25 -45.90625 C 42.207031 -44.976562 42.148438 -44.085938 42.078125 -43.234375 C 41.992188 -41.765625 41.914062 -40.273438 41.84375 -38.765625 C 41.769531 -37.253906 41.734375 -35.765625 41.734375 -34.296875 C 41.578125 -30.421875 41.457031 -26.546875 41.375 -22.671875 C 41.300781 -18.796875 40.914062 -14.921875 40.21875 -11.046875 C 40.132812 -10.734375 40.070312 -10.421875 40.03125 -10.109375 C 40 -9.796875 39.945312 -9.445312 39.875 -9.0625 Z M 24.53125 -59.515625 C 23.988281 -60.285156 23.132812 -60.671875 21.96875 -60.671875 C 20.726562 -60.671875 19.738281 -60.34375 19 -59.6875 C 18.269531 -59.03125 17.90625 -58.039062 17.90625 -56.71875 C 17.820312 -55.5625 17.757812 -54.398438 17.71875 -53.234375 C 17.6875 -52.066406 17.671875 -50.863281 17.671875 -49.625 C 17.671875 -47.382812 17.785156 -45.140625 18.015625 -42.890625 C 18.171875 -40.253906 18.148438 -37.597656 17.953125 -34.921875 C 17.765625 -32.253906 17.628906 -29.5625 17.546875 -26.84375 C 17.472656 -25.914062 17.453125 -24.96875 17.484375 -24 C 17.523438 -23.03125 17.585938 -22.082031 17.671875 -21.15625 C 17.742188 -20.382812 18.128906 -19.765625 18.828125 -19.296875 C 19.523438 -18.828125 20.257812 -18.59375 21.03125 -18.59375 C 21.5 -18.75 21.960938 -18.882812 22.421875 -19 C 22.890625 -19.113281 23.359375 -19.25 23.828125 -19.40625 C 24.367188 -19.644531 24.8125 -19.9375 25.15625 -20.28125 C 25.507812 -20.632812 25.722656 -21.117188 25.796875 -21.734375 C 25.953125 -22.585938 26.03125 -23.457031 26.03125 -24.34375 C 26.03125 -25.238281 26.03125 -26.113281 26.03125 -26.96875 C 26.113281 -27.820312 26.132812 -28.671875 26.09375 -29.515625 C 26.050781 -30.367188 26.03125 -31.1875 26.03125 -31.96875 C 26.113281 -33.125 26.191406 -34.28125 26.265625 -35.4375 C 26.347656 -36.601562 26.347656 -37.769531 26.265625 -38.9375 C 26.191406 -41.1875 26.113281 -43.414062 26.03125 -45.625 C 25.957031 -47.832031 25.84375 -50.019531 25.6875 -52.1875 C 25.613281 -53.425781 25.515625 -54.664062 25.390625 -55.90625 C 25.273438 -57.144531 24.988281 -58.347656 24.53125 -59.515625 Z M 24.53125 -59.515625 "/></g></g></g><g fill="#000000" fill-opacity="1"><g transform="translate(94.556175, 91.908403)"><g><path d="M 51.84375 -8.015625 C 51.914062 -7.242188 51.953125 -6.453125 51.953125 -5.640625 C 51.953125 -4.828125 51.757812 -4.070312 51.375 -3.375 C 50.988281 -2.4375 50.328125 -1.734375 49.390625 -1.265625 C 48.460938 -0.804688 47.5 -0.421875 46.5 -0.109375 C 44.5625 0.347656 42.503906 0.578125 40.328125 0.578125 C 36.847656 0.578125 34.625 -0.347656 33.65625 -2.203125 C 32.6875 -4.066406 32.203125 -6.546875 32.203125 -9.640625 C 32.203125 -10.878906 31.925781 -11.710938 31.375 -12.140625 C 30.832031 -12.566406 30.019531 -12.78125 28.9375 -12.78125 C 28.007812 -12.78125 27.082031 -12.78125 26.15625 -12.78125 C 25.226562 -12.78125 24.296875 -12.78125 23.359375 -12.78125 C 23.046875 -12.78125 22.734375 -12.78125 22.421875 -12.78125 C 22.117188 -12.78125 21.8125 -12.703125 21.5 -12.546875 C 20.957031 -12.242188 20.570312 -11.820312 20.34375 -11.28125 C 20.113281 -10.738281 19.921875 -10.15625 19.765625 -9.53125 C 18.984375 -6.738281 18.03125 -4.429688 16.90625 -2.609375 C 15.789062 -0.796875 13.644531 0.109375 10.46875 0.109375 C 9.53125 0.109375 8.613281 0.0859375 7.71875 0.046875 C 6.832031 0.015625 5.925781 -0.0351562 5 -0.109375 C 3.445312 -0.265625 2.222656 -0.710938 1.328125 -1.453125 C 0.441406 -2.191406 0 -3.410156 0 -5.109375 C 0.0703125 -7.203125 0.378906 -9.296875 0.921875 -11.390625 C 1.472656 -13.484375 2.019531 -15.5 2.5625 -17.4375 C 3.40625 -20.382812 4.253906 -23.328125 5.109375 -26.265625 C 5.960938 -29.210938 6.78125 -32.195312 7.5625 -35.21875 C 8.25 -37.695312 8.804688 -40.210938 9.234375 -42.765625 C 9.660156 -45.328125 10.144531 -47.847656 10.6875 -50.328125 C 11.625 -54.671875 12.613281 -59.03125 13.65625 -63.40625 C 14.707031 -67.78125 15.925781 -72.097656 17.3125 -76.359375 C 17.46875 -76.828125 17.640625 -77.3125 17.828125 -77.8125 C 18.023438 -78.320312 18.28125 -78.769531 18.59375 -79.15625 C 19.375 -80.082031 20.5 -80.738281 21.96875 -81.125 C 23.4375 -81.519531 24.984375 -81.753906 26.609375 -81.828125 C 28.242188 -81.898438 29.601562 -81.9375 30.6875 -81.9375 C 34.332031 -81.9375 36.789062 -81.179688 38.0625 -79.671875 C 39.34375 -78.160156 40.21875 -75.703125 40.6875 -72.296875 C 40.914062 -70.828125 41.179688 -69.375 41.484375 -67.9375 C 41.796875 -66.5 42.070312 -65.046875 42.3125 -63.578125 C 42.539062 -61.867188 42.734375 -60.179688 42.890625 -58.515625 C 43.046875 -56.859375 43.359375 -55.210938 43.828125 -53.578125 C 44.210938 -52.492188 44.5 -51.390625 44.6875 -50.265625 C 44.882812 -49.148438 45.097656 -48.046875 45.328125 -46.953125 C 45.484375 -46.023438 45.675781 -45.097656 45.90625 -44.171875 C 46.144531 -43.242188 46.378906 -42.3125 46.609375 -41.375 C 47.234375 -38.894531 47.640625 -36.375 47.828125 -33.8125 C 48.023438 -31.257812 48.394531 -28.707031 48.9375 -26.15625 C 49.550781 -23.207031 50.109375 -20.222656 50.609375 -17.203125 C 51.117188 -14.179688 51.53125 -11.117188 51.84375 -8.015625 Z M 29.171875 -27.078125 C 29.710938 -27.316406 29.90625 -27.785156 29.75 -28.484375 C 29.675781 -31.191406 29.425781 -33.84375 29 -36.4375 C 28.570312 -39.03125 28.050781 -41.644531 27.4375 -44.28125 C 27.4375 -44.28125 27.414062 -44.28125 27.375 -44.28125 C 27.332031 -44.28125 27.273438 -44.28125 27.203125 -44.28125 C 27.046875 -44.28125 26.789062 -43.738281 26.4375 -42.65625 C 26.09375 -41.570312 25.765625 -40.445312 25.453125 -39.28125 C 25.140625 -38.125 24.945312 -37.425781 24.875 -37.1875 C 24.40625 -35.800781 23.976562 -34.410156 23.59375 -33.015625 C 23.207031 -31.617188 22.972656 -30.179688 22.890625 -28.703125 C 22.742188 -28.160156 22.820312 -27.738281 23.125 -27.4375 C 23.363281 -27.195312 23.832031 -27.078125 24.53125 -27.078125 C 25.144531 -27.078125 25.800781 -27.054688 26.5 -27.015625 C 27.195312 -26.984375 27.859375 -26.96875 28.484375 -26.96875 C 28.785156 -26.96875 29.015625 -27.003906 29.171875 -27.078125 Z M 29.171875 -27.078125 "/></g></g></g><g fill="#000000" fill-opacity="1"><g transform="translate(148.947036, 91.908403)"><g><path d="M 17.671875 -81.9375 C 18.828125 -82.019531 19.984375 -82.078125 21.140625 -82.109375 C 22.304688 -82.148438 23.472656 -82.171875 24.640625 -82.171875 C 27.585938 -82.171875 30.378906 -81.53125 33.015625 -80.25 C 35.648438 -78.976562 37.429688 -76.753906 38.359375 -73.578125 C 39.210938 -71.328125 39.867188 -69.039062 40.328125 -66.71875 C 40.796875 -64.394531 40.953125 -61.992188 40.796875 -59.515625 C 40.722656 -56.648438 40.742188 -53.800781 40.859375 -50.96875 C 40.972656 -48.132812 41.066406 -45.285156 41.140625 -42.421875 C 41.296875 -40.253906 41.238281 -38.082031 40.96875 -35.90625 C 40.695312 -33.738281 40.367188 -31.570312 39.984375 -29.40625 C 39.910156 -28.632812 39.8125 -27.820312 39.6875 -26.96875 C 39.570312 -26.113281 39.398438 -25.257812 39.171875 -24.40625 C 38.703125 -22.707031 38.195312 -20.960938 37.65625 -19.171875 C 37.113281 -17.390625 36.570312 -15.609375 36.03125 -13.828125 C 36.03125 -13.753906 35.988281 -13.617188 35.90625 -13.421875 C 35.832031 -13.234375 35.757812 -13.0625 35.6875 -12.90625 C 34.519531 -11.039062 33.21875 -9.332031 31.78125 -7.78125 C 30.351562 -6.238281 28.632812 -5.039062 26.625 -4.1875 C 25.84375 -3.875 25.082031 -3.539062 24.34375 -3.1875 C 23.613281 -2.84375 22.898438 -2.476562 22.203125 -2.09375 C 21.191406 -1.550781 20.101562 -1.160156 18.9375 -0.921875 C 17.78125 -0.691406 16.660156 -0.5 15.578125 -0.34375 C 14.023438 -0.1875 12.453125 -0.0703125 10.859375 0 C 9.273438 0.0703125 7.707031 0.148438 6.15625 0.234375 C 4.757812 0.234375 3.5 -0.0546875 2.375 -0.640625 C 1.257812 -1.222656 0.660156 -2.328125 0.578125 -3.953125 C 0.503906 -4.179688 0.46875 -4.566406 0.46875 -5.109375 C 0.625 -6.347656 0.660156 -7.585938 0.578125 -8.828125 C 0.503906 -10.066406 0.425781 -11.304688 0.34375 -12.546875 C 0.269531 -15.578125 0.210938 -18.582031 0.171875 -21.5625 C 0.128906 -24.539062 0.109375 -27.539062 0.109375 -30.5625 C 0.0351562 -32.113281 0 -33.664062 0 -35.21875 C 0 -36.769531 0.15625 -38.320312 0.46875 -39.875 C 0.46875 -40.101562 0.46875 -40.332031 0.46875 -40.5625 C 0.46875 -40.800781 0.46875 -41.035156 0.46875 -41.265625 C 0.15625 -43.742188 0 -46.222656 0 -48.703125 C 0 -51.179688 0.0351562 -53.625 0.109375 -56.03125 C 0.191406 -58.738281 0.289062 -61.445312 0.40625 -64.15625 C 0.519531 -66.875 0.617188 -69.550781 0.703125 -72.1875 C 0.773438 -72.957031 0.789062 -73.707031 0.75 -74.4375 C 0.71875 -75.175781 0.738281 -75.894531 0.8125 -76.59375 C 0.96875 -77.832031 1.453125 -78.878906 2.265625 -79.734375 C 3.078125 -80.585938 4.066406 -81.09375 5.234375 -81.25 C 7.242188 -81.632812 9.296875 -81.84375 11.390625 -81.875 C 13.484375 -81.914062 15.578125 -81.9375 17.671875 -81.9375 Z M 17.3125 -17.4375 C 18.863281 -17.820312 20.378906 -18.519531 21.859375 -19.53125 C 22.941406 -20.382812 23.632812 -21.429688 23.9375 -22.671875 C 24.175781 -23.515625 24.351562 -24.363281 24.46875 -25.21875 C 24.582031 -26.070312 24.601562 -26.960938 24.53125 -27.890625 C 24.53125 -28.285156 24.53125 -28.710938 24.53125 -29.171875 C 24.53125 -29.640625 24.566406 -30.101562 24.640625 -30.5625 C 24.796875 -31.957031 24.953125 -33.332031 25.109375 -34.6875 C 25.265625 -36.050781 25.300781 -37.46875 25.21875 -38.9375 C 25.144531 -39.25 25.125 -39.578125 25.15625 -39.921875 C 25.195312 -40.273438 25.257812 -40.609375 25.34375 -40.921875 C 25.644531 -42.460938 25.816406 -43.988281 25.859375 -45.5 C 25.898438 -47.007812 25.878906 -48.539062 25.796875 -50.09375 C 25.722656 -52.34375 25.664062 -54.609375 25.625 -56.890625 C 25.59375 -59.179688 25.5 -61.453125 25.34375 -63.703125 C 25.34375 -63.773438 25.34375 -63.828125 25.34375 -63.859375 C 25.34375 -63.898438 25.34375 -63.960938 25.34375 -64.046875 C 25.03125 -66.054688 24.503906 -67.332031 23.765625 -67.875 C 23.035156 -68.414062 21.660156 -68.6875 19.640625 -68.6875 C 19.410156 -68.6875 19.175781 -68.6875 18.9375 -68.6875 C 18.707031 -68.6875 18.476562 -68.6875 18.25 -68.6875 C 18.164062 -68.382812 18.125 -68.097656 18.125 -67.828125 C 18.125 -67.554688 18.085938 -67.265625 18.015625 -66.953125 C 18.015625 -63.148438 17.972656 -59.390625 17.890625 -55.671875 C 17.816406 -51.953125 17.703125 -48.195312 17.546875 -44.40625 C 17.472656 -41.84375 17.378906 -39.300781 17.265625 -36.78125 C 17.148438 -34.269531 17.050781 -31.734375 16.96875 -29.171875 C 16.894531 -27.316406 16.894531 -25.476562 16.96875 -23.65625 C 17.050781 -21.832031 17.128906 -20.03125 17.203125 -18.25 C 17.203125 -17.9375 17.238281 -17.664062 17.3125 -17.4375 Z M 17.3125 -17.4375 "/></g></g></g><g fill="#000000" fill-opacity="1"><g transform="translate(192.529468, 91.908403)"><g><path d="M 0 -32.421875 C 0.15625 -34.441406 0.289062 -36.984375 0.40625 -40.046875 C 0.519531 -43.109375 0.695312 -46.226562 0.9375 -49.40625 C 1.082031 -50.945312 1.253906 -52.492188 1.453125 -54.046875 C 1.648438 -55.597656 1.785156 -57.148438 1.859375 -58.703125 C 2.015625 -60.484375 2.109375 -62.28125 2.140625 -64.09375 C 2.179688 -65.914062 2.28125 -67.722656 2.4375 -69.515625 C 2.59375 -70.984375 2.765625 -72.429688 2.953125 -73.859375 C 3.148438 -75.296875 3.519531 -76.710938 4.0625 -78.109375 C 4.757812 -79.816406 6 -80.707031 7.78125 -80.78125 C 8.71875 -80.78125 9.648438 -80.835938 10.578125 -80.953125 C 11.503906 -81.066406 12.429688 -81.164062 13.359375 -81.25 C 14.210938 -81.320312 15.023438 -81.359375 15.796875 -81.359375 C 16.578125 -81.359375 17.351562 -81.359375 18.125 -81.359375 C 19.832031 -81.203125 20.765625 -80.234375 20.921875 -78.453125 C 20.992188 -77.523438 21.03125 -76.578125 21.03125 -75.609375 C 21.03125 -74.640625 21.03125 -73.648438 21.03125 -72.640625 C 21.03125 -62.953125 20.914062 -53.269531 20.6875 -43.59375 C 20.613281 -41.882812 20.578125 -40.15625 20.578125 -38.40625 C 20.578125 -36.664062 20.535156 -34.90625 20.453125 -33.125 C 20.453125 -32.8125 20.453125 -32.519531 20.453125 -32.25 C 20.453125 -31.976562 20.375 -31.691406 20.21875 -31.390625 C 19.914062 -30.378906 19.78125 -29.3125 19.8125 -28.1875 C 19.851562 -27.0625 19.835938 -25.957031 19.765625 -24.875 C 19.765625 -23.707031 19.742188 -22.523438 19.703125 -21.328125 C 19.660156 -20.128906 19.523438 -18.910156 19.296875 -17.671875 C 19.210938 -16.816406 19.171875 -15.921875 19.171875 -14.984375 C 19.171875 -14.054688 19.132812 -13.128906 19.0625 -12.203125 C 19.0625 -11.347656 19.0625 -10.457031 19.0625 -9.53125 C 19.0625 -8.601562 19.0625 -7.671875 19.0625 -6.734375 C 19.0625 -4.722656 18.207031 -3.0625 16.5 -1.75 C 16.34375 -1.664062 16.1875 -1.566406 16.03125 -1.453125 C 15.882812 -1.335938 15.734375 -1.238281 15.578125 -1.15625 C 14.722656 -0.925781 13.828125 -0.691406 12.890625 -0.453125 C 11.960938 -0.222656 11 -0.109375 10 -0.109375 C 9.21875 -0.109375 8.40625 -0.226562 7.5625 -0.46875 C 7.164062 -0.625 6.71875 -0.738281 6.21875 -0.8125 C 5.71875 -0.894531 5.269531 -1.007812 4.875 -1.15625 C 2.164062 -2.320312 0.695312 -4.414062 0.46875 -7.4375 C 0.15625 -11.15625 0.0351562 -15.007812 0.109375 -19 C 0.191406 -22.988281 0.15625 -27.460938 0 -32.421875 Z M 0 -32.421875 "/></g></g></g><g fill="#000000" fill-opacity="1"><g transform="translate(215.889665, 91.908403)"><g><path d="M 19.171875 -53.8125 C 19.171875 -48.15625 19.132812 -42.519531 19.0625 -36.90625 C 18.988281 -31.289062 18.796875 -25.65625 18.484375 -20 C 18.398438 -17.507812 18.28125 -15.003906 18.125 -12.484375 C 17.976562 -9.972656 17.828125 -7.476562 17.671875 -5 C 17.671875 -4.84375 17.648438 -4.6875 17.609375 -4.53125 C 17.566406 -4.375 17.546875 -4.21875 17.546875 -4.0625 C 17.472656 -2.125 16.46875 -0.925781 14.53125 -0.46875 C 13.832031 -0.382812 13.132812 -0.207031 12.4375 0.0625 C 11.738281 0.332031 11.039062 0.46875 10.34375 0.46875 C 9.957031 0.46875 9.6875 0.425781 9.53125 0.34375 C 8.601562 0.1875 7.710938 -0.00390625 6.859375 -0.234375 C 6.003906 -0.460938 5.148438 -0.769531 4.296875 -1.15625 C 1.972656 -2.09375 0.695312 -3.914062 0.46875 -6.625 C 0.15625 -11.96875 0.015625 -17.289062 0.046875 -22.59375 C 0.0859375 -27.90625 0.148438 -33.195312 0.234375 -38.46875 C 0.304688 -41.1875 0.457031 -43.898438 0.6875 -46.609375 C 0.925781 -49.316406 1.160156 -52.03125 1.390625 -54.75 C 1.628906 -56.988281 1.804688 -59.234375 1.921875 -61.484375 C 2.035156 -63.734375 2.171875 -65.984375 2.328125 -68.234375 C 2.484375 -69.628906 2.632812 -71.039062 2.78125 -72.46875 C 2.9375 -73.90625 3.09375 -75.320312 3.25 -76.71875 C 3.40625 -77.257812 3.578125 -77.78125 3.765625 -78.28125 C 3.960938 -78.789062 4.140625 -79.273438 4.296875 -79.734375 C 4.921875 -81.054688 5.890625 -81.753906 7.203125 -81.828125 C 7.828125 -81.898438 8.410156 -81.9375 8.953125 -81.9375 C 9.492188 -81.9375 10.035156 -81.9375 10.578125 -81.9375 C 11.890625 -81.9375 13.109375 -81.835938 14.234375 -81.640625 C 15.359375 -81.453125 16.539062 -81.207031 17.78125 -80.90625 C 18.863281 -79.039062 19.910156 -77.195312 20.921875 -75.375 C 21.929688 -73.550781 23.015625 -71.75 24.171875 -69.96875 C 25.335938 -68.269531 26.578125 -66.601562 27.890625 -64.96875 C 29.210938 -63.34375 30.570312 -61.640625 31.96875 -59.859375 C 31.96875 -60.242188 31.984375 -60.550781 32.015625 -60.78125 C 32.054688 -61.019531 32.078125 -61.253906 32.078125 -61.484375 C 32.234375 -63.265625 32.347656 -65.082031 32.421875 -66.9375 C 32.503906 -68.800781 32.582031 -70.625 32.65625 -72.40625 C 32.8125 -73.570312 32.96875 -74.734375 33.125 -75.890625 C 33.28125 -77.054688 33.628906 -78.179688 34.171875 -79.265625 C 34.867188 -80.972656 36.109375 -81.863281 37.890625 -81.9375 C 39.597656 -81.9375 41.265625 -81.898438 42.890625 -81.828125 C 44.515625 -81.753906 46.140625 -81.445312 47.765625 -80.90625 C 49.003906 -79.664062 49.601562 -78.328125 49.5625 -76.890625 C 49.53125 -75.453125 49.476562 -74 49.40625 -72.53125 C 49.320312 -72.21875 49.257812 -71.847656 49.21875 -71.421875 C 49.1875 -70.992188 49.171875 -70.585938 49.171875 -70.203125 C 49.171875 -67.335938 49.1875 -64.429688 49.21875 -61.484375 C 49.257812 -58.546875 49.28125 -55.601562 49.28125 -52.65625 C 49.28125 -49.394531 49.300781 -46.117188 49.34375 -42.828125 C 49.382812 -39.535156 49.363281 -36.222656 49.28125 -32.890625 C 49.207031 -30.179688 49.070312 -27.46875 48.875 -24.75 C 48.6875 -22.039062 48.4375 -19.332031 48.125 -16.625 C 47.96875 -14.914062 47.90625 -13.207031 47.9375 -11.5 C 47.976562 -9.800781 47.921875 -8.0625 47.765625 -6.28125 C 47.691406 -5.738281 47.632812 -5.191406 47.59375 -4.640625 C 47.5625 -4.097656 47.503906 -3.519531 47.421875 -2.90625 C 47.265625 -1.976562 46.757812 -1.320312 45.90625 -0.9375 C 44.820312 -0.625 43.816406 -0.332031 42.890625 -0.0625 C 41.960938 0.207031 40.914062 0.34375 39.75 0.34375 C 38.820312 0.1875 37.910156 -0.00390625 37.015625 -0.234375 C 36.128906 -0.460938 35.257812 -0.769531 34.40625 -1.15625 C 32 -2.164062 30.71875 -4.101562 30.5625 -6.96875 C 30.257812 -11.78125 30.144531 -16.585938 30.21875 -21.390625 C 30.300781 -26.191406 30.300781 -30.992188 30.21875 -35.796875 C 30.21875 -36.421875 29.789062 -37.46875 28.9375 -38.9375 C 28.082031 -40.40625 27.171875 -41.875 26.203125 -43.34375 C 25.242188 -44.820312 24.566406 -45.796875 24.171875 -46.265625 C 23.398438 -47.347656 22.679688 -48.46875 22.015625 -49.625 C 21.359375 -50.789062 20.6875 -51.957031 20 -53.125 C 19.914062 -53.269531 19.71875 -53.5 19.40625 -53.8125 C 19.40625 -53.8125 19.382812 -53.8125 19.34375 -53.8125 C 19.3125 -53.8125 19.253906 -53.8125 19.171875 -53.8125 Z M 19.171875 -53.8125 "/></g></g></g><g fill="#000000" fill-opacity="1"><g transform="translate(267.839916, 91.908403)"><g><path d="M 41.953125 -54.515625 C 40.953125 -54.128906 39.484375 -53.800781 37.546875 -53.53125 C 35.609375 -53.257812 33.75 -53.125 31.96875 -53.125 C 30.957031 -53.125 30.046875 -53.160156 29.234375 -53.234375 C 28.421875 -53.304688 27.78125 -53.460938 27.3125 -53.703125 C 27 -54.316406 26.785156 -55.007812 26.671875 -55.78125 C 26.554688 -56.5625 26.5 -57.335938 26.5 -58.109375 C 26.5 -58.890625 26.5 -59.644531 26.5 -60.375 C 26.5 -61.113281 26.5 -61.875 26.5 -62.65625 C 25.957031 -62.726562 25.429688 -62.765625 24.921875 -62.765625 C 24.421875 -62.765625 23.941406 -62.765625 23.484375 -62.765625 C 22.703125 -62.765625 21.941406 -62.722656 21.203125 -62.640625 C 20.472656 -62.566406 19.722656 -62.375 18.953125 -62.0625 C 18.328125 -60.976562 18.015625 -59.9375 18.015625 -58.9375 C 17.941406 -56.84375 17.882812 -54.75 17.84375 -52.65625 C 17.800781 -50.5625 17.742188 -48.46875 17.671875 -46.375 C 17.671875 -46.144531 17.6875 -45.910156 17.71875 -45.671875 C 17.757812 -45.441406 17.742188 -45.25 17.671875 -45.09375 C 17.429688 -44.394531 17.582031 -43.660156 18.125 -42.890625 C 18.59375 -42.660156 19.0625 -42.546875 19.53125 -42.546875 C 19.757812 -42.546875 20.007812 -42.5625 20.28125 -42.59375 C 20.550781 -42.632812 20.800781 -42.65625 21.03125 -42.65625 C 22.039062 -42.8125 23.050781 -42.925781 24.0625 -43 C 25.070312 -43.082031 26.078125 -43.125 27.078125 -43.125 C 28.398438 -43.125 29.757812 -43.082031 31.15625 -43 C 32.550781 -42.925781 33.90625 -42.773438 35.21875 -42.546875 C 38.164062 -42.148438 39.789062 -40.640625 40.09375 -38.015625 C 40.40625 -35.921875 40.65625 -33.828125 40.84375 -31.734375 C 41.039062 -29.640625 41.101562 -27.546875 41.03125 -25.453125 C 41.03125 -23.054688 41.03125 -20.65625 41.03125 -18.25 C 41.03125 -15.84375 41.03125 -13.441406 41.03125 -11.046875 C 41.03125 -9.722656 40.914062 -8.40625 40.6875 -7.09375 C 40.53125 -6.082031 40.0625 -5.226562 39.28125 -4.53125 C 38.039062 -3.375 36.878906 -2.597656 35.796875 -2.203125 C 34.710938 -1.816406 33.359375 -1.625 31.734375 -1.625 C 29.566406 -1.625 27.4375 -1.507812 25.34375 -1.28125 C 23.25 -1.050781 21.15625 -0.859375 19.0625 -0.703125 C 16.738281 -0.460938 14.414062 -0.34375 12.09375 -0.34375 C 10.613281 -0.34375 8.984375 -0.457031 7.203125 -0.6875 C 5.421875 -0.925781 3.910156 -1.507812 2.671875 -2.4375 C 1.429688 -3.363281 0.734375 -4.796875 0.578125 -6.734375 C 0.265625 -11.390625 0.109375 -16.039062 0.109375 -20.6875 C 0.109375 -25.332031 0.148438 -29.984375 0.234375 -34.640625 C 0.234375 -36.960938 0.3125 -39.304688 0.46875 -41.671875 C 0.625 -44.035156 0.78125 -46.378906 0.9375 -48.703125 C 1.007812 -50.015625 1.140625 -51.328125 1.328125 -52.640625 C 1.523438 -53.960938 1.664062 -55.242188 1.75 -56.484375 C 1.894531 -58.347656 2.003906 -60.226562 2.078125 -62.125 C 2.160156 -64.019531 2.242188 -65.898438 2.328125 -67.765625 C 2.554688 -70.628906 2.90625 -73.34375 3.375 -75.90625 C 3.53125 -77.445312 4.050781 -78.644531 4.9375 -79.5 C 5.832031 -80.351562 7.015625 -80.972656 8.484375 -81.359375 C 9.804688 -81.742188 11.160156 -81.957031 12.546875 -82 C 13.941406 -82.039062 15.335938 -82.097656 16.734375 -82.171875 C 19.523438 -82.171875 22.332031 -82.148438 25.15625 -82.109375 C 27.988281 -82.078125 30.800781 -82.019531 33.59375 -81.9375 C 35.144531 -81.863281 36.734375 -81.632812 38.359375 -81.25 C 40.066406 -81.019531 41.265625 -80.085938 41.953125 -78.453125 C 42.109375 -77.910156 42.320312 -77.40625 42.59375 -76.9375 C 42.863281 -76.476562 43.039062 -76.015625 43.125 -75.546875 C 43.28125 -75.003906 43.394531 -74.441406 43.46875 -73.859375 C 43.550781 -73.285156 43.515625 -72.765625 43.359375 -72.296875 C 43.046875 -71.054688 42.90625 -69.851562 42.9375 -68.6875 C 42.976562 -67.53125 42.925781 -66.367188 42.78125 -65.203125 C 42.695312 -63.960938 42.65625 -62.679688 42.65625 -61.359375 C 42.65625 -60.046875 42.578125 -58.734375 42.421875 -57.421875 C 42.421875 -56.878906 42.363281 -56.375 42.25 -55.90625 C 42.132812 -55.445312 42.035156 -54.984375 41.953125 -54.515625 Z M 17.546875 -26.390625 C 17.390625 -24.992188 17.289062 -23.613281 17.25 -22.25 C 17.21875 -20.894531 17.28125 -19.5625 17.4375 -18.25 C 17.664062 -16.625 18.476562 -15.691406 19.875 -15.453125 C 20.1875 -15.453125 20.476562 -15.429688 20.75 -15.390625 C 21.019531 -15.359375 21.3125 -15.34375 21.625 -15.34375 C 22.007812 -15.34375 22.414062 -15.359375 22.84375 -15.390625 C 23.269531 -15.429688 23.675781 -15.492188 24.0625 -15.578125 C 25.457031 -15.648438 26.234375 -16.460938 26.390625 -18.015625 C 26.546875 -18.867188 26.625 -19.722656 26.625 -20.578125 C 26.625 -21.429688 26.625 -22.242188 26.625 -23.015625 C 26.625 -24.097656 26.195312 -24.867188 25.34375 -25.328125 C 24.488281 -25.796875 23.597656 -26.03125 22.671875 -26.03125 C 21.890625 -26.1875 21.128906 -26.285156 20.390625 -26.328125 C 19.660156 -26.367188 18.945312 -26.425781 18.25 -26.5 C 18.164062 -26.5 18.066406 -26.476562 17.953125 -26.4375 C 17.835938 -26.40625 17.703125 -26.390625 17.546875 -26.390625 Z M 17.546875 -26.390625 "/></g></g></g><g fill="#000000" fill-opacity="1"><g transform="translate(313.630563, 91.908403)"><g><path d="M 0.234375 -7.328125 C 0.773438 -8.171875 1.742188 -8.75 3.140625 -9.0625 C 4.535156 -9.375 5.695312 -9.53125 6.625 -9.53125 C 7.476562 -9.53125 8.234375 -9.429688 8.890625 -9.234375 C 9.546875 -9.046875 9.953125 -8.640625 10.109375 -8.015625 C 10.191406 -7.710938 10.234375 -7.40625 10.234375 -7.09375 C 10.234375 -6.78125 10.234375 -6.46875 10.234375 -6.15625 C 10.234375 -5.769531 10.234375 -5.398438 10.234375 -5.046875 C 10.234375 -4.703125 10.234375 -4.335938 10.234375 -3.953125 C 10.234375 -2.785156 10.078125 -1.71875 9.765625 -0.75 C 9.453125 0.21875 8.71875 0.972656 7.5625 1.515625 C 7.25 1.585938 6.878906 1.644531 6.453125 1.6875 C 6.023438 1.726562 5.617188 1.75 5.234375 1.75 C 4.921875 1.75 4.628906 1.75 4.359375 1.75 C 4.085938 1.75 3.757812 1.75 3.375 1.75 C 2.75 1.75 2.144531 1.613281 1.5625 1.34375 C 0.988281 1.070312 0.625 0.585938 0.46875 -0.109375 C 0.3125 -0.578125 0.210938 -1.023438 0.171875 -1.453125 C 0.128906 -1.878906 0.109375 -2.328125 0.109375 -2.796875 C 0.109375 -3.253906 0.0859375 -3.710938 0.046875 -4.171875 C 0.015625 -4.640625 0 -5.109375 0 -5.578125 C 0 -5.890625 0.015625 -6.195312 0.046875 -6.5 C 0.0859375 -6.8125 0.148438 -7.085938 0.234375 -7.328125 Z M 0.234375 -7.328125 "/></g></g></g><g fill="#000000" fill-opacity="1"><g transform="translate(326.182332, 91.908403)"><g><path d="M 0.234375 -7.328125 C 0.773438 -8.171875 1.742188 -8.75 3.140625 -9.0625 C 4.535156 -9.375 5.695312 -9.53125 6.625 -9.53125 C 7.476562 -9.53125 8.234375 -9.429688 8.890625 -9.234375 C 9.546875 -9.046875 9.953125 -8.640625 10.109375 -8.015625 C 10.191406 -7.710938 10.234375 -7.40625 10.234375 -7.09375 C 10.234375 -6.78125 10.234375 -6.46875 10.234375 -6.15625 C 10.234375 -5.769531 10.234375 -5.398438 10.234375 -5.046875 C 10.234375 -4.703125 10.234375 -4.335938 10.234375 -3.953125 C 10.234375 -2.785156 10.078125 -1.71875 9.765625 -0.75 C 9.453125 0.21875 8.71875 0.972656 7.5625 1.515625 C 7.25 1.585938 6.878906 1.644531 6.453125 1.6875 C 6.023438 1.726562 5.617188 1.75 5.234375 1.75 C 4.921875 1.75 4.628906 1.75 4.359375 1.75 C 4.085938 1.75 3.757812 1.75 3.375 1.75 C 2.75 1.75 2.144531 1.613281 1.5625 1.34375 C 0.988281 1.070312 0.625 0.585938 0.46875 -0.109375 C 0.3125 -0.578125 0.210938 -1.023438 0.171875 -1.453125 C 0.128906 -1.878906 0.109375 -2.328125 0.109375 -2.796875 C 0.109375 -3.253906 0.0859375 -3.710938 0.046875 -4.171875 C 0.015625 -4.640625 0 -5.109375 0 -5.578125 C 0 -5.890625 0.015625 -6.195312 0.046875 -6.5 C 0.0859375 -6.8125 0.148438 -7.085938 0.234375 -7.328125 Z M 0.234375 -7.328125 "/></g></g></g><g fill="#000000" fill-opacity="1"><g transform="translate(338.734101, 91.908403)"><g><path d="M 0.234375 -7.328125 C 0.773438 -8.171875 1.742188 -8.75 3.140625 -9.0625 C 4.535156 -9.375 5.695312 -9.53125 6.625 -9.53125 C 7.476562 -9.53125 8.234375 -9.429688 8.890625 -9.234375 C 9.546875 -9.046875 9.953125 -8.640625 10.109375 -8.015625 C 10.191406 -7.710938 10.234375 -7.40625 10.234375 -7.09375 C 10.234375 -6.78125 10.234375 -6.46875 10.234375 -6.15625 C 10.234375 -5.769531 10.234375 -5.398438 10.234375 -5.046875 C 10.234375 -4.703125 10.234375 -4.335938 10.234375 -3.953125 C 10.234375 -2.785156 10.078125 -1.71875 9.765625 -0.75 C 9.453125 0.21875 8.71875 0.972656 7.5625 1.515625 C 7.25 1.585938 6.878906 1.644531 6.453125 1.6875 C 6.023438 1.726562 5.617188 1.75 5.234375 1.75 C 4.921875 1.75 4.628906 1.75 4.359375 1.75 C 4.085938 1.75 3.757812 1.75 3.375 1.75 C 2.75 1.75 2.144531 1.613281 1.5625 1.34375 C 0.988281 1.070312 0.625 0.585938 0.46875 -0.109375 C 0.3125 -0.578125 0.210938 -1.023438 0.171875 -1.453125 C 0.128906 -1.878906 0.109375 -2.328125 0.109375 -2.796875 C 0.109375 -3.253906 0.0859375 -3.710938 0.046875 -4.171875 C 0.015625 -4.640625 0 -5.109375 0 -5.578125 C 0 -5.890625 0.015625 -6.195312 0.046875 -6.5 C 0.0859375 -6.8125 0.148438 -7.085938 0.234375 -7.328125 Z M 0.234375 -7.328125 "/></g></g></g></svg>