<svg width="200" height="58" viewBox="0 0 200 58" fill="none" xmlns="http://www.w3.org/2000/svg">
<g clip-path="url(#clip0_106_290)">
<path d="M196.155 7.62424C196.131 7.04933 196.012 6.48779 195.797 5.95298C195.556 5.28782 195.166 4.71625 194.64 4.25833C194.177 3.85388 193.647 3.52297 193.069 3.27228C192.51 3.02828 191.934 2.86449 191.359 2.78093C190.839 2.7074 190.297 2.66729 189.748 2.66729C189.053 2.66729 188.435 2.75753 187.929 2.928C187.211 3.15529 186.576 3.53634 186.034 4.05777C185.541 4.53576 185.124 5.09061 184.81 5.68893C184.433 6.3708 184.129 7.12955 183.907 7.93844C183.699 8.69385 183.523 9.48269 183.388 10.2782C183.252 11.0737 183.14 11.8692 183.057 12.6447C183.017 13.0291 182.978 13.4035 182.938 13.7611C182.918 13.6408 182.898 13.5171 182.878 13.4001C182.806 12.9422 182.654 12.491 182.422 12.0665C182.005 11.2375 181.423 10.6826 180.692 10.4152C180.064 10.188 179.349 10.1412 178.566 10.2815C178.536 10.2882 178.503 10.2949 178.473 10.3016C178.423 10.315 178.384 10.315 178.334 10.3016C178.281 10.2882 178.225 10.2782 178.169 10.2715C177.874 10.2348 177.527 10.208 177.133 10.188C176.657 10.1679 176.178 10.2114 175.701 10.3183C175.248 10.4219 174.818 10.5723 174.421 10.7595C173.905 11.0069 173.495 11.3445 173.204 11.7523C172.821 12.2837 172.559 12.9723 172.427 13.7912C172.358 14.2324 172.295 14.6369 172.238 15.0012C172.083 14.0553 171.914 13.1227 171.739 12.2269C171.537 11.2141 171.299 10.1846 171.035 9.17183C170.853 8.46322 170.704 7.73455 170.595 7.00254C170.439 5.95298 169.983 5.01708 169.255 4.23493C168.756 3.68341 168.137 3.2656 167.42 2.99485C166.798 2.75753 166.13 2.60044 165.432 2.52022C164.774 2.44668 164.105 2.42662 163.444 2.46339C162.839 2.49682 162.27 2.5503 161.751 2.61715C160.815 2.7074 160.031 2.96811 159.425 3.39261C159.416 3.3993 159.406 3.40598 159.396 3.41267C158.572 4.02435 158.122 4.85329 158.096 5.8126C158.076 6.42428 158.106 7.0393 158.179 7.63427C158.179 7.65767 158.185 7.68107 158.188 7.70446C158.317 8.42311 158.43 9.12504 158.526 9.7902C158.625 10.4821 158.721 11.1907 158.823 11.9394C158.952 12.7985 159.098 13.6542 159.247 14.4831C159.406 15.3522 159.627 16.2245 159.905 17.0702C159.948 17.1972 159.978 17.3343 160.001 17.468C160.037 17.712 160.09 17.9627 160.16 18.2167C160.322 19.3665 160.514 20.5097 160.722 21.616C160.944 22.7792 161.225 23.9591 161.555 25.0956C161.81 26.0282 162.045 26.9908 162.25 27.9535C162.465 28.9595 162.706 29.9757 162.971 30.9651C163.037 31.2726 163.113 31.5834 163.196 31.9043C163.269 32.1918 163.338 32.4926 163.401 32.7968C163.411 32.8402 163.421 32.8837 163.434 32.9271C163.861 34.3243 164.271 35.7114 164.655 37.0484C165.048 38.4222 165.455 39.8027 165.872 41.1564C166.027 41.8817 166.325 42.47 166.758 42.9079C166.804 42.9547 166.847 43.0082 166.884 43.055C166.953 43.1552 167.016 43.2455 167.076 43.3324C168.379 45.4515 170.072 45.856 171.266 45.8293C171.286 45.8293 171.302 45.8293 171.322 45.8293L172.797 45.729C173.227 45.6989 173.684 45.6989 174.147 45.729C174.173 45.729 174.203 45.729 174.23 45.729C175.271 45.729 176.161 45.3279 176.826 44.5424C177.153 44.1346 177.418 43.68 177.61 43.1887C177.762 43.7669 177.911 44.3351 178.063 44.8933C178.268 45.6454 178.486 46.4008 178.708 47.1028C178.893 47.7445 179.148 48.3829 179.465 49.0013C179.859 49.7768 180.421 50.3684 181.132 50.7628C181.529 51.0068 181.946 51.1673 182.376 51.2441C182.67 51.2976 182.964 51.3411 183.252 51.3778C183.282 51.3812 183.312 51.3845 183.338 51.3845C183.533 51.3945 183.728 51.4012 183.92 51.4012C185.002 51.4012 186.064 51.2207 187.086 50.8664C187.115 50.8564 187.148 50.843 187.178 50.8297C187.439 50.716 187.697 50.5923 187.952 50.452C188.309 50.2547 188.63 49.9907 188.905 49.6598C189.202 49.2988 189.401 48.9044 189.497 48.4832C189.54 48.2893 189.593 48.0921 189.649 47.8849C189.655 47.8648 189.659 47.8448 189.665 47.8247C190.254 45.3412 190.803 42.8377 191.296 40.3809C191.785 37.9476 192.248 35.4474 192.682 32.9338C193.075 30.4737 193.489 28.027 193.905 25.6571C194.332 23.2338 194.716 20.7436 195.04 18.2802C195.176 17.3978 195.285 16.512 195.367 15.6496C195.443 14.8441 195.536 13.9917 195.635 13.116C195.635 13.1093 195.635 13.1026 195.635 13.0959C195.698 12.4609 195.777 11.8057 195.873 11.1473C195.973 10.4654 196.059 9.77014 196.125 9.07824C196.125 9.06821 196.125 9.05484 196.125 9.04481C196.161 8.56349 196.171 8.07883 196.151 7.60085L196.155 7.62424Z" fill="#371A45"/>
<path d="M197.993 9.47935C197.97 8.90443 197.851 8.34289 197.636 7.80809C197.395 7.14293 197.004 6.57135 196.479 6.11343C196.016 5.70898 195.486 5.37807 194.908 5.12739C194.349 4.88338 193.773 4.7196 193.198 4.63603C192.678 4.5625 192.136 4.52239 191.587 4.52239C190.892 4.52239 190.274 4.61264 189.768 4.78311C189.05 5.0104 188.415 5.39144 187.873 5.91288C187.38 6.39086 186.963 6.94572 186.649 7.54403C186.272 8.2259 185.968 8.98465 185.746 9.79354C185.538 10.549 185.362 11.3378 185.227 12.1333C185.091 12.9288 184.979 13.7243 184.896 14.4998C184.856 14.8842 184.817 15.2586 184.777 15.6162C184.757 15.4959 184.737 15.3722 184.717 15.2552C184.645 14.7973 184.492 14.3461 184.261 13.9216C183.844 13.0926 183.262 12.5378 182.531 12.2704C181.903 12.0431 181.188 11.9963 180.404 12.1367C180.375 12.1433 180.342 12.15 180.312 12.1567C180.262 12.1701 180.223 12.1701 180.173 12.1567C180.12 12.1433 180.064 12.1333 180.008 12.1266C179.713 12.0899 179.366 12.0631 178.972 12.0431C178.496 12.023 178.016 12.0665 177.54 12.1734C177.087 12.277 176.657 12.4275 176.26 12.6146C175.744 12.862 175.334 13.1996 175.043 13.6074C174.659 14.1388 174.398 14.8274 174.266 15.6463C174.196 16.0875 174.134 16.492 174.077 16.8563C173.922 15.9104 173.753 14.9778 173.578 14.082C173.376 13.0692 173.138 12.0397 172.873 11.0269C172.691 10.3183 172.543 9.58965 172.434 8.85764C172.278 7.80809 171.822 6.87218 171.094 6.09003C170.595 5.53851 169.976 5.1207 169.258 4.84996C168.637 4.61264 167.968 4.45554 167.271 4.37532C166.612 4.30178 165.944 4.28173 165.283 4.3185C164.678 4.35192 164.109 4.4054 163.589 4.47225C162.653 4.5625 161.87 4.82322 161.264 5.24772C161.254 5.2544 161.244 5.26109 161.235 5.26777C160.411 5.87945 159.961 6.7084 159.935 7.6677C159.915 8.27938 159.945 8.89441 160.017 9.48937C160.017 9.51277 160.024 9.53617 160.027 9.55957C160.156 10.2782 160.269 10.9801 160.365 11.6453C160.464 12.3372 160.56 13.0458 160.662 13.7945C160.791 14.6536 160.937 15.5093 161.086 16.3382C161.244 17.2073 161.466 18.0796 161.744 18.9253C161.787 19.0523 161.817 19.1894 161.84 19.3231C161.876 19.5671 161.929 19.8178 161.999 20.0718C162.161 21.2216 162.352 22.3648 162.561 23.4711C162.782 24.6343 163.064 25.8142 163.394 26.9507C163.649 27.8833 163.884 28.8459 164.089 29.8086C164.304 30.8147 164.545 31.8308 164.81 32.8202C164.876 33.1277 164.952 33.4385 165.035 33.7594C165.108 34.0469 165.177 34.3477 165.24 34.6519C165.25 34.6953 165.26 34.7388 165.273 34.7822C165.7 36.1794 166.11 37.5665 166.493 38.9036C166.887 40.2773 167.294 41.6578 167.71 43.0115C167.866 43.7368 168.164 44.3251 168.597 44.763C168.643 44.8098 168.686 44.8633 168.723 44.9101C168.792 45.0103 168.855 45.1006 168.914 45.1875C170.218 47.3067 171.911 47.7111 173.105 47.6844C173.125 47.6844 173.141 47.6844 173.161 47.6844L174.636 47.5841C175.066 47.554 175.523 47.554 175.986 47.5841C176.012 47.5841 176.042 47.5841 176.068 47.5841C177.11 47.5841 178 47.183 178.665 46.3975C178.992 45.9897 179.257 45.5351 179.449 45.0438C179.601 45.622 179.75 46.1902 179.902 46.7484C180.107 47.5005 180.325 48.2559 180.547 48.9579C180.732 49.5996 180.987 50.238 181.304 50.8564C181.698 51.6319 182.26 52.2235 182.971 52.6179C183.368 52.8619 183.785 53.0224 184.215 53.0992C184.509 53.1527 184.803 53.1962 185.091 53.2329C185.121 53.2363 185.151 53.2396 185.177 53.2396C185.372 53.2496 185.567 53.2563 185.759 53.2563C186.841 53.2563 187.902 53.0758 188.924 52.7215C188.954 52.7115 188.987 52.6981 189.017 52.6848C189.278 52.5711 189.536 52.4474 189.791 52.3071C190.148 52.1099 190.469 51.8458 190.743 51.5149C191.041 51.1539 191.24 50.7595 191.336 50.3383C191.379 50.1445 191.431 49.9472 191.488 49.74C191.494 49.7199 191.498 49.6999 191.504 49.6798C192.093 47.1963 192.642 44.6928 193.135 42.236C193.624 39.8027 194.087 37.3025 194.521 34.7889C194.914 32.3288 195.328 29.8821 195.744 27.5122C196.171 25.0889 196.555 22.5987 196.879 20.1353C197.014 19.2529 197.124 18.3671 197.206 17.5047C197.282 16.6992 197.375 15.8468 197.474 14.9711C197.474 14.9644 197.474 14.9577 197.474 14.9511C197.537 14.316 197.616 13.6608 197.712 13.0024C197.811 12.3205 197.897 11.6252 197.964 10.9333C197.964 10.9233 197.964 10.9099 197.964 10.8999C198 10.4186 198.01 9.93393 197.99 9.45595L197.993 9.47935Z" fill="#371A45"/>
<path d="M162.366 32.5227C162.366 32.2553 162.313 31.9846 162.204 31.7172C162.078 31.1155 162.022 30.5139 162.035 29.9289C162.052 29.1969 162.078 28.4716 162.111 27.7696C162.144 26.9808 162.181 26.202 162.214 25.4299L162.316 23.0634C162.349 21.7765 162.359 20.4863 162.343 19.2262C162.326 17.9627 162.283 16.6725 162.214 15.4023C162.177 14.5867 162.134 13.7745 162.085 12.9823C162.028 12.0799 161.863 11.174 161.598 10.2849C161.321 9.36573 160.911 8.5067 160.378 7.72455C159.799 6.8789 159.052 6.21039 158.169 5.74244C157.338 5.28117 156.436 4.99371 155.483 4.8901C154.653 4.79985 153.816 4.75305 152.999 4.75305C152.1 4.75305 151.164 4.76308 150.224 4.77979C149.282 4.7965 148.312 4.8433 147.327 4.91349C146.543 4.98703 145.759 5.08396 144.998 5.20763C144.092 5.35471 143.236 5.66222 142.438 6.12683C141.516 6.68503 140.848 7.45047 140.451 8.3964C140.146 9.11838 139.862 9.83368 139.611 10.5022C139.462 10.8498 139.363 11.2075 139.313 11.5584C139.277 11.8091 139.244 12.0732 139.207 12.3573L139.115 14.6436C138.959 13.2096 138.655 11.7957 138.202 10.4253C137.709 9.02145 136.865 8.02204 135.711 7.46384C134.95 7.07945 134.15 6.77862 133.333 6.5647C132.5 6.35078 131.62 6.24047 130.717 6.24047H130.674C129.341 6.30732 127.968 6.30732 126.563 6.24047C125.594 6.24047 124.658 6.23045 123.785 6.21373C122.845 6.19702 121.913 6.18699 121.01 6.18699H118.972C118.291 6.18699 117.583 6.20371 116.918 6.23713C116.3 6.23713 115.688 6.22042 115.096 6.18699C114.372 6.14688 113.627 6.18699 112.853 6.31401C112.304 6.42431 111.908 6.58475 111.607 6.81204L111.464 6.93572C111.372 7.02931 111.282 7.13293 111.203 7.24323C110.981 6.67834 110.634 6.13686 110.151 5.62211L109.883 5.33799L109.503 5.2444C109.401 5.221 109.268 5.17755 109.096 5.12073C108.765 5.01043 108.428 4.9536 108.121 4.95026C107.492 4.91684 106.844 4.89009 106.192 4.87338C105.561 4.85667 104.922 4.84664 104.291 4.84664C103.619 4.80653 102.997 4.93355 102.435 5.23103C101.969 5.47838 101.539 5.79592 101.215 6.12348C100.414 6.86218 99.6436 7.63096 98.9225 8.41311C98.4562 8.91783 98.013 9.44929 97.5963 9.99747C97.292 9.55625 96.9612 9.13844 96.6073 8.75071C95.9888 8.07886 95.3803 7.35688 94.8048 6.61149C93.9812 5.52183 92.8104 5.00708 91.5073 5.16752H91.4841C91.408 5.16084 91.332 5.1575 91.2559 5.1575C90.644 5.1575 90.0388 5.14747 89.4567 5.13076C88.8282 5.11404 88.18 5.10402 87.535 5.10402C86.1922 5.10402 85.157 5.83269 84.684 7.0995C84.5286 7.42373 84.3996 7.75798 84.3037 8.09557C84.1978 8.45991 84.1218 8.8443 84.0854 9.17521C83.9795 9.88716 83.8969 10.6325 83.8439 11.388C83.7943 12.0932 83.7348 12.8186 83.6653 13.5673C83.5992 14.7271 83.5397 15.9438 83.4867 17.1906C83.4371 18.3839 83.3776 19.5905 83.3081 20.7804C83.242 22.0673 83.1461 23.3776 83.0303 24.6678C82.9079 26.0182 82.8451 27.3819 82.8451 28.729C82.8451 31.647 82.855 34.3511 82.8716 37.0017C82.8749 37.8173 82.8914 38.6395 82.9146 39.4618C82.9079 39.435 82.9013 39.4083 82.8947 39.3816C82.7029 38.6997 82.5408 38.0044 82.4217 37.3326C82.2861 36.4401 82.1505 35.5544 82.0149 34.6786C81.8793 33.8062 81.7437 32.9238 81.6081 32.0247C81.1318 29.003 80.6556 26.0015 80.1826 23.0132C79.7129 20.0651 79.2499 17.0402 78.81 14.0285C78.7075 13.3066 78.605 12.5913 78.5024 11.8893C78.4032 11.1974 78.2808 10.4888 78.1419 9.7802C78.0625 9.16184 77.9236 8.60029 77.7285 8.11229C77.4077 7.05271 76.7131 6.25384 75.744 5.81597C74.6129 5.2444 73.3329 4.9536 71.9438 4.9536C71.3617 4.9536 70.7862 4.98034 70.2338 5.03717C69.8336 5.07728 69.4136 5.07059 68.9902 5.02045C68.4114 4.91349 67.8558 4.97032 67.3398 5.18424C66.9231 5.35805 66.513 5.61876 66.1657 5.92628C65.7126 6.30064 65.3157 6.71177 64.9849 7.15298C64.6178 7.64099 64.3334 8.21925 64.1713 8.80084C64.125 8.93455 64.0721 9.06156 64.0092 9.17855C63.8968 9.38913 63.7976 9.59636 63.7149 9.79357C63.4106 10.3785 63.1791 10.9869 63.0236 11.5952C62.8814 12.1467 62.7557 12.725 62.6466 13.3199C62.5374 13.9517 62.4448 14.5333 62.3621 15.1048C62.2861 15.6196 62.1736 16.121 62.0248 16.5989C61.6742 17.7354 61.3732 18.8819 61.1285 20.005C60.8903 21.108 60.6522 22.2244 60.4141 23.3609C60.1429 24.6644 59.8915 25.9881 59.6666 27.295C59.4516 28.5551 59.1903 29.832 58.8993 31.0754C58.4131 32.9639 58.0261 34.8825 57.7516 36.7744C57.5862 37.9042 57.3514 39.0339 57.0669 40.1537L57.0537 40.0434C57.014 39.7994 56.9644 39.5587 56.9049 39.3247C56.799 38.9002 56.5874 38.5159 56.2665 38.1783C55.9027 37.7604 55.4496 37.493 54.9138 37.3827C54.679 37.3359 54.4375 37.2825 54.1895 37.2156L54.0042 37.1822C52.6449 37.0385 51.2657 37.0017 49.8997 37.0752L46.417 37.2591C46.4071 36.3566 46.4534 35.4508 46.546 34.565C46.6684 33.4219 46.7477 32.2687 46.7841 31.1289C46.8172 29.4977 46.8271 27.8833 46.8106 26.3223C46.794 24.7981 46.7841 23.2038 46.7841 21.576V12.0264C46.7841 11.515 46.8172 10.9835 46.88 10.442C46.9561 9.71001 46.966 8.98468 46.9065 8.2861C46.8337 7.38027 46.4567 6.53462 45.7952 5.76584L45.5868 5.52183L45.2892 5.4015C45.0742 5.3146 44.846 5.23772 44.6144 5.17421C44.4491 5.13076 44.2804 5.07728 44.1018 5.01711L43.9066 4.96697C43.0599 4.8199 42.1769 4.74971 41.2838 4.76642C40.3842 4.78648 39.4846 4.91349 38.6214 5.14078C38.2774 5.22769 37.9334 5.34802 37.5961 5.49509C37.1959 5.67225 36.8386 5.91291 36.5311 6.21039C36.0283 6.63489 35.6579 7.17304 35.4297 7.81146C35.2577 8.29612 35.1155 8.78079 34.9931 9.31893C34.6359 11.154 34.4738 13.0325 34.5102 14.9043L34.6127 20.259C34.6458 21.9436 34.6293 23.6316 34.5631 25.2728C34.4937 26.9541 34.4275 28.6554 34.3581 30.3835C34.2919 32.5962 34.2324 34.9561 34.1795 37.3961C34.1266 39.8228 34.2423 42.2394 34.5201 44.5859L34.7384 45.7156C34.8443 46.2571 35.0692 46.7585 35.4198 47.2298C35.8993 47.8214 36.5145 48.2259 37.2521 48.4398C37.7846 48.5936 38.327 48.7105 38.876 48.7874C39.4714 48.861 40.0766 48.9011 40.6687 48.9011H50.4488C51.0474 48.9011 51.6229 48.8843 52.1686 48.8476C52.7276 48.8108 53.313 48.7339 53.9315 48.6169L54.0241 48.5936C54.2589 48.5234 54.4937 48.4565 54.7385 48.3863C55.1883 48.256 55.5852 48.022 55.9126 47.6911C56.0979 48.1323 56.3889 48.5066 56.7593 48.7573C57.2125 49.0849 57.7979 49.2554 58.4991 49.2621C59.0547 49.2988 59.6004 49.2754 60.1263 49.1952C60.467 49.1417 60.8308 49.1284 61.2045 49.1551C61.6279 49.1852 62.0612 49.2387 62.4911 49.3189C63.1956 49.4459 63.9034 49.3824 64.6145 49.125C65.0445 48.9612 65.4513 48.7039 65.8151 48.3629C66.1359 48.0621 66.4137 47.7212 66.6519 47.3368L66.6817 47.2866C66.89 46.9089 67.0686 46.4944 67.2108 46.0566C67.2935 45.7992 67.3696 45.5385 67.4324 45.2711C67.8095 45.3012 68.1998 45.3413 68.5967 45.3914C69.2317 45.4683 69.8535 45.4883 70.4753 45.4482L70.548 45.4382C70.8623 45.3948 71.1368 45.3714 71.365 45.368C71.3948 45.4014 71.4377 45.4549 71.4907 45.5318C71.6593 45.7591 71.7553 46.0165 71.7983 46.3374C71.8644 46.8788 71.9504 47.4003 72.0496 47.8849C72.0629 48.0855 72.1059 48.2927 72.172 48.52C72.2415 49.0548 72.3274 49.5896 72.4267 50.1077C72.5292 50.6358 72.6284 51.174 72.731 51.7121C72.8004 52.1099 72.8831 52.5076 72.9757 52.8887C73.0782 53.3299 73.237 53.7878 73.4421 54.2391C73.9183 55.302 74.6823 56.0674 75.7308 56.522L75.8102 56.5521C76.0781 56.6423 76.3493 56.7092 76.6238 56.756C76.8355 56.7894 77.0637 56.8262 77.3448 56.8663C77.9732 56.9398 78.5983 56.9799 79.2069 56.9799C79.8651 56.9799 80.5365 56.8997 81.2046 56.7426C81.575 56.659 81.9488 56.5421 82.3126 56.4017C82.8418 56.1944 83.3015 55.8435 83.6223 55.409C84.1118 54.804 84.3731 54.1121 84.4029 53.35C84.4227 52.8185 84.393 52.2536 84.3202 51.7455C84.1714 50.3216 84.0159 48.8777 83.8539 47.4337C84.3467 48.2693 85.1074 48.9178 86.1029 49.3256C87.0025 49.6665 87.9518 49.8971 88.9242 50.0141C89.6981 50.1445 90.4555 50.0943 91.1765 49.8604C91.7388 49.6765 92.2911 49.4827 92.7939 49.2888C93.6406 49.0013 94.2227 48.3395 94.4377 47.4003C94.4774 47.1863 94.5104 46.9591 94.5336 46.7251C94.5534 46.5045 94.5633 46.2872 94.5633 46.1167C94.6328 44.7664 94.6923 43.4594 94.7419 42.2294C94.7949 40.8957 94.8544 39.5921 94.9205 38.3354C94.9536 37.4195 94.9933 36.4669 95.0462 35.5042C95.0991 34.5383 95.1256 33.5589 95.1256 32.5996C95.1587 30.8682 95.1686 29.1301 95.1521 27.4387C95.1421 26.5095 95.1289 25.577 95.1157 24.6444C95.8731 25.4667 96.6966 25.6171 97.2854 25.597C98.1321 25.5669 98.8928 25.1692 99.4947 24.4438C99.455 25.4499 99.4154 26.4861 99.3823 27.5357C99.3294 29.11 99.3227 30.6877 99.3558 32.2119C99.3558 33.9366 99.3823 35.6647 99.4319 37.3493C99.4815 38.9905 99.4716 40.6584 99.4054 42.323C99.369 43.8806 99.369 45.4516 99.4054 46.9891C99.4385 48.5334 99.4914 50.0843 99.5576 51.5684C99.5576 52.1199 99.6237 52.6614 99.756 53.2029L99.7792 53.2764C100.034 54.0552 100.51 54.707 101.191 55.2151C101.803 55.673 102.501 55.9839 103.183 56.1109C103.689 56.2312 104.251 56.3081 104.849 56.3482C104.965 56.3549 105.078 56.3582 105.19 56.3582C105.759 56.3582 106.305 56.2613 106.811 56.0741C107.145 55.9705 107.509 55.8535 107.919 55.7098C108.468 55.5159 108.941 55.2452 109.315 54.9143C109.936 54.3995 110.323 53.731 110.469 52.9288C110.545 52.4976 110.634 52.0497 110.72 51.662C110.919 50.9433 111.028 50.1946 111.048 49.4359C111.064 48.7941 111.091 48.1457 111.124 47.5139C111.193 46.1903 111.22 44.8366 111.203 43.4895C111.187 42.206 111.213 40.9091 111.279 39.6323C111.345 38.2551 111.421 36.8613 111.507 35.4808C111.593 34.097 111.653 32.6698 111.689 31.2292C111.689 29.578 111.673 27.88 111.64 26.182C111.607 24.5174 111.57 22.8294 111.537 21.1113L111.454 17.3744C111.914 17.7254 112.384 17.8557 112.741 17.8858C112.82 17.8925 112.9 17.9059 112.979 17.9259C112.973 18.083 112.966 18.2468 112.969 18.424C113.002 19.0991 113.029 19.761 113.045 20.3994C113.062 21.0378 113.072 21.6796 113.072 22.2879L112.969 26.6131C112.936 28.0437 112.916 29.5078 112.916 30.9684C112.916 33.3985 112.873 35.8418 112.791 38.2317C112.705 40.6317 112.612 43.065 112.509 45.5886V46.3106C112.509 46.6917 112.566 47.066 112.668 47.3735C112.887 48.0888 113.29 48.6771 113.872 49.125C114.352 49.4927 114.861 49.7634 115.456 49.964C116.048 50.1345 116.634 50.2214 117.193 50.2214C117.57 50.2214 117.973 50.2514 118.403 50.3149C118.969 50.3851 119.521 50.4487 120.044 50.4988C120.596 50.5523 121.175 50.5824 121.721 50.5824H121.731C122.081 50.5991 122.432 50.6091 122.776 50.6091C123.12 50.6091 123.474 50.5991 123.811 50.5824C124.406 50.5489 125.041 50.5322 125.723 50.5322H125.779C126.298 50.4988 126.811 50.4988 127.3 50.5322C127.906 50.569 128.534 50.5523 129.172 50.4787C129.877 50.4453 130.641 50.4019 131.464 50.3517C132.357 50.2982 133.244 50.1746 134.107 49.9907C135.036 49.7902 135.91 49.4559 136.707 48.9913C137.603 48.4699 138.308 47.7245 138.807 46.7652L138.833 46.7117C138.966 46.4176 139.075 46.1134 139.161 45.8025C139.515 46.5914 140.044 47.2331 140.722 47.7044C141.218 48.0688 141.747 48.3362 142.303 48.4966C142.759 48.6303 143.249 48.7406 143.761 48.8208C144.777 48.9679 145.776 49.0281 146.775 49.0147C147.711 48.998 148.68 48.9512 149.649 48.881C150.538 48.8142 151.448 48.774 152.351 48.7573C153.31 48.7406 154.269 48.6938 155.212 48.6236L155.268 48.6169C155.506 48.5869 155.758 48.5635 156.022 48.5468C156.419 48.5234 156.809 48.4431 157.183 48.3061C158.496 47.9384 159.548 47.1462 160.312 45.9563C160.977 44.9168 161.473 43.8004 161.78 42.6405C162.22 40.9759 162.415 39.2612 162.359 37.5432C162.31 35.9822 162.316 34.4146 162.386 32.8536V32.4893L162.366 32.5227ZM151.421 36.5204C151.421 36.5204 151.421 36.5337 151.421 36.5404C151.365 36.5839 151.279 36.634 151.154 36.6842L150.489 36.8747C150.366 36.9114 150.241 36.9449 150.108 36.9816C150.102 36.9816 150.099 36.9783 150.092 36.975C149.979 36.9114 149.893 36.8513 149.831 36.7978V36.7811V33.4653L149.933 30.2732C149.966 29.1835 149.986 28.0939 149.986 27.0376C149.986 26.3357 149.94 25.6238 149.847 24.9285C149.771 24.3503 149.731 23.7653 149.731 23.1169C149.698 22.3548 149.692 21.586 149.708 20.8373C149.725 20.0819 149.748 19.283 149.778 18.4641C149.778 18.4641 149.798 18.4206 149.887 18.3437C150.046 18.2067 150.201 18.1398 150.413 18.1231L150.459 18.1164C150.555 18.1064 150.654 18.1098 150.763 18.1265C150.81 18.3571 150.863 18.5978 150.915 18.8451C150.988 19.1794 151.038 19.5437 151.068 19.9147C151.134 20.9375 151.193 21.9771 151.243 23.0066C151.296 24.0828 151.355 25.1357 151.421 26.1184L151.524 28.2811C151.557 28.9897 151.574 29.6949 151.574 30.3802V32.7467C151.574 33.5021 151.557 34.2809 151.524 35.0697V35.1132C151.524 35.2469 151.511 35.3973 151.488 35.551C151.445 35.8385 151.421 36.1259 151.421 36.4268V36.5103V36.5204ZM138.225 32.3957V32.5561C138.073 32.3656 137.907 32.1951 137.722 32.0481C137.927 31.8074 138.096 31.5567 138.228 31.296C138.228 31.6637 138.225 32.0314 138.225 32.399V32.3957ZM123.983 21.9303C123.97 20.5765 123.983 19.1894 124.036 17.8023C125.091 17.6819 126.166 17.6953 127.244 17.849C127.393 17.8925 127.538 17.9426 127.677 17.9961C127.677 18.0229 127.677 18.0529 127.677 18.083L127.684 18.2234C127.747 18.8351 127.79 19.4468 127.806 20.0484C127.823 20.6902 127.849 21.352 127.882 22.0138L127.896 22.1475C127.952 22.5252 127.982 22.9063 127.982 23.284C127.982 23.6617 127.952 24.0427 127.896 24.4171C127.846 24.7346 127.757 25.0321 127.628 25.3062C127.535 25.5034 127.4 25.6605 127.188 25.8176L127.142 25.8544C126.774 26.1586 126.381 26.319 125.908 26.3491C125.23 26.3959 124.575 26.4193 123.963 26.4226C123.993 24.9218 124 23.411 123.983 21.9269V21.9303ZM123.411 39.5788C123.642 39.5587 123.867 39.5487 124.086 39.5487H124.803C126.209 39.5153 127.634 39.5153 129.05 39.5487H129.067C129.106 39.6924 129.11 39.796 129.096 39.8763C128.981 39.9097 128.858 39.9331 128.723 39.9398C128.468 39.9565 128.21 39.9531 127.952 39.9398C127.608 39.9197 127.317 39.913 127.066 39.913C126.368 39.913 125.676 39.8963 125.015 39.8629C124.469 39.8361 123.927 39.7994 123.398 39.7492C123.404 39.6924 123.408 39.6356 123.411 39.5788ZM70.5447 34.3444C70.4554 34.3578 70.3463 34.3711 70.2074 34.3912C69.9031 34.4313 69.5955 34.4513 69.2912 34.458C69.3441 34.2441 69.4037 33.9934 69.4698 33.7093C69.6187 33.0609 69.7873 32.3723 69.9692 31.6503C70.1082 32.135 70.2371 32.6397 70.3595 33.1478C70.4621 33.5723 70.5249 33.9767 70.548 34.3444H70.5447Z" fill="#371A45"/>
<path d="M160.05 30.9651C160.05 30.6977 159.997 30.427 159.888 30.1595C159.763 29.5579 159.706 28.9562 159.72 28.3713C159.736 27.6393 159.763 26.914 159.796 26.212C159.829 25.4232 159.865 24.6444 159.898 23.8723L160.001 21.5058C160.034 20.2189 160.044 18.9287 160.027 17.6685C160.011 16.4051 159.968 15.1149 159.898 13.8447C159.862 13.0291 159.819 12.2169 159.769 11.4247C159.713 10.5222 159.548 9.61642 159.283 8.72731C159.005 7.80811 158.595 6.94909 158.063 6.16694C157.484 5.32128 156.736 4.65277 155.853 4.18482C155.023 3.72355 154.12 3.4361 153.168 3.33248C152.337 3.24223 151.501 3.19543 150.684 3.19543C149.784 3.19543 148.848 3.20546 147.909 3.22217C146.966 3.23889 145.997 3.28568 145.011 3.35588C144.228 3.42941 143.444 3.52634 142.683 3.65002C141.777 3.79709 140.92 4.1046 140.123 4.56921C139.2 5.12741 138.532 5.89285 138.135 6.83878C137.831 7.56077 137.547 8.27607 137.295 8.94457C137.146 9.29219 137.047 9.64984 136.998 10.0008C136.961 10.2515 136.928 10.5156 136.892 10.7997L136.799 13.086C136.644 11.652 136.339 10.2381 135.886 8.86769C135.393 7.46383 134.55 6.46442 133.396 5.90622C132.635 5.52183 131.835 5.221 131.018 5.00708C130.184 4.79316 129.304 4.68286 128.402 4.68286H128.359C127.026 4.74971 125.653 4.74971 124.247 4.68286C123.278 4.68286 122.342 4.67283 121.469 4.65612C120.53 4.6394 119.597 4.62938 118.694 4.62938H116.657C115.975 4.62938 115.268 4.64609 114.603 4.67951C113.984 4.67951 113.373 4.6628 112.78 4.62938C112.056 4.58927 111.312 4.62938 110.538 4.75639C109.989 4.86669 109.592 5.02714 109.291 5.25443L109.149 5.3781C109.056 5.47169 108.967 5.57531 108.888 5.68561C108.666 5.12073 108.319 4.57924 107.836 4.06449L107.568 3.78038L107.188 3.68678C107.085 3.66339 106.953 3.61993 106.781 3.56311C106.45 3.45281 106.113 3.39599 105.805 3.39264C105.177 3.35922 104.528 3.33248 103.877 3.31577C103.245 3.29905 102.607 3.28903 101.975 3.28903C101.304 3.24891 100.682 3.37593 100.12 3.67341C99.6533 3.92076 99.2233 4.2383 98.8992 4.56587C98.0988 5.30456 97.3281 6.07334 96.6071 6.85549C96.1408 7.36022 95.6976 7.89168 95.2808 8.43985C94.9765 7.99864 94.6458 7.58082 94.2919 7.19309C93.6734 6.52124 93.0648 5.79926 92.4894 5.05388C91.6658 3.96421 90.495 3.44947 89.1918 3.60991H89.1687C89.0926 3.60322 89.0165 3.59988 88.9405 3.59988C88.3286 3.59988 87.7233 3.58985 87.1412 3.57314C86.5128 3.55643 85.8646 3.5464 85.2196 3.5464C83.8768 3.5464 82.8416 4.27507 82.3686 5.54188C82.2131 5.86611 82.0842 6.20036 81.9882 6.53795C81.8824 6.90229 81.8063 7.28668 81.77 7.61759C81.6641 8.32955 81.5814 9.07493 81.5285 9.83034C81.4789 10.5356 81.4194 11.2609 81.3499 12.0097C81.2838 13.1695 81.2242 14.3862 81.1713 15.633C81.1217 16.8262 81.0622 18.0329 80.9927 19.2228C80.9266 20.5097 80.8306 21.82 80.7149 23.1102C80.5925 24.4606 80.5297 25.8243 80.5297 27.1713C80.5297 30.0894 80.5396 32.7935 80.5561 35.4441C80.5594 36.2597 80.576 37.0819 80.5991 37.9042C80.5925 37.8774 80.5859 37.8507 80.5793 37.824C80.3874 37.1421 80.2254 36.4468 80.1063 35.775C79.9707 34.8825 79.8351 33.9968 79.6995 33.121C79.5639 32.2486 79.4283 31.3662 79.2927 30.4671C78.8164 27.4454 78.3401 24.4438 77.8672 21.4556C77.3975 18.5075 76.9345 15.4825 76.4946 12.4709C76.3921 11.7489 76.2895 11.0336 76.187 10.3317C76.0878 9.63981 75.9654 8.9312 75.8265 8.22259C75.7471 7.60422 75.6082 7.04268 75.4131 6.55467C75.0922 5.49509 74.3977 4.69623 73.4286 4.25836C72.2975 3.68678 71.0175 3.39599 69.6284 3.39599C69.0462 3.39599 68.4708 3.42273 67.9184 3.47955C67.5182 3.51966 67.0982 3.51297 66.6748 3.46284C66.096 3.35588 65.5404 3.4127 65.0244 3.62662C64.6077 3.80043 64.1975 4.06115 63.8503 4.36866C63.3971 4.74302 63.0002 5.15415 62.6695 5.59536C62.3024 6.08337 62.0179 6.66163 61.8559 7.24323C61.8096 7.37693 61.7567 7.50394 61.6938 7.62093C61.5814 7.83151 61.4821 8.03875 61.3995 8.23596C61.0952 8.8209 60.8636 9.42924 60.7082 10.0376C60.566 10.5891 60.4403 11.1673 60.3312 11.7623C60.222 12.3941 60.1294 12.9756 60.0467 13.5472C59.9706 14.062 59.8582 14.5633 59.7094 15.0413C59.3588 16.1778 59.0578 17.3243 58.813 18.4474C58.5749 19.5504 58.3368 20.6668 58.0986 21.8032C57.8274 23.1068 57.5761 24.4305 57.3511 25.7374C57.1362 26.9975 56.8749 28.2744 56.5838 29.5178C56.0976 31.4063 55.7107 33.3249 55.4361 35.2168C55.2708 36.3466 55.0359 37.4763 54.7515 38.5961L54.7383 38.4858C54.6986 38.2418 54.649 38.0011 54.5894 37.7671C54.4836 37.3426 54.2719 36.9582 53.9511 36.6206C53.5873 36.2028 53.1342 35.9354 52.5984 35.8251C52.3635 35.7783 52.1221 35.7248 51.874 35.658L51.6888 35.6246C50.3295 35.4808 48.9503 35.4441 47.5843 35.5176L44.1016 35.7014C44.0916 34.799 44.1379 33.8931 44.2305 33.0074C44.3529 31.8642 44.4323 30.7111 44.4687 29.5713C44.5018 27.9401 44.5117 26.3257 44.4951 24.7647C44.4786 23.2405 44.4687 21.6461 44.4687 20.0183V10.4688C44.4687 9.95735 44.5018 9.42589 44.5646 8.8844C44.6407 8.15239 44.6506 7.42707 44.5911 6.72848C44.5183 5.82266 44.1412 4.977 43.4798 4.20822L43.2714 3.96421L42.9737 3.84388C42.7587 3.75698 42.5305 3.6801 42.299 3.61659C42.1336 3.57314 41.965 3.51966 41.7863 3.45949L41.5912 3.40936C40.7445 3.26228 39.8614 3.19209 38.9684 3.2088C38.0688 3.22886 37.1692 3.35588 36.3059 3.58317C35.962 3.67007 35.618 3.7904 35.2806 3.93747C34.8804 4.11463 34.5232 4.35529 34.2156 4.65277C33.7129 5.07727 33.3425 5.61542 33.1143 6.25384C32.9423 6.73851 32.8 7.22317 32.6777 7.76132C32.3205 9.59636 32.1584 11.4749 32.1948 13.3467L32.2973 18.7014C32.3304 20.386 32.3139 22.074 32.2477 23.7152C32.1782 25.3965 32.1121 27.0978 32.0426 28.8259C31.9765 31.0386 31.917 33.3985 31.864 35.8385C31.8111 38.2652 31.9269 40.6818 32.2047 43.0283L32.423 44.158C32.5288 44.6995 32.7537 45.2009 33.1043 45.6722C33.5839 46.2638 34.1991 46.6683 34.9366 46.8822C35.4691 47.0359 36.0116 47.1529 36.5606 47.2298C37.1559 47.3033 37.7612 47.3434 38.3532 47.3434H48.1333C48.732 47.3434 49.3075 47.3267 49.8532 47.29C50.4121 47.2532 50.9976 47.1763 51.6161 47.0593L51.7087 47.0359C51.9435 46.9657 52.1783 46.8989 52.4231 46.8287C52.8729 46.6983 53.2698 46.4644 53.5972 46.1335C53.7824 46.5747 54.0735 46.949 54.4439 47.1997C54.897 47.5273 55.4824 47.6978 56.1836 47.7044C56.7393 47.7412 57.285 47.7178 57.8109 47.6376C58.1515 47.5841 58.5154 47.5707 58.8891 47.5975C59.3125 47.6276 59.7457 47.681 60.1757 47.7613C60.8802 47.8883 61.588 47.8248 62.2991 47.5674C62.729 47.4036 63.1359 47.1462 63.4997 46.8053C63.8205 46.5045 64.0983 46.1635 64.3365 45.7791L64.3662 45.729C64.5746 45.3513 64.7532 44.9368 64.8954 44.499C64.9781 44.2416 65.0542 43.9809 65.117 43.7135C65.4941 43.7436 65.8843 43.7837 66.2812 43.8338C66.9163 43.9107 67.5381 43.9307 68.1599 43.8906L68.2326 43.8806C68.5468 43.8371 68.8213 43.8137 69.0496 43.8104C69.0793 43.8438 69.1223 43.8973 69.1752 43.9742C69.3439 44.2015 69.4398 44.4589 69.4828 44.7797C69.549 45.3212 69.635 45.8427 69.7342 46.3273C69.7474 46.5279 69.7904 46.7351 69.8566 46.9624C69.926 47.4972 70.012 48.032 70.1112 48.5501C70.2138 49.0782 70.313 49.6164 70.4155 50.1545C70.485 50.5523 70.5677 50.95 70.6603 51.3311C70.7628 51.7723 70.9216 52.2302 71.1266 52.6815C71.6029 53.7444 72.3669 54.5098 73.4154 54.9644L73.4948 54.9945C73.7627 55.0847 74.0339 55.1516 74.3084 55.1984C74.5201 55.2318 74.7483 55.2686 75.0294 55.3087C75.6578 55.3822 76.2829 55.4223 76.8915 55.4223C77.5497 55.4223 78.2211 55.3421 78.8892 55.185C79.2596 55.1014 79.6333 54.9845 79.9972 54.8441C80.5264 54.6368 80.9861 54.2859 81.3069 53.8513C81.7964 53.2463 82.0577 52.5544 82.0875 51.7923C82.1073 51.2609 82.0775 50.696 82.0048 50.1879C81.8559 48.764 81.7005 47.32 81.5384 45.8761C82.0312 46.7117 82.792 47.3602 83.7875 47.7679C84.6871 48.1089 85.6363 48.3395 86.6087 48.4565C87.3827 48.5869 88.1401 48.5367 88.8611 48.3027C89.4234 48.1189 89.9757 47.925 90.4784 47.7312C91.3251 47.4437 91.9072 46.7819 92.1222 45.8427C92.1619 45.6287 92.195 45.4014 92.2181 45.1675C92.238 44.9469 92.2479 44.7296 92.2479 44.5591C92.3174 43.2087 92.3769 41.9018 92.4265 40.6718C92.4794 39.3381 92.539 38.0345 92.6051 36.7777C92.6382 35.8619 92.6779 34.9093 92.7308 33.9466C92.7837 32.9806 92.8102 32.0013 92.8102 31.042C92.8433 29.3106 92.8532 27.5724 92.8366 25.8811C92.8267 24.9519 92.8135 24.0193 92.8003 23.0868C93.5577 23.909 94.3812 24.0594 94.9699 24.0394C95.8166 24.0093 96.5773 23.6116 97.1793 22.8862C97.1396 23.8923 97.0999 24.9285 97.0668 25.9781C97.0139 27.5524 97.0073 29.1301 97.0404 30.6542C97.0404 32.379 97.0668 34.1071 97.1165 35.7917C97.1661 37.4329 97.1562 39.1008 97.09 40.7654C97.0536 42.323 97.0536 43.894 97.09 45.4315C97.1231 46.9758 97.176 48.5267 97.2421 50.0108C97.2421 50.5623 97.3083 51.1038 97.4406 51.6453L97.4637 51.7188C97.7184 52.4976 98.1947 53.1494 98.876 53.6575C99.4879 54.1154 100.186 54.4263 100.867 54.5533C101.373 54.6736 101.935 54.7505 102.534 54.7906C102.65 54.7973 102.762 54.8006 102.875 54.8006C103.444 54.8006 103.989 54.7037 104.495 54.5165C104.829 54.4129 105.193 54.2959 105.603 54.1522C106.152 53.9583 106.625 53.6876 106.999 53.3566C107.621 52.8419 108.008 52.1734 108.153 51.3712C108.229 50.94 108.319 50.4921 108.405 50.1044C108.603 49.3857 108.712 48.637 108.732 47.8783C108.749 47.2365 108.775 46.588 108.808 45.9563C108.878 44.6327 108.904 43.2789 108.888 41.9319C108.871 40.6484 108.898 39.3515 108.964 38.0746C109.03 36.6975 109.106 35.3037 109.192 33.9232C109.278 32.5394 109.337 31.1122 109.374 29.6715C109.374 28.0203 109.357 26.3223 109.324 24.6243C109.291 22.9598 109.255 21.2718 109.222 19.5537L109.139 15.8168C109.599 16.1678 110.068 16.2981 110.426 16.3282C110.505 16.3349 110.584 16.3483 110.664 16.3683C110.657 16.5254 110.65 16.6892 110.654 16.8663C110.687 17.5415 110.713 18.2034 110.73 18.8418C110.746 19.4802 110.756 20.122 110.756 20.7303L110.654 25.0555C110.621 26.4861 110.601 27.9501 110.601 29.4108C110.601 31.8408 110.558 34.2842 110.475 36.6741C110.389 39.0741 110.297 41.5074 110.194 44.031V44.753C110.194 45.134 110.25 45.5084 110.353 45.8159C110.571 46.5312 110.975 47.1195 111.557 47.5674C112.036 47.9351 112.546 48.2058 113.141 48.4064C113.733 48.5768 114.318 48.6637 114.877 48.6637C115.254 48.6637 115.658 48.6938 116.088 48.7573C116.653 48.8275 117.206 48.891 117.728 48.9412C118.281 48.9947 118.86 49.0247 119.405 49.0247H119.415C119.766 49.0414 120.116 49.0515 120.46 49.0515C120.804 49.0515 121.158 49.0414 121.496 49.0247C122.091 48.9913 122.726 48.9746 123.407 48.9746H123.464C123.983 48.9412 124.495 48.9412 124.985 48.9746C125.59 49.0114 126.219 48.9947 126.857 48.9211C127.561 48.8877 128.325 48.8442 129.149 48.7941C130.042 48.7406 130.928 48.6169 131.792 48.4331C132.721 48.2326 133.594 47.8983 134.391 47.4337C135.288 46.9123 135.992 46.1669 136.492 45.2076L136.518 45.1541C136.65 44.86 136.759 44.5558 136.845 44.2449C137.199 45.0338 137.728 45.6755 138.407 46.1468C138.903 46.5112 139.432 46.7786 139.987 46.939C140.444 47.0727 140.933 47.183 141.446 47.2632C142.461 47.4103 143.46 47.4705 144.459 47.4571C145.395 47.4404 146.364 47.3936 147.333 47.3234C148.223 47.2565 149.133 47.2164 150.035 47.1997C150.995 47.183 151.954 47.1362 152.896 47.066L152.953 47.0593C153.191 47.0292 153.442 47.0059 153.707 46.9891C154.104 46.9657 154.494 46.8855 154.868 46.7485C156.181 46.3808 157.232 45.5886 157.996 44.3987C158.661 43.3592 159.157 42.2428 159.465 41.0829C159.905 39.4183 160.1 37.7036 160.044 35.9856C159.994 34.4246 160.001 32.857 160.07 31.296V30.9317L160.05 30.9651ZM149.106 34.9628C149.106 34.9628 149.106 34.9761 149.106 34.9828C149.05 35.0263 148.964 35.0764 148.838 35.1265L148.173 35.3171C148.051 35.3538 147.925 35.3873 147.793 35.424C147.786 35.424 147.783 35.4207 147.776 35.4173C147.664 35.3538 147.578 35.2937 147.515 35.2402V35.2235V31.9077L147.618 28.7156C147.651 27.6259 147.671 26.5363 147.671 25.48C147.671 24.7781 147.624 24.0661 147.532 23.3709C147.456 22.7926 147.416 22.2077 147.416 21.5592C147.383 20.7971 147.376 20.0284 147.393 19.2796C147.409 18.5242 147.432 17.7254 147.462 16.9065C147.462 16.9065 147.482 16.863 147.571 16.7861C147.73 16.6491 147.886 16.5822 148.097 16.5655L148.144 16.5588C148.24 16.5488 148.339 16.5521 148.448 16.5689C148.494 16.7995 148.547 17.0402 148.6 17.2875C148.673 17.6218 148.722 17.9861 148.752 18.3571C148.818 19.3799 148.878 20.4194 148.927 21.4489C148.98 22.5252 149.04 23.5781 149.106 24.5608L149.209 26.7234C149.242 27.4321 149.258 28.1373 149.258 28.8225V31.189C149.258 31.9445 149.242 32.7233 149.209 33.5121V33.5555C149.209 33.6893 149.195 33.8397 149.172 33.9934C149.129 34.2809 149.106 34.5683 149.106 34.8692V34.9527V34.9628ZM135.909 30.8381V30.9985C135.757 30.808 135.592 30.6375 135.407 30.4905C135.612 30.2498 135.78 29.9991 135.913 29.7384C135.913 30.1061 135.909 30.4737 135.909 30.8414V30.8381ZM121.668 20.3726C121.654 19.0189 121.668 17.6318 121.72 16.2446C122.776 16.1243 123.85 16.1377 124.929 16.2914C125.078 16.3349 125.223 16.385 125.362 16.4385C125.362 16.4652 125.362 16.4953 125.362 16.5254L125.369 16.6658C125.431 17.2775 125.474 17.8892 125.491 18.4908C125.507 19.1326 125.534 19.7944 125.567 20.4562L125.58 20.5899C125.636 20.9676 125.666 21.3487 125.666 21.7264C125.666 22.1041 125.636 22.4851 125.58 22.8595C125.531 23.177 125.441 23.4745 125.312 23.7486C125.22 23.9458 125.084 24.1029 124.872 24.26L124.826 24.2968C124.459 24.6009 124.065 24.7614 123.592 24.7915C122.914 24.8383 122.26 24.8617 121.648 24.865C121.677 23.3642 121.684 21.8534 121.668 20.3693V20.3726ZM121.095 38.0212C121.327 38.0011 121.552 37.9911 121.77 37.9911H122.488C123.893 37.9576 125.319 37.9576 126.735 37.9911H126.751C126.791 38.1348 126.794 38.2384 126.781 38.3186C126.665 38.3521 126.543 38.3755 126.407 38.3821C126.152 38.3989 125.894 38.3955 125.636 38.3821C125.293 38.3621 125.001 38.3554 124.75 38.3554C124.052 38.3554 123.361 38.3387 122.699 38.3053C122.154 38.2785 121.611 38.2418 121.082 38.1916C121.089 38.1348 121.092 38.078 121.095 38.0212ZM68.2293 32.7868C68.14 32.8001 68.0309 32.8135 67.892 32.8336C67.5877 32.8737 67.2801 32.8937 66.9758 32.9004C67.0287 32.6865 67.0882 32.4358 67.1544 32.1517C67.3032 31.5032 67.4719 30.8147 67.6538 30.0927C67.7927 30.5774 67.9217 31.0821 68.0441 31.5901C68.1466 32.0146 68.2095 32.4191 68.2326 32.7868H68.2293Z" fill="#371A45"/>
<path d="M52.9754 37.5264C53.1441 37.7002 53.2566 37.8874 53.3062 38.0913C53.3558 38.2985 53.3988 38.5024 53.4352 38.7097C53.5013 39.5319 53.5013 40.3575 53.4352 41.1798C53.3657 42.0021 53.283 42.8277 53.1805 43.6499C53.1474 43.924 53.0945 44.2081 53.0284 44.4989C52.9589 44.7897 52.8398 45.0237 52.6712 45.1942C52.5025 45.3646 52.2974 45.485 52.0593 45.5551C51.8211 45.622 51.583 45.6922 51.3449 45.7624C50.8025 45.866 50.2766 45.9329 49.7672 45.9696C49.2579 46.003 48.7155 46.0198 48.1367 46.0198H38.3566C37.8141 46.0198 37.2684 45.9863 36.726 45.9161C36.2497 45.846 35.7735 45.7457 35.3005 45.6086C34.8242 45.4716 34.4339 45.2142 34.1297 44.8365C33.9246 44.5624 33.789 44.2516 33.7228 43.9106C33.6534 43.5663 33.5872 43.2254 33.5178 42.8811C33.2466 40.5815 33.1341 38.2484 33.187 35.8786C33.2367 33.5121 33.2962 31.1756 33.3656 28.876C33.4318 27.1613 33.5013 25.4599 33.5707 23.7786C33.6369 22.0973 33.6534 20.3993 33.6203 18.6813C33.5872 16.8964 33.5509 15.1115 33.5178 13.3266C33.4847 11.5417 33.6369 9.77347 33.9775 8.02533C34.0801 7.58078 34.2057 7.14291 34.3612 6.71172C34.5133 6.28388 34.7614 5.93292 35.0987 5.65549C35.3038 5.44825 35.5386 5.28781 35.8131 5.16748C36.0844 5.04715 36.3556 4.95356 36.6268 4.88336C37.4073 4.67613 38.1978 4.56582 38.9949 4.54911C39.792 4.5324 40.5825 4.59256 41.363 4.72961C41.5681 4.7998 41.7632 4.85662 41.9484 4.9101C42.1337 4.96024 42.3123 5.02041 42.4842 5.0906C42.9605 5.63877 43.2218 6.22371 43.2747 6.84208C43.3243 7.46045 43.3177 8.09553 43.2483 8.74732C43.1788 9.33226 43.1457 9.90383 43.1457 10.4721V20.0216C43.1457 21.6361 43.1524 23.2238 43.1722 24.7847C43.1887 26.3457 43.1788 27.9334 43.1457 29.5478C43.1127 30.6475 43.0366 31.7539 42.9175 32.8669C42.7985 33.9833 42.7555 35.1064 42.7918 36.2395C42.7918 36.5136 42.8415 36.7042 42.944 36.8044L43.0465 36.9081C43.1821 37.0117 43.4203 37.0618 43.7609 37.0618C45.0508 36.995 46.3506 36.9248 47.6571 36.8546C48.9635 36.7877 50.2633 36.8211 51.5532 36.9582C51.8244 37.0284 52.089 37.0852 52.3437 37.1387C52.5984 37.1888 52.8101 37.3192 52.9787 37.5231L52.9754 37.5264Z" fill="white"/>
<path d="M79.6169 40.4612C79.7855 42.1091 79.9641 43.757 80.1527 45.4048C80.3379 47.0527 80.5165 48.7006 80.6885 50.3484C80.7546 50.8297 80.7811 51.301 80.7645 51.7656C80.748 52.2302 80.5859 52.6481 80.2817 53.0258C80.0766 53.2999 79.8219 53.4971 79.5176 53.6174C79.2134 53.7377 78.9058 53.8313 78.6015 53.9015C78.0227 54.0386 77.4538 54.1087 76.8948 54.1087C76.3359 54.1087 75.7637 54.0753 75.1882 54.0051C74.9501 53.9717 74.7285 53.9349 74.5267 53.9015C74.3217 53.8681 74.1199 53.8146 73.9148 53.7478C73.2004 53.4402 72.6746 52.9054 72.3372 52.1534C72.1652 51.7757 72.0395 51.408 71.9535 51.047C71.8675 50.686 71.7915 50.3183 71.7253 49.9406C71.6228 49.3924 71.5203 48.851 71.421 48.3195C71.3185 47.788 71.2325 47.2466 71.1664 46.6984C71.0969 46.4911 71.0638 46.3207 71.0638 46.1836C70.9613 45.7023 70.8753 45.1876 70.8092 44.6394C70.7397 44.0912 70.5545 43.6099 70.2502 43.1988C69.9459 42.7542 69.6218 42.5202 69.2811 42.5035C68.9405 42.4868 68.5336 42.5135 68.0574 42.5804C67.548 42.6138 67.0122 42.5971 66.4533 42.5303C65.8943 42.4601 65.3585 42.4099 64.8492 42.3765C64.5085 42.3063 64.2704 42.3598 64.1348 42.5303C64.0653 42.6004 64.0256 42.6773 64.0091 42.7609C63.9925 42.8478 63.9661 42.9247 63.933 42.9915C63.8635 43.3692 63.7709 43.7369 63.6519 44.0979C63.5328 44.4589 63.3873 44.7931 63.2186 45.1007C63.0466 45.3747 62.8448 45.6221 62.6067 45.846C62.3686 46.07 62.1139 46.2338 61.8427 46.334C61.3664 46.5045 60.8902 46.548 60.4172 46.4611C59.9409 46.3742 59.4647 46.314 58.9917 46.2806C58.5154 46.2471 58.0557 46.2639 57.6158 46.3307C57.1726 46.3975 56.7162 46.4143 56.2399 46.3808C55.7967 46.3808 55.4593 46.2939 55.2212 46.1235C55.0162 45.9864 54.8739 45.7959 54.7879 45.5586C54.7019 45.3179 54.6424 45.0773 54.6093 44.8366C54.5399 44.1514 54.616 43.4829 54.8375 42.8277C55.0591 42.1759 55.2708 41.5409 55.4759 40.9225C56.0514 39.1042 56.478 37.2658 56.7492 35.414C57.0205 33.5623 57.3942 31.7072 57.8705 29.8554C58.1748 28.5518 58.4393 27.2549 58.6609 25.9681C58.8825 24.6812 59.1273 23.3876 59.3985 22.0807C59.6366 20.9476 59.8748 19.8345 60.1129 18.7349C60.351 17.6385 60.6388 16.5388 60.9795 15.4391C61.1481 14.891 61.2771 14.3227 61.3631 13.7411C61.4458 13.1562 61.5417 12.5746 61.6443 11.9896C61.7468 11.4415 61.8659 10.9 62.0015 10.3685C62.1371 9.83706 62.3421 9.31229 62.6133 8.79754C62.6795 8.62707 62.7655 8.44657 62.868 8.25605C62.9705 8.06887 63.0532 7.87166 63.1227 7.66442C63.2583 7.1831 63.4633 6.76194 63.7346 6.40429C64.0058 6.0433 64.3266 5.70905 64.7036 5.40154C64.9748 5.16087 65.256 4.98038 65.5437 4.86005C65.8315 4.73972 66.1457 4.71298 66.4863 4.78317C67.0288 4.85336 67.5546 4.86005 68.0673 4.80991C68.5766 4.75977 69.1025 4.73303 69.6449 4.73303C70.8323 4.73303 71.9039 4.97369 72.8532 5.45502C73.5312 5.76253 73.9744 6.27728 74.1761 6.99926C74.3448 7.41039 74.4639 7.89171 74.5333 8.43989C74.6689 9.12845 74.788 9.82035 74.8905 10.5256C74.9931 11.2309 75.0956 11.9428 75.1948 12.6615C75.6347 15.6831 76.0944 18.6847 76.5707 21.6696C77.047 24.6545 77.5199 27.6594 77.9962 30.6777C78.1318 31.5701 78.2674 32.4526 78.403 33.3283C78.5386 34.204 78.6742 35.0865 78.8098 35.9789C78.9455 36.7343 79.1141 37.473 79.3192 38.1917C79.5243 38.9137 79.6235 39.6691 79.6235 40.4579L79.6169 40.4612ZM69.2745 33.8731C69.4796 33.7027 69.5722 33.3684 69.5556 32.8704C69.5391 32.3723 69.463 31.8409 69.3274 31.276C69.1918 30.7111 69.0463 30.1629 68.8942 29.6281C68.742 29.0967 68.6461 28.7089 68.613 28.4716C68.5436 27.9234 68.451 27.3719 68.3319 26.8237C68.2128 26.2756 68.0838 25.7241 67.9482 25.1759H67.7961C67.6936 25.1759 67.5249 25.5703 67.2867 26.3591C67.0486 27.148 66.8039 28.0404 66.5492 29.0365C66.2945 30.0326 66.0663 30.9685 65.8612 31.8409C65.6562 32.7133 65.5206 33.2581 65.4544 33.462C65.385 33.7695 65.4974 33.9767 65.7852 34.0804C66.0729 34.184 66.4235 34.2341 66.8303 34.2341C67.2371 34.2341 67.6439 34.2074 68.0541 34.1572C68.4609 34.1071 68.7321 34.0636 68.8677 34.0302C69.0728 33.96 69.2084 33.9099 69.2745 33.8765V33.8731Z" fill="white"/>
<path d="M107.889 19.6105C107.922 21.3252 107.958 23.0166 107.992 24.6811C108.025 26.3457 108.041 28.0203 108.041 29.7016C108.008 31.1088 107.949 32.4993 107.863 33.8731C107.777 35.2468 107.7 36.6373 107.634 38.0445C107.565 39.3481 107.542 40.6617 107.558 41.982C107.575 43.3023 107.548 44.6159 107.482 45.9195C107.449 46.5713 107.423 47.2231 107.406 47.8749C107.39 48.5267 107.297 49.1618 107.125 49.7801C107.022 50.2247 106.93 50.6893 106.844 51.1706C106.758 51.6519 106.53 52.0464 106.156 52.3539C105.885 52.5945 105.554 52.7817 105.164 52.9188C104.773 53.0558 104.406 53.1761 104.069 53.2797C103.626 53.4502 103.143 53.5204 102.617 53.487C102.091 53.4536 101.605 53.3834 101.165 53.2797C100.623 53.1761 100.12 52.9522 99.6634 52.6112C99.2037 52.267 98.8895 51.8391 98.7208 51.3244C98.6183 50.9132 98.5687 50.482 98.5687 50.0375C98.4992 48.4932 98.4496 46.9557 98.4165 45.4315C98.3834 43.904 98.3834 42.3698 98.4165 40.8222C98.486 39.1409 98.4926 37.4596 98.443 35.7783C98.3934 34.097 98.3669 32.399 98.3669 30.681C98.3338 29.1367 98.3404 27.5925 98.3934 26.0482C98.443 24.504 98.5025 22.9597 98.572 21.4155C98.605 21.0044 98.6414 20.5832 98.6745 20.1554C98.7076 19.7275 98.7572 19.2729 98.8266 18.7916L98.5984 19.0223L98.4198 19.2027C98.0461 19.6841 97.6823 20.1487 97.3251 20.5932C96.9679 21.0411 96.604 21.5024 96.2303 21.9837C95.8566 22.465 95.4233 22.7124 94.9305 22.7291C94.4377 22.7458 94.0044 22.5152 93.6307 22.0339C93.2569 21.5525 92.8997 21.0044 92.5624 20.386C92.3937 20.1119 92.2316 19.8545 92.0795 19.6139C91.9273 19.3732 91.7653 19.1158 91.5966 18.8418C91.5271 18.8418 91.461 18.8585 91.3915 18.8919C91.4246 19.1994 91.4411 19.5169 91.4411 19.8445V20.7971C91.4742 22.5152 91.5007 24.2199 91.5172 25.9212C91.5337 27.6192 91.5238 29.3272 91.4907 31.042C91.4907 32.0046 91.4643 32.9572 91.4147 33.8998C91.3651 34.8457 91.3221 35.795 91.289 36.7577C91.2195 38.0612 91.1633 39.3581 91.1104 40.645C91.0575 41.9319 91.0012 43.2288 90.9318 44.5324C90.9318 44.7028 90.9219 44.8833 90.9053 45.0739C90.8888 45.261 90.8623 45.4415 90.8293 45.6153C90.7267 46.0599 90.4721 46.354 90.0652 46.4911C89.5228 46.6983 88.987 46.8855 88.4611 47.056C87.9353 47.2264 87.3829 47.2632 86.8041 47.1596C85.921 47.056 85.071 46.8521 84.2574 46.5412C83.0006 46.0265 82.3225 45.0672 82.22 43.66C82.0149 40.9158 81.9058 38.1782 81.8893 35.4474C81.8727 32.7199 81.8628 29.9657 81.8628 27.1847C81.8628 25.8811 81.9223 24.5675 82.0414 23.2472C82.1605 21.9269 82.2531 20.6133 82.3225 19.3097C82.392 18.1097 82.4482 16.9064 82.5011 15.7065C82.5507 14.5065 82.6103 13.3032 82.6797 12.1032C82.7492 11.3812 82.8054 10.6626 82.8583 9.94062C82.9113 9.21864 82.984 8.51671 83.0865 7.83149C83.1196 7.52398 83.1792 7.22315 83.2651 6.92901C83.3478 6.63821 83.4603 6.3541 83.5959 6.08001C83.8671 5.29118 84.4095 4.89676 85.2265 4.89676C85.8714 4.89676 86.4998 4.90679 87.1117 4.9235C87.7236 4.94021 88.3354 4.95024 88.944 4.95024C89.0135 4.95024 89.0796 4.96027 89.1491 4.97698C89.2152 4.99369 89.2847 4.98701 89.3541 4.95024C90.2042 4.84662 90.8987 5.15748 91.4411 5.87612C92.053 6.66495 92.6814 7.41368 93.3264 8.11561C93.9713 8.82088 94.5137 9.6164 94.9569 10.5089C94.99 10.579 95.0165 10.6192 95.033 10.6359C95.0495 10.6526 95.0925 10.696 95.1587 10.7662C95.3968 10.5256 95.5655 10.3384 95.668 10.2013C96.2435 9.34231 96.8819 8.53676 97.5797 7.78136C98.2743 7.02595 99.0152 6.28725 99.7957 5.56861C100.067 5.29452 100.381 5.06389 100.738 4.87336C101.096 4.68618 101.492 4.6093 101.936 4.64273C102.581 4.64273 103.219 4.65276 103.847 4.66947C104.476 4.68618 105.111 4.71292 105.759 4.74635C105.964 4.74635 106.166 4.77977 106.371 4.84996C106.576 4.92016 106.745 4.9703 106.88 5.00372C107.525 5.69228 107.849 6.40424 107.849 7.13959C107.849 7.87495 107.833 8.60696 107.8 9.32894C107.8 9.53618 107.783 9.73339 107.75 9.92057C107.717 10.1111 107.7 10.3083 107.7 10.5122C107.734 12.0564 107.77 13.5739 107.803 15.068C107.836 16.5622 107.869 18.0797 107.906 19.6239L107.889 19.6105Z" fill="white"/>
<path d="M135.04 32.0714C135.413 32.5862 135.684 33.1945 135.853 33.8998C136.022 34.6051 136.124 35.2802 136.157 35.932C136.227 36.995 136.217 38.0612 136.131 39.1241C136.045 40.1871 135.936 41.2533 135.8 42.3162C135.767 42.694 135.714 43.0817 135.648 43.4761C135.579 43.8705 135.46 44.2583 135.291 44.6326C134.917 45.3546 134.391 45.9095 133.713 46.3072C133.035 46.7016 132.294 46.9858 131.497 47.1562C130.7 47.3267 129.883 47.4403 129.053 47.4905C128.22 47.5406 127.449 47.5841 126.735 47.6208C126.156 47.6877 125.597 47.7044 125.054 47.671C124.512 47.6375 123.95 47.6375 123.374 47.671C122.693 47.671 122.041 47.6877 121.413 47.7211C120.784 47.7545 120.13 47.7545 119.452 47.7211C118.909 47.7211 118.373 47.6944 117.847 47.6442C117.322 47.5941 116.786 47.5339 116.243 47.4637C115.767 47.3935 115.307 47.3601 114.867 47.3601C114.428 47.3601 113.968 47.2899 113.492 47.1529C113.085 47.0158 112.701 46.8086 112.347 46.5345C111.99 46.2604 111.745 45.8994 111.61 45.4549C111.54 45.2476 111.507 45.027 111.507 44.7864V44.0644C111.61 41.5943 111.702 39.1576 111.788 36.7543C111.871 34.351 111.914 31.9143 111.914 29.4442C111.914 28.0036 111.93 26.563 111.964 25.119C111.997 23.6784 112.03 22.2377 112.066 20.7938C112.066 20.142 112.056 19.4902 112.04 18.8384C112.023 18.1866 111.997 17.5181 111.964 16.8295C111.964 16.5554 111.98 16.2814 112.013 16.0073C112.046 15.7332 111.911 15.5092 111.606 15.3388C111.266 15.1683 110.908 15.0647 110.538 15.0313C110.164 14.9978 109.84 14.7906 109.569 14.4129C109.433 14.2424 109.357 14.0452 109.341 13.8213C109.324 13.5973 109.298 13.3667 109.265 13.126C109.265 12.6447 109.238 12.1233 109.189 11.555C109.139 10.9901 109.113 10.4219 109.113 9.85703C109.113 9.29215 109.162 8.73395 109.265 8.18243C109.367 7.63426 109.552 7.13622 109.824 6.68832C109.89 6.55128 109.976 6.43095 110.078 6.32733C110.214 6.22371 110.452 6.14015 110.793 6.06996C111.438 5.96634 112.076 5.93291 112.704 5.96634C113.333 5.99977 113.968 6.01648 114.616 6.01648C115.294 5.98305 115.975 5.96634 116.653 5.96634H118.691C119.607 5.96634 120.523 5.97637 121.443 5.99308C122.359 6.00979 123.292 6.01982 124.244 6.01982C125.637 6.09001 127.029 6.09001 128.421 6.01982C129.202 6.01982 129.956 6.11341 130.687 6.30393C131.418 6.49446 132.122 6.75852 132.8 7.1028C133.65 7.51393 134.259 8.25262 134.633 9.31555C135.142 10.8598 135.446 12.4542 135.549 14.102C135.615 15.0981 135.684 16.0942 135.754 17.0869C135.82 18.083 135.873 19.079 135.906 20.0718C135.972 21.2751 135.972 22.4583 135.906 23.6249C135.837 24.7914 135.635 25.958 135.294 27.1245C135.261 27.295 135.235 27.4521 135.218 27.5891C135.202 27.7261 135.175 27.8632 135.142 28.0002C135.04 28.3445 134.93 28.6621 134.811 28.9529C134.692 29.2437 134.497 29.5278 134.226 29.8019C134.057 29.9757 133.885 30.1628 133.717 30.3667C133.548 30.574 133.376 30.7979 133.207 31.0352C133.412 31.1054 133.581 31.1389 133.717 31.1389C134.295 31.2425 134.735 31.55 135.04 32.0647V32.0714ZM127.958 38.9704C128.163 38.4891 128.163 37.9743 127.958 37.4261C127.823 37.1186 127.654 36.8947 127.449 36.7576C127.313 36.6874 127.075 36.654 126.735 36.654C125.309 36.6206 123.884 36.6206 122.455 36.654H121.767C121.443 36.654 121.122 36.6707 120.798 36.7042C120.474 36.7376 120.196 36.8078 119.958 36.9114C119.719 37.015 119.634 37.1855 119.703 37.4261C119.772 37.6668 119.789 37.8974 119.753 38.1214C119.719 38.3453 119.719 38.576 119.753 38.8166C119.753 39.0907 119.822 39.2812 119.958 39.3815C120.027 39.4149 120.077 39.4317 120.11 39.4317C120.143 39.4317 120.192 39.4484 120.262 39.4818H120.566C121.244 39.552 121.932 39.6021 122.63 39.6355C123.325 39.669 124.032 39.6857 124.743 39.6857C124.982 39.6857 125.253 39.6957 125.557 39.7124C125.861 39.7291 126.169 39.7291 126.473 39.7124C126.778 39.6957 127.065 39.6355 127.34 39.5319C127.611 39.4283 127.816 39.2411 127.952 38.967L127.958 38.9704ZM120.725 26.0482C120.93 26.1518 121.201 26.202 121.539 26.202C122.217 26.202 122.931 26.1752 123.678 26.1251C124.426 26.0749 125.087 25.8075 125.666 25.3262C126.04 25.0521 126.321 24.7179 126.506 24.3235C126.692 23.929 126.821 23.5079 126.89 23.0633C126.959 22.6188 126.993 22.1709 126.993 21.7263C126.993 21.2818 126.959 20.8339 126.89 20.3893C126.857 19.7375 126.83 19.0958 126.814 18.4573C126.797 17.8223 126.754 17.1805 126.685 16.5254C126.685 16.1811 126.615 15.8736 126.48 15.5995C126.308 15.429 126.113 15.2987 125.894 15.2118C125.673 15.1282 125.445 15.048 125.207 14.9811C123.814 14.7739 122.438 14.7739 121.079 14.9811C120.841 14.9811 120.652 15.0513 120.52 15.1884C120.487 15.2585 120.47 15.3254 120.47 15.3956C120.47 15.4658 120.454 15.5326 120.421 15.6028C120.351 17.2173 120.328 18.8116 120.345 20.3893C120.361 21.967 120.351 23.548 120.318 25.1257V25.4599C120.318 25.5802 120.351 25.6738 120.421 25.744C120.454 25.8476 120.556 25.9513 120.725 26.0515V26.0482Z" fill="white"/>
<path d="M158.728 31.2994C158.658 32.8771 158.652 34.4648 158.701 36.0625C158.751 37.6569 158.575 39.2279 158.165 40.7721C157.894 41.8016 157.461 42.7809 156.866 43.7068C156.27 44.6327 155.463 45.2344 154.444 45.5084C154.173 45.6121 153.892 45.6722 153.604 45.6889C153.317 45.7057 153.035 45.7324 152.764 45.7658C151.848 45.8327 150.922 45.8761 149.989 45.8928C149.053 45.9095 148.131 45.953 147.214 46.0198C146.262 46.09 145.329 46.1302 144.413 46.1502C143.497 46.1669 142.561 46.1068 141.612 45.9697C141.168 45.8995 140.745 45.8059 140.338 45.6856C139.931 45.5653 139.541 45.3681 139.167 45.094C138.625 44.7163 138.225 44.2115 137.97 43.5765C137.715 42.9414 137.537 42.2796 137.434 41.5944C137.365 41.0462 137.325 40.4947 137.309 39.9465C137.292 39.3983 137.282 38.8334 137.282 38.2485C137.282 37.0118 137.272 35.7784 137.256 34.5416C137.239 33.3049 137.229 32.0715 137.229 30.8348C137.229 29.2237 137.256 27.6159 137.305 26.0216C137.355 24.4272 137.467 22.8228 137.636 21.2083C137.805 19.4936 137.924 17.7856 137.993 16.0842C138.059 14.3862 138.129 12.6782 138.198 10.9602C138.231 10.6861 138.264 10.4287 138.301 10.188C138.334 9.94737 138.403 9.70671 138.506 9.46605C138.777 8.74406 139.058 8.04213 139.346 7.35358C139.634 6.66836 140.117 6.11684 140.798 5.70571C141.443 5.32801 142.137 5.08066 142.885 4.96033C143.632 4.84 144.38 4.74641 145.127 4.67622C146.077 4.60937 147.013 4.56591 147.929 4.5492C148.845 4.53249 149.761 4.52246 150.681 4.52246C151.461 4.52246 152.242 4.56591 153.022 4.64948C153.803 4.73638 154.534 4.96702 155.212 5.34472C155.926 5.72243 156.512 6.2472 156.968 6.91571C157.428 7.58421 157.775 8.31288 158.013 9.10506C158.251 9.89389 158.397 10.6928 158.446 11.4983C158.496 12.3038 158.539 13.1027 158.575 13.8915C158.642 15.1617 158.685 16.4218 158.701 17.6753C158.718 18.9287 158.708 20.1889 158.675 21.459C158.642 22.2478 158.605 23.03 158.572 23.8021C158.539 24.5742 158.503 25.3564 158.47 26.1452C158.437 26.8672 158.41 27.5959 158.394 28.3346C158.377 29.0733 158.453 29.8187 158.622 30.5741C158.691 30.7111 158.724 30.8415 158.724 30.9618V31.296L158.728 31.2994ZM150.525 33.5656C150.558 32.7768 150.575 31.9879 150.575 31.1991V28.8326C150.575 28.1106 150.558 27.392 150.525 26.67C150.492 25.948 150.456 25.2294 150.423 24.5074C150.353 23.4779 150.297 22.4384 150.244 21.3922C150.194 20.346 150.135 19.3064 150.065 18.2769C150.032 17.8324 149.973 17.4112 149.887 17.0168C149.801 16.6224 149.725 16.2547 149.659 15.9104C149.387 15.5661 149.106 15.3623 148.819 15.2921C148.531 15.2219 148.25 15.2052 147.978 15.2419C147.502 15.2753 147.079 15.4558 146.705 15.7834C146.331 16.111 146.146 16.4787 146.146 16.8898C146.113 17.6786 146.087 18.4675 146.07 19.2563C146.053 20.0451 146.06 20.834 146.096 21.6228C146.096 22.2746 146.139 22.9197 146.225 23.5548C146.308 24.1899 146.351 24.835 146.351 25.4867C146.351 26.5497 146.335 27.6159 146.302 28.6789C146.268 29.7418 146.232 30.808 146.199 31.871V35.1667C146.166 35.5444 146.242 35.8352 146.427 36.0424C146.612 36.2497 146.861 36.4368 147.165 36.6073C147.3 36.6775 147.505 36.7444 147.777 36.8145C148.048 36.7477 148.303 36.6775 148.541 36.6073C148.779 36.5371 149.017 36.4703 149.255 36.4001C149.629 36.263 149.926 36.0759 150.148 35.8352C150.37 35.5945 150.462 35.2703 150.429 34.8558C150.429 34.6486 150.446 34.4347 150.479 34.2141C150.512 33.9901 150.528 33.7762 150.528 33.569L150.525 33.5656Z" fill="white"/>
<path d="M27.9705 8.99249C27.9599 8.56504 27.9641 8.122 27.9854 7.67674C28.0109 7.32275 28.0024 6.96877 27.9641 6.62814C27.9195 6.23853 27.8089 5.84448 27.6388 5.45487L27.6112 5.39698C27.1986 4.59774 26.5394 4.0701 25.7059 3.8675L25.6463 3.85414C25.3869 3.80962 25.1211 3.76286 24.8468 3.71834C24.5257 3.66491 24.2003 3.63374 23.8814 3.63819C23.7134 3.64264 23.5433 3.64487 23.371 3.64487C23.337 2.98588 22.9904 2.33357 22.8798 2.1421C22.3355 1.19814 21.7294 1 21.3169 1L19.839 1.03339C18.8417 1.04007 18.0273 1.90834 17.9826 2.99033L17.8891 3.59589C17.6658 3.60702 17.451 3.62261 17.2447 3.64042C16.8492 3.66491 16.4601 3.70943 16.0837 3.76954C15.6435 3.84301 15.214 3.99218 14.8036 4.21481C14.2507 4.47751 13.8658 4.84931 13.6596 5.32574L13.6511 5.34578C13.5809 5.51721 13.5171 5.68195 13.4597 5.8378C13.3938 6.01368 13.3363 6.19846 13.2853 6.38324L13.2662 6.4723C12.9982 7.9439 12.8451 9.4578 12.8132 10.9761C12.7792 12.49 12.8536 13.9995 13.0301 15.4622C13.0833 15.9141 13.1832 16.326 13.3257 16.68L13.3512 16.7401C13.4895 17.0317 13.6766 17.2922 13.9041 17.5126C14.0678 17.6707 14.238 17.8154 14.4102 17.9468C15.1885 18.608 15.9774 19.287 16.7535 19.966C17.5297 20.6451 18.3335 21.3374 19.1458 22.0276C19.3414 22.1924 19.5285 22.3616 19.7008 22.5308C19.8199 22.6487 19.9177 22.7823 19.9985 22.9359L20.0219 22.9782C20.1601 23.2142 20.2239 23.4703 20.2175 23.7552C20.209 24.1382 20.1899 24.53 20.1601 24.9218C20.1091 24.933 20.0538 24.9441 19.9942 24.9574C19.839 24.9931 19.671 25.0198 19.4924 25.0376C19.4796 24.9552 19.4754 24.8662 19.4818 24.7704C19.5052 24.363 19.5158 23.9779 19.5158 23.6283L19.5073 23.4992C19.4818 23.2922 19.452 23.0896 19.4158 22.9025C19.3521 22.5641 19.2096 22.2569 18.9969 21.9875L18.9374 21.9185C18.6418 21.6091 18.2697 21.4087 17.8614 21.3419C17.6445 21.3063 17.4276 21.2751 17.2192 21.2506L17.1108 21.2439C16.9045 21.2439 16.7216 21.2395 16.5494 21.2284C16.3474 21.2172 16.1305 21.2105 15.9093 21.2105C15.4968 21.1883 15.0673 21.2016 14.6271 21.2506C14.0147 21.3196 13.4831 21.569 13.0493 21.9898C12.6325 22.3905 12.3667 22.8892 12.2625 23.4725C12.1944 23.8576 12.137 24.2428 12.0924 24.6168L12.086 24.6792C12.0413 25.4138 12.0137 26.1463 12.0031 26.861C11.9924 27.5845 12.0094 28.3192 12.0541 29.0606C12.0754 29.3411 12.1051 29.626 12.1392 29.9043C12.1902 30.3207 12.3263 30.7014 12.5368 31.0353C12.6686 31.2424 12.8196 31.4271 12.9897 31.5874C13.1088 31.701 13.2343 31.8101 13.3576 31.9147L13.4512 31.9837C13.6107 32.0884 13.7723 32.1997 13.9339 32.3154C14.1805 32.4935 14.4485 32.6338 14.7292 32.7295C15.0396 32.8386 15.3586 32.8832 15.6797 32.8653C15.7881 32.8587 15.9115 32.8698 16.0433 32.8987L16.1305 32.9121C16.3431 32.9366 16.5558 32.9544 16.7663 32.9677C16.9449 32.9789 17.1363 32.9945 17.3192 33.0123C17.602 33.0479 17.8912 33.0791 18.1804 33.108L18.2229 33.462C18.2867 34.1366 18.695 34.7911 18.8204 34.9781C19.3754 35.8041 19.9368 36 20.343 36C20.3813 36 20.4174 36 20.4536 35.9955L21.8761 35.8353C22.378 35.7863 22.8437 35.508 23.152 35.0716C23.4242 34.6887 23.5603 34.2123 23.5411 33.7225L23.5879 33.0434L24.1642 33.0212H24.1876C24.6193 32.9922 25.0297 32.9254 25.4103 32.8164C25.8462 32.6895 26.2587 32.4601 26.6372 32.1329C27.2518 31.6676 27.4304 31.0976 27.4666 30.6835C27.507 30.3652 27.5537 30.0513 27.6027 29.7463C27.6643 29.3722 27.6962 29.0004 27.6983 28.6398C27.7409 27.8851 27.7621 27.1214 27.7621 26.3734V24.0625C27.7409 23.5326 27.7239 22.9872 27.7132 22.4417C27.7026 21.8673 27.6728 21.2818 27.6303 20.7052L27.6133 20.5827C27.575 20.3824 27.5389 20.1709 27.5091 19.9549C27.4602 19.6143 27.3539 19.2892 27.1965 18.9842C27.0391 18.6614 26.801 18.3364 26.4714 17.9913C26.0057 17.5037 25.5039 17.054 24.9829 16.6533C24.498 16.2815 23.9962 15.9052 23.4901 15.5379C23.1711 15.3041 22.8501 15.0726 22.5311 14.8388C22.8968 14.8388 23.2775 14.8455 23.6624 14.8544C24.043 14.8655 24.4343 14.8722 24.8319 14.8722C25.1296 14.8967 25.4273 14.8945 25.7165 14.8678C26.1375 14.8299 26.5331 14.6763 26.8903 14.4158C27.2518 14.1509 27.5218 13.8147 27.692 13.4184C27.8344 13.0889 27.9216 12.7327 27.9535 12.3565C27.979 12.0537 27.9854 11.7465 27.9727 11.4437C27.9641 11.2455 27.9599 11.0429 27.9578 10.8448C27.979 10.7201 27.9897 10.5821 27.9897 10.424C27.9897 9.95204 27.9833 9.47115 27.9727 8.99249H27.9705ZM20.0261 12.2808C20.1856 12.2719 20.343 12.2652 20.4961 12.2652C20.4918 12.3943 20.4897 12.5257 20.4897 12.657C20.4897 12.844 20.5088 13.0333 20.5429 13.2225C20.4536 13.1335 20.3685 13.0399 20.2898 12.9464C20.2218 12.8641 20.1665 12.7661 20.1218 12.6481L20.0665 12.5279C20.0261 12.4522 20.0027 12.3743 19.9942 12.2808C20.0049 12.2808 20.0155 12.2808 20.0261 12.2785V12.2808Z" fill="#371A45"/>
<path d="M30.9705 9.99249C30.9599 9.56504 30.9641 9.122 30.9854 8.67674C31.0109 8.32275 31.0024 7.96877 30.9641 7.62814C30.9195 7.23853 30.8089 6.84447 30.6388 6.45487L30.6112 6.39698C30.1986 5.59774 29.5394 5.0701 28.7059 4.8675L28.6463 4.85414C28.3869 4.80962 28.1211 4.76286 27.8468 4.71834C27.5257 4.66491 27.2003 4.63374 26.8814 4.63819C26.7134 4.64264 26.5433 4.64487 26.371 4.64487C26.337 3.98588 25.9904 3.33357 25.8798 3.1421C25.3355 2.19814 24.7294 2 24.3169 2L22.839 2.03339C21.8417 2.04007 21.0273 2.90834 20.9826 3.99033L20.8891 4.59589C20.6658 4.60702 20.451 4.62261 20.2447 4.64042C19.8492 4.66491 19.4601 4.70943 19.0837 4.76954C18.6435 4.84301 18.214 4.99218 17.8036 5.21481C17.2507 5.47751 16.8658 5.84931 16.6596 6.32574L16.6511 6.34578C16.5809 6.51721 16.5171 6.68195 16.4597 6.8378C16.3938 7.01368 16.3363 7.19846 16.2853 7.38324L16.2662 7.4723C15.9982 8.9439 15.8451 10.4578 15.8132 11.9761C15.7792 13.49 15.8536 14.9995 16.0301 16.4622C16.0833 16.9141 16.1832 17.326 16.3257 17.68L16.3512 17.7401C16.4895 18.0317 16.6766 18.2922 16.9041 18.5126C17.0678 18.6707 17.238 18.8154 17.4102 18.9468C18.1885 19.608 18.9774 20.287 19.7535 20.966C20.5297 21.6451 21.3335 22.3374 22.1458 23.0276C22.3414 23.1924 22.5285 23.3616 22.7008 23.5308C22.8199 23.6487 22.9177 23.7823 22.9985 23.9359L23.0219 23.9782C23.1601 24.2142 23.2239 24.4703 23.2175 24.7552C23.209 25.1382 23.1899 25.53 23.1601 25.9218C23.1091 25.933 23.0538 25.9441 22.9942 25.9574C22.839 25.9931 22.671 26.0198 22.4924 26.0376C22.4796 25.9552 22.4754 25.8662 22.4818 25.7704C22.5052 25.363 22.5158 24.9779 22.5158 24.6283L22.5073 24.4992C22.4818 24.2922 22.452 24.0896 22.4158 23.9025C22.3521 23.5641 22.2096 23.2569 21.9969 22.9875L21.9374 22.9185C21.6418 22.6091 21.2697 22.4087 20.8614 22.3419C20.6445 22.3063 20.4276 22.2751 20.2192 22.2506L20.1108 22.2439C19.9045 22.2439 19.7216 22.2395 19.5494 22.2284C19.3474 22.2172 19.1305 22.2105 18.9093 22.2105C18.4968 22.1883 18.0673 22.2016 17.6271 22.2506C17.0147 22.3196 16.4831 22.569 16.0493 22.9898C15.6325 23.3905 15.3667 23.8892 15.2625 24.4725C15.1944 24.8576 15.137 25.2428 15.0924 25.6168L15.086 25.6792C15.0413 26.4138 15.0137 27.1463 15.0031 27.8609C14.9924 28.5845 15.0094 29.3192 15.0541 30.0606C15.0754 30.3411 15.1051 30.626 15.1392 30.9043C15.1902 31.3207 15.3263 31.7014 15.5368 32.0353C15.6686 32.2424 15.8196 32.4271 15.9897 32.5874C16.1088 32.701 16.2343 32.8101 16.3576 32.9147L16.4512 32.9837C16.6107 33.0884 16.7723 33.1997 16.9339 33.3154C17.1805 33.4935 17.4485 33.6338 17.7292 33.7295C18.0396 33.8386 18.3586 33.8832 18.6797 33.8653C18.7881 33.8587 18.9115 33.8698 19.0433 33.8987L19.1305 33.9121C19.3431 33.9366 19.5558 33.9544 19.7663 33.9678C19.9449 33.9789 20.1363 33.9945 20.3192 34.0123C20.602 34.0479 20.8912 34.0791 21.1804 34.108L21.2229 34.462C21.2867 35.1366 21.695 35.7911 21.8204 35.9781C22.3754 36.8041 22.9368 37 23.343 37C23.3813 37 23.4174 37 23.4536 36.9955L24.8761 36.8353C25.378 36.7863 25.8437 36.508 26.152 36.0716C26.4242 35.6887 26.5603 35.2123 26.5411 34.7225L26.5879 34.0434L27.1642 34.0212H27.1876C27.6193 33.9922 28.0297 33.9254 28.4103 33.8164C28.8462 33.6895 29.2587 33.4601 29.6372 33.1329C30.2518 32.6676 30.4304 32.0976 30.4666 31.6835C30.507 31.3652 30.5537 31.0513 30.6027 30.7463C30.6643 30.3722 30.6962 30.0004 30.6983 29.6398C30.7409 28.8851 30.7621 28.1214 30.7621 27.3734V25.0625C30.7409 24.5326 30.7239 23.9872 30.7132 23.4417C30.7026 22.8673 30.6728 22.2818 30.6303 21.7052L30.6133 21.5827C30.575 21.3824 30.5389 21.1709 30.5091 20.9549C30.4602 20.6143 30.3539 20.2892 30.1965 19.9842C30.0391 19.6614 29.801 19.3364 29.4714 18.9913C29.0057 18.5037 28.5039 18.054 27.9829 17.6533C27.498 17.2815 26.9962 16.9052 26.4901 16.5379C26.1711 16.3041 25.8501 16.0726 25.5311 15.8388C25.8968 15.8388 26.2775 15.8455 26.6624 15.8544C27.043 15.8655 27.4343 15.8722 27.8319 15.8722C28.1296 15.8967 28.4273 15.8945 28.7165 15.8678C29.1375 15.8299 29.5331 15.6763 29.8903 15.4158C30.2518 15.1509 30.5218 14.8147 30.692 14.4184C30.8344 14.0889 30.9216 13.7327 30.9535 13.3565C30.979 13.0537 30.9854 12.7465 30.9727 12.4437C30.9641 12.2455 30.9599 12.0429 30.9578 11.8448C30.979 11.7201 30.9897 11.5821 30.9897 11.424C30.9897 10.952 30.9833 10.4712 30.9727 9.99249H30.9705ZM23.0261 13.2808C23.1856 13.2719 23.343 13.2652 23.4961 13.2652C23.4918 13.3943 23.4897 13.5257 23.4897 13.657C23.4897 13.844 23.5088 14.0333 23.5429 14.2225C23.4536 14.1335 23.3685 14.0399 23.2898 13.9464C23.2218 13.8641 23.1665 13.7661 23.1218 13.6481L23.0665 13.5279C23.0261 13.4522 23.0027 13.3743 22.9942 13.2808C23.0049 13.2808 23.0155 13.2808 23.0261 13.2785V13.2808Z" fill="#371A45"/>
<path d="M27.9639 6.73046C27.9303 6.44884 27.8429 6.16061 27.704 5.86578C27.4038 5.32233 26.9556 4.98349 26.3574 4.84708C26.0818 4.80087 25.7995 4.75687 25.5105 4.71067C25.2214 4.66666 24.9413 4.64246 24.6635 4.64246C24.1392 4.65346 23.6171 4.65346 23.0929 4.64906L23.0503 3.71837C23.0503 3.15071 22.4296 2 21.9053 2L20.3414 2.0352C19.8171 2.0352 19.3914 2.49505 19.3914 3.0605L19.1404 4.56985C18.6318 4.58085 18.1232 4.60506 17.6168 4.64246C17.2247 4.66446 16.8461 4.70407 16.4764 4.76127C16.1089 4.81848 15.7504 4.93729 15.4054 5.11771C15.0357 5.27612 14.7959 5.48074 14.6794 5.72937C14.61 5.88778 14.5472 6.0396 14.489 6.18701C14.4307 6.33443 14.3792 6.48624 14.3344 6.64466C14.0588 8.0682 13.9019 9.51594 13.8683 10.9857C13.8347 12.4554 13.9087 13.9032 14.0924 15.3267C14.1372 15.6875 14.2179 16.0044 14.3344 16.2772C14.4262 16.4576 14.5472 16.616 14.6973 16.7524C14.8475 16.8889 15.0021 17.0121 15.1634 17.1265C16.0148 17.8042 16.8618 18.4884 17.702 19.1793C18.5422 19.8702 19.3892 20.5522 20.2406 21.2321C20.4714 21.4125 20.6887 21.5995 20.8971 21.7909C21.1032 21.9824 21.278 22.2046 21.4146 22.4532C21.6678 22.8602 21.7888 23.3069 21.7776 23.7931C21.7664 24.2794 21.7373 24.7722 21.6902 25.2695C21.6678 25.3597 21.6432 25.4565 21.6208 25.5577C21.5984 25.6589 21.5513 25.7337 21.4819 25.7777C21.4348 25.8239 21.3788 25.8525 21.3093 25.8635C21.2399 25.8745 21.1816 25.8921 21.1368 25.9141C21.0674 25.9141 20.924 25.9361 20.7044 25.9824C20.4848 26.0286 20.2563 26.0616 20.0143 26.0836C19.7723 26.1056 19.5594 26.1012 19.3757 26.066C19.192 26.033 19.1001 25.9361 19.1001 25.7777C18.9388 25.4609 18.8693 25.1111 18.894 24.726C18.9164 24.341 18.9276 23.9802 18.9276 23.6413C18.9052 23.4609 18.8761 23.2849 18.8402 23.1155C18.8066 22.9461 18.7304 22.7942 18.6161 22.6578C18.4548 22.4994 18.2644 22.4026 18.047 22.3696C17.8275 22.3366 17.6146 22.308 17.4085 22.2838C17.1777 22.2838 16.9603 22.2794 16.752 22.2662C16.5458 22.2552 16.3263 22.2486 16.0955 22.2486C15.7034 22.2266 15.2956 22.2376 14.8699 22.2816C14.4442 22.3278 14.0812 22.4862 13.7809 22.7568C13.5054 23.0055 13.3328 23.3113 13.2634 23.6721C13.1939 24.0352 13.1357 24.396 13.0908 24.7568C13.0438 25.4807 13.0147 26.1936 13.0035 26.8932C12.9923 27.5951 13.0079 28.2948 13.055 28.9967C13.0774 29.2673 13.1065 29.5335 13.1424 29.7931C13.176 30.0528 13.2634 30.286 13.4023 30.4884C13.4942 30.6248 13.5972 30.7436 13.7137 30.8448C13.828 30.946 13.9445 31.0429 14.0588 31.1331C14.2425 31.2453 14.4262 31.3641 14.6122 31.4895C14.7959 31.6127 14.9931 31.7095 15.1992 31.7777C15.4076 31.8459 15.6138 31.8745 15.8221 31.8635C16.0283 31.8525 16.2478 31.8679 16.4786 31.9141C16.687 31.9361 16.8931 31.9537 17.1015 31.9647C17.3076 31.9757 17.5272 31.9933 17.758 32.0153C18.1501 32.0616 18.5467 32.1012 18.95 32.1342C19.1315 32.1496 19.3107 32.1606 19.49 32.1694L19.6468 33.3773C19.6961 33.9427 20.3907 35.0406 20.8971 34.9988L22.4005 34.8404C22.9069 34.7986 23.2766 34.308 23.2273 33.7425L23.3505 32.0704L24.9077 32.0153C25.2998 31.9933 25.6606 31.9361 25.9967 31.8459C26.3305 31.7557 26.6464 31.5863 26.9467 31.3377C27.2447 31.1331 27.406 30.8866 27.4306 30.5918C27.4777 30.253 27.5292 29.9185 27.5852 29.5907C27.6435 29.2629 27.6726 28.9416 27.6726 28.6248C27.7197 27.8789 27.7421 27.1331 27.7421 26.385V24.1122C27.7197 23.5687 27.7018 23.0209 27.6905 22.4664C27.6793 21.912 27.6502 21.3531 27.6032 20.7876C27.5561 20.561 27.5158 20.3366 27.4822 20.11C27.4486 19.8834 27.3724 19.6699 27.2581 19.4653C27.1416 19.2387 26.9467 18.9901 26.6711 18.7194C26.2095 18.2684 25.7211 17.8548 25.2035 17.4807C24.6859 17.1067 24.1616 16.7392 23.6306 16.3784C23.0996 16.0176 22.5708 15.6545 22.042 15.2937C21.511 14.9329 21.0046 14.5368 20.5229 14.1056C20.3392 13.9472 20.1711 13.7844 20.021 13.6127C19.8709 13.4433 19.7499 13.2453 19.658 13.0187C19.5415 12.8141 19.4743 12.594 19.4519 12.3564C19.4295 12.1188 19.4743 11.8988 19.5908 11.6942C19.6603 11.5357 19.7745 11.4235 19.9359 11.3553C20.0972 11.2871 20.2742 11.2475 20.4714 11.2365C20.6663 11.2255 20.8635 11.2189 21.0584 11.2189H21.5939C21.7082 11.2189 21.8023 11.2409 21.8695 11.2871C21.9165 11.3091 21.9614 11.3663 22.0084 11.4565C22.0779 11.6369 22.107 11.8306 22.0958 12.033C22.0846 12.2376 22.0779 12.44 22.0779 12.6446C22.0779 12.8251 22.107 13.0121 22.1652 13.2035C22.2235 13.3949 22.3445 13.5489 22.5282 13.6611C22.6201 13.7073 22.7232 13.736 22.8397 13.747C22.9539 13.758 23.0704 13.7756 23.1847 13.7976C23.5992 13.7976 24.0182 13.8042 24.4462 13.8152C24.8719 13.8262 25.2931 13.8328 25.7076 13.8328C25.9832 13.8548 26.2543 13.8548 26.5187 13.8328C26.7831 13.8108 27.0318 13.7206 27.2604 13.5621C27.4911 13.4037 27.6569 13.2123 27.7622 12.9857C27.8653 12.7591 27.9281 12.517 27.9527 12.2574C27.9751 11.9978 27.9818 11.7382 27.9706 11.4763C27.9594 11.2167 27.9527 10.9615 27.9527 10.7129C27.9751 10.6446 27.9863 10.5434 27.9863 10.407C27.9863 9.93178 27.9796 9.46313 27.9684 8.99889C27.9572 8.53464 27.9617 8.066 27.9863 7.59075C28.0087 7.29812 28.0042 7.00989 27.9684 6.72606L27.9639 6.73046Z" fill="white"/>
<path d="M194.319 12.989C194.22 13.8514 194.13 14.7004 194.048 15.546C193.965 16.3884 193.859 17.2407 193.727 18.1031C193.399 20.5866 193.022 23.0333 192.596 25.4499C192.169 27.8666 191.762 30.2966 191.369 32.7467C190.942 35.2302 190.485 37.6936 189.993 40.1437C189.5 42.5937 188.961 45.0572 188.372 47.5407C188.306 47.7713 188.25 47.9952 188.2 48.2092C188.15 48.4231 188.045 48.6303 187.879 48.8309C187.714 49.0281 187.525 49.1852 187.314 49.3022C187.099 49.4192 186.88 49.5261 186.649 49.6264C185.6 49.9907 184.519 50.1378 183.408 50.0743C183.146 50.0409 182.875 50.0008 182.597 49.9506C182.319 49.9005 182.048 49.7935 181.787 49.6264C181.294 49.3623 180.91 48.9579 180.633 48.4097C180.355 47.8649 180.133 47.31 179.971 46.7485C179.743 46.0198 179.528 45.2911 179.333 44.5658C179.138 43.8371 178.939 43.0951 178.744 42.333C178.711 42.2327 178.638 41.9854 178.522 41.5876C178.407 41.1899 178.294 40.7787 178.178 40.3475C178.063 39.9164 177.963 39.5219 177.884 39.1576C177.801 38.7933 177.795 38.5794 177.861 38.5125C177.567 38.8434 177.345 39.2311 177.199 39.679C177.051 40.1269 176.928 40.5882 176.832 41.0695C176.733 41.5509 176.611 42.0222 176.465 42.4834C176.316 42.948 176.098 43.3592 175.804 43.7235C175.41 44.1881 174.888 44.4187 174.233 44.4187C173.71 44.3853 173.201 44.3853 172.711 44.4187C172.222 44.4522 171.729 44.4856 171.239 44.519C169.996 44.5524 168.98 43.924 168.193 42.6338C168.127 42.5336 168.054 42.4266 167.972 42.3096C167.889 42.1926 167.8 42.0857 167.701 41.9854C167.439 41.7213 167.257 41.3403 167.161 40.8422C166.735 39.4518 166.328 38.0713 165.934 36.6975C165.541 35.3237 165.131 33.9433 164.707 32.5528C164.641 32.2219 164.568 31.901 164.486 31.5835C164.403 31.2693 164.33 30.9618 164.264 30.6643C164.003 29.6715 163.765 28.6788 163.553 27.6861C163.338 26.6934 163.103 25.7173 162.842 24.758C162.514 23.6349 162.243 22.5085 162.032 21.3821C161.817 20.259 161.631 19.1159 161.466 17.956C161.4 17.7254 161.35 17.5014 161.317 17.2875C161.284 17.0736 161.234 16.8663 161.168 16.6658C160.907 15.8703 160.702 15.0681 160.553 14.2592C160.404 13.4503 160.265 12.6147 160.136 11.7523C160.037 11.0236 159.941 10.3117 159.842 9.61642C159.743 8.92117 159.627 8.20922 159.498 7.48055C159.432 6.95243 159.409 6.41428 159.425 5.86611C159.442 5.32128 159.697 4.8667 160.186 4.50236C160.613 4.20488 161.185 4.02438 161.906 3.95753C162.399 3.89068 162.938 3.84054 163.527 3.80712C164.115 3.77369 164.704 3.79041 165.296 3.85726C165.885 3.92411 166.44 4.05446 166.966 4.25502C167.489 4.45222 167.932 4.75305 168.293 5.14747C168.848 5.74244 169.186 6.431 169.298 7.20646C169.414 7.98527 169.569 8.75405 169.764 9.51614C170.026 10.5089 170.257 11.5016 170.452 12.4943C170.647 13.4871 170.829 14.4965 170.991 15.5227L172.169 22.8194C172.397 21.596 172.619 20.386 172.834 19.1961C173.045 18.0061 173.267 16.8129 173.495 15.6229C173.561 15.1583 173.644 14.6235 173.74 14.0085C173.839 13.3968 174.018 12.9088 174.279 12.5445C174.441 12.3138 174.679 12.1233 174.99 11.9729C175.301 11.8225 175.635 11.7088 175.996 11.6253C176.356 11.5417 176.717 11.5083 177.077 11.525C177.438 11.5417 177.749 11.5684 178.01 11.5985C178.271 11.6654 178.532 11.6654 178.797 11.5985C179.353 11.4983 179.835 11.525 180.246 11.6721C180.656 11.8225 180.99 12.1601 181.251 12.6882C181.413 12.9857 181.522 13.2932 181.572 13.6074C181.622 13.9216 181.678 14.2458 181.744 14.5767C182.005 16.365 182.25 18.1198 182.481 19.8378C182.71 21.5592 182.954 23.3107 183.219 25.099C183.219 23.411 183.335 21.7163 183.563 20.0117C183.791 18.307 183.99 16.6123 184.152 14.9243C184.218 14.2625 184.291 13.5506 184.373 12.7885C184.456 12.0264 184.562 11.2676 184.694 10.5055C184.823 9.74343 184.988 9.00808 185.187 8.29612C185.382 7.58417 185.647 6.93237 185.974 6.33406C186.235 5.83603 186.563 5.39816 186.956 5.01711C187.35 4.63606 187.806 4.36532 188.332 4.19819C188.726 4.06783 189.199 4.00098 189.758 4.00098C190.251 4.00098 190.724 4.03441 191.183 4.10126C191.643 4.16811 192.099 4.29847 192.559 4.49902C193.019 4.69623 193.426 4.9536 193.786 5.2678C194.147 5.582 194.408 5.96973 194.573 6.43434C194.736 6.8321 194.828 7.24657 194.845 7.67441C194.861 8.1056 194.851 8.53678 194.821 8.96463C194.755 9.62645 194.673 10.2983 194.577 10.9735C194.478 11.652 194.395 12.3239 194.332 12.9823L194.319 12.989Z" fill="white"/>
<path d="M18.3107 9.68024C11.7914 9.68024 11.0351 3.66946 10.9662 1.62103C10.8973 3.66885 10.141 9.68024 3.6217 9.68024C10.141 9.68024 10.8973 15.691 10.9662 17.7388C11.0351 15.691 11.7914 9.68024 18.3107 9.68024Z" fill="#FCD21D"/>
<path d="M10.9662 18.3592C10.6317 18.3592 10.3568 18.0938 10.3457 17.7597C10.2701 15.5165 9.46395 10.2999 3.62106 10.2999C3.27794 10.2999 3 10.0223 3 9.67958C3 9.33684 3.27794 9.05921 3.62106 9.05921C9.46395 9.05921 10.2701 3.84262 10.3457 1.59948C10.3568 1.26534 10.6311 1 10.9662 1C11.3013 1 11.5755 1.26534 11.5866 1.59948C11.6622 3.84262 12.4684 9.05921 18.3113 9.05921C18.6544 9.05921 18.9323 9.33684 18.9323 9.67958C18.9323 10.0223 18.6544 10.2999 18.3113 10.2999C12.4684 10.2999 11.6622 15.5165 11.5866 17.7597C11.5755 18.0938 11.3013 18.3592 10.9662 18.3592ZM6.9834 9.68019C9.21553 10.62 10.3703 12.4823 10.9662 14.2359C11.562 12.4823 12.7168 10.62 14.949 9.68019C12.7168 8.74043 11.562 6.87873 10.9662 5.12451C10.3703 6.87873 9.21553 8.74043 6.9834 9.68019Z" fill="#371A45"/>
<path d="M199.311 30.6802C192.791 30.6802 192.035 24.6695 191.966 22.621C191.897 24.6688 191.141 30.6802 184.622 30.6802C191.141 30.6802 191.897 36.691 191.966 38.7388C192.035 36.691 192.791 30.6802 199.311 30.6802Z" fill="#FCD21D"/>
<path d="M191.966 39.3592C191.632 39.3592 191.357 39.0938 191.346 38.7597C191.27 36.5165 190.464 31.2999 184.621 31.2999C184.278 31.2999 184 31.0223 184 30.6796C184 30.3368 184.278 30.0592 184.621 30.0592C190.464 30.0592 191.27 24.8426 191.346 22.5995C191.357 22.2653 191.631 22 191.966 22C192.301 22 192.576 22.2653 192.587 22.5995C192.662 24.8426 193.468 30.0592 199.311 30.0592C199.654 30.0592 199.932 30.3368 199.932 30.6796C199.932 31.0223 199.654 31.2999 199.311 31.2999C193.468 31.2999 192.662 36.5165 192.587 38.7597C192.576 39.0938 192.301 39.3592 191.966 39.3592ZM187.983 30.6802C190.216 31.62 191.37 33.4823 191.966 35.2359C192.562 33.4823 193.717 31.62 195.949 30.6802C193.717 29.7404 192.562 27.8787 191.966 26.1245C191.37 27.8787 190.216 29.7404 187.983 30.6802Z" fill="#371A45"/>
<path d="M135.311 49.6802C128.791 49.6802 128.035 43.6695 127.966 41.621C127.897 43.6688 127.141 49.6802 120.622 49.6802C127.141 49.6802 127.897 55.691 127.966 57.7388C128.035 55.691 128.791 49.6802 135.311 49.6802Z" fill="#FCD21D"/>
<path d="M127.966 58.3592C127.632 58.3592 127.357 58.0938 127.346 57.7597C127.27 55.5165 126.464 50.2999 120.621 50.2999C120.278 50.2999 120 50.0223 120 49.6796C120 49.3368 120.278 49.0592 120.621 49.0592C126.464 49.0592 127.27 43.8426 127.346 41.5995C127.357 41.2653 127.631 41 127.966 41C128.301 41 128.576 41.2653 128.587 41.5995C128.662 43.8426 129.468 49.0592 135.311 49.0592C135.654 49.0592 135.932 49.3368 135.932 49.6796C135.932 50.0223 135.654 50.2999 135.311 50.2999C129.468 50.2999 128.662 55.5165 128.587 57.7597C128.576 58.0938 128.301 58.3592 127.966 58.3592ZM123.983 49.6802C126.216 50.62 127.37 52.4823 127.966 54.2359C128.562 52.4823 129.717 50.62 131.949 49.6802C129.717 48.7404 128.562 46.8787 127.966 45.1245C127.37 46.8787 126.216 48.7404 123.983 49.6802Z" fill="#371A45"/>
</g>
<defs>
<clipPath id="clip0_106_290">
<rect width="200" height="58" fill="white"/>
</clipPath>
</defs>
</svg>
