<svg xmlns="http://www.w3.org/2000/svg" xmlns:xlink="http://www.w3.org/1999/xlink" width="500" zoomAndPan="magnify" viewBox="0 0 375 244.499993" height="326" preserveAspectRatio="xMidYMid meet" version="1.0"><defs><clipPath id="23c26d8b10"><path d="M 5.46875 5.273438 L 369.222656 5.273438 L 369.222656 238.796875 L 5.46875 238.796875 Z M 5.46875 5.273438 " clip-rule="nonzero"/></clipPath><clipPath id="b41537c98c"><path d="M 168.097656 82.480469 L 196.195312 82.480469 L 196.195312 91.109375 L 168.097656 91.109375 Z M 168.097656 82.480469 " clip-rule="nonzero"/></clipPath></defs><g clip-path="url(#23c26d8b10)"><path fill="#ff9a0b" d="M 368.898438 7.652344 C 368.542969 7.160156 367.894531 6.972656 367.335938 7.195312 L 363.191406 8.808594 C 345.136719 15.832031 326.628906 23.03125 309.730469 32.449219 C 316.484375 24.617188 321.675781 15.492188 326.203125 7.535156 C 326.535156 6.957031 326.386719 6.222656 325.863281 5.816406 C 325.335938 5.40625 324.59375 5.449219 324.113281 5.910156 C 307.621094 21.84375 285.394531 30.257812 263.894531 38.390625 C 257.847656 40.679688 251.589844 43.050781 245.5625 45.546875 C 229.585938 52.164062 213.976562 61.503906 200.695312 70.25 C 206.636719 63.394531 211.722656 55.75 215.6875 47.671875 C 215.957031 47.125 215.820312 46.460938 215.351562 46.0625 C 214.890625 45.667969 214.214844 45.636719 213.714844 45.988281 C 185.738281 65.78125 148.863281 88.824219 108.507812 94.464844 C 121.527344 86.332031 133.351562 75.894531 142.964844 64.003906 C 143.390625 63.476562 143.355469 62.714844 142.882812 62.226562 C 142.410156 61.742188 141.652344 61.683594 141.113281 62.097656 C 127.546875 72.457031 110.621094 77.34375 94.25 82.070312 C 81.609375 85.71875 68.535156 89.492188 56.816406 95.773438 C 46.960938 101.054688 38.207031 107.980469 30.800781 116.363281 C 20.777344 127.703125 10.078125 141.871094 6.703125 160.972656 C 6.101562 164.382812 5.476562 168.871094 5.996094 173.351562 C 6.738281 179.777344 9.707031 185.640625 12.429688 190.628906 C 15.871094 196.9375 20.199219 204.164062 26.203125 209.902344 C 27.15625 210.808594 28.148438 211.683594 29.140625 212.550781 C 30.753906 213.96875 32.277344 215.304688 33.652344 216.820312 C 34.894531 218.191406 35.917969 219.609375 36.902344 220.976562 C 38.910156 223.765625 40.804688 226.398438 44.234375 228.363281 C 49.589844 231.433594 56.191406 233.914062 63.859375 235.738281 C 70.59375 237.339844 77.660156 238.71875 84.785156 238.71875 C 88.058594 238.71875 91.347656 238.425781 94.625 237.730469 C 101.746094 236.222656 109.09375 233.414062 117.082031 229.148438 C 118.789062 228.234375 120.320312 227.25 121.773438 226.128906 C 124.535156 223.996094 126.671875 221.617188 128.929688 219.101562 C 129.949219 217.964844 131.019531 216.773438 132.21875 215.523438 C 136.660156 210.886719 141.496094 206.683594 146.476562 202.429688 C 178.019531 175.496094 205.636719 155.214844 237.890625 143.773438 L 238.957031 143.394531 C 244.996094 141.269531 251.238281 139.070312 255.128906 133.851562 C 255.445312 133.429688 255.480469 132.855469 255.21875 132.394531 C 254.960938 131.933594 254.445312 131.664062 253.925781 131.722656 C 247.007812 132.410156 241.296875 133.375 235.34375 135.769531 C 240.3125 124.894531 250.226562 116.898438 260.320312 109.863281 C 282.351562 94.503906 306.28125 81.945312 331.433594 72.539062 C 332.019531 72.320312 332.375 71.722656 332.292969 71.101562 C 332.207031 70.484375 331.703125 70.003906 331.082031 69.949219 C 316.210938 68.695312 300.890625 71.859375 286.425781 79.132812 C 292.398438 71.242188 298.6875 63.375 306.050781 56.722656 C 314.203125 49.355469 323.820312 43.351562 333.125 37.542969 C 345.941406 29.539062 359.195312 21.261719 368.859375 9.28125 C 369.242188 8.808594 369.257812 8.140625 368.898438 7.652344 Z M 368.898438 7.652344 " fill-opacity="1" fill-rule="nonzero"/></g><path fill="#fbeb4e" d="M 181.289062 155.652344 C 181.214844 155.710938 181.136719 155.769531 181.0625 155.832031 C 177.722656 158.40625 176.058594 158.726562 172.414062 158.476562 L 206.125 130.863281 C 206.375 130.664062 206.4375 130.308594 206.28125 130.03125 C 206.121094 129.75 205.777344 129.628906 205.480469 129.742188 C 194.019531 134.023438 181.363281 134.566406 169.585938 131.308594 C 181.9375 127.53125 191.5625 118.257812 200.886719 109.277344 C 207.671875 102.738281 214.6875 95.980469 222.742188 91.296875 C 223.035156 91.128906 223.117188 90.773438 222.976562 90.464844 C 222.832031 90.160156 222.449219 90.023438 222.125 90.136719 C 207.347656 95.476562 192.0625 101 176.835938 105.832031 C 165.882812 109.308594 154.234375 112.617188 142.59375 111.761719 C 142.867188 111.5625 143.144531 111.417969 143.457031 111.25 C 143.9375 111 144.476562 110.714844 145.175781 110.164062 C 153.59375 103.554688 159.246094 93.675781 160.6875 83.066406 C 160.71875 82.8125 160.605469 82.5625 160.390625 82.425781 C 160.179688 82.289062 159.902344 82.285156 159.6875 82.421875 C 139.296875 95.257812 115.828125 102.519531 91.769531 103.445312 C 93.109375 96.894531 96.585938 90.90625 101.640625 86.496094 C 101.914062 86.257812 101.941406 85.84375 101.703125 85.570312 C 101.464844 85.296875 101.050781 85.269531 100.777344 85.507812 C 97.183594 88.640625 92.523438 90.019531 88.011719 91.355469 C 86.074219 91.925781 84.070312 92.519531 82.175781 93.246094 C 75.515625 95.792969 69.257812 98.664062 63.578125 101.777344 C 51.125 108.601562 38.484375 116.613281 29.503906 127.425781 C 21.011719 137.644531 11.925781 150.597656 10.289062 164.128906 C 6.945312 191.71875 35.570312 222.5625 61.273438 228.621094 C 65.5 229.617188 69.871094 229.902344 74.148438 229.902344 C 75.972656 229.902344 77.785156 229.851562 79.558594 229.78125 C 88.496094 229.421875 98.851562 228.476562 107.851562 224.171875 C 114.265625 221.105469 119.757812 216.503906 125.066406 212.054688 L 150.054688 191.117188 C 158.0625 184.40625 166.34375 177.46875 172.523438 168.722656 C 173.210938 167.75 173.875 166.75 174.539062 165.75 C 176.671875 162.546875 178.875 159.230469 181.875 156.863281 C 181.945312 156.804688 182.019531 156.75 182.09375 156.691406 C 182.378906 156.46875 182.429688 156.058594 182.207031 155.773438 C 181.988281 155.488281 181.578125 155.433594 181.289062 155.652344 Z M 181.289062 155.652344 " fill-opacity="1" fill-rule="nonzero"/><path fill="#fbeb4e" d="M 277 40.496094 C 276.730469 40.277344 276.332031 40.308594 276.101562 40.570312 C 264.8125 53.277344 248.339844 59.640625 232.410156 65.792969 C 227.113281 67.835938 221.640625 69.949219 216.433594 72.265625 C 211.796875 74.332031 206.554688 77.007812 202.839844 81.195312 C 199.921875 84.492188 198.832031 87.382812 199.929688 88.933594 C 200.320312 89.484375 201.058594 89.972656 202.441406 89.972656 C 203.574219 89.972656 205.136719 89.648438 207.300781 88.761719 L 231.535156 78.855469 C 238.265625 76.101562 245.226562 73.253906 251.394531 69.109375 C 262.070312 61.949219 269.71875 51.5 277.117188 41.394531 C 277.324219 41.113281 277.273438 40.714844 277 40.496094 Z M 277 40.496094 " fill-opacity="1" fill-rule="nonzero"/><path fill="#fbeb4e" d="M 268.765625 78.113281 C 267.148438 79.203125 265.75 80.535156 264.488281 81.996094 C 255.347656 89.585938 244.226562 94.683594 233.421875 99.636719 C 227.410156 102.390625 221.195312 105.242188 215.367188 108.492188 L 215.25 108.558594 C 211.5 110.648438 204.523438 114.539062 203.253906 119.101562 C 202.695312 121.105469 202.953125 122.660156 204.019531 123.71875 C 205.046875 124.738281 206.707031 125.125 208.535156 125.125 C 210.171875 125.125 211.941406 124.816406 213.507812 124.363281 C 232.1875 118.984375 248.542969 107.191406 259.558594 91.152344 C 260.050781 90.4375 260.535156 89.710938 261.019531 88.980469 C 262.398438 86.914062 263.800781 84.804688 265.414062 82.929688 C 266.859375 81.726562 268.253906 80.460938 269.59375 79.121094 C 269.835938 78.882812 269.851562 78.503906 269.636719 78.242188 C 269.425781 77.980469 269.046875 77.921875 268.765625 78.113281 Z M 268.765625 78.113281 " fill-opacity="1" fill-rule="nonzero"/><path fill="#fbeb4e" d="M 224.351562 134.785156 C 220.222656 137.546875 215.335938 139.113281 210.613281 140.625 C 208.792969 141.207031 206.910156 141.808594 205.085938 142.476562 C 199.5 144.515625 191.953125 147.753906 190.960938 152.324219 C 190.566406 154.152344 190.808594 155.46875 191.6875 156.242188 C 192.289062 156.773438 193.105469 156.976562 194.03125 156.976562 C 195.867188 156.976562 198.128906 156.171875 199.96875 155.519531 C 204.667969 153.851562 209.304688 151.074219 214.140625 147.03125 C 215.875 145.582031 217.484375 143.695312 219.042969 141.867188 C 220.953125 139.628906 222.921875 137.316406 225.082031 135.875 C 225.382812 135.675781 225.460938 135.265625 225.261719 134.964844 C 225.058594 134.664062 224.65625 134.582031 224.351562 134.785156 Z M 224.351562 134.785156 " fill-opacity="1" fill-rule="nonzero"/><path fill="#8f9092" d="M 165.339844 163.90625 C 164.460938 167.199219 162.222656 168.972656 160.058594 170.703125 C 157.871094 172.433594 155.8125 174.085938 155.027344 177.328125 C 154.871094 177.933594 154.738281 178.628906 154.605469 179.363281 C 154.003906 182.65625 153.164062 187.15625 149.652344 188.847656 C 147.542969 189.859375 146.167969 189.242188 145.15625 188.796875 C 144.371094 188.453125 143.808594 188.207031 142.734375 188.492188 C 140.9375 188.980469 137.964844 192.707031 135.800781 195.421875 C 134.476562 197.085938 133.351562 198.519531 132.394531 199.398438 C 130.101562 201.546875 128.015625 203.871094 126.011719 206.113281 C 124.714844 207.558594 123.363281 209.054688 121.960938 210.511719 C 112.855469 219.957031 104.269531 222.855469 97.664062 218.761719 C 95.621094 220.335938 93.496094 221.832031 91.269531 223.039062 C 88.230469 224.679688 84.992188 225.78125 81.507812 225.78125 L 81.453125 225.78125 C 80.167969 225.78125 78.480469 225.847656 76.527344 225.914062 C 73.996094 226.003906 71.113281 226.109375 68.257812 226.109375 C 63.695312 226.109375 59.203125 225.847656 56.332031 224.835938 C 52.558594 223.5 51.363281 219.039062 50.316406 215.101562 C 50.265625 214.917969 50.210938 214.734375 50.160156 214.550781 C 49.636719 212.582031 49.097656 210.746094 48.296875 209.511719 C 46.804688 207.242188 44.117188 204.460938 41.757812 203.738281 C 40.972656 203.503906 40.066406 203.570312 39.097656 203.636719 C 37.683594 203.726562 36.070312 203.832031 34.5625 202.914062 C 33.515625 202.285156 33.109375 201.195312 32.78125 200.316406 C 32.597656 199.816406 32.402344 199.304688 32.179688 199.109375 C 31.550781 198.558594 30.84375 198.359375 29.949219 198.097656 C 29.046875 197.835938 28.039062 197.546875 27.003906 196.851562 C 23.949219 194.78125 22.992188 191.773438 22.074219 188.863281 C 21.695312 187.65625 21.300781 186.394531 20.75 185.214844 C 20.082031 183.773438 19.074219 182.328125 18 180.792969 C 16.441406 178.550781 14.816406 176.226562 14.132812 173.667969 C 13.242188 170.246094 13.78125 164.683594 14.105469 161.363281 C 15.039062 151.996094 20.042969 145.699219 25.335938 139.019531 C 27.003906 136.933594 28.707031 134.78125 30.355469 132.460938 C 34.183594 127.066406 34.957031 126.738281 40.761719 125.347656 L 41.222656 125.242188 C 44.050781 124.5625 47.132812 123.066406 49.925781 121.398438 C 52.714844 119.746094 55.230469 117.921875 56.949219 116.609375 C 59.175781 114.90625 61.089844 113.09375 62.9375 111.335938 C 68.46875 106.046875 73.25 101.496094 81.835938 105.117188 C 83.867188 105.96875 85.949219 106.480469 88.125 106.980469 L 89.421875 107.253906 C 91.636719 107.742188 93.929688 108.238281 96.171875 109.054688 C 97.207031 109.421875 97.941406 109.722656 98.542969 109.972656 C 100.195312 110.640625 100.484375 110.757812 103.132812 110.679688 C 104.652344 110.640625 106.382812 110.101562 108.058594 109.578125 C 108.714844 109.367188 109.382812 109.171875 110.050781 108.988281 C 110.507812 108.855469 110.953125 108.75 111.386719 108.660156 C 122.015625 106.519531 128.082031 106.769531 135.917969 113.984375 C 139.183594 116.992188 142.015625 120.46875 144.765625 123.839844 C 149.863281 130.109375 154.6875 136.027344 162.023438 139.191406 C 162.496094 139.386719 162.8125 139.832031 162.835938 140.34375 C 162.890625 141.539062 162.878906 142.585938 162.851562 143.597656 C 162.8125 145.511719 162.785156 147.179688 163.363281 149.003906 L 163.730469 150.171875 C 165.078125 154.382812 166.597656 159.15625 165.339844 163.90625 Z M 165.339844 163.90625 " fill-opacity="1" fill-rule="nonzero"/><path fill="#46444a" d="M 165.339844 163.90625 C 164.460938 167.199219 162.222656 168.972656 160.058594 170.703125 C 157.871094 172.433594 155.8125 174.085938 155.027344 177.328125 C 154.871094 177.933594 154.738281 178.628906 154.605469 179.363281 C 154.003906 182.65625 153.164062 187.15625 149.652344 188.847656 C 147.542969 189.859375 146.167969 189.242188 145.15625 188.796875 C 144.371094 188.453125 143.808594 188.207031 142.734375 188.492188 C 140.9375 188.980469 137.964844 192.707031 135.800781 195.421875 C 134.476562 197.085938 133.351562 198.519531 132.394531 199.398438 C 130.101562 201.546875 128.015625 203.871094 126.011719 206.113281 C 124.714844 207.558594 123.363281 209.054688 121.960938 210.511719 C 112.855469 219.957031 104.269531 222.855469 97.664062 218.761719 C 95.621094 220.335938 93.496094 221.832031 91.269531 223.039062 C 88.230469 224.679688 84.992188 225.78125 81.507812 225.78125 L 81.453125 225.78125 C 80.167969 225.78125 78.480469 225.847656 76.527344 225.914062 C 73.996094 226.003906 71.113281 226.109375 68.257812 226.109375 C 63.695312 226.109375 59.203125 225.847656 56.332031 224.835938 C 52.558594 223.5 51.363281 219.039062 50.316406 215.101562 C 50.265625 214.917969 50.210938 214.734375 50.160156 214.550781 C 51.707031 211.769531 53.699219 209.183594 56.097656 206.835938 C 56.867188 206.089844 57.695312 205.355469 58.546875 204.605469 C 60.628906 202.769531 62.78125 200.855469 64.101562 198.585938 C 64.941406 197.128906 65.414062 195.59375 65.871094 194.097656 C 66.660156 191.539062 67.472656 188.875 70.144531 186.722656 C 72.359375 184.9375 74.824219 183.890625 77.195312 182.878906 C 81.675781 180.976562 85.554688 179.324219 86.144531 173.15625 C 86.355469 170.808594 85.542969 168.027344 84.757812 165.351562 C 83.316406 160.445312 81.820312 155.367188 85.976562 151.785156 C 87.601562 150.394531 89.421875 149.933594 91.191406 149.488281 C 93.183594 148.992188 95.070312 148.519531 96.628906 146.707031 C 99.421875 143.414062 99.605469 137.957031 98.847656 133.953125 C 98.046875 129.808594 96.066406 123.867188 93.421875 119.917969 C 92.882812 119.117188 92.398438 118.40625 91.964844 117.777344 C 89.292969 113.933594 88.347656 112.542969 88.125 106.980469 L 89.421875 107.253906 C 91.636719 107.742188 93.929688 108.238281 96.171875 109.050781 C 97.207031 109.421875 97.941406 109.722656 98.542969 109.972656 C 100.195312 110.640625 100.484375 110.757812 103.132812 110.679688 C 104.652344 110.640625 106.382812 110.101562 108.058594 109.578125 C 108.714844 109.367188 109.382812 109.171875 110.050781 108.988281 C 110.511719 108.855469 110.957031 108.75 111.386719 108.660156 C 122.015625 106.519531 128.082031 106.769531 135.921875 113.984375 C 139.183594 116.988281 142.015625 120.464844 144.765625 123.839844 C 149.863281 130.109375 154.6875 136.027344 162.027344 139.1875 C 162.496094 139.386719 162.8125 139.832031 162.839844 140.34375 C 162.890625 141.539062 162.878906 142.585938 162.851562 143.597656 C 162.8125 145.511719 162.785156 147.179688 163.363281 149.003906 L 163.730469 150.171875 C 165.078125 154.382812 166.597656 159.15625 165.339844 163.90625 Z M 165.339844 163.90625 " fill-opacity="1" fill-rule="nonzero"/><path fill="#343338" d="M 165.339844 163.90625 C 164.460938 167.199219 162.222656 168.972656 160.058594 170.703125 C 157.871094 172.433594 155.8125 174.085938 155.027344 177.328125 C 154.871094 177.933594 154.738281 178.628906 154.605469 179.363281 C 154.003906 182.65625 153.164062 187.15625 149.652344 188.847656 C 147.542969 189.859375 146.167969 189.242188 145.15625 188.796875 C 144.371094 188.453125 143.808594 188.207031 142.734375 188.492188 C 140.9375 188.980469 137.964844 192.707031 135.800781 195.421875 C 134.476562 197.085938 133.351562 198.519531 132.394531 199.398438 C 130.101562 201.546875 128.015625 203.871094 126.011719 206.113281 C 124.714844 207.558594 123.363281 209.054688 121.960938 210.511719 C 112.855469 219.957031 104.269531 222.855469 97.664062 218.761719 C 95.621094 220.335938 93.496094 221.832031 91.269531 223.039062 C 92.621094 219.574219 94.964844 216.097656 97.179688 212.832031 C 99.839844 208.910156 102.34375 205.195312 102.894531 202.019531 C 103.234375 200.078125 102.738281 198.375 102.199219 196.5625 C 101.78125 195.121094 101.347656 193.625 101.375 192.039062 C 101.453125 188.863281 103.484375 185.9375 105.28125 183.363281 C 105.59375 182.917969 105.894531 182.484375 106.171875 182.066406 C 110.875 175.058594 110.441406 169.511719 109.839844 161.847656 L 109.695312 160.0625 C 109.523438 157.792969 109.277344 154.683594 109.761719 152.492188 C 110.089844 150.972656 110.992188 149.710938 111.859375 148.492188 C 112.617188 147.429688 113.324219 146.433594 113.640625 145.34375 C 114.753906 141.433594 113.875 134.097656 113.300781 129.246094 L 113.117188 127.589844 C 112.867188 125.414062 112.082031 123.261719 111.320312 121.175781 C 110.089844 117.816406 108.816406 114.339844 109.773438 110.613281 C 109.90625 110.089844 109.996094 109.539062 110.050781 108.988281 C 110.507812 108.855469 110.953125 108.75 111.386719 108.660156 C 122.015625 106.519531 128.082031 106.769531 135.917969 113.984375 C 139.183594 116.992188 142.011719 120.46875 144.765625 123.839844 C 149.863281 130.109375 154.683594 136.027344 162.023438 139.191406 C 162.496094 139.386719 162.8125 139.832031 162.835938 140.34375 C 162.890625 141.539062 162.875 142.585938 162.851562 143.597656 C 162.808594 145.511719 162.785156 147.179688 163.359375 149.003906 L 163.726562 150.171875 C 165.078125 154.382812 166.597656 159.15625 165.339844 163.90625 Z M 165.339844 163.90625 " fill-opacity="1" fill-rule="nonzero"/><path fill="#2f2e33" d="M 100.179688 211.597656 C 97.023438 214.96875 92.972656 217.082031 89.210938 217.460938 C 88.792969 217.503906 88.386719 217.527344 87.980469 217.527344 C 87.234375 217.527344 86.5 217.449219 85.792969 217.304688 C 84.414062 217.015625 83.355469 216.214844 82.648438 214.957031 C 80.824219 211.691406 81.875 205.785156 83.011719 202.625 C 84.902344 197.390625 90.773438 193.976562 92.515625 193.046875 C 92.632812 192.980469 92.75 192.925781 92.882812 192.875 C 93.433594 192.613281 94.023438 192.429688 94.613281 192.324219 C 98.714844 191.601562 103.050781 194.582031 104.269531 198.988281 C 105.371094 202.976562 103.851562 207.6875 100.179688 211.597656 Z M 100.179688 211.597656 " fill-opacity="1" fill-rule="nonzero"/><path fill="#2f2e33" d="M 87.980469 218.054688 C 87.21875 218.054688 86.445312 217.976562 85.6875 217.820312 C 84.179688 217.503906 82.96875 216.605469 82.1875 215.214844 C 80.285156 211.800781 81.34375 205.707031 82.519531 202.445312 C 84.394531 197.246094 89.960938 193.816406 92.265625 192.582031 C 92.398438 192.511719 92.535156 192.449219 92.6875 192.386719 C 93.238281 192.125 93.867188 191.925781 94.519531 191.808594 C 98.882812 191.039062 103.488281 194.199219 104.773438 198.847656 C 105.925781 203.019531 104.351562 207.921875 100.5625 211.957031 C 97.351562 215.386719 93.230469 217.585938 89.265625 217.984375 C 88.824219 218.023438 88.402344 218.054688 87.980469 218.054688 Z M 95.859375 192.742188 C 95.472656 192.742188 95.085938 192.773438 94.703125 192.84375 C 94.140625 192.941406 93.605469 193.113281 93.105469 193.351562 C 92.964844 193.40625 92.867188 193.449219 92.769531 193.503906 C 90.5625 194.683594 85.257812 197.945312 83.507812 202.800781 C 82.394531 205.882812 81.371094 211.59375 83.105469 214.703125 C 83.738281 215.832031 84.679688 216.535156 85.898438 216.792969 C 86.976562 217.011719 88.042969 217.042969 89.164062 216.941406 C 92.878906 216.566406 96.753906 214.484375 99.796875 211.238281 L 99.800781 211.238281 C 103.335938 207.472656 104.816406 202.945312 103.765625 199.128906 C 102.734375 195.398438 99.335938 192.742188 95.859375 192.742188 Z M 95.859375 192.742188 " fill-opacity="1" fill-rule="nonzero"/><path fill="#2f2e33" d="M 49.226562 155.796875 C 46.449219 158.449219 43.316406 159.867188 40.25 159.867188 C 39.765625 159.867188 39.269531 159.824219 38.78125 159.746094 C 34.40625 159.089844 33.042969 155.773438 32.664062 152.953125 C 32.464844 151.496094 32.519531 150.167969 32.542969 149.394531 L 32.542969 149.304688 C 33.738281 143.03125 37.617188 138.652344 44.429688 135.921875 C 44.890625 135.738281 45.441406 135.476562 46.03125 135.1875 C 47.878906 134.292969 50.160156 133.179688 51.847656 133.535156 C 53.878906 133.980469 55.058594 136.011719 55.585938 138.191406 C 55.726562 138.730469 55.820312 139.265625 55.871094 139.804688 C 56.410156 144.972656 53.671875 151.546875 49.226562 155.796875 Z M 49.226562 155.796875 " fill-opacity="1" fill-rule="nonzero"/><path fill="#2f2e33" d="M 40.25 160.390625 C 39.726562 160.390625 39.207031 160.347656 38.699219 160.265625 C 34.976562 159.707031 32.707031 157.203125 32.144531 153.019531 C 31.945312 151.554688 31.992188 150.226562 32.019531 149.433594 L 32.03125 149.207031 C 33.261719 142.734375 37.253906 138.230469 44.238281 135.433594 C 44.6875 135.253906 45.222656 135 45.800781 134.714844 C 47.753906 133.769531 50.109375 132.628906 51.957031 133.019531 C 53.949219 133.457031 55.417969 135.25 56.09375 138.070312 C 56.234375 138.589844 56.335938 139.144531 56.394531 139.75 C 56.945312 145.0625 54.148438 151.816406 49.589844 156.175781 L 49.589844 156.179688 C 46.699219 158.933594 43.472656 160.390625 40.25 160.390625 Z M 51.15625 133.988281 C 49.714844 133.988281 47.851562 134.890625 46.316406 135.628906 C 45.65625 135.953125 45.09375 136.222656 44.625 136.410156 C 38 139.0625 34.21875 143.3125 33.0625 149.402344 C 33.042969 150.230469 32.996094 151.503906 33.183594 152.882812 C 33.683594 156.605469 35.59375 158.738281 38.859375 159.226562 C 42.207031 159.773438 45.75 158.386719 48.867188 155.421875 C 53.203125 151.269531 55.871094 144.871094 55.351562 139.859375 C 55.296875 139.308594 55.207031 138.808594 55.078125 138.328125 C 54.738281 136.921875 53.859375 134.511719 51.738281 134.046875 C 51.550781 134.007812 51.359375 133.988281 51.15625 133.988281 Z M 51.15625 133.988281 " fill-opacity="1" fill-rule="nonzero"/><path fill="#2f2e33" d="M 91.019531 140.972656 C 89.945312 143.648438 87.5625 145.933594 84.796875 146.929688 C 83.773438 147.28125 82.75 147.464844 81.742188 147.464844 C 81.207031 147.464844 80.679688 147.414062 80.167969 147.308594 C 79.34375 147.152344 78.542969 146.863281 77.796875 146.457031 C 73.484375 144.082031 72.449219 135.660156 72.855469 131.683594 C 72.949219 130.804688 72.882812 129.542969 72.832031 128.207031 C 72.671875 124.664062 72.476562 120.269531 74.546875 118.128906 C 74.96875 117.710938 75.453125 117.394531 76.015625 117.1875 C 76.5 117.003906 77.050781 116.898438 77.652344 116.882812 C 78.296875 116.453125 79.1875 116.371094 80.300781 116.636719 C 83.929688 117.515625 89.617188 122.121094 90.589844 124.453125 C 91.320312 126.210938 91.648438 128.652344 91.9375 130.804688 C 92.042969 131.566406 92.136719 132.3125 92.253906 132.984375 C 92.644531 135.34375 92.253906 137.875 91.019531 140.972656 Z M 91.019531 140.972656 " fill-opacity="1" fill-rule="nonzero"/><path fill="#2f2e33" d="M 81.742188 147.992188 C 81.171875 147.992188 80.605469 147.933594 80.066406 147.824219 C 79.191406 147.65625 78.34375 147.351562 77.546875 146.917969 C 73.015625 144.421875 71.914062 135.730469 72.335938 131.628906 C 72.414062 130.878906 72.371094 129.792969 72.324219 128.644531 L 72.304688 128.226562 C 72.144531 124.59375 71.941406 120.066406 74.171875 117.765625 C 74.648438 117.289062 75.203125 116.925781 75.832031 116.691406 C 76.335938 116.503906 76.894531 116.390625 77.492188 116.367188 C 78.242188 115.921875 79.226562 115.84375 80.421875 116.125 C 84.25 117.050781 90.035156 121.761719 91.074219 124.253906 C 91.835938 126.082031 92.164062 128.554688 92.457031 130.734375 L 92.523438 131.230469 C 92.601562 131.8125 92.675781 132.375 92.769531 132.894531 C 93.175781 135.347656 92.777344 137.976562 91.507812 141.167969 L 91.503906 141.167969 C 90.378906 143.980469 87.875 146.375 84.972656 147.421875 C 83.878906 147.800781 82.796875 147.992188 81.742188 147.992188 Z M 79.125 117.007812 C 78.648438 117.007812 78.253906 117.113281 77.945312 117.320312 L 77.816406 117.40625 L 77.664062 117.410156 C 77.128906 117.421875 76.636719 117.511719 76.199219 117.675781 C 75.707031 117.859375 75.289062 118.128906 74.917969 118.5 C 73.011719 120.472656 73.203125 124.746094 73.355469 128.179688 L 73.371094 128.601562 C 73.417969 129.789062 73.464844 130.914062 73.378906 131.738281 C 72.996094 135.476562 74 143.765625 78.050781 145.996094 C 78.75 146.378906 79.496094 146.644531 80.265625 146.792969 C 81.652344 147.078125 83.128906 146.953125 84.625 146.433594 C 87.246094 145.488281 89.511719 143.316406 90.535156 140.777344 C 91.730469 137.773438 92.109375 135.324219 91.734375 133.070312 C 91.640625 132.542969 91.5625 131.964844 91.484375 131.367188 L 91.417969 130.875 C 91.132812 128.753906 90.8125 126.355469 90.101562 124.65625 C 89.191406 122.464844 83.613281 117.976562 80.175781 117.144531 C 79.789062 117.054688 79.4375 117.007812 79.125 117.007812 Z M 79.125 117.007812 " fill-opacity="1" fill-rule="nonzero"/><path fill="#2f2e33" d="M 56.710938 201.246094 C 56.671875 201.257812 56.617188 201.273438 56.566406 201.285156 C 55.847656 201.523438 54.96875 201.613281 54.050781 201.613281 C 51.785156 201.613281 49.253906 201.0625 48.007812 200.667969 C 40.144531 198.125 37.039062 193.269531 33.789062 187.195312 C 32.113281 184.046875 32.53125 181.984375 33.1875 180.816406 C 34.066406 179.203125 35.925781 178.207031 38.535156 177.929688 C 38.757812 177.890625 38.980469 177.867188 39.214844 177.851562 C 41.523438 177.695312 43.316406 177.957031 45.425781 178.769531 C 47.695312 179.636719 49.28125 180.410156 51.246094 181.460938 C 51.625 181.671875 51.992188 181.878906 52.347656 182.089844 C 57.351562 185.09375 59.398438 188.835938 59.410156 195 L 59.410156 195.683594 C 59.4375 197.820312 59.476562 200.234375 56.710938 201.246094 Z M 56.710938 201.246094 " fill-opacity="1" fill-rule="nonzero"/><path fill="#2f2e33" d="M 54.050781 202.136719 C 51.894531 202.136719 49.324219 201.636719 47.851562 201.171875 C 39.808594 198.566406 36.636719 193.625 33.328125 187.441406 C 31.53125 184.070312 32.011719 181.839844 32.730469 180.558594 C 33.691406 178.796875 35.679688 177.707031 38.480469 177.410156 C 38.6875 177.371094 38.929688 177.34375 39.1875 177.328125 C 41.574219 177.164062 43.4375 177.441406 45.613281 178.28125 C 47.933594 179.167969 49.527344 179.949219 51.496094 181 C 51.882812 181.214844 52.257812 181.425781 52.613281 181.640625 C 57.800781 184.75 59.921875 188.621094 59.9375 195 L 59.9375 195.683594 C 59.960938 197.886719 59.996094 200.605469 56.890625 201.738281 L 56.734375 201.785156 C 56.015625 202.019531 55.113281 202.136719 54.050781 202.136719 Z M 56.402344 200.785156 L 56.710938 201.246094 L 56.53125 200.753906 C 58.9375 199.875 58.914062 197.851562 58.886719 195.710938 L 58.886719 195 C 58.875 189.046875 56.902344 185.433594 52.078125 182.542969 C 51.730469 182.335938 51.367188 182.125 50.996094 181.921875 C 49.070312 180.894531 47.511719 180.128906 45.242188 179.261719 C 43.214844 178.480469 41.480469 178.21875 39.25 178.378906 C 39.03125 178.390625 38.828125 178.414062 38.625 178.449219 C 36.148438 178.710938 34.4375 179.617188 33.648438 181.070312 C 33.054688 182.125 32.679688 183.996094 34.253906 186.949219 C 37.449219 192.917969 40.503906 197.6875 48.171875 200.167969 C 49.175781 200.488281 51.699219 201.085938 54.050781 201.085938 C 55.003906 201.089844 55.792969 200.988281 56.402344 200.785156 Z M 56.402344 200.785156 " fill-opacity="1" fill-rule="nonzero"/><path fill="#2f2e33" d="M 82.003906 165.636719 C 81.675781 169.808594 75.269531 174.808594 73.09375 176.070312 C 71.53125 176.972656 69.761719 177.417969 68.097656 177.417969 C 66.511719 177.417969 65.046875 177.011719 63.945312 176.199219 C 62.554688 175.164062 61.875 173.589844 61.941406 171.671875 C 61.953125 171.136719 62.03125 170.558594 62.175781 169.96875 C 63.121094 165.980469 66.460938 162.421875 70.667969 160.914062 L 70.679688 160.914062 C 71.402344 160.652344 72.109375 160.46875 72.816406 160.363281 C 75.660156 159.890625 78.386719 160.558594 80.523438 162.292969 C 81.597656 163.160156 82.109375 164.3125 82.003906 165.636719 Z M 82.003906 165.636719 " fill-opacity="1" fill-rule="nonzero"/><path fill="#2f2e33" d="M 68.097656 177.945312 C 66.347656 177.945312 64.804688 177.488281 63.632812 176.621094 C 62.109375 175.484375 61.34375 173.769531 61.414062 171.65625 C 61.429688 171.082031 61.515625 170.46875 61.664062 169.84375 C 62.648438 165.691406 66.113281 161.992188 70.492188 160.421875 L 70.589844 160.390625 C 71.324219 160.128906 72.027344 159.949219 72.742188 159.84375 C 75.730469 159.347656 78.617188 160.070312 80.851562 161.886719 C 82.066406 162.859375 82.644531 164.175781 82.527344 165.679688 C 82.179688 170.105469 75.683594 175.175781 73.355469 176.523438 C 71.777344 177.4375 69.910156 177.945312 68.097656 177.945312 Z M 70.761719 161.441406 C 66.746094 162.910156 63.582031 166.296875 62.683594 170.089844 C 62.550781 170.644531 62.476562 171.183594 62.464844 171.6875 C 62.402344 173.445312 63.023438 174.859375 64.257812 175.777344 C 65.246094 176.507812 66.574219 176.894531 68.097656 176.894531 C 69.726562 176.894531 71.40625 176.441406 72.828125 175.613281 C 75.253906 174.210938 81.1875 169.339844 81.480469 165.597656 C 81.574219 164.4375 81.140625 163.460938 80.195312 162.703125 C 78.195312 161.082031 75.605469 160.4375 72.90625 160.882812 C 72.222656 160.980469 71.558594 161.152344 70.859375 161.410156 Z M 70.761719 161.441406 " fill-opacity="1" fill-rule="nonzero"/><path fill="#2f2e33" d="M 125.632812 172.578125 C 124.371094 175.097656 121.6875 177.011719 117.832031 178.101562 C 115.382812 178.796875 113.0625 178.835938 110.613281 178.863281 C 109.996094 178.875 109.382812 178.890625 108.765625 178.902344 C 107.847656 178.929688 106.839844 179.21875 105.855469 179.507812 C 104.875 179.792969 103.851562 180.082031 102.894531 180.109375 L 102.828125 180.109375 C 100.730469 180.109375 99.121094 178.402344 98.699219 175.742188 C 98.476562 174.351562 98.554688 173.167969 98.753906 172.160156 C 98.859375 171.515625 99.015625 170.925781 99.160156 170.402344 C 99.328125 169.808594 99.472656 169.246094 99.539062 168.707031 C 99.550781 168.65625 99.566406 168.589844 99.589844 168.535156 C 102.816406 161.492188 107.847656 161.292969 114.085938 161.753906 C 115.371094 161.847656 116.65625 161.609375 117.898438 161.386719 C 120.820312 160.847656 123.847656 160.296875 125.578125 164.796875 C 125.632812 164.917969 125.671875 165.035156 125.695312 165.152344 C 126.71875 167.949219 126.691406 170.441406 125.632812 172.578125 Z M 125.632812 172.578125 " fill-opacity="1" fill-rule="nonzero"/><path fill="#2f2e33" d="M 102.90625 180.636719 C 100.464844 180.636719 98.640625 178.746094 98.183594 175.824219 C 97.976562 174.539062 97.996094 173.308594 98.238281 172.058594 C 98.34375 171.414062 98.5 170.816406 98.65625 170.261719 C 98.804688 169.734375 98.953125 169.175781 99.019531 168.644531 C 99.050781 168.492188 99.074219 168.394531 99.125 168.296875 C 102.46875 160.988281 107.894531 160.769531 114.125 161.230469 C 115.3125 161.320312 116.535156 161.097656 117.71875 160.886719 C 120.644531 160.351562 124.179688 159.695312 126.066406 164.609375 C 126.128906 164.742188 126.179688 164.894531 126.210938 165.042969 C 127.261719 167.898438 127.230469 170.535156 126.101562 172.8125 C 124.769531 175.476562 121.960938 177.480469 117.976562 178.609375 C 115.410156 179.335938 112.972656 179.363281 110.617188 179.386719 L 108.777344 179.425781 C 107.898438 179.453125 106.847656 179.761719 106.003906 180.007812 C 104.890625 180.335938 103.890625 180.605469 102.90625 180.636719 Z M 110.671875 162.128906 C 106.101562 162.128906 102.570312 163.289062 100.066406 168.757812 C 99.984375 169.375 99.824219 169.980469 99.664062 170.546875 C 99.519531 171.066406 99.371094 171.632812 99.269531 172.242188 C 99.046875 173.386719 99.03125 174.5 99.21875 175.65625 C 99.59375 178.042969 101.011719 179.585938 102.828125 179.585938 C 103.738281 179.5625 104.667969 179.308594 105.707031 179 C 106.609375 178.738281 107.730469 178.40625 108.75 178.378906 L 110.601562 178.339844 C 112.894531 178.3125 115.257812 178.289062 117.691406 177.597656 C 121.382812 176.554688 123.964844 174.738281 125.160156 172.34375 C 126.160156 170.335938 126.171875 167.980469 125.203125 165.332031 C 125.167969 165.183594 125.140625 165.101562 125.097656 165.011719 C 123.511719 160.882812 120.953125 161.355469 117.996094 161.902344 C 116.65625 162.144531 115.363281 162.375 114.046875 162.277344 C 112.867188 162.191406 111.738281 162.128906 110.671875 162.128906 Z M 110.671875 162.128906 " fill-opacity="1" fill-rule="nonzero"/><path fill="#2f2e33" d="M 128.238281 134.136719 C 125.816406 137.429688 120.113281 138.953125 117.125 139.320312 C 116.773438 139.371094 115.304688 139.542969 113.574219 139.542969 C 111.070312 139.542969 107.992188 139.175781 106.917969 137.5625 C 106.523438 136.957031 106.234375 135.90625 107.101562 134.386719 C 107.429688 133.492188 107.753906 132.601562 108.097656 131.75 C 109.773438 127.5625 111.960938 123.980469 117.480469 122.972656 C 120.179688 122.484375 123.46875 123.246094 125.867188 124.914062 C 127.191406 125.832031 128.160156 126.945312 128.738281 128.207031 C 128.988281 128.742188 129.15625 129.296875 129.261719 129.871094 C 129.535156 131.40625 129.183594 132.835938 128.238281 134.136719 Z M 128.238281 134.136719 " fill-opacity="1" fill-rule="nonzero"/><path fill="#2f2e33" d="M 113.574219 140.066406 C 111.011719 140.066406 107.699219 139.683594 106.480469 137.851562 C 106.089844 137.253906 105.59375 135.976562 106.644531 134.128906 C 106.953125 133.273438 107.273438 132.394531 107.609375 131.554688 C 109.507812 126.820312 111.894531 123.460938 117.386719 122.457031 C 120.210938 121.949219 123.660156 122.742188 126.167969 124.484375 C 127.570312 125.457031 128.59375 126.636719 129.214844 127.988281 C 129.476562 128.558594 129.660156 129.144531 129.777344 129.777344 C 130.074219 131.445312 129.703125 133.015625 128.664062 134.445312 L 128.660156 134.449219 C 126.117188 137.90625 120.253906 139.464844 117.191406 139.839844 C 116.769531 139.902344 115.273438 140.066406 113.574219 140.066406 Z M 119.164062 123.351562 C 118.617188 123.351562 118.085938 123.398438 117.570312 123.488281 C 112.554688 124.40625 110.351562 127.535156 108.582031 131.945312 C 108.25 132.773438 107.933594 133.644531 107.613281 134.515625 L 107.554688 134.644531 C 106.972656 135.671875 106.902344 136.582031 107.355469 137.273438 C 108.105469 138.398438 110.3125 139.019531 113.574219 139.019531 C 115.210938 139.019531 116.636719 138.863281 117.050781 138.800781 C 119.757812 138.46875 125.480469 137 127.816406 133.828125 C 128.679688 132.636719 128.992188 131.339844 128.746094 129.964844 C 128.648438 129.421875 128.488281 128.917969 128.261719 128.425781 C 127.722656 127.246094 126.816406 126.210938 125.566406 125.34375 C 123.738281 124.070312 121.359375 123.351562 119.164062 123.351562 Z M 119.164062 123.351562 " fill-opacity="1" fill-rule="nonzero"/><path fill="#2f2e33" d="M 157.542969 153.699219 C 157.082031 155.890625 153.179688 158.449219 151.316406 158.945312 C 150.804688 159.078125 150.253906 159.144531 149.679688 159.144531 C 149.179688 159.144531 148.65625 159.089844 148.105469 159 C 146.351562 158.65625 144.660156 157.871094 143.375 157.203125 L 142.589844 156.808594 C 141.710938 156.375 140.820312 155.929688 140.019531 155.390625 C 138.695312 154.484375 137.582031 153.304688 137.070312 151.390625 C 136.296875 148.542969 136.96875 145.5625 138.855469 143.4375 C 140.742188 141.3125 143.492188 140.355469 146.414062 140.789062 C 148.851562 141.15625 152.546875 143.859375 155.039062 147.035156 C 155.289062 147.335938 155.511719 147.636719 155.71875 147.9375 C 156.78125 149.460938 157.960938 151.691406 157.542969 153.699219 Z M 157.542969 153.699219 " fill-opacity="1" fill-rule="nonzero"/><path fill="#2f2e33" d="M 149.679688 159.667969 C 149.171875 159.667969 148.628906 159.621094 148.019531 159.515625 C 146.113281 159.144531 144.316406 158.285156 143.132812 157.667969 L 142.355469 157.277344 C 141.390625 156.804688 140.53125 156.367188 139.726562 155.828125 C 138.042969 154.675781 137.042969 153.308594 136.566406 151.527344 C 135.746094 148.507812 136.457031 145.355469 138.464844 143.089844 C 140.460938 140.839844 143.394531 139.8125 146.492188 140.269531 C 149.0625 140.65625 152.828125 143.367188 155.453125 146.710938 C 155.703125 147.011719 155.933594 147.328125 156.152344 147.640625 C 157.273438 149.246094 158.511719 151.621094 158.054688 153.808594 C 157.550781 156.222656 153.46875 158.914062 151.453125 159.457031 C 150.894531 159.597656 150.300781 159.667969 149.679688 159.667969 Z M 145.058594 141.210938 C 142.796875 141.210938 140.730469 142.117188 139.246094 143.789062 C 137.472656 145.785156 136.847656 148.574219 137.578125 151.25 C 137.992188 152.804688 138.835938 153.945312 140.316406 154.957031 C 141.058594 155.457031 141.890625 155.878906 142.820312 156.335938 L 143.609375 156.730469 C 144.746094 157.324219 146.445312 158.140625 148.207031 158.484375 C 149.378906 158.679688 150.324219 158.65625 151.1875 158.4375 C 152.914062 157.976562 156.632812 155.492188 157.03125 153.589844 C 157.410156 151.773438 156.292969 149.675781 155.289062 148.238281 C 155.089844 147.949219 154.875 147.660156 154.636719 147.367188 C 152.191406 144.253906 148.628906 141.652344 146.339844 141.308594 C 145.90625 141.242188 145.476562 141.210938 145.058594 141.210938 Z M 145.058594 141.210938 " fill-opacity="1" fill-rule="nonzero"/><path fill="#9b9c9e" d="M 128.738281 128.207031 C 128.632812 128.140625 128.515625 128.0625 128.382812 127.96875 C 128.03125 127.722656 127.503906 127.367188 127.375 127.300781 C 126.574219 126.972656 126.011719 126.960938 125.238281 126.933594 C 124.921875 126.921875 124.570312 126.90625 124.175781 126.882812 C 121.648438 126.660156 119.039062 126.433594 116.417969 126.800781 C 113.0625 127.273438 110.21875 129.308594 108.097656 131.75 C 109.773438 127.5625 111.960938 123.980469 117.480469 122.972656 C 120.179688 122.484375 123.46875 123.246094 125.867188 124.914062 C 127.191406 125.832031 128.160156 126.945312 128.738281 128.207031 Z M 128.738281 128.207031 " fill-opacity="1" fill-rule="nonzero"/><path fill="#9b9c9e" d="M 55.582031 138.191406 C 55.152344 138.296875 54.707031 138.320312 54.273438 138.335938 C 53.894531 138.347656 53.511719 138.363281 53.121094 138.425781 C 50.105469 138.964844 47.089844 140.25 44.183594 141.511719 L 43.828125 141.65625 C 40.773438 142.96875 38.480469 144.304688 36.816406 145.746094 C 35.191406 147.152344 34.472656 148.84375 33.710938 150.640625 C 33.382812 151.390625 33.070312 152.164062 32.664062 152.949219 C 32.464844 151.496094 32.519531 150.167969 32.542969 149.394531 L 32.542969 149.304688 C 33.738281 143.03125 37.617188 138.648438 44.429688 135.921875 C 44.890625 135.738281 45.441406 135.476562 46.03125 135.1875 C 47.878906 134.292969 50.15625 133.179688 51.847656 133.535156 C 53.878906 133.980469 55.058594 136.011719 55.582031 138.191406 Z M 55.582031 138.191406 " fill-opacity="1" fill-rule="nonzero"/><path fill="#9b9c9e" d="M 80.167969 147.308594 C 79.34375 147.152344 78.542969 146.863281 77.796875 146.457031 C 73.484375 144.082031 72.449219 135.660156 72.855469 131.683594 C 72.949219 130.804688 72.882812 129.542969 72.832031 128.207031 C 72.671875 124.664062 72.476562 120.269531 74.546875 118.128906 C 74.964844 117.710938 75.449219 117.394531 76.015625 117.1875 C 73.96875 123.167969 75.632812 132 76.527344 135.765625 C 76.917969 137.46875 77.5625 139.265625 78.242188 141.183594 C 78.964844 143.203125 79.699219 145.261719 80.167969 147.308594 Z M 80.167969 147.308594 " fill-opacity="1" fill-rule="nonzero"/><path fill="#9b9c9e" d="M 56.566406 201.285156 C 55.847656 201.523438 54.96875 201.613281 54.050781 201.613281 C 51.785156 201.613281 49.253906 201.0625 48.007812 200.667969 C 40.144531 198.125 37.039062 193.269531 33.789062 187.195312 C 32.113281 184.046875 32.53125 181.984375 33.1875 180.816406 C 34.066406 179.203125 35.925781 178.207031 38.535156 177.929688 C 39.332031 178.5625 39.292969 179.808594 39.269531 180.921875 C 39.242188 181.394531 39.226562 181.828125 39.28125 182.183594 C 39.59375 184.4375 40.511719 186.355469 41.601562 188.441406 C 43.1875 191.496094 44.390625 192.914062 47.195312 195.027344 C 48.375 195.933594 49.738281 196.667969 51.0625 197.375 C 53.066406 198.476562 55.113281 199.59375 56.566406 201.285156 Z M 56.566406 201.285156 " fill-opacity="1" fill-rule="nonzero"/><path fill="#9b9c9e" d="M 72.816406 160.363281 C 68.164062 163.144531 63.710938 166.503906 61.941406 171.671875 C 61.953125 171.136719 62.03125 170.558594 62.175781 169.96875 C 63.121094 165.980469 66.460938 162.421875 70.667969 160.914062 L 70.679688 160.914062 C 71.402344 160.652344 72.109375 160.46875 72.816406 160.363281 Z M 72.816406 160.363281 " fill-opacity="1" fill-rule="nonzero"/><path fill="#9b9c9e" d="M 100.179688 211.597656 C 97.023438 214.96875 92.972656 217.082031 89.210938 217.460938 C 89.75 216.152344 90.914062 215.140625 91.9375 214.261719 L 92.03125 214.183594 C 93.96875 212.488281 95.242188 211.113281 96.421875 208.59375 C 96.644531 208.121094 96.878906 207.648438 97.128906 207.148438 C 98.214844 205 99.449219 202.558594 99.027344 200.378906 C 98.503906 197.597656 95.855469 194.84375 93.132812 194.253906 C 92.949219 194.214844 92.789062 194.097656 92.699219 193.925781 C 92.605469 193.769531 92.59375 193.570312 92.644531 193.398438 C 92.710938 193.214844 92.789062 193.046875 92.882812 192.875 C 93.433594 192.613281 94.023438 192.429688 94.613281 192.324219 C 98.714844 191.601562 103.050781 194.582031 104.269531 198.988281 C 105.371094 202.976562 103.851562 207.6875 100.179688 211.597656 Z M 100.179688 211.597656 " fill-opacity="1" fill-rule="nonzero"/><path fill="#9b9c9e" d="M 125.695312 165.152344 C 124.84375 165.902344 123.742188 166.347656 122.550781 166.414062 C 120.625 166.53125 118.816406 166.320312 117.058594 166.125 C 114.464844 165.835938 112.015625 165.558594 109.316406 166.230469 C 104.046875 167.527344 100.574219 169.457031 98.753906 172.160156 C 98.855469 171.515625 99.015625 170.925781 99.160156 170.402344 C 99.328125 169.8125 99.472656 169.246094 99.539062 168.707031 C 99.550781 168.65625 99.566406 168.589844 99.589844 168.539062 C 102.816406 161.492188 107.847656 161.296875 114.085938 161.753906 C 115.371094 161.847656 116.652344 161.609375 117.898438 161.386719 C 120.820312 160.847656 123.847656 160.296875 125.578125 164.796875 C 125.632812 164.917969 125.671875 165.035156 125.695312 165.152344 Z M 125.695312 165.152344 " fill-opacity="1" fill-rule="nonzero"/><path fill="#9b9c9e" d="M 155.039062 147.035156 C 154.660156 147.179688 154.199219 147.269531 153.664062 147.308594 C 152.628906 147.386719 151.660156 146.796875 150.714844 146.234375 C 150.058594 145.828125 149.378906 145.40625 148.800781 145.316406 C 147.386719 145.078125 145.027344 145.09375 143.730469 145.488281 C 139.523438 146.773438 139.707031 149.617188 139.929688 153.238281 C 139.980469 153.949219 140.019531 154.671875 140.019531 155.390625 C 138.699219 154.488281 137.582031 153.304688 137.074219 151.390625 C 136.300781 148.542969 136.96875 145.566406 138.855469 143.441406 C 140.742188 141.3125 143.496094 140.355469 146.417969 140.789062 C 148.851562 141.15625 152.550781 143.859375 155.039062 147.035156 Z M 155.039062 147.035156 " fill-opacity="1" fill-rule="nonzero"/><g clip-path="url(#b41537c98c)"><path fill="#ff9b0c" d="M 168.097656 82.480469 L 196.179688 82.480469 L 196.179688 91.109375 L 168.097656 91.109375 Z M 168.097656 82.480469 " fill-opacity="1" fill-rule="nonzero"/></g></svg>