<svg xmlns="http://www.w3.org/2000/svg" xmlns:xlink="http://www.w3.org/1999/xlink" width="338" zoomAndPan="magnify" viewBox="0 0 253.5 371.249998" height="495" preserveAspectRatio="xMidYMid meet" version="1.0"><defs><g/><clipPath id="9bf31d3612"><path d="M 0.0078125 0 L 252.996094 0 L 252.996094 307.628906 L 0.0078125 307.628906 Z M 0.0078125 0 " clip-rule="nonzero"/></clipPath><clipPath id="53487d7b01"><path d="M 114 241 L 252.964844 241 L 252.964844 300.773438 L 114 300.773438 Z M 114 241 " clip-rule="nonzero"/></clipPath><clipPath id="68089a8b7f"><path d="M 44 133.125 L 169 133.125 L 169 365 L 44 365 Z M 44 133.125 " clip-rule="nonzero"/></clipPath></defs><g clip-path="url(#9bf31d3612)"><path fill="#ffffff" d="M 200.378906 184.492188 C 171.339844 184.492188 147.800781 203.132812 147.800781 226.121094 C 147.800781 249.097656 171.339844 267.738281 200.378906 267.738281 C 229.417969 267.738281 252.957031 249.097656 252.957031 226.121094 C 252.957031 225.605469 252.9375 225.089844 252.910156 224.582031 L 252.957031 224.582031 L 252.957031 20.429688 C 252.285156 9.058594 242.859375 0.0429688 231.320312 0.0429688 C 228.492188 0.0429688 225.800781 0.589844 223.320312 1.570312 L 223.320312 1.566406 L 88.367188 55.054688 L 86.761719 55.691406 L 86.761719 55.734375 C 86.488281 55.820312 86.21875 55.914062 85.953125 56.011719 L 84.882812 56.4375 C 76.925781 59.808594 71.292969 67.585938 71.050781 76.707031 L 71.050781 77.824219 C 71.0625 78.398438 71.050781 79.546875 71.050781 79.546875 L 71.050781 131.253906 L 71.058594 131.253906 L 71.058594 226.9375 C 65.308594 225.222656 59.085938 224.292969 52.585938 224.292969 C 23.546875 224.292969 0.0078125 242.921875 0.0078125 265.910156 C 0.0078125 288.894531 23.546875 307.527344 52.585938 307.527344 C 81.625 307.527344 105.160156 288.894531 105.160156 265.910156 C 105.160156 265.394531 105.140625 264.886719 105.113281 264.371094 L 105.160156 264.371094 L 105.160156 116.953125 L 218.855469 69.28125 L 218.855469 187.148438 C 213.105469 185.4375 206.882812 184.496094 200.378906 184.496094 " fill-opacity="1" fill-rule="nonzero"/></g><g clip-path="url(#53487d7b01)"><path fill="#ffffff" d="M 144.621094 300.523438 C 134.742188 300.484375 124.171875 293.226562 118.410156 281.472656 C 110.960938 266.28125 114.351562 249.339844 125.984375 243.636719 C 137.621094 237.929688 153.09375 245.617188 160.542969 260.808594 C 165.117188 270.132812 165.597656 284.019531 162.601562 291.660156 L 292.371094 291.984375 L 292.371094 300.527344 Z M 144.621094 300.523438 " fill-opacity="1" fill-rule="nonzero"/></g><g fill="#000000" fill-opacity="1"><g transform="translate(16.961881, 271.839258)"><g><path d="M 16.796875 -16.3125 C 16.765625 -18.25 16.703125 -20.1875 16.671875 -22.109375 C 16.671875 -22.375 16.734375 -22.609375 16.734375 -22.875 C 16.765625 -23.796875 16.96875 -24.734375 16.140625 -25.625 C 15.984375 -25.65625 15.6875 -25.796875 15.421875 -25.796875 C 14.5625 -25.828125 13.71875 -25.859375 12.859375 -25.859375 C 12.34375 -25.859375 11.90625 -25.59375 11.578125 -25.265625 C 10.59375 -24.34375 9.6875 -23.390625 8.921875 -22.3125 C 8.828125 -22.1875 8.734375 -22.078125 8.59375 -21.953125 C 8.53125 -22.046875 8.5 -22.046875 8.46875 -22.109375 C 7.90625 -23.234375 6.984375 -24.078125 6.203125 -25.0625 C 5.8125 -25.59375 5.421875 -25.65625 4.796875 -25.65625 C 4.71875 -25.65625 4.65625 -25.65625 4.59375 -25.65625 C 3.8125 -25.65625 3.015625 -25.6875 2.203125 -25.6875 C 1.671875 -25.6875 1.3125 -25.390625 1.15625 -24.9375 C 0.984375 -24.578125 0.859375 -24.21875 0.828125 -23.828125 C 0.6875 -22.9375 0.625 -22.015625 0.5625 -21.09375 C 0.453125 -19.5625 0.390625 -18.015625 0.328125 -16.5 C 0.234375 -14.828125 0.03125 -13.15625 0.03125 -11.484375 C 0.03125 -7.96875 0 -4.46875 0.265625 -0.984375 C 0.390625 0.65625 1.84375 1.078125 3.21875 1.25 C 3.34375 1.28125 3.453125 1.28125 3.578125 1.28125 C 4.171875 1.28125 5.640625 0.953125 5.8125 0.265625 C 5.84375 0.03125 5.875 -0.203125 5.875 -0.421875 C 5.96875 -2.0625 6.03125 -3.734375 6.109375 -5.375 C 6.140625 -6.59375 6.234375 -7.8125 6.234375 -9.03125 C 6.265625 -11.1875 6.234375 -13.390625 6.203125 -15.546875 C 6.203125 -15.953125 6.203125 -16.375 6.171875 -16.765625 C 6.234375 -16.796875 6.265625 -16.796875 6.296875 -16.796875 C 6.5 -16.46875 6.6875 -16.140625 6.921875 -15.8125 C 7.125 -15.453125 7.34375 -15.09375 7.609375 -14.765625 C 7.84375 -14.46875 8.140625 -14.3125 8.4375 -14.3125 C 8.734375 -14.3125 9.03125 -14.46875 9.28125 -14.796875 C 9.75 -15.390625 10.203125 -15.984375 10.703125 -16.578125 C 10.765625 -16.671875 10.828125 -16.703125 10.953125 -16.828125 C 10.890625 -16.203125 10.828125 -15.6875 10.796875 -15.15625 C 10.734375 -13.1875 10.625 -11.21875 10.671875 -9.25 C 10.671875 -7.09375 10.765625 -4.921875 10.703125 -2.796875 C 10.671875 -0.828125 10.734375 1.109375 10.796875 3.078125 C 10.796875 3.34375 10.828125 3.640625 10.890625 3.90625 C 11.25 4.921875 12.5 5.28125 13.484375 5.28125 C 13.78125 5.28125 14.078125 5.25 14.34375 5.15625 C 14.765625 5.015625 15.359375 4.859375 15.6875 4.5625 C 16.140625 4.171875 16.171875 3.484375 16.3125 2.921875 C 16.5 2.140625 16.5 1.28125 16.53125 0.453125 C 16.609375 -1.21875 16.53125 -2.890625 16.640625 -4.5625 C 16.703125 -6.328125 16.859375 -8.109375 16.90625 -9.875 C 16.90625 -12.015625 16.828125 -14.140625 16.796875 -16.3125 Z M 16.796875 -16.3125 "/></g></g></g><g fill="#000000" fill-opacity="1"><g transform="translate(34.512415, 271.839258)"><g><path d="M 14.234375 -23.09375 C 14.109375 -24.90625 13.421875 -25.296875 11.609375 -25.359375 C 10.4375 -25.359375 9.6875 -25.140625 9.21875 -23.953125 C 8.765625 -22.875 8.890625 -21.625 8.765625 -20.46875 C 8.625 -19.09375 8.828125 -17.59375 8.859375 -16.171875 C 8.859375 -14.859375 8.890625 -13.515625 8.890625 -12.203125 C 8.890625 -11.75 8.921875 -11.25 8.921875 -10.796875 C 8.859375 -9.578125 8.765625 -8.328125 8.625 -7.125 C 8.625 -6.328125 8.296875 -5.640625 7.515625 -5.375 C 7.390625 -5.34375 7.25 -5.3125 7.09375 -5.3125 C 6.984375 -5.3125 6.890625 -5.34375 6.796875 -5.375 C 6.5 -5.515625 6.328125 -5.78125 6.234375 -6.078125 C 5.78125 -7.25 5.9375 -8.46875 6.03125 -9.6875 C 6.140625 -10.859375 6.171875 -12.140625 6.078125 -13.328125 C 5.75 -16.578125 6.265625 -19.953125 6.296875 -23.265625 C 6.296875 -23.71875 6.265625 -24.25 5.96875 -24.609375 C 5.875 -24.703125 5.703125 -24.8125 5.578125 -24.875 C 5.3125 -25 5.015625 -25.0625 4.765625 -25.140625 C 4.234375 -25.234375 3.703125 -25.296875 3.21875 -25.296875 C 3.015625 -25.296875 2.828125 -25.296875 2.625 -25.265625 C 0.828125 -25.109375 0.421875 -23.953125 0.265625 -22.375 C 0 -18.734375 0.03125 -15.09375 0.03125 -11.421875 C 0 -9.0625 0 -6.6875 0 -4.359375 C 0 -3.1875 0.265625 -2.09375 0.71875 -1.015625 C 0.71875 0.171875 2.953125 1.21875 4.0625 1.21875 C 4.390625 1.21875 4.71875 1.1875 5.046875 1.1875 C 5.125 1.1875 5.21875 1.1875 5.28125 1.1875 C 5.78125 1.1875 6.296875 1.1875 6.828125 1.1875 C 7.0625 1.1875 7.28125 1.109375 7.484375 1.109375 C 7.671875 1.109375 7.84375 1.15625 8 1.28125 C 8.65625 1.734375 8.234375 2.859375 8.796875 3.40625 C 9.0625 3.671875 9.453125 3.734375 9.84375 3.734375 C 10.765625 3.734375 11.71875 3.734375 12.59375 3.453125 C 12.828125 3.34375 13.09375 3.25 13.25 3.046875 C 13.578125 2.75 13.71875 2.328125 13.8125 1.90625 C 14.234375 0.125 14.203125 -1.671875 14.28125 -3.515625 C 14.34375 -5.453125 14.34375 -7.421875 14.3125 -9.390625 C 14.28125 -10.34375 14.234375 -11.28125 14.203125 -12.265625 C 14.171875 -13.0625 14.3125 -13.8125 14.375 -14.609375 C 14.4375 -15.546875 14.375 -16.5 14.375 -17.421875 C 14.34375 -19.328125 14.3125 -21.203125 14.234375 -23.09375 Z M 14.234375 -23.09375 "/></g></g></g><g fill="#000000" fill-opacity="1"><g transform="translate(49.569787, 271.839258)"><g><path d="M 11.09375 -25.46875 C 10.921875 -25.46875 10.734375 -25.46875 10.5625 -25.46875 C 9.1875 -25.46875 7.8125 -25.53125 6.4375 -25.53125 C 5.75 -25.53125 5.09375 -25.53125 4.390625 -25.46875 C 3.671875 -25.4375 1.96875 -25.203125 1.609375 -24.40625 C 1.484375 -24.125 1.34375 -23.828125 1.28125 -23.53125 C 0.75 -20.796875 0.71875 -17.890625 1.046875 -15.125 C 1.15625 -14.234375 1.34375 -13.953125 2.0625 -13.390625 C 3.671875 -12.078125 5.28125 -10.734375 6.890625 -9.421875 C 7.3125 -9.09375 7.75 -8.734375 8 -8.234375 C 8.46875 -7.453125 8.375 -6.46875 8.265625 -5.515625 C 8.234375 -5.34375 8.203125 -5.125 8.078125 -5.015625 C 7.96875 -4.953125 7.84375 -4.921875 7.75 -4.890625 C 7.609375 -4.859375 6.953125 -4.71875 6.4375 -4.71875 C 6.078125 -4.71875 5.8125 -4.796875 5.8125 -5.015625 C 5.515625 -5.640625 5.640625 -6.4375 5.640625 -7.09375 C 5.609375 -7.421875 5.578125 -7.78125 5.34375 -8.046875 C 5.046875 -8.328125 4.59375 -8.375 4.203125 -8.40625 C 3.78125 -8.40625 3.375 -8.4375 2.953125 -8.4375 C 2.796875 -8.4375 2.65625 -8.4375 2.5 -8.4375 C 0.65625 -8.4375 0.265625 -7.71875 0.09375 -6 C 0.03125 -4.625 0 -3.25 0.0625 -1.90625 C 0.125 -0.953125 0.203125 -0.421875 1.015625 0.171875 C 1.34375 0.390625 1.703125 0.65625 2.09375 0.78125 C 2.5 0.921875 2.890625 0.859375 3.3125 0.921875 C 3.703125 0.953125 4.109375 0.984375 4.53125 1.015625 C 5.28125 1.078125 6.03125 1.1875 6.796875 1.1875 C 7.390625 1.1875 7.96875 1.15625 8.5625 1.109375 C 9.484375 1.078125 10.40625 1.046875 11.328125 1.015625 C 12.078125 0.984375 13.625 0.59375 13.71875 -0.359375 C 13.8125 -1.015625 13.953125 -1.640625 13.953125 -2.265625 C 14.015625 -3.703125 14.015625 -5.15625 14.015625 -6.625 C 13.984375 -7.671875 13.953125 -8.765625 13.875 -9.84375 C 13.8125 -10.265625 13.78125 -10.734375 13.546875 -11.125 C 13.421875 -11.390625 13.21875 -11.609375 13 -11.84375 C 11.25 -13.578125 8.984375 -14.671875 7.15625 -16.3125 C 6.828125 -16.609375 6.5 -16.9375 6.328125 -17.359375 C 6.140625 -17.75 6.078125 -18.25 6.265625 -18.640625 C 6.46875 -19.0625 7.015625 -19.09375 7.546875 -19.09375 C 7.671875 -19.09375 7.84375 -19.09375 7.9375 -19.09375 C 8.046875 -19.09375 8.109375 -19.09375 8.171875 -19.09375 C 8.234375 -19.09375 8.328125 -19.09375 8.4375 -19.03125 C 8.5 -19 8.53125 -18.9375 8.5625 -18.875 C 8.703125 -18.5 8.625 -18.109375 8.625 -17.71875 C 8.625 -16.828125 8.953125 -16.703125 9.6875 -16.609375 C 10.46875 -16.609375 11.28125 -16.578125 12.078125 -16.578125 C 12.203125 -16.578125 12.34375 -16.578125 12.46875 -16.578125 C 12.859375 -16.578125 13.21875 -16.609375 13.546875 -16.828125 C 14.4375 -17.453125 14.171875 -18.671875 14.203125 -19.59375 C 14.234375 -19.6875 14.234375 -19.78125 14.234375 -19.890625 C 14.234375 -20.796875 14.203125 -21.6875 14.234375 -22.609375 C 14.28125 -23.171875 14.234375 -23.71875 13.984375 -24.28125 C 13.421875 -25.328125 12.171875 -25.46875 11.09375 -25.46875 Z M 11.09375 -25.46875 "/></g></g></g><g fill="#000000" fill-opacity="1"><g transform="translate(64.495938, 271.839258)"><g><path d="M 7.90625 -24.875 C 7.90625 -25.109375 7.8125 -25.296875 7.71875 -25.46875 C 7.640625 -25.59375 7.578125 -25.6875 7.484375 -25.765625 C 7.34375 -25.859375 7.1875 -25.859375 7.0625 -25.859375 C 6.828125 -25.859375 6.59375 -25.859375 6.359375 -25.859375 C 6.296875 -25.859375 6.234375 -25.859375 6.203125 -25.859375 C 4.5 -25.859375 2.796875 -25.859375 1.078125 -25.859375 C 0.953125 -25.859375 0.828125 -25.859375 0.71875 -25.765625 C 0.59375 -25.6875 0.5 -25.53125 0.421875 -25.359375 C 0.0625 -24.484375 -0.0625 -23.5 0.03125 -22.515625 C 0.125 -20.96875 0.234375 -20.796875 1.765625 -20.796875 C 1.734375 -19.953125 1.703125 -19.09375 1.640625 -18.25 C 1.578125 -17.234375 1.40625 -16.203125 1.34375 -15.15625 C 1.21875 -13 1.109375 -10.828125 1.046875 -9.484375 C 1.109375 -6.140625 1.015625 -3.609375 1.1875 -1.078125 C 1.28125 -0.0625 1.734375 0.59375 2.65625 0.984375 C 2.921875 1.109375 3.25 1.109375 3.515625 1.25 C 3.78125 1.34375 4.03125 1.375 4.296875 1.375 C 4.953125 1.375 5.546875 1.15625 6.171875 0.984375 C 6.265625 0.953125 6.359375 0.859375 6.46875 0.78125 C 6.984375 0.359375 7.28125 -0.171875 7.28125 -0.890625 C 7.28125 -1.484375 7.28125 -2.09375 7.3125 -2.71875 C 7.3125 -3.3125 7.28125 -3.9375 7.390625 -4.53125 C 7.515625 -5.34375 7.515625 -6.140625 7.546875 -6.953125 C 7.546875 -7.671875 7.515625 -8.40625 7.671875 -9.125 C 7.75 -9.28125 7.75 -9.484375 7.75 -9.6875 C 7.84375 -12.671875 7.875 -15.625 7.875 -18.609375 C 7.90625 -20.046875 7.9375 -21.5 7.9375 -22.9375 C 7.96875 -23.171875 7.96875 -23.359375 7.9375 -23.59375 C 7.9375 -23.625 7.9375 -23.625 7.9375 -23.65625 C 7.9375 -24.078125 7.9375 -24.484375 7.90625 -24.875 Z M 7.90625 -24.875 "/></g></g></g><g fill="#000000" fill-opacity="1"><g transform="translate(73.123579, 271.839258)"><g><path d="M 12.796875 -9.125 C 11.984375 -9.125 10.4375 -8.890625 10.4375 -7.8125 C 10.40625 -7.15625 10.34375 -6.53125 10.296875 -5.875 C 10.296875 -5.609375 10.234375 -5.34375 10.015625 -5.1875 C 9.546875 -5.1875 7.421875 -5.21875 6.953125 -5.25 C 6.265625 -5.3125 5.90625 -5.75 5.875 -6.40625 C 5.84375 -6.890625 5.875 -7.390625 5.90625 -7.90625 C 5.9375 -9.09375 6.03125 -10.296875 6.078125 -11.515625 C 6.078125 -12.40625 5.9375 -13.296875 5.9375 -14.171875 C 5.9375 -15.484375 5.96875 -16.796875 6.03125 -18.078125 C 6.03125 -18.4375 6.140625 -18.765625 6.359375 -19.0625 C 6.46875 -19.265625 7.15625 -19.296875 7.34375 -19.328125 C 7.671875 -19.328125 7.96875 -19.265625 8.296875 -19.265625 C 8.46875 -19.234375 8.59375 -19.234375 8.734375 -19.125 C 8.828125 -19 8.859375 -18.828125 8.859375 -18.671875 C 8.859375 -18.34375 8.859375 -18.015625 8.859375 -17.6875 C 8.953125 -16.734375 9.09375 -16.609375 10.078125 -16.4375 C 10.5 -16.40625 10.890625 -16.375 11.328125 -16.375 C 11.875 -16.375 12.46875 -16.40625 13.03125 -16.46875 C 13.296875 -16.5 13.546875 -16.578125 13.75 -16.734375 C 14.234375 -17.15625 14.078125 -18.3125 14.109375 -18.90625 C 14.171875 -19.75 14.171875 -20.609375 14.234375 -21.5 C 14.234375 -21.65625 14.28125 -21.859375 14.3125 -22.046875 C 14.46875 -22.578125 14.4375 -23.140625 14.234375 -23.65625 C 14.140625 -23.890625 14.015625 -24.15625 13.90625 -24.375 C 13.71875 -24.9375 13.25 -25.234375 12.703125 -25.328125 C 12.140625 -25.4375 11.609375 -25.53125 11.0625 -25.5625 C 8.921875 -25.59375 6.796875 -25.625 4.65625 -25.625 C 3.15625 -25.625 1.046875 -25.53125 0.265625 -23.953125 C -0.09375 -23.203125 0 -22.34375 0.0625 -21.53125 C 0.71875 -14.734375 -0.09375 -7.9375 0.328125 -1.15625 C 0.390625 -0.03125 1.28125 0.71875 2.359375 0.859375 C 2.921875 0.953125 3.484375 0.984375 4.03125 0.984375 C 4.53125 0.984375 5.015625 0.953125 5.484375 0.921875 C 6.734375 0.859375 9.6875 0.71875 10.921875 0.6875 C 11.875 0.65625 12.796875 0.625 13.71875 0.296875 C 15.125 -0.171875 15.328125 -1.3125 15.390625 -2.625 C 15.390625 -3.28125 15.421875 -3.9375 15.453125 -4.5625 C 15.546875 -5.375 15.59375 -6.171875 15.484375 -6.984375 C 15.296875 -8.46875 14.171875 -9.125 12.796875 -9.125 Z M 12.796875 -9.125 "/></g></g></g><g clip-path="url(#68089a8b7f)"><path fill="#ffffff" d="M 51.773438 359.015625 C 37.375 346.078125 45.253906 325.003906 69.023438 312.878906 C 76.953125 308.835938 82.800781 307.085938 93.261719 307.394531 C 99.605469 307.554688 106.902344 311.214844 106.902344 311.214844 C 106.902344 264.6875 106.726562 176.496094 106.726562 133.019531 C 109.304688 133.035156 110.953125 133.003906 114.5625 133.003906 C 114.5625 135.5625 114.527344 137.402344 114.527344 139.667969 C 114.527344 141.878906 114.683594 143.3125 114.898438 144.699219 C 117.394531 160.933594 121.027344 167.324219 139.175781 187.382812 C 162.128906 212.753906 168.792969 228.035156 168.65625 248.332031 C 168.53125 267.371094 151.785156 308.144531 147.976562 306.457031 C 153.273438 292.191406 160.410156 276.800781 162.308594 263.921875 C 164.632812 248.183594 158.238281 225.972656 147.949219 214.253906 C 139.488281 204.617188 119.996094 196 114.679688 196 C 114.679688 196 114.457031 289.726562 114.457031 325.257812 C 114.457031 331.378906 108.910156 341.753906 105.789062 345.484375 C 91.546875 362.492188 64.214844 370.195312 51.773438 359.015625 Z M 51.773438 359.015625 " fill-opacity="1" fill-rule="nonzero"/></g><g fill="#000000" fill-opacity="1"><g transform="translate(159.432616, 234.848265)"><g><path d="M 10.875 -7.75 C 10.1875 -7.75 8.875 -7.5625 8.875 -6.640625 C 8.84375 -6.078125 8.78125 -5.546875 8.75 -5 C 8.75 -4.765625 8.703125 -4.546875 8.5 -4.40625 C 8.109375 -4.40625 6.296875 -4.4375 5.90625 -4.46875 C 5.328125 -4.515625 5.015625 -4.875 5 -5.4375 C 4.96875 -5.859375 5 -6.28125 5.015625 -6.71875 C 5.046875 -7.71875 5.125 -8.75 5.15625 -9.796875 C 5.15625 -10.546875 5.046875 -11.296875 5.046875 -12.046875 C 5.046875 -13.171875 5.078125 -14.28125 5.125 -15.375 C 5.125 -15.671875 5.21875 -15.953125 5.40625 -16.203125 C 5.5 -16.375 6.078125 -16.40625 6.25 -16.421875 C 6.53125 -16.421875 6.78125 -16.375 7.0625 -16.375 C 7.203125 -16.34375 7.3125 -16.34375 7.421875 -16.265625 C 7.5 -16.15625 7.53125 -16.015625 7.53125 -15.875 C 7.53125 -15.59375 7.53125 -15.3125 7.53125 -15.03125 C 7.609375 -14.21875 7.71875 -14.109375 8.5625 -13.96875 C 8.921875 -13.953125 9.265625 -13.921875 9.625 -13.921875 C 10.09375 -13.921875 10.59375 -13.953125 11.078125 -14 C 11.296875 -14.03125 11.515625 -14.078125 11.6875 -14.21875 C 12.109375 -14.59375 11.96875 -15.5625 12 -16.0625 C 12.046875 -16.796875 12.046875 -17.515625 12.109375 -18.265625 C 12.109375 -18.40625 12.125 -18.578125 12.15625 -18.75 C 12.296875 -19.1875 12.265625 -19.65625 12.109375 -20.109375 C 12.015625 -20.296875 11.90625 -20.53125 11.828125 -20.71875 C 11.65625 -21.203125 11.265625 -21.453125 10.796875 -21.53125 C 10.3125 -21.609375 9.875 -21.703125 9.40625 -21.734375 C 7.59375 -21.75 5.765625 -21.78125 3.953125 -21.78125 C 2.671875 -21.78125 0.890625 -21.703125 0.21875 -20.359375 C -0.078125 -19.71875 0 -19 0.0625 -18.296875 C 0.609375 -12.515625 -0.078125 -6.75 0.28125 -0.96875 C 0.328125 -0.03125 1.09375 0.609375 2.015625 0.71875 C 2.484375 0.8125 2.953125 0.84375 3.4375 0.84375 C 3.84375 0.84375 4.265625 0.8125 4.65625 0.78125 C 5.71875 0.71875 8.234375 0.609375 9.28125 0.578125 C 10.09375 0.5625 10.875 0.53125 11.65625 0.25 C 12.859375 -0.140625 13.03125 -1.109375 13.078125 -2.234375 C 13.078125 -2.796875 13.109375 -3.34375 13.140625 -3.875 C 13.21875 -4.578125 13.25 -5.25 13.171875 -5.9375 C 13 -7.203125 12.046875 -7.75 10.875 -7.75 Z M 10.875 -7.75 "/></g></g></g><g fill="#000000" fill-opacity="1"><g transform="translate(173.207116, 234.848265)"><g><path d="M 9.34375 -7.328125 C 9.234375 -7.5625 8.5625 -8.625 8.703125 -8.84375 C 8.84375 -9.03125 9.90625 -9.09375 10.1875 -9.171875 C 10.65625 -9.34375 11.046875 -9.59375 11.34375 -9.984375 C 11.875 -10.6875 11.90625 -11.765625 12 -12.609375 C 12.109375 -13.6875 12.15625 -14.78125 12.21875 -15.875 C 12.25 -17.0625 12.328125 -18.328125 12.15625 -19.5 C 12.109375 -19.90625 12.015625 -20.359375 11.734375 -20.6875 C 10.9375 -21.8125 8.8125 -22.125 7.5625 -22.140625 C 5.9375 -22.140625 4.328125 -22.09375 2.671875 -22.09375 C 0.78125 -22.09375 0.1875 -21 0.1875 -19.296875 C 0.1875 -18.046875 0.171875 -16.796875 0.140625 -15.5 C 0.140625 -15.390625 0.140625 -15.3125 0.140625 -15.203125 C 0.078125 -13.8125 0.0625 -12.40625 0.1875 -11.046875 C 0.21875 -10.765625 0.21875 -10.453125 0.1875 -10.1875 C 0.140625 -9.453125 0.0625 -8.75 0.03125 -8.03125 C 0 -7.53125 0.0625 -7 0.078125 -6.46875 C 0.109375 -5.515625 0.1875 -4.546875 0.21875 -3.5625 C 0.21875 -2.40625 0.171875 -1.203125 0.171875 -0.03125 C 0.171875 0.5625 0.328125 0.71875 0.890625 0.921875 C 1.34375 1.0625 1.78125 1.109375 2.203125 1.109375 C 3.125 1.109375 4.578125 1.03125 4.734375 -0.078125 C 4.96875 -1.390625 4.875 -2.703125 4.828125 -4.015625 C 4.796875 -4.609375 4.90625 -5.15625 4.90625 -5.75 C 4.90625 -5.5 5.359375 -5 5.46875 -4.765625 C 5.640625 -4.40625 5.75 -4.078125 5.890625 -3.703125 C 6.1875 -2.875 6.640625 -2.0625 7.03125 -1.28125 C 7.84375 0.359375 8.703125 1.984375 9.59375 3.59375 C 10.234375 4.6875 10.515625 4.796875 11.765625 4.859375 C 12.328125 4.859375 13.890625 4.828125 14.21875 4.265625 C 14.71875 3.625 14.078125 2.28125 13.75 1.703125 C 12.1875 -1.25 10.734375 -4.296875 9.34375 -7.328125 Z M 6.96875 -14.390625 C 6.890625 -14.25 6.78125 -14.140625 6.640625 -14.03125 C 6.28125 -13.8125 5.796875 -13.6875 5.328125 -13.671875 C 5.265625 -13.671875 5.21875 -13.640625 5.15625 -13.640625 C 5.078125 -13.640625 5 -13.671875 4.90625 -13.6875 C 4.40625 -13.890625 4.546875 -14.46875 4.515625 -14.859375 C 4.484375 -15.5 4.4375 -16.15625 4.484375 -16.796875 C 4.609375 -17.234375 4.71875 -17.3125 5.21875 -17.375 C 5.390625 -17.40625 5.515625 -17.40625 5.65625 -17.40625 C 5.796875 -17.40625 5.96875 -17.40625 6.109375 -17.375 C 6.421875 -17.34375 6.78125 -17.296875 6.9375 -17.0625 C 7.03125 -16.921875 7.0625 -16.734375 7.078125 -16.5625 C 7.109375 -16.3125 7.140625 -16.0625 7.171875 -15.8125 C 7.21875 -15.34375 7.25 -14.8125 6.96875 -14.390625 Z M 6.96875 -14.390625 "/></g></g></g><g fill="#000000" fill-opacity="1"><g transform="translate(188.180611, 234.848265)"><g><path d="M 13.78125 -18.875 C 13.859375 -19.296875 13.859375 -19.78125 13.8125 -20.1875 C 13.609375 -21.28125 13.078125 -21.453125 12.015625 -21.453125 C 10.40625 -21.359375 9.84375 -21.078125 9.0625 -19.6875 C 8.734375 -19.15625 8.390625 -18.609375 8.0625 -18.046875 C 7.78125 -17.546875 7.53125 -17.015625 7.171875 -16.5625 C 7.0625 -16.734375 6.890625 -16.84375 6.8125 -16.984375 C 6.328125 -17.96875 5.6875 -18.796875 5.25 -19.796875 C 5 -20.421875 4.46875 -21.203125 3.828125 -21.453125 C 3.546875 -21.53125 3.234375 -21.5625 2.953125 -21.5625 C 2.515625 -21.53125 2.0625 -21.5 1.625 -21.46875 C 1 -21.390625 0.328125 -21.203125 0.109375 -20.640625 C -0.109375 -20.171875 0.140625 -19.609375 0.390625 -19.140625 C 1.8125 -16.40625 3.265625 -13.6875 4.765625 -11.015625 C 4.765625 -10.984375 4.765625 -10.96875 4.734375 -10.90625 C 3.828125 -8.34375 2.90625 -5.75 2.015625 -3.15625 C 1.75 -2.515625 1.53125 -1.84375 1.390625 -1.140625 C 1.34375 -0.75 1.28125 -0.359375 1.359375 0.03125 C 1.5625 0.921875 2.125 1 2.875 1.09375 C 3.015625 1.09375 3.15625 1.09375 3.3125 1.09375 C 5.296875 1.09375 6.140625 -0.28125 6.859375 -1.875 C 7.453125 -3.234375 7.890625 -4.65625 8.421875 -6.046875 C 8.953125 -7.421875 9.671875 -8.671875 10.125 -10.0625 C 10.65625 -11.765625 11.34375 -13.390625 12.125 -14.953125 C 12.578125 -15.8125 13 -16.671875 13.296875 -17.59375 C 13.4375 -18.015625 13.671875 -18.40625 13.78125 -18.875 Z M 13.78125 -18.875 "/></g></g></g><g fill="#000000" fill-opacity="1"><g transform="translate(202.59643, 234.848265)"><g><path d="M 11.734375 -20.1875 C 11.546875 -20.328125 11.328125 -20.46875 11.15625 -20.640625 C 10.59375 -21.0625 9.984375 -21.28125 9.34375 -21.359375 C 8.140625 -21.5 6.96875 -21.53125 5.765625 -21.53125 C 5.328125 -21.53125 4.875 -21.53125 4.4375 -21.53125 C 4.34375 -21.53125 4.265625 -21.53125 4.1875 -21.53125 C 3.34375 -21.5 2.515625 -21.46875 1.671875 -21.453125 C 0.421875 -21.359375 0.0625 -21.03125 0.0625 -19.71875 C 0.0625 -19.5 0.03125 -19.25 0.03125 -19 C 0.03125 -18.4375 0 -17.84375 0.1875 -17.3125 C 0.21875 -17.1875 0.28125 -17.046875 0.390625 -16.953125 C 0.53125 -16.875 0.703125 -16.84375 0.859375 -16.8125 C 1 -16.8125 1.109375 -16.8125 1.234375 -16.8125 C 1.234375 -16.34375 1.234375 -15.890625 1.234375 -15.421875 C 1.203125 -15.0625 1.203125 -14.671875 1.171875 -14.28125 C 1 -12.4375 0.859375 -10.59375 0.890625 -8.734375 C 0.953125 -6.15625 0.859375 -3.5625 0.859375 -0.96875 C 0.859375 0.96875 1.640625 1.03125 3.296875 1.03125 C 4.046875 1.03125 4.859375 0.8125 5.359375 0.21875 C 6.28125 -0.890625 5.796875 -2.921875 5.765625 -4.234375 C 5.765625 -4.609375 5.796875 -4.96875 5.796875 -5.296875 C 5.796875 -6 5.796875 -6.6875 5.796875 -7.359375 C 5.796875 -7.46875 5.828125 -7.59375 5.859375 -7.703125 C 6 -7.71875 6.140625 -7.75 6.28125 -7.75 C 6.78125 -7.8125 7.28125 -7.8125 7.75 -7.84375 C 8.453125 -7.921875 9.171875 -7.984375 9.875 -8.109375 C 11.015625 -8.34375 11.859375 -9.34375 11.96875 -10.515625 C 12.015625 -11.15625 12.109375 -11.765625 12.15625 -12.40625 C 12.25 -13.421875 12.328125 -14.453125 12.328125 -15.484375 C 12.390625 -16.703125 12.25 -17.90625 12.109375 -19.140625 C 12.078125 -19.53125 11.96875 -19.890625 11.734375 -20.1875 Z M 8.5625 -13.390625 C 8.453125 -12.6875 8.234375 -12.296875 7.46875 -12.1875 C 7.078125 -12.109375 6.640625 -12.078125 6.21875 -12.078125 C 5.6875 -12.109375 5.4375 -12.4375 5.46875 -12.96875 C 5.515625 -13.921875 5.5 -14.859375 5.515625 -15.8125 C 5.640625 -16.84375 5.90625 -17.046875 7 -17.046875 C 7.078125 -17.046875 7.203125 -17.046875 7.28125 -17.046875 C 7.84375 -17.046875 8.375 -16.921875 8.59375 -16.28125 C 8.640625 -16.0625 8.640625 -15.8125 8.671875 -15.5625 C 8.671875 -15.5625 8.671875 -15.53125 8.671875 -15.5 C 8.671875 -14.8125 8.671875 -14.078125 8.5625 -13.390625 Z M 8.5625 -13.390625 "/></g></g></g><g fill="#000000" fill-opacity="1"><g transform="translate(215.506532, 234.848265)"><g><path d="M 11.96875 -21.203125 C 11.546875 -21.390625 11.078125 -21.421875 10.625 -21.453125 C 8.03125 -21.59375 5.4375 -21.609375 2.84375 -21.609375 C 2.421875 -21.609375 2.03125 -21.609375 1.640625 -21.5625 C 1 -21.421875 0.25 -21.171875 0.0625 -20.46875 C 0.03125 -20.296875 0 -20.109375 0 -19.90625 C 0 -19.140625 0 -18.375 0.03125 -17.59375 C 0.078125 -16.59375 0.359375 -16.40625 1.34375 -16.40625 C 1.78125 -16.40625 2.265625 -16.421875 2.734375 -16.421875 C 2.984375 -16.421875 3.15625 -16.375 3.234375 -16.28125 C 3.484375 -16.03125 3.34375 -15.5 3.3125 -15 C 3.296875 -14.078125 3.265625 -13.171875 3.234375 -12.25 C 3.15625 -9.84375 3.09375 -7.46875 3.046875 -5.078125 C 3.015625 -3.90625 2.984375 -2.734375 3.0625 -1.59375 C 3.15625 -0.609375 3.09375 0.390625 4.078125 0.859375 C 4.609375 1.109375 5.15625 1.234375 5.6875 1.234375 C 6.109375 1.234375 7.171875 1.09375 7.46875 0.78125 C 7.953125 0.421875 8.203125 -0.0625 8.203125 -0.671875 C 8.203125 -1.171875 8.203125 -1.671875 8.203125 -2.171875 C 8.234375 -2.703125 8.203125 -3.265625 8.28125 -3.796875 C 8.484375 -4.734375 8.375 -5.6875 8.453125 -6.640625 C 8.453125 -6.890625 8.453125 -7.140625 8.484375 -7.390625 C 8.53125 -7.8125 8.625 -8.234375 8.625 -8.640625 C 8.640625 -11.1875 8.671875 -13.75 8.703125 -16.28125 C 8.703125 -16.453125 8.703125 -16.59375 8.703125 -16.796875 C 8.875 -16.796875 9.015625 -16.796875 9.140625 -16.796875 C 9.8125 -16.765625 10.453125 -16.765625 11.125 -16.765625 C 12.125 -16.765625 12.5 -17.046875 12.578125 -18.09375 C 12.609375 -19.078125 13.046875 -20.640625 11.96875 -21.203125 Z M 11.96875 -21.203125 "/></g></g></g><g fill="#000000" fill-opacity="1"><g transform="translate(228.779129, 234.848265)"><g><path d="M 11.765625 -7.53125 C 11.765625 -7.640625 11.765625 -7.78125 11.71875 -7.921875 C 11.515625 -8.734375 11.609375 -9.53125 11.625 -10.3125 C 11.65625 -11.1875 11.71875 -12.015625 11.734375 -12.859375 C 11.765625 -14.21875 11.734375 -15.59375 11.6875 -16.953125 C 11.578125 -20.359375 10.90625 -22.03125 7.359375 -22.03125 C 6.359375 -22.03125 5.359375 -22.03125 4.328125 -21.953125 C 3.515625 -21.890625 2.65625 -21.78125 1.953125 -21.390625 C 1.171875 -20.921875 0.609375 -19.46875 0.53125 -18.546875 C 0.453125 -16.703125 0.390625 -14.84375 0.21875 -13 C 0.0625 -11.265625 0 -9.515625 0 -7.78125 C 0 -6.4375 0.03125 -5.109375 0.03125 -3.765625 C 0.03125 -3.15625 0.03125 -2.53125 0.109375 -1.953125 C 0.46875 0.328125 1.890625 0.5 3.828125 0.5 C 4.375 0.5 4.90625 0.46875 5.46875 0.453125 C 6.46875 0.390625 7.5 0.359375 8.5 0.3125 C 8.8125 0.28125 9.125 0.28125 9.421875 0.171875 C 10.546875 -0.140625 11.1875 -1.28125 11.46875 -2.40625 C 11.90625 -4.078125 11.71875 -5.828125 11.765625 -7.53125 Z M 7.28125 -6.296875 C 7.28125 -6.078125 7.21875 -5.828125 7.21875 -5.609375 C 7.25 -5.15625 6.96875 -4.90625 6.578125 -4.765625 C 6.328125 -4.6875 6.046875 -4.625 5.765625 -4.546875 C 5.65625 -4.578125 5.546875 -4.609375 5.4375 -4.65625 C 5.109375 -4.828125 4.875 -5.046875 4.90625 -5.4375 C 4.90625 -6.046875 4.90625 -6.640625 4.90625 -7.21875 C 4.9375 -8.375 5 -9.53125 5 -10.6875 C 5 -11.375 4.859375 -12.078125 4.859375 -12.78125 C 4.828125 -13.609375 4.859375 -14.46875 4.875 -15.34375 C 4.875 -15.78125 5.359375 -16.203125 5.890625 -16.234375 C 6.296875 -16.234375 6.53125 -16.203125 6.8125 -15.875 C 6.859375 -15.5 7 -15.0625 7.03125 -14.59375 C 7.171875 -12.6875 7.3125 -10.765625 7.3125 -8.875 C 7.3125 -8.03125 7.3125 -7.171875 7.28125 -6.296875 Z M 7.28125 -6.296875 "/></g></g></g><g fill="#000000" fill-opacity="1"><g transform="translate(129.538847, 288.025548)"><g><path d="M 20.328125 -14.671875 C 20.109375 -15.078125 19.9375 -15.46875 19.703125 -15.921875 C 19.53125 -16.234375 19.390625 -16.546875 19.125 -16.8125 C 18.90625 -17.078125 18.546875 -17.296875 18.1875 -17.296875 C 17.96875 -17.296875 17.796875 -17.21875 17.5625 -17.171875 C 16.015625 -16.671875 14.53125 -16.015625 13.109375 -15.15625 C 12.484375 -14.8125 11.90625 -14.3125 11.1875 -14.046875 C 10.484375 -13.78125 9.8125 -13.328125 9.234375 -12.84375 C 8.734375 -12.390625 8.390625 -12.171875 8.734375 -11.5 C 9.28125 -10.5625 9.71875 -9.625 10.171875 -8.65625 C 10.25 -8.46875 10.296875 -8.421875 10.484375 -8.421875 C 10.65625 -8.421875 10.84375 -8.515625 10.921875 -8.609375 C 11.15625 -8.78125 11.328125 -8.921875 11.546875 -9.046875 C 11.5 -8.703125 11.453125 -8.296875 11.375 -7.9375 C 11.15625 -6.515625 10.4375 -5.578125 8.921875 -5.578125 C 8.390625 -5.578125 7.84375 -5.703125 7.453125 -6.015625 C 6.203125 -6.875 6.734375 -8.46875 6.78125 -9.71875 C 6.78125 -10.65625 6.828125 -11.59375 6.828125 -12.53125 C 6.90625 -14 7.625 -14.84375 8.734375 -15.703125 C 9.140625 -15.96875 9.546875 -16.234375 9.984375 -16.453125 C 11.015625 -16.984375 12.171875 -17.390625 13.25 -17.84375 C 15.828125 -19 17.390625 -20.0625 17.609375 -23.09375 C 17.75 -24.53125 17.703125 -26.125 17.125 -27.46875 C 15.609375 -31.265625 11.421875 -31.4375 7.890625 -31.4375 C 5.9375 -31.4375 3.921875 -31.171875 2.5 -29.875 C 2.3125 -29.703125 2.140625 -29.46875 1.96875 -29.296875 C 0.796875 -27.875 0.140625 -26.09375 0.140625 -24.265625 C 0.171875 -22.125 1.109375 -19.265625 3.34375 -18.5 C 3.203125 -18.59375 2.5 -17.796875 2.359375 -17.65625 C 1.375 -16.671875 0.671875 -15.421875 0.265625 -14.09375 C -0.3125 -12.078125 0.21875 -9.671875 0.3125 -7.625 C 0.484375 -1.46875 3.125 0.21875 8.828125 0.21875 C 11.453125 0.21875 12.484375 -0.140625 14.625 -1.78125 C 15.03125 -2 15.390625 -2.28125 15.65625 -2.625 C 17.390625 -4.375 17.921875 -7.84375 17.921875 -10.25 C 17.921875 -10.921875 17.921875 -11.546875 17.875 -12.21875 C 18.421875 -12.390625 18.953125 -12.625 19.53125 -12.84375 C 19.984375 -13.015625 20.46875 -13.28125 20.5625 -13.78125 C 20.609375 -14.09375 20.46875 -14.359375 20.328125 -14.671875 Z M 9.046875 -25.859375 C 9.546875 -25.859375 10.03125 -25.78125 10.484375 -25.640625 C 10.75 -25.59375 11.015625 -25.5 11.1875 -25.328125 C 12.046875 -24.578125 11.6875 -23.015625 10.65625 -22.65625 C 10.390625 -22.5625 10.078125 -22.515625 9.765625 -22.515625 C 9.546875 -22.515625 9.28125 -22.5625 9.046875 -22.5625 C 8.828125 -22.5625 8.5625 -22.609375 8.34375 -22.609375 C 8.109375 -22.65625 7.84375 -22.65625 7.625 -22.75 C 7.21875 -22.875 6.90625 -23.140625 6.734375 -23.5 C 6.59375 -23.71875 6.5625 -23.984375 6.5625 -24.21875 C 6.5625 -25.5 7.984375 -25.859375 9.046875 -25.859375 Z M 9.046875 -25.859375 "/></g></g></g><g fill="#000000" fill-opacity="1"><g transform="translate(111.274096, 87.876984)"><g><path d="M 14.046875 -27.296875 C 13.78125 -28.125 13.625 -29.03125 13.359375 -29.875 C 13.15625 -30.40625 12.96875 -30.953125 12.5625 -31.375 C 11.640625 -32.328125 10.109375 -32.09375 8.984375 -31.625 C 7.90625 -31.1875 7.3125 -30.421875 7.21875 -29.25 C 7.046875 -27.453125 7.765625 -25.234375 8.265625 -23.546875 C 8.921875 -21.390625 9.40625 -19.109375 10.25 -17.078125 C 9.046875 -19.109375 7.875 -21.109375 6.671875 -23.15625 C 6.203125 -23.953125 5.59375 -24.859375 4.5 -24.40625 C 4.375 -24.359375 4.25 -24.3125 4.125 -24.21875 C 3.96875 -24.15625 3.78125 -24.078125 3.625 -24.015625 C 3.46875 -23.984375 3.265625 -23.9375 3.046875 -23.84375 C 2.390625 -23.578125 1.671875 -23.0625 1.546875 -22.484375 C 1.390625 -21.90625 1.703125 -20.984375 1.859375 -20.40625 C 2.171875 -18.828125 2.5 -17.265625 2.828125 -15.671875 C 1.96875 -17.0625 1.125 -18.4375 0.28125 -19.84375 C -0.453125 -20.984375 -1.203125 -22.109375 -2 -23.203125 C -2.625 -24 -3 -25.0625 -4.015625 -25.5 C -4.875 -25.875 -5.9375 -25.65625 -6.90625 -25.25 C -7.40625 -25.0625 -7.859375 -24.828125 -8.25 -24.59375 C -8.625 -24.40625 -8.953125 -24.1875 -9.171875 -23.84375 C -9.59375 -23.125 -9.203125 -22.4375 -8.84375 -21.828125 C -8.328125 -21.015625 -7.875 -20.203125 -7.390625 -19.390625 C -6.8125 -18.421875 -6.25 -17.484375 -5.515625 -16.640625 C -5.328125 -16.4375 -5.171875 -16.1875 -5.015625 -15.921875 C -4.21875 -14.625 -3.40625 -13.328125 -2.453125 -12.125 C -1.640625 -11.0625 -0.890625 -9.953125 -0.09375 -8.875 C 0.140625 -8.53125 0.40625 -8.1875 0.65625 -7.828125 C 1.859375 -6.375 3.046875 -4.859375 4.25 -3.390625 C 4.421875 -3.125 4.609375 -2.921875 4.875 -2.8125 C 5.046875 -2.75 5.203125 -2.625 5.34375 -2.53125 C 6.0625 -1.984375 6.8125 -1.796875 7.6875 -2.15625 C 8.296875 -2.4375 8.921875 -2.71875 9.515625 -2.96875 C 9.953125 -3.15625 10.203125 -3.4375 10.3125 -3.8125 C 10.6875 -4.984375 9.890625 -6.40625 10.296875 -7.515625 C 10.21875 -7.265625 11.609375 -5.65625 11.796875 -5.40625 C 12.40625 -4.59375 13.015625 -3.796875 13.65625 -3.015625 C 14.53125 -1.921875 15.28125 -1.421875 16.625 -1.859375 C 17.3125 -2.140625 17.921875 -2.453125 18.515625 -2.953125 C 19.109375 -3.578125 19.203125 -3.78125 19.046875 -4.65625 C 18.546875 -7.953125 17.921875 -11.21875 17.1875 -14.46875 C 16.453125 -17.65625 15.8125 -20.859375 14.96875 -24.015625 C 14.703125 -25.109375 14.359375 -26.203125 14.046875 -27.296875 Z M 14.046875 -27.296875 "/></g></g></g><g fill="#000000" fill-opacity="1"><g transform="translate(133.823909, 78.625306)"><g><path d="M 6.09375 -29.0625 C 5.453125 -30.4375 3.890625 -29.875 2.828125 -29.4375 C 1.390625 -28.84375 0.4375 -28.15625 1.109375 -26.453125 C 1.28125 -26.03125 1.40625 -25.625 1.578125 -25.1875 C 1.921875 -24.265625 2.265625 -23.375 2.65625 -22.46875 C 3.515625 -20.65625 3.9375 -18.703125 4.625 -16.828125 C 4.65625 -16.765625 4.640625 -16.6875 4.625 -16.625 C 3.828125 -16.25 3.015625 -15.90625 2.203125 -15.546875 C 2.171875 -15.625 2.125 -15.65625 2.109375 -15.6875 C 1.625 -16.875 1.109375 -18.015625 0.703125 -19.21875 C -0.046875 -21.1875 -0.90625 -23.140625 -1.71875 -25.125 C -1.84375 -25.390625 -1.96875 -25.71875 -2.21875 -25.90625 C -2.59375 -26.140625 -3.0625 -26.0625 -3.5 -25.984375 C -4.15625 -25.828125 -4.796875 -25.6875 -5.40625 -25.4375 C -6.015625 -25.1875 -6.90625 -24.796875 -6.890625 -24.03125 C -6.859375 -23.078125 -6.53125 -22.140625 -6.171875 -21.265625 C -5.171875 -18.578125 -4.125 -15.9375 -3.125 -13.265625 C -3.3125 -13.1875 -3.46875 -13.125 -3.625 -13.0625 C -4.5625 -12.671875 -5.046875 -12.40625 -4.578125 -11.34375 C -4.203125 -10.515625 -3.921875 -9.640625 -3.59375 -8.78125 C -3.484375 -8.5 -3.34375 -8.171875 -3.09375 -7.984375 C -2.484375 -7.59375 -1.734375 -7.90625 -1.125 -8.15625 C -0.1875 -5.953125 0.8125 -3.75 1.9375 -1.59375 C 2.625 -0.359375 4.0625 -0.234375 5.265625 -0.734375 C 5.8125 -0.96875 6.84375 -1.484375 6.765625 -2.203125 C 6.640625 -3.171875 6.578125 -4.171875 6.15625 -5.125 C 5.90625 -5.71875 5.78125 -6.328125 5.5625 -6.953125 C 5.40625 -7.3125 5.296875 -7.703125 5.109375 -8.0625 C 4.6875 -8.796875 4.359375 -9.5625 4.1875 -10.453125 C 5.09375 -10.78125 5.953125 -11.0625 6.8125 -11.375 C 6.921875 -11.25 6.96875 -11.140625 7 -11.0625 C 7.890625 -9.140625 8.6875 -7.140625 9.671875 -5.28125 C 10.453125 -3.828125 11.765625 -3.625 13.203125 -4.21875 C 14.203125 -4.625 15.078125 -5.40625 14.703125 -6.59375 C 14.203125 -7.984375 13.71875 -9.359375 13.234375 -10.71875 C 12.984375 -11.421875 12.734375 -12.1875 12.46875 -12.890625 C 12.25 -13.5 12.078125 -14.140625 11.875 -14.734375 C 11.375 -15.953125 10.890625 -17.171875 10.390625 -18.375 C 9.71875 -20.015625 9.046875 -21.6875 8.375 -23.328125 C 8.09375 -24.015625 7.734375 -24.71875 7.53125 -25.390625 C 7.09375 -26.640625 6.625 -27.875 6.09375 -29.0625 Z M 6.09375 -29.0625 "/></g></g></g><g fill="#000000" fill-opacity="1"><g transform="translate(149.87889, 72.038312)"><g><path d="M 10.421875 -12.46875 C 9.421875 -12.0625 8.453125 -11.625 7.5625 -11.046875 C 7.296875 -10.828125 7.125 -10.625 7.09375 -10.46875 C 7.125 -10.125 7.25 -9.828125 7.34375 -9.5 C 7.40625 -9.25 7.46875 -8.921875 7.328125 -8.6875 C 7.171875 -8.296875 6.34375 -7.953125 5.984375 -7.796875 C 5.140625 -7.453125 3.796875 -6.9375 3.328125 -8.09375 C 2.90625 -9.015625 2.546875 -9.96875 2.171875 -10.890625 C 2.140625 -10.984375 2.125 -11.0625 2.140625 -11.140625 C 2.4375 -11.28125 2.671875 -11.453125 2.953125 -11.59375 C 3.1875 -11.734375 3.390625 -11.8125 3.59375 -11.90625 C 3.8125 -11.984375 4.015625 -12.078125 4.234375 -12.15625 C 4.53125 -12.328125 4.84375 -12.484375 5.109375 -12.703125 C 5.5 -12.984375 5.640625 -13.40625 5.5 -13.890625 C 5.421875 -14.296875 5.296875 -14.6875 5.140625 -15.0625 C 4.828125 -15.71875 4.484375 -16.3125 4.171875 -16.953125 C 3.796875 -17.875 2.828125 -18.109375 1.96875 -17.765625 C 1.15625 -17.390625 0.375 -17.046875 -0.4375 -16.703125 C -0.75 -17.53125 -1.078125 -18.328125 -1.375 -19.140625 C -1.46875 -19.375 -1.421875 -19.65625 -1.46875 -19.90625 C -1.015625 -20.328125 -0.5625 -20.640625 -0.078125 -20.84375 C 0.203125 -20.953125 0.46875 -21.015625 0.75 -21.09375 C 1.046875 -20.640625 1.296875 -20.234375 1.53125 -19.75 C 1.828125 -19.21875 2.234375 -18.9375 2.8125 -18.890625 C 3.515625 -19.203125 4.171875 -19.46875 4.84375 -19.78125 C 5.078125 -19.921875 5.28125 -20.140625 5.546875 -20.296875 C 5.96875 -20.578125 6.203125 -20.921875 6.34375 -21.40625 C 6.328125 -21.484375 6.28125 -21.625 6.25 -21.703125 C 5.796875 -22.875 5.328125 -24.03125 4.890625 -25.1875 C 4.78125 -25.4375 4.71875 -25.671875 4.640625 -25.9375 C 4.578125 -26.359375 4.46875 -26.765625 4.171875 -27.09375 C 3.921875 -27.359375 3.59375 -27.625 3.34375 -27.890625 C 2.625 -28.71875 1.140625 -28.1875 0.28125 -27.84375 C -1.171875 -27.25 -2.65625 -26.609375 -4.140625 -25.96875 C -5.1875 -25.53125 -7.8125 -24.390625 -7.984375 -23.0625 C -8.171875 -21.859375 -7.265625 -19.6875 -6.828125 -18.578125 C -6.5 -17.734375 -6.125 -16.84375 -5.84375 -15.984375 C -5.421875 -14.765625 -5.0625 -13.53125 -4.640625 -12.3125 C -4.046875 -10.796875 -3.421875 -9.28125 -2.890625 -7.734375 C -2.296875 -6.125 -1.734375 -4.46875 -1.140625 -2.859375 C -0.90625 -2.21875 -0.671875 -1.53125 -0.171875 -1.0625 C 1.25 0.453125 4.875 -1.03125 6.46875 -1.6875 C 7.796875 -2.265625 10.515625 -3.421875 11.78125 -4.125 C 13.3125 -4.96875 13.921875 -5.671875 13.640625 -7.375 C 13.34375 -8.890625 12.765625 -10.3125 12.0625 -11.65625 C 11.765625 -12.203125 11.09375 -12.75 10.421875 -12.46875 Z M 10.421875 -12.46875 "/></g></g></g><g fill="#000000" fill-opacity="1"><g transform="translate(164.993031, 65.837322)"><g><path d="M 6.890625 -12.15625 C 6.671875 -12.34375 5.484375 -13.203125 5.515625 -13.515625 C 5.59375 -13.78125 6.71875 -14.328125 7 -14.53125 C 7.421875 -14.921875 7.75 -15.375 7.90625 -15.953125 C 8.171875 -16.9375 7.71875 -18.125 7.421875 -19.078125 C 7.0625 -20.3125 6.640625 -21.53125 6.203125 -22.734375 C 5.703125 -24.046875 5.234375 -25.453125 4.53125 -26.65625 C 4.28125 -27.078125 3.984375 -27.53125 3.546875 -27.765625 C 2.15625 -28.609375 -0.28125 -28 -1.671875 -27.46875 C -3.421875 -26.75 -5.140625 -25.984375 -6.9375 -25.25 C -9 -24.390625 -9.15625 -22.953125 -8.40625 -21.09375 C -7.84375 -19.734375 -7.3125 -18.34375 -6.765625 -16.953125 C -6.71875 -16.8125 -6.6875 -16.734375 -6.640625 -16.609375 C -6.078125 -15.0625 -5.484375 -13.546875 -4.71875 -12.125 C -4.5625 -11.8125 -4.421875 -11.484375 -4.328125 -11.1875 C -4.0625 -10.359375 -3.84375 -9.5625 -3.5625 -8.765625 C -3.359375 -8.203125 -3.0625 -7.65625 -2.796875 -7.078125 C -2.359375 -6.0625 -1.8125 -5.03125 -1.34375 -3.984375 C -0.828125 -2.703125 -0.34375 -1.375 0.171875 -0.109375 C 0.4375 0.53125 0.6875 0.65625 1.375 0.609375 C 1.921875 0.5625 2.4375 0.421875 2.90625 0.234375 C 3.890625 -0.171875 5.4375 -0.921875 5.125 -2.21875 C 4.78125 -3.734375 4.109375 -5.140625 3.453125 -6.515625 C 3.15625 -7.15625 3.03125 -7.8125 2.78125 -8.453125 C 2.890625 -8.171875 3.59375 -7.828125 3.828125 -7.625 C 4.15625 -7.3125 4.4375 -7 4.75 -6.65625 C 5.453125 -5.890625 6.3125 -5.203125 7.0625 -4.546875 C 8.6875 -3.109375 10.359375 -1.734375 12.046875 -0.359375 C 13.234375 0.53125 13.59375 0.515625 14.984375 0.03125 C 15.59375 -0.21875 17.28125 -0.953125 17.390625 -1.71875 C 17.65625 -2.625 16.359375 -3.8125 15.734375 -4.296875 C 12.703125 -6.8125 9.765625 -9.46875 6.890625 -12.15625 Z M 1.171875 -18.78125 C 1.140625 -18.59375 1.0625 -18.421875 0.96875 -18.234375 C 0.671875 -17.84375 0.203125 -17.5 -0.3125 -17.25 C -0.375 -17.234375 -0.40625 -17.171875 -0.46875 -17.15625 C -0.578125 -17.109375 -0.671875 -17.109375 -0.765625 -17.09375 C -1.40625 -17.09375 -1.53125 -17.78125 -1.71875 -18.1875 C -2.03125 -18.890625 -2.390625 -19.5625 -2.609375 -20.265625 C -2.6875 -20.828125 -2.609375 -20.953125 -2.0625 -21.234375 C -1.90625 -21.34375 -1.75 -21.40625 -1.609375 -21.46875 C -1.453125 -21.53125 -1.28125 -21.59375 -1.09375 -21.640625 C -0.765625 -21.734375 -0.34375 -21.859375 -0.0625 -21.6875 C 0.078125 -21.578125 0.203125 -21.375 0.3125 -21.1875 C 0.46875 -20.9375 0.609375 -20.671875 0.75 -20.421875 C 1.015625 -19.921875 1.28125 -19.359375 1.171875 -18.78125 Z M 1.171875 -18.78125 "/></g></g></g><g fill="#000000" fill-opacity="1"><g transform="translate(181.290815, 59.150711)"><g><path d="M 10.421875 -12.46875 C 9.421875 -12.0625 8.453125 -11.625 7.5625 -11.046875 C 7.296875 -10.828125 7.125 -10.625 7.09375 -10.46875 C 7.125 -10.125 7.25 -9.828125 7.34375 -9.5 C 7.40625 -9.25 7.46875 -8.921875 7.328125 -8.6875 C 7.171875 -8.296875 6.34375 -7.953125 5.984375 -7.796875 C 5.140625 -7.453125 3.796875 -6.9375 3.328125 -8.09375 C 2.90625 -9.015625 2.546875 -9.96875 2.171875 -10.890625 C 2.140625 -10.984375 2.125 -11.0625 2.140625 -11.140625 C 2.4375 -11.28125 2.671875 -11.453125 2.953125 -11.59375 C 3.1875 -11.734375 3.390625 -11.8125 3.59375 -11.90625 C 3.8125 -11.984375 4.015625 -12.078125 4.234375 -12.15625 C 4.53125 -12.328125 4.84375 -12.484375 5.109375 -12.703125 C 5.5 -12.984375 5.640625 -13.40625 5.5 -13.890625 C 5.421875 -14.296875 5.296875 -14.6875 5.140625 -15.0625 C 4.828125 -15.71875 4.484375 -16.3125 4.171875 -16.953125 C 3.796875 -17.875 2.828125 -18.109375 1.96875 -17.765625 C 1.15625 -17.390625 0.375 -17.046875 -0.4375 -16.703125 C -0.75 -17.53125 -1.078125 -18.328125 -1.375 -19.140625 C -1.46875 -19.375 -1.421875 -19.65625 -1.46875 -19.90625 C -1.015625 -20.328125 -0.5625 -20.640625 -0.078125 -20.84375 C 0.203125 -20.953125 0.46875 -21.015625 0.75 -21.09375 C 1.046875 -20.640625 1.296875 -20.234375 1.53125 -19.75 C 1.828125 -19.21875 2.234375 -18.9375 2.8125 -18.890625 C 3.515625 -19.203125 4.171875 -19.46875 4.84375 -19.78125 C 5.078125 -19.921875 5.28125 -20.140625 5.546875 -20.296875 C 5.96875 -20.578125 6.203125 -20.921875 6.34375 -21.40625 C 6.328125 -21.484375 6.28125 -21.625 6.25 -21.703125 C 5.796875 -22.875 5.328125 -24.03125 4.890625 -25.1875 C 4.78125 -25.4375 4.71875 -25.671875 4.640625 -25.9375 C 4.578125 -26.359375 4.46875 -26.765625 4.171875 -27.09375 C 3.921875 -27.359375 3.59375 -27.625 3.34375 -27.890625 C 2.625 -28.71875 1.140625 -28.1875 0.28125 -27.84375 C -1.171875 -27.25 -2.65625 -26.609375 -4.140625 -25.96875 C -5.1875 -25.53125 -7.8125 -24.390625 -7.984375 -23.0625 C -8.171875 -21.859375 -7.265625 -19.6875 -6.828125 -18.578125 C -6.5 -17.734375 -6.125 -16.84375 -5.84375 -15.984375 C -5.421875 -14.765625 -5.0625 -13.53125 -4.640625 -12.3125 C -4.046875 -10.796875 -3.421875 -9.28125 -2.890625 -7.734375 C -2.296875 -6.125 -1.734375 -4.46875 -1.140625 -2.859375 C -0.90625 -2.21875 -0.671875 -1.53125 -0.171875 -1.0625 C 1.25 0.453125 4.875 -1.03125 6.46875 -1.6875 C 7.796875 -2.265625 10.515625 -3.421875 11.78125 -4.125 C 13.3125 -4.96875 13.921875 -5.671875 13.640625 -7.375 C 13.34375 -8.890625 12.765625 -10.3125 12.0625 -11.65625 C 11.765625 -12.203125 11.09375 -12.75 10.421875 -12.46875 Z M 10.421875 -12.46875 "/></g></g></g><g fill="#000000" fill-opacity="1"><g transform="translate(61.565229, 348.6662)"><g><path d="M 2.40625 -15.375 C 1.953125 -16.296875 1.5 -16.34375 0.515625 -16 C -0.109375 -15.734375 -0.453125 -15.421875 -0.421875 -14.71875 C -0.4375 -14.03125 -0.078125 -13.390625 0.09375 -12.765625 C 0.328125 -12.015625 0.78125 -11.25 1.109375 -10.53125 C 1.40625 -9.828125 1.703125 -9.125 2 -8.421875 C 2.109375 -8.1875 2.21875 -7.921875 2.328125 -7.671875 C 2.5625 -7.046875 2.78125 -6.34375 2.984375 -5.671875 C 3.15625 -5.25 3.140625 -4.828125 2.796875 -4.515625 C 2.71875 -4.46875 2.65625 -4.421875 2.578125 -4.375 C 2.515625 -4.359375 2.453125 -4.359375 2.40625 -4.34375 C 2.21875 -4.34375 2.0625 -4.46875 1.953125 -4.59375 C 1.453125 -5.109375 1.265625 -5.796875 1.0625 -6.453125 C 0.84375 -7.109375 0.5625 -7.765625 0.265625 -8.390625 C -0.625 -10.03125 -1.109375 -11.9375 -1.828125 -13.703125 C -1.921875 -13.921875 -2.0625 -14.21875 -2.296875 -14.34375 C -2.359375 -14.375 -2.46875 -14.375 -2.5625 -14.390625 C -2.71875 -14.390625 -2.890625 -14.375 -3.046875 -14.34375 C -3.359375 -14.28125 -3.640625 -14.203125 -3.890625 -14.09375 C -4 -14.046875 -4.09375 -14 -4.203125 -13.9375 C -5.125 -13.46875 -5.0625 -12.765625 -4.8125 -11.890625 C -4.140625 -9.90625 -3.328125 -7.984375 -2.515625 -6.03125 C -2 -4.78125 -1.484375 -3.546875 -0.96875 -2.3125 C -0.703125 -1.6875 -0.328125 -1.171875 0.15625 -0.6875 C 0.40625 -0.0625 1.828125 0 2.40625 -0.25 C 2.59375 -0.3125 2.765625 -0.421875 2.9375 -0.484375 C 2.96875 -0.515625 3.015625 -0.53125 3.0625 -0.546875 C 3.328125 -0.65625 3.59375 -0.765625 3.875 -0.890625 C 4 -0.9375 4.09375 -1.015625 4.21875 -1.0625 C 4.3125 -1.109375 4.40625 -1.125 4.515625 -1.109375 C 4.96875 -1 5 -0.3125 5.40625 -0.15625 C 5.59375 -0.046875 5.828125 -0.125 6.03125 -0.203125 C 6.515625 -0.421875 7.03125 -0.625 7.421875 -0.96875 C 7.53125 -1.078125 7.640625 -1.171875 7.671875 -1.328125 C 7.78125 -1.546875 7.765625 -1.8125 7.734375 -2.046875 C 7.5625 -3.078125 7.140625 -4.015625 6.765625 -5.015625 C 6.375 -6.046875 5.9375 -7.09375 5.484375 -8.125 C 5.265625 -8.625 5.03125 -9.125 4.796875 -9.625 C 4.609375 -10.046875 4.5 -10.484375 4.359375 -10.90625 C 4.1875 -11.4375 3.9375 -11.921875 3.734375 -12.390625 C 3.296875 -13.390625 2.875 -14.390625 2.40625 -15.375 Z M 2.40625 -15.375 "/></g></g></g><g fill="#000000" fill-opacity="1"><g transform="translate(69.52699, 345.332491)"><g><path d="M 3.4375 -15.390625 C 3.25 -15.875 3.125 -16.421875 2.515625 -16.6875 C 2.109375 -16.671875 1.703125 -16.546875 1.34375 -16.390625 C 1.140625 -16.3125 0.953125 -16.203125 0.75 -16.109375 C 0.40625 -15.953125 0.296875 -15.71875 0.296875 -15.34375 C 0.296875 -14.90625 0.4375 -14.484375 0.578125 -14.078125 C 0.84375 -13.328125 1.125 -12.59375 1.421875 -11.859375 C 0.671875 -12.25 -0.03125 -12.578125 -0.6875 -13.015625 C -1.359375 -13.421875 -1.96875 -13.90625 -2.640625 -14.390625 C -3.0625 -14.328125 -3.453125 -14.234375 -3.828125 -14.078125 C -4.078125 -13.984375 -4.3125 -13.859375 -4.53125 -13.71875 C -4.9375 -13.515625 -4.890625 -12.9375 -4.8125 -12.546875 C -4.65625 -12.046875 -4.5 -11.53125 -4.296875 -11.015625 C -4.046875 -10.203125 -3.6875 -9.453125 -3.4375 -8.640625 C -3.109375 -7.671875 -2.8125 -6.703125 -2.390625 -5.765625 C -1.890625 -4.609375 -1.28125 -3.453125 -0.84375 -2.25 C -0.46875 -1.09375 0.1875 0 0.5625 1.171875 C 0.71875 1.671875 0.90625 2.1875 1.34375 2.453125 C 1.734375 2.6875 2.234375 2.609375 2.671875 2.421875 C 2.765625 2.390625 2.859375 2.34375 2.9375 2.296875 C 3.640625 1.96875 3.875 1.59375 3.75 0.84375 C 3.4375 -0.8125 2.78125 -2.390625 2.15625 -3.96875 C 1.546875 -5.609375 0.875 -7.234375 0.1875 -8.859375 C 0.1875 -8.84375 0.203125 -8.84375 0.234375 -8.828125 C 1.109375 -8.578125 1.8125 -7.84375 2.65625 -7.4375 C 2.9375 -7.328125 3.015625 -7.265625 3.140625 -6.984375 C 3.484375 -6.234375 3.8125 -5.453125 4.203125 -4.703125 C 4.546875 -4.015625 4.9375 -3.34375 5.25 -2.671875 C 5.703125 -1.78125 6.546875 -1.875 7.375 -2.109375 C 7.421875 -2.140625 7.484375 -2.15625 7.5 -2.171875 C 7.828125 -2.296875 8.09375 -2.578125 8.328125 -2.796875 C 8.46875 -2.9375 8.484375 -3.109375 8.4375 -3.265625 C 8.375 -3.46875 8.3125 -3.6875 8.234375 -3.875 C 8.046875 -4.484375 7.71875 -5.046875 7.515625 -5.671875 C 7.1875 -6.625 6.828125 -7.625 6.4375 -8.5625 C 5.96875 -9.703125 5.4375 -10.8125 4.9375 -11.96875 C 4.4375 -13.09375 3.921875 -14.234375 3.4375 -15.390625 Z M 3.4375 -15.390625 "/></g></g></g><g fill="#000000" fill-opacity="1"><g transform="translate(78.408082, 341.613845)"><g><path d="M -1.34375 -14.90625 C -1.390625 -15.03125 -1.453125 -15.109375 -1.5625 -15.171875 C -1.625 -15.234375 -1.6875 -15.265625 -1.734375 -15.28125 C -1.84375 -15.296875 -1.921875 -15.265625 -2 -15.234375 C -2.125 -15.1875 -2.25 -15.125 -2.359375 -15.078125 C -2.40625 -15.0625 -2.4375 -15.046875 -2.453125 -15.046875 C -3.359375 -14.671875 -4.265625 -14.28125 -5.15625 -13.90625 C -5.234375 -13.890625 -5.296875 -13.859375 -5.328125 -13.78125 C -5.375 -13.71875 -5.390625 -13.609375 -5.390625 -13.515625 C -5.390625 -12.953125 -5.234375 -12.40625 -4.96875 -11.90625 C -4.5625 -11.109375 -4.5 -11.046875 -3.671875 -11.390625 C -3.5 -10.9375 -3.328125 -10.484375 -3.171875 -10 C -2.984375 -9.453125 -2.84375 -8.890625 -2.65625 -8.3125 C -2.21875 -7.140625 -1.796875 -5.96875 -1.53125 -5.25 C -0.765625 -3.5 -0.265625 -2.125 0.390625 -0.84375 C 0.65625 -0.3125 1.046875 -0.078125 1.625 -0.078125 C 1.796875 -0.046875 1.96875 -0.125 2.140625 -0.125 C 2.28125 -0.125 2.453125 -0.15625 2.59375 -0.21875 C 2.9375 -0.359375 3.171875 -0.609375 3.46875 -0.84375 C 3.53125 -0.890625 3.5625 -0.953125 3.59375 -1.015625 C 3.765625 -1.359375 3.8125 -1.703125 3.640625 -2.078125 C 3.515625 -2.390625 3.375 -2.71875 3.25 -3.0625 C 3.125 -3.390625 2.96875 -3.6875 2.90625 -4.03125 C 2.796875 -4.5 2.625 -4.921875 2.46875 -5.34375 C 2.296875 -5.734375 2.125 -6.109375 2.046875 -6.53125 C 2.03125 -6.640625 2 -6.734375 1.953125 -6.828125 C 1.34375 -8.4375 0.71875 -10.015625 0.046875 -11.59375 C -0.265625 -12.359375 -0.578125 -13.125 -0.890625 -13.890625 C -0.90625 -14.015625 -0.953125 -14.109375 -1.03125 -14.234375 C -1.046875 -14.25 -1.046875 -14.25 -1.046875 -14.265625 C -1.140625 -14.484375 -1.234375 -14.6875 -1.34375 -14.90625 Z M -1.34375 -14.90625 "/></g></g></g><g fill="#000000" fill-opacity="1"><g transform="translate(82.970048, 339.703681)"><g><path d="M 1.9375 -16.3125 C 1.609375 -16.296875 1.3125 -16.21875 1.015625 -16.109375 C -0.625 -15.53125 -2.234375 -14.875 -3.859375 -14.203125 C -4.109375 -14.09375 -4.359375 -13.984375 -4.609375 -13.84375 C -4.953125 -13.59375 -5.359375 -13.234375 -5.296875 -12.75 C -5.28125 -12.640625 -5.234375 -12.515625 -5.1875 -12.390625 C -4.984375 -11.90625 -4.78125 -11.421875 -4.578125 -10.953125 C -4.265625 -10.34375 -4.03125 -10.296875 -3.4375 -10.546875 C -3.15625 -10.671875 -2.875 -10.8125 -2.578125 -10.9375 C -2.421875 -11 -2.3125 -11.015625 -2.234375 -10.96875 C -2.015625 -10.875 -1.953125 -10.515625 -1.84375 -10.203125 C -1.625 -9.625 -1.390625 -9.03125 -1.171875 -8.46875 C -0.609375 -6.953125 -0.015625 -5.46875 0.5625 -3.953125 C 0.859375 -3.21875 1.140625 -2.484375 1.484375 -1.796875 C 1.796875 -1.203125 2.046875 -0.5625 2.75 -0.53125 C 3.171875 -0.515625 3.53125 -0.578125 3.859375 -0.71875 C 4.125 -0.828125 4.734375 -1.1875 4.859375 -1.46875 C 5.046875 -1.796875 5.09375 -2.171875 4.9375 -2.5625 C 4.796875 -2.875 4.671875 -3.171875 4.546875 -3.5 C 4.40625 -3.828125 4.265625 -4.171875 4.171875 -4.515625 C 4.046875 -5.15625 3.71875 -5.71875 3.53125 -6.34375 C 3.46875 -6.484375 3.40625 -6.640625 3.359375 -6.796875 C 3.265625 -7.078125 3.21875 -7.359375 3.109375 -7.625 C 2.453125 -9.21875 1.8125 -10.8125 1.171875 -12.390625 C 1.140625 -12.5 1.09375 -12.578125 1.046875 -12.71875 C 1.140625 -12.765625 1.234375 -12.796875 1.3125 -12.84375 C 1.734375 -13 2.125 -13.15625 2.546875 -13.328125 C 3.171875 -13.59375 3.328125 -13.859375 3.109375 -14.53125 C 2.875 -15.15625 2.734375 -16.234375 1.9375 -16.3125 Z M 1.9375 -16.3125 "/></g></g></g><g fill="#000000" fill-opacity="1"><g transform="translate(91.226686, 336.246503)"><g><path d="M 5.921875 -7.1875 C 5.359375 -6.9375 4.796875 -6.703125 4.296875 -6.375 C 4.140625 -6.234375 4.046875 -6.125 4.015625 -6.015625 C 4.046875 -5.828125 4.109375 -5.65625 4.171875 -5.484375 C 4.21875 -5.34375 4.25 -5.15625 4.15625 -5.015625 C 4.078125 -4.796875 3.609375 -4.59375 3.40625 -4.5 C 2.90625 -4.296875 2.140625 -4 1.875 -4.65625 C 1.625 -5.1875 1.421875 -5.71875 1.203125 -6.265625 C 1.1875 -6.296875 1.15625 -6.34375 1.1875 -6.390625 C 1.34375 -6.484375 1.484375 -6.59375 1.640625 -6.671875 C 1.765625 -6.75 1.875 -6.796875 2.015625 -6.84375 C 2.125 -6.890625 2.25 -6.953125 2.375 -7 C 2.546875 -7.078125 2.734375 -7.171875 2.875 -7.296875 C 3.09375 -7.484375 3.171875 -7.71875 3.09375 -7.984375 C 3.046875 -8.203125 2.96875 -8.4375 2.875 -8.640625 C 2.703125 -9.03125 2.5 -9.359375 2.328125 -9.75 C 2.109375 -10.265625 1.546875 -10.390625 1.0625 -10.1875 C 0.59375 -9.96875 0.15625 -9.78125 -0.3125 -9.578125 C -0.5 -10.0625 -0.6875 -10.515625 -0.859375 -10.953125 C -0.921875 -11.09375 -0.890625 -11.265625 -0.921875 -11.40625 C -0.671875 -11.640625 -0.40625 -11.828125 -0.109375 -11.9375 C 0.046875 -12 0.171875 -12.046875 0.328125 -12.09375 C 0.515625 -11.84375 0.671875 -11.59375 0.796875 -11.328125 C 0.96875 -11.015625 1.21875 -10.875 1.53125 -10.84375 C 1.921875 -11.015625 2.3125 -11.1875 2.6875 -11.359375 C 2.828125 -11.453125 2.9375 -11.578125 3.09375 -11.671875 C 3.328125 -11.8125 3.46875 -12.03125 3.546875 -12.28125 C 3.53125 -12.359375 3.5 -12.4375 3.484375 -12.484375 C 3.21875 -13.140625 2.9375 -13.796875 2.703125 -14.46875 C 2.640625 -14.609375 2.609375 -14.734375 2.5625 -14.875 C 2.515625 -15.140625 2.4375 -15.34375 2.28125 -15.53125 C 2.125 -15.703125 1.953125 -15.84375 1.796875 -16.015625 C 1.390625 -16.46875 0.53125 -16.171875 0.03125 -15.96875 C -0.78125 -15.625 -1.625 -15.25 -2.46875 -14.875 C -3.09375 -14.609375 -4.578125 -13.953125 -4.671875 -13.21875 C -4.765625 -12.515625 -4.234375 -11.25 -3.96875 -10.640625 C -3.796875 -10.125 -3.59375 -9.625 -3.421875 -9.140625 C -3.171875 -8.4375 -2.953125 -7.75 -2.71875 -7.046875 C -2.359375 -6.171875 -2 -5.296875 -1.6875 -4.421875 C -1.359375 -3.5 -1 -2.5625 -0.671875 -1.625 C -0.53125 -1.265625 -0.390625 -0.875 -0.125 -0.609375 C 0.71875 0.25 2.78125 -0.609375 3.703125 -1 C 4.453125 -1.328125 6.03125 -2 6.734375 -2.421875 C 7.625 -2.890625 7.9375 -3.3125 7.796875 -4.28125 C 7.609375 -5.15625 7.28125 -5.96875 6.875 -6.734375 C 6.6875 -7.046875 6.3125 -7.34375 5.921875 -7.1875 Z M 5.921875 -7.1875 "/></g></g></g></svg>