<svg xmlns="http://www.w3.org/2000/svg" xmlns:xlink="http://www.w3.org/1999/xlink" width="1920" zoomAndPan="magnify" viewBox="0 0 1440 395.249997" height="527" preserveAspectRatio="xMidYMid meet" version="1.0"><defs><clipPath id="7e6c6f3b14"><path d="M 2 0 L 1437 0 L 1437 394.5 L 2 394.5 Z M 2 0 " clip-rule="nonzero"/></clipPath></defs><g clip-path="url(#7e6c6f3b14)"><path fill="#000000" d="M 970.539062 0.0664062 L 970.539062 59.828125 L 964.574219 59.828125 L 958.597656 113.617188 L 952.621094 113.617188 L 952.621094 167.410156 L 946.644531 167.410156 L 946.644531 340.734375 L 904.820312 340.734375 L 904.820312 316.828125 L 880.917969 316.828125 L 880.917969 274.992188 L 833.113281 274.992188 L 833.113281 310.851562 L 827.136719 310.851562 L 827.136719 328.78125 L 803.234375 328.78125 L 803.234375 257.058594 L 791.285156 257.058594 L 791.285156 239.128906 L 755.433594 239.128906 L 755.433594 107.640625 L 707.628906 107.640625 L 707.628906 125.570312 L 695.679688 125.570312 L 695.679688 173.386719 L 683.726562 173.386719 L 683.726562 119.59375 L 641.898438 119.59375 L 641.898438 155.453125 L 635.925781 155.453125 L 635.925781 203.269531 L 629.949219 203.269531 L 629.949219 239.128906 L 606.046875 239.128906 L 606.046875 197.292969 L 600.070312 197.292969 L 600.070312 179.363281 L 582.144531 179.363281 L 582.144531 143.5 L 546.292969 143.5 L 546.292969 83.742188 L 540.3125 83.742188 L 540.3125 143.5 L 504.464844 143.5 L 504.464844 191.316406 L 456.664062 191.316406 L 456.664062 215.222656 L 438.734375 215.222656 L 438.734375 185.339844 L 367.03125 185.339844 L 367.03125 221.199219 L 349.105469 221.199219 L 349.105469 233.152344 L 343.128906 233.152344 L 343.128906 263.035156 L 325.203125 263.035156 L 325.203125 185.339844 L 307.277344 185.339844 L 307.277344 143.5 L 295.324219 136.328125 L 295.324219 65.804688 L 289.34375 65.804688 L 289.34375 132.738281 L 277.398438 125.570312 L 277.398438 155.453125 L 253.496094 167.410156 L 253.496094 233.152344 L 247.523438 233.152344 L 247.523438 274.992188 L 229.597656 274.992188 L 229.597656 239.128906 L 217.644531 191.316406 L 205.695312 239.128906 L 205.695312 251.082031 L 181.792969 251.082031 L 181.792969 310.851562 L 163.867188 310.851562 L 163.867188 191.320312 L 157.890625 191.316406 L 110.085938 191.316406 L 104.113281 191.320312 L 104.113281 286.945312 L 74.234375 286.945312 L 74.234375 263.035156 L 68.261719 263.035156 L 68.261719 227.175781 L 20.457031 227.175781 L 20.457031 257.058594 L 2.53125 257.058594 L 2.53125 394.527344 L 1436.628906 394.527344 L 1436.628906 215.222656 L 1370.902344 215.222656 L 1370.902344 280.96875 L 1323.097656 280.96875 L 1323.097656 257.058594 L 1281.269531 257.058594 L 1281.269531 221.199219 L 1257.367188 221.199219 L 1257.367188 155.453125 L 1185.664062 167.410156 L 1185.664062 257.058594 L 1119.933594 257.058594 L 1119.933594 269.011719 L 1107.984375 269.011719 L 1107.984375 227.175781 L 1054.203125 227.175781 L 1054.203125 304.875 L 1036.277344 304.875 L 1036.277344 280.96875 L 1000.425781 280.96875 L 1000.425781 167.410156 L 994.449219 167.410156 L 994.449219 113.617188 L 988.472656 113.617188 L 982.5 59.828125 L 976.523438 59.828125 L 976.523438 0.0664062 Z M 970.539062 0.0664062 " fill-opacity="1" fill-rule="evenodd"/></g></svg>