<svg xmlns="http://www.w3.org/2000/svg" xmlns:xlink="http://www.w3.org/1999/xlink" width="1920" zoomAndPan="magnify" viewBox="0 0 1440 809.999993" height="1080" preserveAspectRatio="xMidYMid meet" version="1.0"><defs><clipPath id="b8663e83ea"><path d="M 0 84.074219 L 1440 84.074219 L 1440 809 L 0 809 Z M 0 84.074219 " clip-rule="nonzero"/></clipPath></defs><g clip-path="url(#b8663e83ea)"><path fill="#000000" d="M 843.230469 491.800781 C 846.546875 490.910156 850.484375 493.472656 850.488281 496.667969 C 850.585938 640.171875 848.84375 634.523438 851.101562 634.308594 C 852.289062 634.195312 852.792969 632.710938 852.875 631.554688 C 852.988281 629.992188 852.074219 628.28125 853.710938 627 L 853.65625 627.003906 C 855.808594 627.226562 857.957031 627.449219 860.117188 627.65625 C 860.117188 629.453125 860.117188 631.246094 860.117188 633.960938 C 861.515625 631.484375 863.039062 630.792969 865.023438 631.171875 C 865.714844 631.304688 866.398438 631.101562 866.371094 630.203125 C 866.289062 627.597656 866.8125 624.96875 866.089844 622.386719 C 865.476562 620.1875 863.695312 621.871094 862.597656 621.328125 C 861.140625 620.605469 858.648438 623.132812 858.398438 621.039062 C 858.171875 619.109375 860.984375 620.320312 862.402344 620.003906 C 864.1875 619.601562 865.734375 618.492188 867.691406 618.535156 C 869.015625 618.5625 867.710938 331.726562 867.695312 331.15625 C 867.511719 324.972656 869.230469 327.101562 873.648438 325.722656 C 873.773438 325.863281 873.59375 326.5 874.113281 326.011719 C 873.929688 325.945312 873.742188 325.878906 873.554688 325.8125 C 875.414062 323.160156 881.511719 326.234375 884.386719 316.910156 C 884.578125 316.289062 885.007812 315.835938 885.472656 315.957031 C 887.976562 316.601562 889.722656 314.273438 892.199219 314.421875 C 894.289062 314.550781 897.214844 310.601562 897.355469 308.292969 C 897.617188 304.035156 896.5625 299.804688 896.777344 295.609375 C 899.140625 249.921875 893.5625 248.636719 898.878906 238.714844 C 899.429688 237.691406 902.398438 239.589844 902.5 241.359375 C 902.777344 246.023438 903.871094 251.058594 902.953125 255.285156 C 900.277344 267.59375 904.773438 278.347656 902.128906 308.542969 C 902.085938 309.0625 901.042969 313.214844 904.738281 310.984375 C 905.363281 310.605469 905.484375 310.804688 905.910156 313.273438 C 905.746094 313.347656 905.585938 313.421875 905.425781 313.492188 C 905.492188 313.578125 905.554688 313.660156 905.621094 313.746094 C 905.714844 313.585938 905.804688 313.425781 905.898438 313.265625 C 910.691406 317.628906 916.941406 314.238281 916.414062 317.414062 C 915.96875 320.101562 917.546875 322.667969 916.78125 325.390625 C 916.53125 326.289062 918 326.382812 920.402344 325.484375 L 920.316406 325.570312 C 923.671875 326.824219 927.15625 325.878906 930.574219 326.121094 C 931.03125 326.152344 931.714844 325.683594 931.0625 324.8125 C 930.570312 324.152344 930.394531 323.257812 930.078125 322.46875 C 930.078125 322.46875 930.21875 322.554688 930.21875 322.554688 C 930.839844 322.289062 930.839844 322.023438 930.21875 321.753906 L 930.078125 321.839844 C 930.355469 320.519531 928.167969 320.8125 928.488281 319.371094 C 930.117188 318.867188 930.367188 321.492188 931.972656 320.894531 C 932.183594 320.875 932.390625 320.867188 932.597656 320.859375 C 932.53125 320.753906 932.464844 320.644531 932.398438 320.535156 C 932.253906 320.675781 932.109375 320.816406 931.964844 320.957031 C 932.929688 321.308594 932.636719 319.550781 933.886719 320.074219 C 932.984375 322.328125 933.433594 323.152344 936.226562 322.609375 C 938.363281 322.191406 940.6875 322.769531 942.9375 322.25 C 944.078125 321.988281 945.050781 322.492188 945.328125 323.8125 C 945.605469 323.636719 945.238281 323.855469 944.945312 324.023438 C 945.109375 324.191406 945.273438 324.355469 945.4375 324.523438 L 945.332031 324.476562 C 945.171875 325.265625 943.273438 325.546875 944.230469 326.296875 C 947.109375 328.5625 949.753906 324.066406 951.671875 325.515625 C 952.886719 326.433594 953.378906 328.234375 951.492188 329.5625 C 951.21875 329.753906 951.308594 348.558594 951.308594 348.894531 C 951.304688 349.921875 951.300781 351.234375 952.429688 351.296875 C 954.136719 351.394531 957.296875 352.484375 955.148438 353.8125 C 960.121094 354.367188 964.648438 354.710938 969.175781 355.148438 C 972.632812 355.480469 975.984375 353.785156 979.484375 355.25 C 980.871094 355.828125 981.554688 356.550781 981.429688 357.632812 C 978.714844 381.078125 981.574219 482.605469 980.070312 526.890625 C 983.382812 527.539062 1016.558594 529.382812 1018.527344 530.875 C 1019.449219 525.132812 1018.078125 511.0625 1018.910156 504.160156 C 1020.023438 494.929688 1019.890625 493.835938 1024.492188 493.988281 C 1031.929688 494.234375 1024.96875 487.382812 1032.671875 487.363281 C 1040.34375 487.34375 1037.886719 486.785156 1049.730469 485.507812 C 1049.726562 485.507812 1049.871094 485.394531 1049.871094 485.394531 L 1049.6875 485.476562 C 1051.539062 482.921875 1048.292969 482.757812 1047.863281 481.28125 C 1048.96875 480.867188 1049.863281 480.582031 1051.441406 481.261719 C 1054.167969 482.433594 1057.347656 481.402344 1060.320312 481.136719 C 1063.175781 480.878906 1058.835938 461.804688 1061.527344 455.796875 C 1062.519531 453.574219 1064.476562 455.804688 1066.011719 455.289062 C 1070.613281 453.757812 1075.320312 456.128906 1075.726562 453.613281 C 1075.945312 452.246094 1080.753906 453.441406 1082.519531 453.246094 C 1083.847656 453.101562 1083.582031 451.507812 1083.671875 450.480469 C 1084.042969 446.308594 1084.183594 446.234375 1088.3125 446.210938 C 1106.78125 446.109375 1097.140625 444.597656 1100.875 442.035156 C 1102.464844 442.421875 1100.089844 444.496094 1101.992188 444.703125 C 1104.957031 445.03125 1101.894531 441.449219 1104.53125 441.511719 C 1105.050781 442.183594 1103.832031 442.917969 1103.988281 443.804688 C 1104.144531 444.664062 1103.898438 445.679688 1105.261719 445.550781 C 1107.847656 445.308594 1108.199219 446.886719 1107.949219 448.863281 C 1107.441406 452.902344 1111.214844 450.863281 1114.535156 453.214844 C 1118.058594 455.710938 1119.527344 452.453125 1121.484375 450.867188 C 1122.753906 449.835938 1120.425781 448.289062 1121.519531 446.929688 C 1123.390625 447.421875 1121.621094 449.46875 1123.046875 450.121094 C 1124.074219 449.609375 1122.355469 448.546875 1123.703125 447.960938 C 1124.09375 453.015625 1127.765625 451.382812 1130.699219 451.398438 C 1140.019531 451.445312 1142.851562 449.003906 1142.863281 454.738281 C 1143.046875 543.792969 1142.164062 605.683594 1142.164062 605.683594 C 1142.167969 608.902344 1144.585938 606.589844 1151.542969 608.082031 C 1153.320312 608.460938 1155.238281 607.574219 1155.890625 610.515625 C 1156.222656 612.011719 1158.625 611.320312 1160.074219 611.402344 C 1165.882812 611.738281 1165.910156 611.675781 1165.878906 605.828125 C 1165.796875 589.570312 1166.347656 573.308594 1165.691406 557.054688 C 1165.632812 555.613281 1163.949219 546.417969 1167.019531 541.484375 C 1170.84375 535.34375 1164.199219 527.832031 1172.558594 520.847656 C 1175.511719 518.382812 1176.316406 514.664062 1177.175781 511.460938 C 1178.417969 506.820312 1180.621094 502.554688 1181.671875 497.898438 C 1182.027344 496.316406 1182.984375 495.945312 1183.730469 497.777344 C 1190.054688 513.285156 1188.886719 512.597656 1192.078125 512.089844 C 1216.089844 508.253906 1216.652344 514.140625 1216.453125 504.710938 C 1216.167969 491.121094 1217.320312 477.566406 1217.285156 463.984375 C 1217.28125 462.78125 1216.003906 461.882812 1218.871094 461.738281 C 1218.820312 461.632812 1218.769531 461.527344 1218.71875 461.421875 C 1218.5625 461.550781 1218.410156 461.683594 1218.257812 461.8125 C 1221.179688 459.867188 1224.679688 460.296875 1227.882812 459.503906 C 1232.996094 458.238281 1238.191406 459.191406 1243.414062 459.332031 C 1243.351562 457.40625 1256.179688 458.035156 1264.65625 458.5 C 1274.960938 459.066406 1268.878906 454.527344 1273.867188 451.976562 L 1273.765625 452.121094 C 1273.851562 452.285156 1273.941406 452.449219 1274.027344 452.613281 C 1274.203125 452.449219 1274.378906 452.285156 1274.554688 452.125 L 1274.457031 451.980469 C 1284.730469 441.308594 1296.785156 443.910156 1298.957031 444.878906 C 1305.886719 447.96875 1309.679688 440.929688 1310.03125 447.371094 C 1310.222656 450.84375 1318.292969 447.753906 1321.625 448.539062 C 1324.15625 449.136719 1327.625 446.980469 1328.957031 451.0625 C 1329.324219 452.183594 1330.136719 451.5 1330.808594 451.589844 C 1336.457031 452.34375 1334.996094 452.691406 1335.09375 477.46875 C 1335.371094 549.152344 1335.070312 561.699219 1335.640625 562.777344 C 1336.183594 555.503906 1345.109375 558.761719 1356.21875 558.132812 C 1357.875 558.039062 1359.402344 559.097656 1361.21875 558.933594 C 1362.496094 558.816406 1362.707031 560.289062 1362.703125 561.417969 C 1362.695312 571.488281 1361.683594 572.820312 1365.414062 572.664062 C 1389.332031 571.675781 1380.113281 566.363281 1382.164062 612.808594 C 1382.300781 615.933594 1383.617188 616.734375 1386.15625 615.675781 C 1388.246094 614.800781 1389.925781 616.21875 1391.882812 616.160156 C 1396.761719 616.019531 1395.308594 615.59375 1395.910156 597.996094 C 1395.925781 597.527344 1396.246094 597.070312 1396.910156 596.648438 C 1396.910156 615.148438 1396.511719 614.25 1397.742188 614.746094 C 1403.929688 617.234375 1402.566406 610.132812 1410.453125 614.109375 C 1413.050781 615.421875 1413.417969 614.570312 1413.390625 612.175781 C 1413.320312 605.5 1414.476562 598.859375 1414.046875 592.164062 C 1414.007812 591.59375 1413.828125 590.855469 1414.855469 590.4375 C 1415.996094 591.792969 1414.679688 596.261719 1414.957031 599.480469 C 1415.285156 603.324219 1414.957031 603.289062 1418.757812 602.523438 C 1423.402344 601.585938 1419.890625 609.84375 1422.171875 610.046875 C 1423.300781 610.144531 1423.328125 608.648438 1423.222656 608.082031 C 1422.128906 602.320312 1427.117188 604.722656 1427.683594 604.167969 C 1431.359375 600.554688 1435.433594 603.945312 1439.289062 603.511719 C 1444.960938 602.871094 1438.425781 614.722656 1443.644531 615.410156 C 1443.644531 678.699219 1443.628906 741.988281 1443.703125 805.277344 C 1443.707031 810.011719 1529.953125 808.277344 -5.035156 808.277344 C -5.035156 590.296875 -9.058594 639.710938 4.390625 634.3125 C 10.261719 631.957031 19.449219 635.175781 20.144531 632.925781 C 22.332031 625.867188 24.988281 632.457031 24.117188 627.289062 C 22.476562 617.570312 31.480469 629.53125 32.011719 620.648438 C 32.054688 619.890625 31.335938 618.796875 32.878906 618.71875 C 33.914062 618.664062 35.136719 618.789062 35.34375 617.394531 C 35.570312 615.886719 33.671875 616.386719 33.1875 615.460938 C 33.734375 614.292969 34.875 614.585938 35.476562 614.808594 C 43.980469 618.003906 57.109375 613.800781 60.308594 617.742188 C 61.316406 618.984375 64.640625 618.507812 66.921875 618.511719 C 72.617188 618.515625 69.121094 624.601562 75.648438 623.949219 C 76.515625 623.859375 77.398438 623.960938 78.277344 623.964844 C 82.300781 623.984375 82.25 623.984375 82.222656 628.390625 C 82.210938 629.785156 82.308594 631.527344 84.488281 630.976562 C 86.628906 630.433594 86.546875 633.351562 88.601562 633.230469 C 91.9375 633.039062 95.453125 633.789062 98.535156 632.363281 C 101.25 631.109375 103.828125 631.550781 106.4375 631.890625 C 110.203125 632.386719 114.234375 630.410156 117.78125 633.15625 C 120.972656 635.628906 116.839844 620.296875 119.1875 578.195312 C 119.21875 577.660156 119.460938 577.066406 118.898438 576.714844 C 115.890625 574.859375 114.464844 571.414062 111.15625 569.261719 C 117.855469 567.460938 118.886719 562.503906 118.710938 556.820312 C 118.402344 546.855469 124.84375 536.210938 134.152344 532.949219 C 135.507812 532.472656 137.378906 531.238281 136.667969 528.996094 C 136.332031 527.949219 137.140625 526.832031 137.484375 526.8125 C 140.78125 526.648438 139.789062 524.1875 139.710938 522.535156 C 139.527344 518.75 140.527344 514.902344 139.078125 511.164062 C 138.859375 510.597656 142.492188 503.40625 135.257812 499.765625 C 146.152344 492.128906 140.050781 496.359375 143.867188 479.054688 C 145.316406 472.464844 155.828125 473.613281 159.410156 468.472656 C 161.464844 465.527344 161.53125 465.355469 157.632812 463.878906 C 162.765625 463.476562 159.757812 460.128906 161.625 455.300781 C 162.40625 453.28125 161.898438 452.4375 159.992188 451.324219 C 156.945312 449.542969 157.515625 443.777344 160.628906 442.207031 C 162.839844 441.09375 162.429688 436.214844 160.316406 434.15625 C 157.632812 431.546875 154.648438 429.148438 154.074219 424.875 C 153.855469 423.238281 150.769531 423.671875 149.734375 421.953125 C 149.859375 420.519531 155.289062 421.542969 154.273438 417.304688 C 154.046875 416.363281 154.605469 415.894531 155.558594 415.90625 C 155.6875 416.046875 155.507812 416.683594 156.023438 416.191406 C 155.839844 416.125 155.652344 416.058594 155.46875 415.992188 C 154.601562 411.914062 162.675781 411.070312 162.175781 404.195312 C 161.171875 390.367188 166.003906 397.277344 164.664062 404.820312 C 163.480469 411.492188 177.09375 417.078125 171.414062 420.738281 C 173.027344 421.890625 176.394531 420.238281 176.5625 422.683594 C 176.664062 424.207031 175.902344 423.859375 172.804688 423.8125 C 172.800781 423.820312 172.664062 423.765625 172.664062 423.765625 L 172.902344 423.820312 C 172.3125 425.714844 171.910156 427.457031 170.707031 429.359375 C 168.621094 432.652344 163.355469 434.394531 164.613281 439.664062 C 164.890625 440.832031 164.53125 441.867188 166.386719 442.4375 C 169.390625 443.359375 169.882812 449.007812 167.386719 451.136719 C 166.316406 452.054688 164.492188 452.679688 164.859375 454.324219 C 165.53125 457.320312 164.261719 460.765625 166.773438 463.304688 C 167.402344 463.941406 168.332031 464.636719 167.5625 465.300781 C 165.160156 467.367188 167.0625 468.03125 168.398438 469.382812 C 174.855469 475.890625 184.199219 474.726562 183.230469 488.714844 C 182.402344 500.714844 192.9375 500.597656 189.246094 503.414062 C 183.324219 507.941406 188.058594 511.960938 186.945312 514.46875 C 185.1875 518.429688 186.234375 522.640625 185.835938 526.726562 C 185.730469 527.8125 186.804688 527.738281 187.136719 528.371094 C 187.796875 529.617188 191.34375 529.664062 188.765625 532.347656 C 188.632812 532.488281 189.730469 533.621094 190.597656 534.035156 C 200.148438 538.605469 204.71875 546.625 206.175781 557.296875 C 208.085938 556.953125 206.828125 555.230469 208.109375 554.546875 C 208.757812 559.074219 207.777344 563.636719 209.308594 567.960938 C 209.304688 567.390625 208.542969 445.046875 209.128906 444.964844 C 213.019531 444.402344 216.566406 442.445312 220.5625 442.238281 C 225.421875 441.988281 223.347656 439.757812 221.234375 434.792969 C 225.410156 432.792969 224.851562 437.382812 228.761719 441.023438 C 231.066406 443.167969 233.835938 442.949219 235.148438 436.90625 C 235.265625 436.367188 235.34375 435.542969 235.953125 435.78125 C 238.152344 436.652344 240.257812 435.558594 242.40625 435.675781 C 243.085938 435.710938 243.84375 436.019531 244.5 435.238281 C 246 433.460938 247.558594 431.738281 249.179688 435.253906 C 250.183594 437.433594 253.414062 433.363281 255.371094 435.816406 C 255.492188 435.96875 255.8125 436.152344 255.914062 436.097656 C 263.097656 432.105469 270.648438 435.765625 278 435.078125 C 291.046875 433.855469 296.113281 436.546875 294.605469 432.65625 C 294.339844 431.972656 293.804688 430.625 295.519531 430.441406 C 301.40625 429.804688 294.164062 435.824219 303.464844 435.722656 C 308.484375 435.667969 308.480469 435.710938 308.902344 440.523438 C 308.964844 441.226562 308.679688 442.316406 309.847656 442.21875 C 313.058594 441.953125 315.8125 443.882812 319.105469 443.734375 C 323.414062 443.542969 327.632812 445.261719 332.03125 445.167969 C 334.191406 445.117188 334.660156 446.488281 334.648438 448.601562 C 334.25 514.882812 334.925781 570.675781 335.289062 575.296875 C 335.175781 575.371094 335.0625 575.445312 334.949219 575.519531 C 335.1875 575.511719 335.15625 575.613281 335.226562 575.226562 C 335.789062 625.039062 333.398438 624.628906 338.429688 624.695312 C 340.863281 624.726562 343.832031 623.46875 345.261719 627.324219 C 345.601562 628.25 349.03125 629.351562 350.777344 628.011719 C 354.917969 624.835938 360.1875 631.261719 363.0625 626.273438 C 363.167969 626.085938 363.742188 625.925781 363.882812 626.035156 C 368.066406 629.261719 365.25 624.925781 366.292969 604.59375 C 366.46875 601.144531 367.121094 597.792969 366.324219 594.300781 C 365.957031 592.695312 367.449219 592.355469 368.957031 592.320312 C 370.664062 592.28125 371.703125 592.578125 371.511719 594.574219 C 370.410156 606.175781 371.703125 617.746094 371.554688 625.167969 C 371.492188 628.316406 373.613281 627.730469 375.492188 627.6875 C 376.691406 627.664062 376.789062 627.675781 376.699219 625.425781 C 376.179688 612.691406 375.945312 599.945312 375.933594 587.203125 C 375.929688 583.457031 373.78125 564.773438 377.09375 562.769531 C 378.195312 562.101562 379.5625 562.089844 380.851562 562.089844 C 388.507812 562.082031 396.144531 561.546875 403.769531 560.90625 C 409.683594 560.414062 417.78125 561.230469 423.382812 559.464844 C 425.824219 558.695312 425.972656 557.539062 426.484375 555.3125 C 427.410156 551.3125 427.171875 546.820312 427.242188 542.75 C 427.625 520.382812 427.058594 497.984375 426.949219 475.617188 C 426.742188 434.132812 426.878906 392.648438 427.253906 351.167969 C 428.152344 252.179688 423.273438 256.535156 430.925781 252.601562 C 435.964844 250.011719 441.265625 252.214844 446.335938 251.34375 C 453.078125 250.1875 458.628906 253.332031 464.398438 255.894531 C 465.460938 254.789062 464.199219 252.972656 465.660156 252.09375 C 467.125 252.917969 464.308594 257.570312 470.328125 258.503906 C 473.679688 259.027344 476.699219 261.652344 479.871094 263.328125 C 481.015625 263.933594 480.675781 265.027344 480.6875 265.9375 C 480.875 282.085938 479.867188 283.511719 483.054688 281.164062 C 484.648438 279.988281 483.214844 283.726562 485.148438 283.507812 C 486.503906 283.355469 485.941406 282.140625 485.945312 281.40625 C 485.992188 272.742188 486.089844 264.074219 485.90625 255.414062 C 485.765625 248.6875 490.195312 252.167969 491.960938 245.941406 C 494.078125 238.476562 494.242188 235.59375 493.839844 181.847656 C 493.765625 172.328125 499.734375 180.644531 502.773438 163.875 C 503.277344 161.109375 503.40625 158.300781 502.457031 155.515625 C 499.949219 148.171875 505.96875 138.457031 502.035156 130.1875 C 501.6875 129.453125 501.496094 128.289062 501.835938 127.640625 C 505.289062 121.035156 501.1875 84.238281 505.703125 84.195312 C 508.625 84.164062 505.445312 88.148438 508.328125 93.160156 C 509.511719 95.21875 508.359375 97.363281 508.359375 99.46875 C 508.351562 107.140625 507.3125 115 508.660156 122.425781 C 509.914062 129.34375 507.046875 135.886719 508.511719 142.484375 C 510.738281 152.527344 507.292969 170.800781 513.757812 171.109375 C 518.96875 171.359375 517.199219 175.722656 518.773438 176.308594 C 523.890625 178.21875 522.058594 178.910156 522.351562 220.882812 C 522.410156 229.386719 522.851562 237.890625 522.726562 246.390625 C 522.6875 249.015625 523.609375 250.484375 525.730469 251.09375 C 528.796875 251.972656 528.132812 252.695312 528.234375 269.378906 C 528.238281 270.109375 527.855469 270.984375 528.972656 271.234375 C 530.6875 271.621094 529.914062 268.546875 531.605469 269.152344 C 535.207031 270.4375 539.007812 269.847656 542.703125 270.152344 C 546.828125 270.496094 550.878906 271.699219 555.113281 271.199219 C 557.628906 270.898438 559.890625 272.457031 562.332031 272.992188 C 568.421875 274.320312 565.113281 281.289062 565.863281 311.921875 C 566.011719 317.992188 566.871094 391.867188 565.753906 395.472656 C 565.726562 395.445312 565.699219 395.417969 565.671875 395.390625 C 565.726562 395.4375 565.78125 395.484375 565.832031 395.527344 C 565.777344 395.972656 565.722656 396.417969 565.667969 396.863281 C 565.527344 396.992188 564.894531 396.8125 565.378906 397.332031 C 565.445312 397.144531 565.515625 396.960938 565.582031 396.773438 C 566.757812 398.980469 569.257812 398.40625 570.992188 398.851562 C 575.820312 400.089844 580.84375 400.261719 585.625 397.726562 C 589.625 410.207031 588.652344 409.761719 588.65625 467.683594 C 588.65625 471.847656 588.46875 473.578125 590.042969 473.980469 C 591.660156 474.394531 593.363281 473.632812 593.898438 471.65625 C 594.40625 469.785156 594.976562 471.117188 595.539062 471.585938 C 595.367188 471.503906 595.195312 471.425781 595.023438 471.34375 C 595.003906 471.449219 594.984375 471.550781 594.964844 471.65625 C 595.15625 471.628906 595.347656 471.597656 595.539062 471.570312 C 596.582031 472.335938 594.789062 473.132812 595.648438 474.191406 C 596.1875 474.855469 596.328125 475.535156 597.167969 474.921875 C 602.886719 470.722656 606.785156 475.601562 611.425781 477.574219 C 612.070312 477.007812 611.457031 476.039062 611.738281 475.269531 C 612.417969 473.410156 615.058594 473.789062 615.121094 475.4375 C 615.203125 477.777344 615.667969 480.109375 615.625 482.4375 C 615.582031 484.65625 616.828125 485.480469 618.582031 485.523438 C 634.96875 485.933594 633.378906 485.722656 633.496094 483.761719 C 633.929688 476.453125 633.570312 476.121094 634.972656 475.394531 C 635.667969 475.035156 636.433594 475.683594 636.589844 476.140625 C 637.160156 477.800781 638.242188 477.023438 639.339844 477.136719 C 641.398438 477.351562 643.207031 474.816406 645.566406 477.054688 C 646.820312 478.242188 648.894531 475.757812 651.078125 476.664062 C 651.890625 477.003906 651.882812 474.660156 651.285156 473.046875 C 656.953125 478.585938 658.15625 485.003906 656.785156 492.507812 C 658.5625 491.886719 659.300781 491.296875 660.914062 492.488281 C 662.707031 493.808594 666.164062 492.929688 668.890625 492.878906 C 669.542969 492.863281 669.644531 493.375 670.261719 483.457031 C 670.390625 481.378906 671.902344 481.070312 672.703125 482.335938 C 673.871094 484.179688 675.277344 483.640625 676.703125 483.636719 C 682.066406 483.625 687.390625 483.238281 692.558594 481.640625 C 692.855469 481.546875 693.464844 481.660156 693.484375 481.578125 C 694.378906 477.421875 696.699219 480.101562 698.789062 480.179688 C 702.683594 480.324219 706.714844 481.425781 710.542969 479.460938 C 711.738281 478.847656 712.570312 480.472656 713.808594 480.457031 C 716.984375 480.414062 720.164062 480.414062 723.339844 480.488281 C 730.5625 480.660156 728.324219 448.125 728.816406 598.566406 C 728.820312 600.308594 728.003906 602.324219 729.730469 603.816406 L 729.644531 603.730469 C 730.347656 604.210938 731.054688 604.691406 731.761719 605.167969 C 731.738281 605.121094 731.710938 605.082031 731.683594 605.039062 C 731.671875 605.101562 731.660156 605.167969 731.648438 605.230469 C 735.28125 605.460938 738.910156 604.878906 742.339844 604.027344 C 748.910156 602.394531 743.960938 593.855469 746.535156 585.671875 C 747.386719 582.964844 750.59375 581.105469 753.210938 581.886719 L 753.132812 581.789062 C 753.386719 582.539062 753.652344 582.277344 753.925781 581.800781 L 753.855469 581.886719 C 754.289062 581.886719 754.726562 581.886719 755.164062 581.886719 L 755.097656 581.785156 C 755.34375 582.414062 755.628906 582 755.90625 581.8125 L 755.847656 581.890625 C 756.28125 581.890625 756.714844 581.890625 757.148438 581.886719 L 757.078125 581.789062 C 757.335938 582.433594 757.605469 582.265625 757.875 581.800781 L 757.8125 581.886719 C 758.550781 581.292969 759.203125 580.488281 760.042969 580.136719 C 767.128906 577.191406 756.238281 574.09375 761.878906 573.632812 C 762.726562 573.566406 762.34375 574.941406 762.4375 549.292969 C 762.449219 545.804688 763.839844 544.21875 767.347656 544.449219 C 774.527344 544.917969 781.863281 543.8125 788.816406 544.878906 C 794.671875 545.777344 792.734375 542.613281 792.746094 540.28125 C 792.8125 526.261719 792.734375 512.242188 792.738281 498.222656 C 792.738281 493.730469 797.507812 490.414062 801.523438 491.875 C 800.945312 483.777344 801.390625 475.597656 801.246094 467.425781 C 801.226562 466.328125 802.324219 466.128906 802.625 465.335938 L 802.519531 465.390625 C 802.773438 465.136719 803.023438 464.878906 803.277344 464.625 L 803.179688 464.726562 C 803.34375 464.632812 803.507812 464.542969 803.671875 464.453125 C 803.507812 464.285156 803.34375 464.121094 803.179688 463.957031 L 803.273438 464.042969 C 806.371094 461.796875 809.96875 462.375 813.449219 462.226562 C 832.433594 461.417969 832.199219 462.898438 832.191406 466.628906 C 832.171875 473.523438 832.164062 480.417969 832.195312 487.3125 C 832.207031 489.464844 833.136719 490.757812 835.539062 490.335938 L 835.453125 490.421875 C 836.175781 489.648438 836.96875 490.210938 837.738281 490.3125 L 837.796875 490.199219 C 838.183594 493.488281 839.769531 489.425781 840.5 490.636719 L 840.484375 490.574219 C 841.570312 490.605469 841.40625 493.695312 843.308594 491.730469 Z M 843.230469 491.800781 " fill-opacity="1" fill-rule="nonzero"/></g><path fill="#000000" d="M 862.210938 628.253906 C 860.9375 628.96875 861.101562 627.617188 861.839844 627.84375 C 861.988281 627.890625 862.082031 628.105469 862.210938 628.253906 Z M 862.210938 628.253906 " fill-opacity="1" fill-rule="nonzero"/><path fill="#000000" d="M 572.125 398.613281 L 571.898438 398.492188 L 572.160156 398.429688 Z M 572.125 398.613281 " fill-opacity="1" fill-rule="nonzero"/><path fill="#000000" d="M 866.730469 579.519531 L 867.011719 579.433594 L 866.988281 579.648438 Z M 866.730469 579.519531 " fill-opacity="1" fill-rule="nonzero"/><path fill="#000000" d="M 853.710938 627 C 853.433594 626.953125 852.957031 626.972656 852.910156 626.839844 C 852.652344 626.097656 853.074219 626.738281 853.640625 627.011719 C 853.65625 627.003906 853.710938 627 853.710938 627 Z M 853.710938 627 " fill-opacity="1" fill-rule="nonzero"/><path fill="#000000" d="M 860.109375 627.671875 C 860.058594 627.257812 860.011719 626.847656 859.960938 626.433594 C 860.75 626.597656 860.054688 626.75 860.117188 627.65625 C 860.117188 627.65625 860.109375 627.671875 860.109375 627.671875 Z M 860.109375 627.671875 " fill-opacity="1" fill-rule="nonzero"/><path fill="#000000" d="M 107.453125 630.828125 L 107.636719 630.917969 L 107.4375 630.976562 Z M 107.453125 630.828125 " fill-opacity="1" fill-rule="nonzero"/><path fill="#000000" d="M 945.328125 323.8125 C 946.054688 324.027344 945.664062 324.25 945.335938 324.476562 C 945.335938 324.476562 945.4375 324.523438 945.4375 324.523438 C 945.4375 324.265625 945.433594 324.007812 945.429688 323.75 Z M 945.328125 323.8125 " fill-opacity="1" fill-rule="nonzero"/><path fill="#000000" d="M 1273.871094 451.976562 C 1273.925781 452.128906 1273.984375 452.28125 1274.039062 452.433594 C 1274.179688 452.28125 1274.320312 452.132812 1274.460938 451.980469 C 1274.460938 451.980469 1274.558594 452.125 1274.558594 452.125 C 1274.292969 452.121094 1274.03125 452.121094 1273.765625 452.121094 Z M 1273.871094 451.976562 " fill-opacity="1" fill-rule="nonzero"/><path fill="#000000" d="M 802.625 464.671875 C 802.613281 464.226562 802.851562 464.039062 803.273438 464.042969 C 803.273438 464.042969 803.183594 463.664062 803.183594 464.722656 C 803.335938 464.566406 802.773438 464.617188 802.523438 464.613281 Z M 802.625 464.671875 " fill-opacity="1" fill-rule="nonzero"/><path fill="#000000" d="M 802.625 465.332031 C 802.121094 465.113281 802.085938 464.890625 802.625 464.671875 C 802.625 464.671875 802.519531 464.613281 802.519531 464.613281 C 802.523438 464.871094 802.523438 465.128906 802.523438 465.386719 Z M 802.625 465.332031 " fill-opacity="1" fill-rule="nonzero"/><path fill="#000000" d="M 691.800781 479.488281 C 691.765625 479.550781 691.730469 479.613281 691.695312 479.675781 C 691.601562 479.609375 691.507812 479.539062 691.414062 479.472656 C 691.667969 479.242188 691.566406 479.234375 691.800781 479.488281 Z M 691.800781 479.488281 " fill-opacity="1" fill-rule="nonzero"/><path fill="#000000" d="M 835.542969 490.332031 C 835.378906 490.261719 835.214844 490.195312 835.046875 490.125 C 835.125 490.050781 835.203125 489.980469 835.28125 489.90625 C 835.351562 490.121094 835.410156 490.464844 835.542969 490.332031 Z M 835.542969 490.332031 " fill-opacity="1" fill-rule="nonzero"/><path fill="#000000" d="M 837.738281 490.308594 C 837.703125 490.238281 837.667969 490.167969 837.632812 490.097656 C 837.683594 490.136719 837.734375 490.175781 837.792969 490.203125 C 837.800781 490.195312 837.738281 490.308594 837.738281 490.308594 Z M 837.738281 490.308594 " fill-opacity="1" fill-rule="nonzero"/><path fill="#000000" d="M 840.5 490.636719 C 840.742188 490.660156 840.984375 490.6875 841.222656 490.714844 C 841.191406 490.804688 841.160156 490.894531 841.128906 490.984375 C 840.917969 490.851562 840.707031 490.722656 840.492188 490.582031 C 840.488281 490.570312 840.5 490.636719 840.5 490.636719 Z M 840.5 490.636719 " fill-opacity="1" fill-rule="nonzero"/><path fill="#000000" d="M 843.3125 491.726562 C 843.175781 491.609375 843.035156 491.492188 842.898438 491.375 C 843.015625 491.335938 843.132812 491.300781 843.253906 491.261719 C 843.246094 491.441406 843.242188 491.617188 843.234375 491.796875 C 843.230469 491.800781 843.3125 491.726562 843.3125 491.726562 Z M 843.3125 491.726562 " fill-opacity="1" fill-rule="nonzero"/><path fill="#000000" d="M 753.210938 581.882812 C 753.320312 581.707031 753.425781 581.53125 753.535156 581.355469 C 753.640625 581.53125 753.75 581.707031 753.855469 581.886719 C 753.855469 581.886719 754.191406 581.800781 753.136719 581.785156 Z M 753.210938 581.882812 " fill-opacity="1" fill-rule="nonzero"/><path fill="#000000" d="M 755.164062 581.882812 C 755.398438 581.34375 755.625 581.289062 755.851562 581.890625 C 755.851562 581.890625 755.910156 581.8125 755.910156 581.8125 C 755.636719 581.800781 755.367188 581.789062 755.097656 581.78125 Z M 755.164062 581.882812 " fill-opacity="1" fill-rule="nonzero"/><path fill="#000000" d="M 757.152344 581.886719 C 757.371094 581.273438 757.59375 581.242188 757.8125 581.886719 C 757.8125 581.886719 758.144531 581.800781 757.082031 581.789062 Z M 757.152344 581.886719 " fill-opacity="1" fill-rule="nonzero"/><path fill="#000000" d="M 930.082031 322.472656 C 930.246094 322.367188 930.410156 322.261719 930.578125 322.15625 C 930.410156 322.050781 930.246094 321.945312 930.078125 321.839844 C 930.078125 321.839844 930.222656 321.753906 930.222656 321.753906 C 930.222656 322.023438 930.222656 322.289062 930.222656 322.558594 Z M 930.082031 322.472656 " fill-opacity="1" fill-rule="nonzero"/><path fill="#000000" d="M 729.730469 603.816406 C 729.699219 603.609375 729.667969 603.40625 729.636719 603.199219 C 730.273438 603.382812 729.679688 603.542969 729.636719 603.722656 C 729.644531 603.730469 729.730469 603.816406 729.730469 603.816406 Z M 729.730469 603.816406 " fill-opacity="1" fill-rule="nonzero"/><path fill="#000000" d="M 920.402344 325.484375 C 920.40625 325.546875 920.410156 325.609375 920.414062 325.675781 C 920.378906 325.648438 920.34375 325.617188 920.3125 325.582031 C 920.316406 325.570312 920.402344 325.484375 920.402344 325.484375 Z M 920.402344 325.484375 " fill-opacity="1" fill-rule="nonzero"/></svg>