<svg xmlns="http://www.w3.org/2000/svg" xmlns:xlink="http://www.w3.org/1999/xlink" width="762" zoomAndPan="magnify" viewBox="0 0 571.5 179.999997" height="240" preserveAspectRatio="xMidYMid meet" version="1.0"><defs><g/></defs><g fill="#6bad4b" fill-opacity="0.4"><g transform="translate(14.963759, 146.03841)"><g><path d="M 63.15625 -108.609375 C 62.109375 -109.359375 60.90625 -110.109375 60 -111.015625 C 57 -113.265625 53.703125 -114.46875 50.25 -114.90625 C 43.796875 -115.65625 37.5 -115.8125 31.046875 -115.8125 C 28.65625 -115.8125 26.25 -115.8125 23.859375 -115.8125 C 23.40625 -115.8125 22.953125 -115.8125 22.5 -115.8125 C 18 -115.65625 13.5 -115.515625 9 -115.359375 C 2.25 -114.90625 0.296875 -113.109375 0.296875 -106.0625 C 0.296875 -104.859375 0.15625 -103.515625 0.15625 -102.15625 C 0.15625 -99.15625 0 -96.015625 1.046875 -93.15625 C 1.203125 -92.40625 1.5 -91.65625 2.09375 -91.203125 C 2.84375 -90.765625 3.75 -90.609375 4.65625 -90.453125 C 5.40625 -90.453125 6 -90.453125 6.59375 -90.453125 C 6.59375 -87.90625 6.59375 -85.515625 6.59375 -82.953125 C 6.453125 -81.015625 6.453125 -78.90625 6.296875 -76.8125 C 5.40625 -66.90625 4.65625 -57 4.796875 -46.953125 C 5.09375 -33.15625 4.65625 -19.203125 4.65625 -5.25 C 4.65625 5.25 8.84375 5.546875 17.703125 5.546875 C 21.75 5.546875 26.109375 4.34375 28.796875 1.203125 C 33.75 -4.796875 31.203125 -15.75 31.046875 -22.796875 C 31.046875 -24.75 31.203125 -26.703125 31.203125 -28.5 C 31.203125 -32.25 31.203125 -36 31.203125 -39.609375 C 31.203125 -40.203125 31.359375 -40.796875 31.5 -41.40625 C 32.25 -41.546875 33 -41.703125 33.75 -41.703125 C 36.453125 -42 39.15625 -42 41.703125 -42.15625 C 45.453125 -42.609375 49.359375 -42.90625 53.109375 -43.65625 C 59.25 -44.859375 63.75 -50.25 64.359375 -56.5625 C 64.65625 -60 65.109375 -63.3125 65.40625 -66.75 C 65.859375 -72.15625 66.3125 -77.703125 66.3125 -83.265625 C 66.609375 -89.859375 65.859375 -96.3125 65.109375 -102.90625 C 64.953125 -105.015625 64.359375 -106.96875 63.15625 -108.609375 Z M 46.0625 -72 C 45.453125 -68.25 44.25 -66.15625 40.203125 -65.5625 C 38.109375 -65.109375 35.703125 -64.953125 33.453125 -64.953125 C 30.609375 -65.109375 29.25 -66.90625 29.40625 -69.75 C 29.703125 -74.859375 29.546875 -79.953125 29.703125 -85.0625 C 30.296875 -90.609375 31.796875 -91.65625 37.65625 -91.65625 C 38.109375 -91.65625 38.703125 -91.65625 39.15625 -91.65625 C 42.15625 -91.65625 45 -91.0625 46.203125 -87.609375 C 46.5 -86.40625 46.5 -85.0625 46.65625 -83.703125 C 46.65625 -83.703125 46.65625 -83.5625 46.65625 -83.40625 C 46.65625 -79.65625 46.65625 -75.765625 46.0625 -72 Z M 46.0625 -72 "/></g></g></g><g fill="#6bad4b" fill-opacity="0.4"><g transform="translate(76.020121, 146.03841)"><g><path d="M 65.703125 -34.65625 C 60.75 -34.65625 55.953125 -34.5 51.15625 -33.609375 C 49.65625 -33.15625 48.609375 -32.546875 48.15625 -31.953125 C 47.703125 -30.453125 47.703125 -28.953125 47.5625 -27.453125 C 47.40625 -26.25 47.109375 -24.75 46.0625 -24 C 44.703125 -22.65625 40.65625 -22.65625 38.859375 -22.65625 C 34.65625 -22.65625 28.046875 -22.796875 28.046875 -28.5 C 27.90625 -33.15625 28.046875 -37.796875 28.046875 -42.296875 C 28.046875 -42.75 28.203125 -43.046875 28.359375 -43.359375 C 29.859375 -43.5 31.203125 -43.796875 32.546875 -43.953125 C 33.75 -44.109375 34.796875 -44.109375 35.859375 -44.109375 C 36.90625 -44.109375 37.953125 -44.109375 39 -44.109375 C 40.5 -44.25 42.15625 -44.40625 43.65625 -44.859375 C 45.75 -45.453125 47.109375 -46.953125 47.40625 -49.203125 C 47.703125 -51 47.859375 -52.953125 47.859375 -54.75 C 47.703125 -58.0625 47.25 -61.203125 47.109375 -64.5 C 47.109375 -69 43.359375 -71.703125 39.15625 -71.703125 C 35.109375 -71.5625 31.203125 -71.40625 27.15625 -71.40625 C 27.296875 -75.453125 27.296875 -79.359375 27.453125 -83.265625 C 27.453125 -84.453125 28.046875 -85.65625 28.359375 -86.703125 C 30.90625 -87.765625 33.453125 -88.203125 35.859375 -88.203125 C 37.203125 -88.203125 38.40625 -88.0625 39.75 -87.90625 C 40.203125 -85.515625 40.65625 -83.265625 40.796875 -80.859375 C 41.109375 -78.15625 42.296875 -76.203125 44.703125 -75 C 48.15625 -75.15625 51.453125 -75.15625 54.75 -75.3125 C 56.109375 -75.453125 57.3125 -76.0625 58.65625 -76.203125 C 60.90625 -76.65625 62.5625 -77.703125 63.90625 -79.515625 C 64.0625 -79.953125 64.0625 -80.5625 64.0625 -81.015625 C 64.203125 -86.703125 64.203125 -92.40625 64.359375 -98.109375 C 64.359375 -99.3125 64.5 -100.359375 64.65625 -101.5625 C 65.109375 -103.515625 65.25 -105.46875 64.65625 -107.265625 C 64.0625 -108.90625 63.15625 -110.5625 62.5625 -112.21875 C 60.90625 -116.859375 53.703125 -117.3125 49.5 -117.3125 C 42.296875 -117.3125 34.953125 -117.15625 27.609375 -117.015625 C 22.359375 -117.015625 9.296875 -116.71875 6.296875 -111.46875 C 3.453125 -106.65625 3.453125 -95.859375 3.453125 -90.453125 C 3.296875 -86.265625 3.296875 -81.90625 3 -77.703125 C 2.703125 -71.859375 2.09375 -66 1.796875 -60.15625 C 1.65625 -52.65625 1.65625 -45.15625 1.203125 -37.796875 C 0.90625 -29.859375 0.453125 -21.90625 0.15625 -14.09375 C 0 -10.953125 -0.15625 -7.65625 1.046875 -4.796875 C 4.5 4.046875 22.359375 4.046875 30.296875 4.046875 C 36.90625 3.90625 50.40625 3.75 57 3 C 64.953125 2.09375 68.703125 0.15625 70.5 -7.5 C 71.859375 -14.40625 71.859375 -21.453125 71.25 -28.359375 C 70.953125 -31.203125 69 -34.65625 65.703125 -34.65625 Z M 65.703125 -34.65625 "/></g></g></g><g fill="#6bad4b" fill-opacity="0.4"><g transform="translate(142.327063, 146.03841)"><g><path d="M 63.15625 -108.609375 C 62.109375 -109.359375 60.90625 -110.109375 60 -111.015625 C 57 -113.265625 53.703125 -114.46875 50.25 -114.90625 C 43.796875 -115.65625 37.5 -115.8125 31.046875 -115.8125 C 28.65625 -115.8125 26.25 -115.8125 23.859375 -115.8125 C 23.40625 -115.8125 22.953125 -115.8125 22.5 -115.8125 C 18 -115.65625 13.5 -115.515625 9 -115.359375 C 2.25 -114.90625 0.296875 -113.109375 0.296875 -106.0625 C 0.296875 -104.859375 0.15625 -103.515625 0.15625 -102.15625 C 0.15625 -99.15625 0 -96.015625 1.046875 -93.15625 C 1.203125 -92.40625 1.5 -91.65625 2.09375 -91.203125 C 2.84375 -90.765625 3.75 -90.609375 4.65625 -90.453125 C 5.40625 -90.453125 6 -90.453125 6.59375 -90.453125 C 6.59375 -87.90625 6.59375 -85.515625 6.59375 -82.953125 C 6.453125 -81.015625 6.453125 -78.90625 6.296875 -76.8125 C 5.40625 -66.90625 4.65625 -57 4.796875 -46.953125 C 5.09375 -33.15625 4.65625 -19.203125 4.65625 -5.25 C 4.65625 5.25 8.84375 5.546875 17.703125 5.546875 C 21.75 5.546875 26.109375 4.34375 28.796875 1.203125 C 33.75 -4.796875 31.203125 -15.75 31.046875 -22.796875 C 31.046875 -24.75 31.203125 -26.703125 31.203125 -28.5 C 31.203125 -32.25 31.203125 -36 31.203125 -39.609375 C 31.203125 -40.203125 31.359375 -40.796875 31.5 -41.40625 C 32.25 -41.546875 33 -41.703125 33.75 -41.703125 C 36.453125 -42 39.15625 -42 41.703125 -42.15625 C 45.453125 -42.609375 49.359375 -42.90625 53.109375 -43.65625 C 59.25 -44.859375 63.75 -50.25 64.359375 -56.5625 C 64.65625 -60 65.109375 -63.3125 65.40625 -66.75 C 65.859375 -72.15625 66.3125 -77.703125 66.3125 -83.265625 C 66.609375 -89.859375 65.859375 -96.3125 65.109375 -102.90625 C 64.953125 -105.015625 64.359375 -106.96875 63.15625 -108.609375 Z M 46.0625 -72 C 45.453125 -68.25 44.25 -66.15625 40.203125 -65.5625 C 38.109375 -65.109375 35.703125 -64.953125 33.453125 -64.953125 C 30.609375 -65.109375 29.25 -66.90625 29.40625 -69.75 C 29.703125 -74.859375 29.546875 -79.953125 29.703125 -85.0625 C 30.296875 -90.609375 31.796875 -91.65625 37.65625 -91.65625 C 38.109375 -91.65625 38.703125 -91.65625 39.15625 -91.65625 C 42.15625 -91.65625 45 -91.0625 46.203125 -87.609375 C 46.5 -86.40625 46.5 -85.0625 46.65625 -83.703125 C 46.65625 -83.703125 46.65625 -83.5625 46.65625 -83.40625 C 46.65625 -79.65625 46.65625 -75.765625 46.0625 -72 Z M 46.0625 -72 "/></g></g></g><g fill="#6bad4b" fill-opacity="0.4"><g transform="translate(203.383425, 146.03841)"><g/></g></g><g fill="#6bad4b" fill-opacity="0.4"><g transform="translate(224.835383, 146.03841)"><g><path d="M 50.703125 -116.40625 C 49.953125 -116.40625 49.0625 -116.40625 48.3125 -116.40625 C 42 -116.40625 35.703125 -116.71875 29.40625 -116.71875 C 26.25 -116.71875 23.25 -116.71875 20.109375 -116.40625 C 16.796875 -116.265625 9 -115.21875 7.34375 -111.609375 C 6.75 -110.265625 6.15625 -108.90625 5.84375 -107.5625 C 3.453125 -95.109375 3.296875 -81.765625 4.796875 -69.15625 C 5.25 -65.109375 6.15625 -63.75 9.453125 -61.203125 C 16.796875 -55.203125 24.15625 -49.0625 31.5 -43.046875 C 33.453125 -41.546875 35.40625 -39.90625 36.609375 -37.65625 C 38.703125 -34.046875 38.25 -29.546875 37.796875 -25.203125 C 37.65625 -24.453125 37.5 -23.40625 36.90625 -22.953125 C 36.453125 -22.65625 35.859375 -22.5 35.40625 -22.359375 C 34.796875 -22.203125 31.796875 -21.609375 29.40625 -21.609375 C 27.75 -21.609375 26.546875 -21.90625 26.546875 -22.953125 C 25.203125 -25.796875 25.796875 -29.40625 25.796875 -32.40625 C 25.65625 -33.90625 25.5 -35.546875 24.453125 -36.75 C 23.109375 -38.109375 21 -38.25 19.203125 -38.40625 C 17.25 -38.40625 15.453125 -38.546875 13.5 -38.546875 C 12.75 -38.546875 12.15625 -38.546875 11.40625 -38.546875 C 3 -38.546875 1.203125 -35.25 0.453125 -27.453125 C 0.15625 -21.15625 0 -14.84375 0.296875 -8.703125 C 0.59375 -4.34375 0.90625 -1.953125 4.65625 0.75 C 6.15625 1.796875 7.796875 3 9.59375 3.59375 C 11.40625 4.203125 13.203125 3.90625 15.15625 4.203125 C 16.953125 4.34375 18.75 4.5 20.703125 4.65625 C 24.15625 4.953125 27.609375 5.40625 31.046875 5.40625 C 33.75 5.40625 36.453125 5.25 39.15625 5.09375 C 43.359375 4.953125 47.5625 4.796875 51.75 4.65625 C 55.203125 4.5 62.25 2.703125 62.703125 -1.65625 C 63.15625 -4.65625 63.75 -7.5 63.75 -10.34375 C 64.0625 -16.953125 64.0625 -23.546875 64.0625 -30.296875 C 63.90625 -35.109375 63.75 -40.046875 63.453125 -45 C 63.15625 -46.953125 63 -49.0625 61.953125 -50.859375 C 61.359375 -52.0625 60.453125 -53.109375 59.40625 -54.15625 C 51.453125 -62.109375 41.109375 -67.0625 32.703125 -74.5625 C 31.203125 -75.90625 29.703125 -77.40625 28.953125 -79.359375 C 28.046875 -81.15625 27.75 -83.40625 28.65625 -85.203125 C 29.546875 -87.15625 32.109375 -87.3125 34.5 -87.3125 C 35.109375 -87.3125 35.859375 -87.3125 36.296875 -87.3125 C 36.75 -87.3125 37.046875 -87.3125 37.359375 -87.3125 C 37.65625 -87.3125 38.109375 -87.3125 38.546875 -87.015625 C 38.859375 -86.859375 39 -86.5625 39.15625 -86.265625 C 39.75 -84.609375 39.453125 -82.8125 39.453125 -81.015625 C 39.453125 -76.953125 40.953125 -76.359375 44.25 -75.90625 C 47.859375 -75.90625 51.609375 -75.765625 55.203125 -75.765625 C 55.8125 -75.765625 56.40625 -75.765625 57 -75.765625 C 58.8125 -75.765625 60.453125 -75.90625 61.953125 -76.953125 C 66 -79.8125 64.8125 -85.359375 64.953125 -89.5625 C 65.109375 -90.015625 65.109375 -90.453125 65.109375 -90.90625 C 65.109375 -95.109375 64.953125 -99.15625 65.109375 -103.359375 C 65.25 -105.90625 65.109375 -108.46875 63.90625 -111.015625 C 61.359375 -115.8125 55.65625 -116.40625 50.703125 -116.40625 Z M 50.703125 -116.40625 "/></g></g></g><g fill="#6bad4b" fill-opacity="0.4"><g transform="translate(284.691615, 146.03841)"><g><path d="M 76.8125 -74.5625 C 76.65625 -83.40625 76.359375 -92.265625 76.203125 -101.109375 C 76.203125 -102.3125 76.515625 -103.359375 76.515625 -104.5625 C 76.65625 -108.765625 77.5625 -113.109375 73.8125 -117.15625 C 73.0625 -117.3125 71.703125 -117.90625 70.5 -117.90625 C 66.609375 -118.0625 62.703125 -118.21875 58.8125 -118.21875 C 56.40625 -118.21875 54.453125 -117.015625 52.953125 -115.515625 C 48.453125 -111.3125 44.25 -106.96875 40.796875 -102.015625 C 40.359375 -101.40625 39.90625 -100.953125 39.296875 -100.359375 C 39 -100.8125 38.859375 -100.8125 38.703125 -101.109375 C 36.15625 -106.21875 31.953125 -110.109375 28.359375 -114.609375 C 26.546875 -117.015625 24.75 -117.3125 21.90625 -117.3125 C 21.609375 -117.3125 21.296875 -117.3125 21 -117.3125 C 17.40625 -117.3125 13.796875 -117.46875 10.046875 -117.46875 C 7.65625 -117.46875 6 -116.109375 5.25 -114.015625 C 4.5 -112.359375 3.90625 -110.71875 3.75 -108.90625 C 3.15625 -104.859375 2.84375 -100.65625 2.546875 -96.453125 C 2.09375 -89.40625 1.796875 -82.359375 1.5 -75.453125 C 1.046875 -67.8125 0.15625 -60.15625 0.15625 -52.5 C 0.15625 -36.453125 0 -20.40625 1.203125 -4.5 C 1.796875 3 8.40625 4.953125 14.703125 5.703125 C 15.296875 5.84375 15.75 5.84375 16.359375 5.84375 C 19.046875 5.84375 25.796875 4.34375 26.546875 1.203125 C 26.703125 0.15625 26.859375 -0.90625 26.859375 -1.953125 C 27.296875 -9.453125 27.609375 -17.109375 27.90625 -24.609375 C 28.046875 -30.15625 28.5 -35.703125 28.5 -41.25 C 28.65625 -51.15625 28.5 -61.203125 28.359375 -71.109375 C 28.359375 -72.90625 28.359375 -74.859375 28.203125 -76.65625 C 28.5 -76.8125 28.65625 -76.8125 28.796875 -76.8125 C 29.703125 -75.3125 30.609375 -73.8125 31.65625 -72.3125 C 32.546875 -70.65625 33.609375 -69 34.796875 -67.5 C 35.859375 -66.15625 37.203125 -65.40625 38.546875 -65.40625 C 39.90625 -65.40625 41.25 -66.15625 42.453125 -67.65625 C 44.546875 -70.359375 46.65625 -73.0625 48.90625 -75.765625 C 49.203125 -76.203125 49.5 -76.359375 50.109375 -76.953125 C 49.8125 -74.109375 49.5 -71.703125 49.359375 -69.3125 C 49.0625 -60.3125 48.609375 -51.3125 48.75 -42.296875 C 48.75 -32.40625 49.203125 -22.5 48.90625 -12.75 C 48.75 -3.75 49.0625 5.09375 49.359375 14.09375 C 49.359375 15.296875 49.5 16.65625 49.8125 17.859375 C 51.453125 22.5 57.15625 24.15625 61.65625 24.15625 C 63 24.15625 64.359375 24 65.5625 23.546875 C 67.5 22.953125 70.203125 22.203125 71.703125 20.859375 C 73.8125 19.046875 73.953125 15.90625 74.5625 13.34375 C 75.453125 9.75 75.453125 5.84375 75.609375 2.09375 C 75.90625 -5.546875 75.609375 -13.203125 76.0625 -20.859375 C 76.359375 -28.953125 77.109375 -37.046875 77.265625 -45.15625 C 77.265625 -54.90625 76.953125 -64.65625 76.8125 -74.5625 Z M 76.8125 -74.5625 "/></g></g></g><g fill="#6bad4b" fill-opacity="0.4"><g transform="translate(356.549182, 146.03841)"><g><path d="M 63.3125 -40.5 C 63.3125 -41.109375 63.3125 -41.859375 63 -42.609375 C 61.953125 -46.953125 62.40625 -51.3125 62.5625 -55.5 C 62.703125 -60.15625 63 -64.65625 63.15625 -69.15625 C 63.3125 -76.515625 63.15625 -83.859375 62.859375 -91.203125 C 62.25 -109.515625 58.65625 -118.515625 39.609375 -118.515625 C 34.203125 -118.515625 28.796875 -118.515625 23.25 -118.0625 C 18.90625 -117.765625 14.25 -117.15625 10.5 -115.0625 C 6.296875 -112.515625 3.296875 -104.703125 2.84375 -99.765625 C 2.40625 -89.859375 2.09375 -79.8125 1.203125 -69.90625 C 0.296875 -60.609375 0 -51.15625 0 -41.859375 C 0 -34.65625 0.15625 -27.453125 0.15625 -20.25 C 0.15625 -16.953125 0.15625 -13.65625 0.59375 -10.5 C 2.546875 1.796875 10.203125 2.703125 20.546875 2.703125 C 23.546875 2.703125 26.40625 2.546875 29.40625 2.40625 C 34.796875 2.09375 40.359375 1.953125 45.75 1.65625 C 47.40625 1.5 49.0625 1.5 50.703125 0.90625 C 56.703125 -0.75 60.15625 -6.90625 61.65625 -12.90625 C 64.0625 -21.90625 63 -31.359375 63.3125 -40.5 Z M 39.15625 -33.90625 C 39.15625 -32.703125 38.859375 -31.359375 38.859375 -30.15625 C 39 -27.75 37.5 -26.40625 35.40625 -25.65625 C 34.046875 -25.203125 32.546875 -24.90625 31.046875 -24.453125 C 30.453125 -24.609375 29.859375 -24.75 29.25 -25.046875 C 27.453125 -25.953125 26.25 -27.15625 26.40625 -29.25 C 26.40625 -32.546875 26.40625 -35.703125 26.40625 -38.859375 C 26.546875 -45 26.859375 -51.3125 26.859375 -57.453125 C 26.859375 -61.203125 26.109375 -64.953125 26.109375 -68.703125 C 25.953125 -73.203125 26.109375 -77.859375 26.25 -82.515625 C 26.25 -84.90625 28.796875 -87.15625 31.65625 -87.3125 C 33.90625 -87.3125 35.109375 -87.15625 36.609375 -85.359375 C 36.90625 -83.40625 37.65625 -81.015625 37.796875 -78.453125 C 38.546875 -68.25 39.296875 -57.90625 39.296875 -47.703125 C 39.296875 -43.203125 39.296875 -38.546875 39.15625 -33.90625 Z M 39.15625 -33.90625 "/></g></g></g><g fill="#6bad4b" fill-opacity="0.4"><g transform="translate(414.455188, 146.03841)"><g><path d="M 81.3125 10.34375 C 77.265625 2.09375 73.65625 -6.453125 68.859375 -14.25 C 65.859375 -19.046875 63.15625 -24 60.90625 -29.109375 C 59.25 -33 57.453125 -36.75 55.65625 -40.5 C 54.609375 -42.296875 53.25 -43.953125 52.359375 -45.75 C 49.203125 -51.3125 46.203125 -56.859375 43.046875 -62.703125 C 44.40625 -64.203125 45.609375 -66.15625 46.953125 -67.8125 C 50.40625 -71.703125 53.25 -75.765625 55.8125 -80.265625 C 57.453125 -83.109375 59.40625 -85.8125 61.359375 -88.359375 C 63.609375 -91.0625 65.40625 -93.765625 67.0625 -96.765625 C 69.3125 -100.515625 71.703125 -103.953125 73.953125 -107.71875 C 74.40625 -108.46875 75 -109.359375 75.453125 -110.265625 C 76.65625 -113.265625 75.3125 -115.96875 72.15625 -116.40625 C 69.3125 -116.71875 66.453125 -117.015625 63.609375 -117.015625 C 62.40625 -117.015625 61.203125 -117.015625 60 -116.859375 C 58.203125 -116.71875 56.40625 -116.5625 54.609375 -116.5625 C 51.3125 -116.5625 49.0625 -114.765625 47.40625 -111.90625 C 46.65625 -110.40625 45.609375 -109.0625 44.546875 -107.71875 C 42.609375 -105.015625 40.65625 -102.453125 38.703125 -99.90625 C 37.65625 -98.265625 36.453125 -96.765625 35.40625 -95.265625 C 33.453125 -92.703125 31.5 -90.3125 29.546875 -87.765625 C 28.5 -86.40625 27.609375 -84.90625 26.546875 -83.40625 C 26.25 -83.109375 26.40625 -85.0625 26.40625 -85.0625 C 26.40625 -85.953125 26.703125 -87.015625 26.859375 -88.0625 C 27.296875 -94.65625 27.75 -100.953125 27.75 -107.5625 C 27.75 -114.15625 25.359375 -117.015625 18.75 -117.765625 C 18 -117.90625 17.25 -117.90625 16.359375 -117.90625 C 14.703125 -117.90625 13.046875 -117.765625 11.40625 -117.765625 C 10.953125 -117.765625 10.5 -117.765625 10.046875 -117.765625 C 4.953125 -117.765625 3.15625 -115.65625 2.703125 -110.859375 C 0.75 -91.359375 0.75 -72 0.296875 -52.5 C 0 -36.453125 -0.296875 -20.40625 0.59375 -4.34375 C 1.203125 2.84375 7.5 6 13.953125 6 C 14.703125 6 15.453125 5.84375 16.203125 5.84375 C 18.15625 5.703125 19.953125 5.25 21.75 5.09375 C 24 4.65625 25.5 3.453125 26.109375 1.203125 C 27 -0.90625 27 -8.84375 27 -11.25 C 27 -18.296875 26.859375 -25.203125 26.859375 -32.109375 C 26.859375 -32.703125 26.859375 -33.296875 26.859375 -33.90625 C 29.859375 -31.046875 31.203125 -27 33 -23.40625 C 38.859375 -12 44.703125 -1.046875 51.453125 9.75 C 53.109375 12.296875 59.5625 22.65625 61.8125 23.859375 C 63.15625 24.609375 64.8125 24.90625 66.453125 24.90625 C 67.953125 25.046875 69.3125 25.046875 70.8125 25.046875 C 74.703125 25.046875 78.453125 24.609375 82.359375 24 C 83.5625 23.703125 84.90625 23.25 85.359375 22.046875 C 85.515625 21.453125 85.359375 20.859375 85.203125 20.109375 C 84.3125 16.65625 82.8125 13.5 81.3125 10.34375 Z M 81.3125 10.34375 "/></g></g></g><g fill="#6bad4b" fill-opacity="0.4"><g transform="translate(494.563671, 146.03841)"><g><path d="M 65.703125 -34.65625 C 60.75 -34.65625 55.953125 -34.5 51.15625 -33.609375 C 49.65625 -33.15625 48.609375 -32.546875 48.15625 -31.953125 C 47.703125 -30.453125 47.703125 -28.953125 47.5625 -27.453125 C 47.40625 -26.25 47.109375 -24.75 46.0625 -24 C 44.703125 -22.65625 40.65625 -22.65625 38.859375 -22.65625 C 34.65625 -22.65625 28.046875 -22.796875 28.046875 -28.5 C 27.90625 -33.15625 28.046875 -37.796875 28.046875 -42.296875 C 28.046875 -42.75 28.203125 -43.046875 28.359375 -43.359375 C 29.859375 -43.5 31.203125 -43.796875 32.546875 -43.953125 C 33.75 -44.109375 34.796875 -44.109375 35.859375 -44.109375 C 36.90625 -44.109375 37.953125 -44.109375 39 -44.109375 C 40.5 -44.25 42.15625 -44.40625 43.65625 -44.859375 C 45.75 -45.453125 47.109375 -46.953125 47.40625 -49.203125 C 47.703125 -51 47.859375 -52.953125 47.859375 -54.75 C 47.703125 -58.0625 47.25 -61.203125 47.109375 -64.5 C 47.109375 -69 43.359375 -71.703125 39.15625 -71.703125 C 35.109375 -71.5625 31.203125 -71.40625 27.15625 -71.40625 C 27.296875 -75.453125 27.296875 -79.359375 27.453125 -83.265625 C 27.453125 -84.453125 28.046875 -85.65625 28.359375 -86.703125 C 30.90625 -87.765625 33.453125 -88.203125 35.859375 -88.203125 C 37.203125 -88.203125 38.40625 -88.0625 39.75 -87.90625 C 40.203125 -85.515625 40.65625 -83.265625 40.796875 -80.859375 C 41.109375 -78.15625 42.296875 -76.203125 44.703125 -75 C 48.15625 -75.15625 51.453125 -75.15625 54.75 -75.3125 C 56.109375 -75.453125 57.3125 -76.0625 58.65625 -76.203125 C 60.90625 -76.65625 62.5625 -77.703125 63.90625 -79.515625 C 64.0625 -79.953125 64.0625 -80.5625 64.0625 -81.015625 C 64.203125 -86.703125 64.203125 -92.40625 64.359375 -98.109375 C 64.359375 -99.3125 64.5 -100.359375 64.65625 -101.5625 C 65.109375 -103.515625 65.25 -105.46875 64.65625 -107.265625 C 64.0625 -108.90625 63.15625 -110.5625 62.5625 -112.21875 C 60.90625 -116.859375 53.703125 -117.3125 49.5 -117.3125 C 42.296875 -117.3125 34.953125 -117.15625 27.609375 -117.015625 C 22.359375 -117.015625 9.296875 -116.71875 6.296875 -111.46875 C 3.453125 -106.65625 3.453125 -95.859375 3.453125 -90.453125 C 3.296875 -86.265625 3.296875 -81.90625 3 -77.703125 C 2.703125 -71.859375 2.09375 -66 1.796875 -60.15625 C 1.65625 -52.65625 1.65625 -45.15625 1.203125 -37.796875 C 0.90625 -29.859375 0.453125 -21.90625 0.15625 -14.09375 C 0 -10.953125 -0.15625 -7.65625 1.046875 -4.796875 C 4.5 4.046875 22.359375 4.046875 30.296875 4.046875 C 36.90625 3.90625 50.40625 3.75 57 3 C 64.953125 2.09375 68.703125 0.15625 70.5 -7.5 C 71.859375 -14.40625 71.859375 -21.453125 71.25 -28.359375 C 70.953125 -31.203125 69 -34.65625 65.703125 -34.65625 Z M 65.703125 -34.65625 "/></g></g></g><g fill="#ffffff" fill-opacity="1"><g transform="translate(8.333569, 139.408219)"><g><path d="M 63.15625 -108.609375 C 62.109375 -109.359375 60.90625 -110.109375 60 -111.015625 C 57 -113.265625 53.703125 -114.46875 50.25 -114.90625 C 43.796875 -115.65625 37.5 -115.8125 31.046875 -115.8125 C 28.65625 -115.8125 26.25 -115.8125 23.859375 -115.8125 C 23.40625 -115.8125 22.953125 -115.8125 22.5 -115.8125 C 18 -115.65625 13.5 -115.515625 9 -115.359375 C 2.25 -114.90625 0.296875 -113.109375 0.296875 -106.0625 C 0.296875 -104.859375 0.15625 -103.515625 0.15625 -102.15625 C 0.15625 -99.15625 0 -96.015625 1.046875 -93.15625 C 1.203125 -92.40625 1.5 -91.65625 2.09375 -91.203125 C 2.84375 -90.765625 3.75 -90.609375 4.65625 -90.453125 C 5.40625 -90.453125 6 -90.453125 6.59375 -90.453125 C 6.59375 -87.90625 6.59375 -85.515625 6.59375 -82.953125 C 6.453125 -81.015625 6.453125 -78.90625 6.296875 -76.8125 C 5.40625 -66.90625 4.65625 -57 4.796875 -46.953125 C 5.09375 -33.15625 4.65625 -19.203125 4.65625 -5.25 C 4.65625 5.25 8.84375 5.546875 17.703125 5.546875 C 21.75 5.546875 26.109375 4.34375 28.796875 1.203125 C 33.75 -4.796875 31.203125 -15.75 31.046875 -22.796875 C 31.046875 -24.75 31.203125 -26.703125 31.203125 -28.5 C 31.203125 -32.25 31.203125 -36 31.203125 -39.609375 C 31.203125 -40.203125 31.359375 -40.796875 31.5 -41.40625 C 32.25 -41.546875 33 -41.703125 33.75 -41.703125 C 36.453125 -42 39.15625 -42 41.703125 -42.15625 C 45.453125 -42.609375 49.359375 -42.90625 53.109375 -43.65625 C 59.25 -44.859375 63.75 -50.25 64.359375 -56.5625 C 64.65625 -60 65.109375 -63.3125 65.40625 -66.75 C 65.859375 -72.15625 66.3125 -77.703125 66.3125 -83.265625 C 66.609375 -89.859375 65.859375 -96.3125 65.109375 -102.90625 C 64.953125 -105.015625 64.359375 -106.96875 63.15625 -108.609375 Z M 46.0625 -72 C 45.453125 -68.25 44.25 -66.15625 40.203125 -65.5625 C 38.109375 -65.109375 35.703125 -64.953125 33.453125 -64.953125 C 30.609375 -65.109375 29.25 -66.90625 29.40625 -69.75 C 29.703125 -74.859375 29.546875 -79.953125 29.703125 -85.0625 C 30.296875 -90.609375 31.796875 -91.65625 37.65625 -91.65625 C 38.109375 -91.65625 38.703125 -91.65625 39.15625 -91.65625 C 42.15625 -91.65625 45 -91.0625 46.203125 -87.609375 C 46.5 -86.40625 46.5 -85.0625 46.65625 -83.703125 C 46.65625 -83.703125 46.65625 -83.5625 46.65625 -83.40625 C 46.65625 -79.65625 46.65625 -75.765625 46.0625 -72 Z M 46.0625 -72 "/></g></g></g><g fill="#ffffff" fill-opacity="1"><g transform="translate(69.38993, 139.408219)"><g><path d="M 65.703125 -34.65625 C 60.75 -34.65625 55.953125 -34.5 51.15625 -33.609375 C 49.65625 -33.15625 48.609375 -32.546875 48.15625 -31.953125 C 47.703125 -30.453125 47.703125 -28.953125 47.5625 -27.453125 C 47.40625 -26.25 47.109375 -24.75 46.0625 -24 C 44.703125 -22.65625 40.65625 -22.65625 38.859375 -22.65625 C 34.65625 -22.65625 28.046875 -22.796875 28.046875 -28.5 C 27.90625 -33.15625 28.046875 -37.796875 28.046875 -42.296875 C 28.046875 -42.75 28.203125 -43.046875 28.359375 -43.359375 C 29.859375 -43.5 31.203125 -43.796875 32.546875 -43.953125 C 33.75 -44.109375 34.796875 -44.109375 35.859375 -44.109375 C 36.90625 -44.109375 37.953125 -44.109375 39 -44.109375 C 40.5 -44.25 42.15625 -44.40625 43.65625 -44.859375 C 45.75 -45.453125 47.109375 -46.953125 47.40625 -49.203125 C 47.703125 -51 47.859375 -52.953125 47.859375 -54.75 C 47.703125 -58.0625 47.25 -61.203125 47.109375 -64.5 C 47.109375 -69 43.359375 -71.703125 39.15625 -71.703125 C 35.109375 -71.5625 31.203125 -71.40625 27.15625 -71.40625 C 27.296875 -75.453125 27.296875 -79.359375 27.453125 -83.265625 C 27.453125 -84.453125 28.046875 -85.65625 28.359375 -86.703125 C 30.90625 -87.765625 33.453125 -88.203125 35.859375 -88.203125 C 37.203125 -88.203125 38.40625 -88.0625 39.75 -87.90625 C 40.203125 -85.515625 40.65625 -83.265625 40.796875 -80.859375 C 41.109375 -78.15625 42.296875 -76.203125 44.703125 -75 C 48.15625 -75.15625 51.453125 -75.15625 54.75 -75.3125 C 56.109375 -75.453125 57.3125 -76.0625 58.65625 -76.203125 C 60.90625 -76.65625 62.5625 -77.703125 63.90625 -79.515625 C 64.0625 -79.953125 64.0625 -80.5625 64.0625 -81.015625 C 64.203125 -86.703125 64.203125 -92.40625 64.359375 -98.109375 C 64.359375 -99.3125 64.5 -100.359375 64.65625 -101.5625 C 65.109375 -103.515625 65.25 -105.46875 64.65625 -107.265625 C 64.0625 -108.90625 63.15625 -110.5625 62.5625 -112.21875 C 60.90625 -116.859375 53.703125 -117.3125 49.5 -117.3125 C 42.296875 -117.3125 34.953125 -117.15625 27.609375 -117.015625 C 22.359375 -117.015625 9.296875 -116.71875 6.296875 -111.46875 C 3.453125 -106.65625 3.453125 -95.859375 3.453125 -90.453125 C 3.296875 -86.265625 3.296875 -81.90625 3 -77.703125 C 2.703125 -71.859375 2.09375 -66 1.796875 -60.15625 C 1.65625 -52.65625 1.65625 -45.15625 1.203125 -37.796875 C 0.90625 -29.859375 0.453125 -21.90625 0.15625 -14.09375 C 0 -10.953125 -0.15625 -7.65625 1.046875 -4.796875 C 4.5 4.046875 22.359375 4.046875 30.296875 4.046875 C 36.90625 3.90625 50.40625 3.75 57 3 C 64.953125 2.09375 68.703125 0.15625 70.5 -7.5 C 71.859375 -14.40625 71.859375 -21.453125 71.25 -28.359375 C 70.953125 -31.203125 69 -34.65625 65.703125 -34.65625 Z M 65.703125 -34.65625 "/></g></g></g><g fill="#ffffff" fill-opacity="1"><g transform="translate(135.696873, 139.408219)"><g><path d="M 63.15625 -108.609375 C 62.109375 -109.359375 60.90625 -110.109375 60 -111.015625 C 57 -113.265625 53.703125 -114.46875 50.25 -114.90625 C 43.796875 -115.65625 37.5 -115.8125 31.046875 -115.8125 C 28.65625 -115.8125 26.25 -115.8125 23.859375 -115.8125 C 23.40625 -115.8125 22.953125 -115.8125 22.5 -115.8125 C 18 -115.65625 13.5 -115.515625 9 -115.359375 C 2.25 -114.90625 0.296875 -113.109375 0.296875 -106.0625 C 0.296875 -104.859375 0.15625 -103.515625 0.15625 -102.15625 C 0.15625 -99.15625 0 -96.015625 1.046875 -93.15625 C 1.203125 -92.40625 1.5 -91.65625 2.09375 -91.203125 C 2.84375 -90.765625 3.75 -90.609375 4.65625 -90.453125 C 5.40625 -90.453125 6 -90.453125 6.59375 -90.453125 C 6.59375 -87.90625 6.59375 -85.515625 6.59375 -82.953125 C 6.453125 -81.015625 6.453125 -78.90625 6.296875 -76.8125 C 5.40625 -66.90625 4.65625 -57 4.796875 -46.953125 C 5.09375 -33.15625 4.65625 -19.203125 4.65625 -5.25 C 4.65625 5.25 8.84375 5.546875 17.703125 5.546875 C 21.75 5.546875 26.109375 4.34375 28.796875 1.203125 C 33.75 -4.796875 31.203125 -15.75 31.046875 -22.796875 C 31.046875 -24.75 31.203125 -26.703125 31.203125 -28.5 C 31.203125 -32.25 31.203125 -36 31.203125 -39.609375 C 31.203125 -40.203125 31.359375 -40.796875 31.5 -41.40625 C 32.25 -41.546875 33 -41.703125 33.75 -41.703125 C 36.453125 -42 39.15625 -42 41.703125 -42.15625 C 45.453125 -42.609375 49.359375 -42.90625 53.109375 -43.65625 C 59.25 -44.859375 63.75 -50.25 64.359375 -56.5625 C 64.65625 -60 65.109375 -63.3125 65.40625 -66.75 C 65.859375 -72.15625 66.3125 -77.703125 66.3125 -83.265625 C 66.609375 -89.859375 65.859375 -96.3125 65.109375 -102.90625 C 64.953125 -105.015625 64.359375 -106.96875 63.15625 -108.609375 Z M 46.0625 -72 C 45.453125 -68.25 44.25 -66.15625 40.203125 -65.5625 C 38.109375 -65.109375 35.703125 -64.953125 33.453125 -64.953125 C 30.609375 -65.109375 29.25 -66.90625 29.40625 -69.75 C 29.703125 -74.859375 29.546875 -79.953125 29.703125 -85.0625 C 30.296875 -90.609375 31.796875 -91.65625 37.65625 -91.65625 C 38.109375 -91.65625 38.703125 -91.65625 39.15625 -91.65625 C 42.15625 -91.65625 45 -91.0625 46.203125 -87.609375 C 46.5 -86.40625 46.5 -85.0625 46.65625 -83.703125 C 46.65625 -83.703125 46.65625 -83.5625 46.65625 -83.40625 C 46.65625 -79.65625 46.65625 -75.765625 46.0625 -72 Z M 46.0625 -72 "/></g></g></g><g fill="#ffffff" fill-opacity="1"><g transform="translate(196.753234, 139.408219)"><g/></g></g><g fill="#ffffff" fill-opacity="1"><g transform="translate(218.205192, 139.408219)"><g><path d="M 50.703125 -116.40625 C 49.953125 -116.40625 49.0625 -116.40625 48.3125 -116.40625 C 42 -116.40625 35.703125 -116.71875 29.40625 -116.71875 C 26.25 -116.71875 23.25 -116.71875 20.109375 -116.40625 C 16.796875 -116.265625 9 -115.21875 7.34375 -111.609375 C 6.75 -110.265625 6.15625 -108.90625 5.84375 -107.5625 C 3.453125 -95.109375 3.296875 -81.765625 4.796875 -69.15625 C 5.25 -65.109375 6.15625 -63.75 9.453125 -61.203125 C 16.796875 -55.203125 24.15625 -49.0625 31.5 -43.046875 C 33.453125 -41.546875 35.40625 -39.90625 36.609375 -37.65625 C 38.703125 -34.046875 38.25 -29.546875 37.796875 -25.203125 C 37.65625 -24.453125 37.5 -23.40625 36.90625 -22.953125 C 36.453125 -22.65625 35.859375 -22.5 35.40625 -22.359375 C 34.796875 -22.203125 31.796875 -21.609375 29.40625 -21.609375 C 27.75 -21.609375 26.546875 -21.90625 26.546875 -22.953125 C 25.203125 -25.796875 25.796875 -29.40625 25.796875 -32.40625 C 25.65625 -33.90625 25.5 -35.546875 24.453125 -36.75 C 23.109375 -38.109375 21 -38.25 19.203125 -38.40625 C 17.25 -38.40625 15.453125 -38.546875 13.5 -38.546875 C 12.75 -38.546875 12.15625 -38.546875 11.40625 -38.546875 C 3 -38.546875 1.203125 -35.25 0.453125 -27.453125 C 0.15625 -21.15625 0 -14.84375 0.296875 -8.703125 C 0.59375 -4.34375 0.90625 -1.953125 4.65625 0.75 C 6.15625 1.796875 7.796875 3 9.59375 3.59375 C 11.40625 4.203125 13.203125 3.90625 15.15625 4.203125 C 16.953125 4.34375 18.75 4.5 20.703125 4.65625 C 24.15625 4.953125 27.609375 5.40625 31.046875 5.40625 C 33.75 5.40625 36.453125 5.25 39.15625 5.09375 C 43.359375 4.953125 47.5625 4.796875 51.75 4.65625 C 55.203125 4.5 62.25 2.703125 62.703125 -1.65625 C 63.15625 -4.65625 63.75 -7.5 63.75 -10.34375 C 64.0625 -16.953125 64.0625 -23.546875 64.0625 -30.296875 C 63.90625 -35.109375 63.75 -40.046875 63.453125 -45 C 63.15625 -46.953125 63 -49.0625 61.953125 -50.859375 C 61.359375 -52.0625 60.453125 -53.109375 59.40625 -54.15625 C 51.453125 -62.109375 41.109375 -67.0625 32.703125 -74.5625 C 31.203125 -75.90625 29.703125 -77.40625 28.953125 -79.359375 C 28.046875 -81.15625 27.75 -83.40625 28.65625 -85.203125 C 29.546875 -87.15625 32.109375 -87.3125 34.5 -87.3125 C 35.109375 -87.3125 35.859375 -87.3125 36.296875 -87.3125 C 36.75 -87.3125 37.046875 -87.3125 37.359375 -87.3125 C 37.65625 -87.3125 38.109375 -87.3125 38.546875 -87.015625 C 38.859375 -86.859375 39 -86.5625 39.15625 -86.265625 C 39.75 -84.609375 39.453125 -82.8125 39.453125 -81.015625 C 39.453125 -76.953125 40.953125 -76.359375 44.25 -75.90625 C 47.859375 -75.90625 51.609375 -75.765625 55.203125 -75.765625 C 55.8125 -75.765625 56.40625 -75.765625 57 -75.765625 C 58.8125 -75.765625 60.453125 -75.90625 61.953125 -76.953125 C 66 -79.8125 64.8125 -85.359375 64.953125 -89.5625 C 65.109375 -90.015625 65.109375 -90.453125 65.109375 -90.90625 C 65.109375 -95.109375 64.953125 -99.15625 65.109375 -103.359375 C 65.25 -105.90625 65.109375 -108.46875 63.90625 -111.015625 C 61.359375 -115.8125 55.65625 -116.40625 50.703125 -116.40625 Z M 50.703125 -116.40625 "/></g></g></g><g fill="#ffffff" fill-opacity="1"><g transform="translate(278.061424, 139.408219)"><g><path d="M 76.8125 -74.5625 C 76.65625 -83.40625 76.359375 -92.265625 76.203125 -101.109375 C 76.203125 -102.3125 76.515625 -103.359375 76.515625 -104.5625 C 76.65625 -108.765625 77.5625 -113.109375 73.8125 -117.15625 C 73.0625 -117.3125 71.703125 -117.90625 70.5 -117.90625 C 66.609375 -118.0625 62.703125 -118.21875 58.8125 -118.21875 C 56.40625 -118.21875 54.453125 -117.015625 52.953125 -115.515625 C 48.453125 -111.3125 44.25 -106.96875 40.796875 -102.015625 C 40.359375 -101.40625 39.90625 -100.953125 39.296875 -100.359375 C 39 -100.8125 38.859375 -100.8125 38.703125 -101.109375 C 36.15625 -106.21875 31.953125 -110.109375 28.359375 -114.609375 C 26.546875 -117.015625 24.75 -117.3125 21.90625 -117.3125 C 21.609375 -117.3125 21.296875 -117.3125 21 -117.3125 C 17.40625 -117.3125 13.796875 -117.46875 10.046875 -117.46875 C 7.65625 -117.46875 6 -116.109375 5.25 -114.015625 C 4.5 -112.359375 3.90625 -110.71875 3.75 -108.90625 C 3.15625 -104.859375 2.84375 -100.65625 2.546875 -96.453125 C 2.09375 -89.40625 1.796875 -82.359375 1.5 -75.453125 C 1.046875 -67.8125 0.15625 -60.15625 0.15625 -52.5 C 0.15625 -36.453125 0 -20.40625 1.203125 -4.5 C 1.796875 3 8.40625 4.953125 14.703125 5.703125 C 15.296875 5.84375 15.75 5.84375 16.359375 5.84375 C 19.046875 5.84375 25.796875 4.34375 26.546875 1.203125 C 26.703125 0.15625 26.859375 -0.90625 26.859375 -1.953125 C 27.296875 -9.453125 27.609375 -17.109375 27.90625 -24.609375 C 28.046875 -30.15625 28.5 -35.703125 28.5 -41.25 C 28.65625 -51.15625 28.5 -61.203125 28.359375 -71.109375 C 28.359375 -72.90625 28.359375 -74.859375 28.203125 -76.65625 C 28.5 -76.8125 28.65625 -76.8125 28.796875 -76.8125 C 29.703125 -75.3125 30.609375 -73.8125 31.65625 -72.3125 C 32.546875 -70.65625 33.609375 -69 34.796875 -67.5 C 35.859375 -66.15625 37.203125 -65.40625 38.546875 -65.40625 C 39.90625 -65.40625 41.25 -66.15625 42.453125 -67.65625 C 44.546875 -70.359375 46.65625 -73.0625 48.90625 -75.765625 C 49.203125 -76.203125 49.5 -76.359375 50.109375 -76.953125 C 49.8125 -74.109375 49.5 -71.703125 49.359375 -69.3125 C 49.0625 -60.3125 48.609375 -51.3125 48.75 -42.296875 C 48.75 -32.40625 49.203125 -22.5 48.90625 -12.75 C 48.75 -3.75 49.0625 5.09375 49.359375 14.09375 C 49.359375 15.296875 49.5 16.65625 49.8125 17.859375 C 51.453125 22.5 57.15625 24.15625 61.65625 24.15625 C 63 24.15625 64.359375 24 65.5625 23.546875 C 67.5 22.953125 70.203125 22.203125 71.703125 20.859375 C 73.8125 19.046875 73.953125 15.90625 74.5625 13.34375 C 75.453125 9.75 75.453125 5.84375 75.609375 2.09375 C 75.90625 -5.546875 75.609375 -13.203125 76.0625 -20.859375 C 76.359375 -28.953125 77.109375 -37.046875 77.265625 -45.15625 C 77.265625 -54.90625 76.953125 -64.65625 76.8125 -74.5625 Z M 76.8125 -74.5625 "/></g></g></g><g fill="#ffffff" fill-opacity="1"><g transform="translate(349.918992, 139.408219)"><g><path d="M 63.3125 -40.5 C 63.3125 -41.109375 63.3125 -41.859375 63 -42.609375 C 61.953125 -46.953125 62.40625 -51.3125 62.5625 -55.5 C 62.703125 -60.15625 63 -64.65625 63.15625 -69.15625 C 63.3125 -76.515625 63.15625 -83.859375 62.859375 -91.203125 C 62.25 -109.515625 58.65625 -118.515625 39.609375 -118.515625 C 34.203125 -118.515625 28.796875 -118.515625 23.25 -118.0625 C 18.90625 -117.765625 14.25 -117.15625 10.5 -115.0625 C 6.296875 -112.515625 3.296875 -104.703125 2.84375 -99.765625 C 2.40625 -89.859375 2.09375 -79.8125 1.203125 -69.90625 C 0.296875 -60.609375 0 -51.15625 0 -41.859375 C 0 -34.65625 0.15625 -27.453125 0.15625 -20.25 C 0.15625 -16.953125 0.15625 -13.65625 0.59375 -10.5 C 2.546875 1.796875 10.203125 2.703125 20.546875 2.703125 C 23.546875 2.703125 26.40625 2.546875 29.40625 2.40625 C 34.796875 2.09375 40.359375 1.953125 45.75 1.65625 C 47.40625 1.5 49.0625 1.5 50.703125 0.90625 C 56.703125 -0.75 60.15625 -6.90625 61.65625 -12.90625 C 64.0625 -21.90625 63 -31.359375 63.3125 -40.5 Z M 39.15625 -33.90625 C 39.15625 -32.703125 38.859375 -31.359375 38.859375 -30.15625 C 39 -27.75 37.5 -26.40625 35.40625 -25.65625 C 34.046875 -25.203125 32.546875 -24.90625 31.046875 -24.453125 C 30.453125 -24.609375 29.859375 -24.75 29.25 -25.046875 C 27.453125 -25.953125 26.25 -27.15625 26.40625 -29.25 C 26.40625 -32.546875 26.40625 -35.703125 26.40625 -38.859375 C 26.546875 -45 26.859375 -51.3125 26.859375 -57.453125 C 26.859375 -61.203125 26.109375 -64.953125 26.109375 -68.703125 C 25.953125 -73.203125 26.109375 -77.859375 26.25 -82.515625 C 26.25 -84.90625 28.796875 -87.15625 31.65625 -87.3125 C 33.90625 -87.3125 35.109375 -87.15625 36.609375 -85.359375 C 36.90625 -83.40625 37.65625 -81.015625 37.796875 -78.453125 C 38.546875 -68.25 39.296875 -57.90625 39.296875 -47.703125 C 39.296875 -43.203125 39.296875 -38.546875 39.15625 -33.90625 Z M 39.15625 -33.90625 "/></g></g></g><g fill="#ffffff" fill-opacity="1"><g transform="translate(407.824997, 139.408219)"><g><path d="M 81.3125 10.34375 C 77.265625 2.09375 73.65625 -6.453125 68.859375 -14.25 C 65.859375 -19.046875 63.15625 -24 60.90625 -29.109375 C 59.25 -33 57.453125 -36.75 55.65625 -40.5 C 54.609375 -42.296875 53.25 -43.953125 52.359375 -45.75 C 49.203125 -51.3125 46.203125 -56.859375 43.046875 -62.703125 C 44.40625 -64.203125 45.609375 -66.15625 46.953125 -67.8125 C 50.40625 -71.703125 53.25 -75.765625 55.8125 -80.265625 C 57.453125 -83.109375 59.40625 -85.8125 61.359375 -88.359375 C 63.609375 -91.0625 65.40625 -93.765625 67.0625 -96.765625 C 69.3125 -100.515625 71.703125 -103.953125 73.953125 -107.71875 C 74.40625 -108.46875 75 -109.359375 75.453125 -110.265625 C 76.65625 -113.265625 75.3125 -115.96875 72.15625 -116.40625 C 69.3125 -116.71875 66.453125 -117.015625 63.609375 -117.015625 C 62.40625 -117.015625 61.203125 -117.015625 60 -116.859375 C 58.203125 -116.71875 56.40625 -116.5625 54.609375 -116.5625 C 51.3125 -116.5625 49.0625 -114.765625 47.40625 -111.90625 C 46.65625 -110.40625 45.609375 -109.0625 44.546875 -107.71875 C 42.609375 -105.015625 40.65625 -102.453125 38.703125 -99.90625 C 37.65625 -98.265625 36.453125 -96.765625 35.40625 -95.265625 C 33.453125 -92.703125 31.5 -90.3125 29.546875 -87.765625 C 28.5 -86.40625 27.609375 -84.90625 26.546875 -83.40625 C 26.25 -83.109375 26.40625 -85.0625 26.40625 -85.0625 C 26.40625 -85.953125 26.703125 -87.015625 26.859375 -88.0625 C 27.296875 -94.65625 27.75 -100.953125 27.75 -107.5625 C 27.75 -114.15625 25.359375 -117.015625 18.75 -117.765625 C 18 -117.90625 17.25 -117.90625 16.359375 -117.90625 C 14.703125 -117.90625 13.046875 -117.765625 11.40625 -117.765625 C 10.953125 -117.765625 10.5 -117.765625 10.046875 -117.765625 C 4.953125 -117.765625 3.15625 -115.65625 2.703125 -110.859375 C 0.75 -91.359375 0.75 -72 0.296875 -52.5 C 0 -36.453125 -0.296875 -20.40625 0.59375 -4.34375 C 1.203125 2.84375 7.5 6 13.953125 6 C 14.703125 6 15.453125 5.84375 16.203125 5.84375 C 18.15625 5.703125 19.953125 5.25 21.75 5.09375 C 24 4.65625 25.5 3.453125 26.109375 1.203125 C 27 -0.90625 27 -8.84375 27 -11.25 C 27 -18.296875 26.859375 -25.203125 26.859375 -32.109375 C 26.859375 -32.703125 26.859375 -33.296875 26.859375 -33.90625 C 29.859375 -31.046875 31.203125 -27 33 -23.40625 C 38.859375 -12 44.703125 -1.046875 51.453125 9.75 C 53.109375 12.296875 59.5625 22.65625 61.8125 23.859375 C 63.15625 24.609375 64.8125 24.90625 66.453125 24.90625 C 67.953125 25.046875 69.3125 25.046875 70.8125 25.046875 C 74.703125 25.046875 78.453125 24.609375 82.359375 24 C 83.5625 23.703125 84.90625 23.25 85.359375 22.046875 C 85.515625 21.453125 85.359375 20.859375 85.203125 20.109375 C 84.3125 16.65625 82.8125 13.5 81.3125 10.34375 Z M 81.3125 10.34375 "/></g></g></g><g fill="#ffffff" fill-opacity="1"><g transform="translate(487.93348, 139.408219)"><g><path d="M 65.703125 -34.65625 C 60.75 -34.65625 55.953125 -34.5 51.15625 -33.609375 C 49.65625 -33.15625 48.609375 -32.546875 48.15625 -31.953125 C 47.703125 -30.453125 47.703125 -28.953125 47.5625 -27.453125 C 47.40625 -26.25 47.109375 -24.75 46.0625 -24 C 44.703125 -22.65625 40.65625 -22.65625 38.859375 -22.65625 C 34.65625 -22.65625 28.046875 -22.796875 28.046875 -28.5 C 27.90625 -33.15625 28.046875 -37.796875 28.046875 -42.296875 C 28.046875 -42.75 28.203125 -43.046875 28.359375 -43.359375 C 29.859375 -43.5 31.203125 -43.796875 32.546875 -43.953125 C 33.75 -44.109375 34.796875 -44.109375 35.859375 -44.109375 C 36.90625 -44.109375 37.953125 -44.109375 39 -44.109375 C 40.5 -44.25 42.15625 -44.40625 43.65625 -44.859375 C 45.75 -45.453125 47.109375 -46.953125 47.40625 -49.203125 C 47.703125 -51 47.859375 -52.953125 47.859375 -54.75 C 47.703125 -58.0625 47.25 -61.203125 47.109375 -64.5 C 47.109375 -69 43.359375 -71.703125 39.15625 -71.703125 C 35.109375 -71.5625 31.203125 -71.40625 27.15625 -71.40625 C 27.296875 -75.453125 27.296875 -79.359375 27.453125 -83.265625 C 27.453125 -84.453125 28.046875 -85.65625 28.359375 -86.703125 C 30.90625 -87.765625 33.453125 -88.203125 35.859375 -88.203125 C 37.203125 -88.203125 38.40625 -88.0625 39.75 -87.90625 C 40.203125 -85.515625 40.65625 -83.265625 40.796875 -80.859375 C 41.109375 -78.15625 42.296875 -76.203125 44.703125 -75 C 48.15625 -75.15625 51.453125 -75.15625 54.75 -75.3125 C 56.109375 -75.453125 57.3125 -76.0625 58.65625 -76.203125 C 60.90625 -76.65625 62.5625 -77.703125 63.90625 -79.515625 C 64.0625 -79.953125 64.0625 -80.5625 64.0625 -81.015625 C 64.203125 -86.703125 64.203125 -92.40625 64.359375 -98.109375 C 64.359375 -99.3125 64.5 -100.359375 64.65625 -101.5625 C 65.109375 -103.515625 65.25 -105.46875 64.65625 -107.265625 C 64.0625 -108.90625 63.15625 -110.5625 62.5625 -112.21875 C 60.90625 -116.859375 53.703125 -117.3125 49.5 -117.3125 C 42.296875 -117.3125 34.953125 -117.15625 27.609375 -117.015625 C 22.359375 -117.015625 9.296875 -116.71875 6.296875 -111.46875 C 3.453125 -106.65625 3.453125 -95.859375 3.453125 -90.453125 C 3.296875 -86.265625 3.296875 -81.90625 3 -77.703125 C 2.703125 -71.859375 2.09375 -66 1.796875 -60.15625 C 1.65625 -52.65625 1.65625 -45.15625 1.203125 -37.796875 C 0.90625 -29.859375 0.453125 -21.90625 0.15625 -14.09375 C 0 -10.953125 -0.15625 -7.65625 1.046875 -4.796875 C 4.5 4.046875 22.359375 4.046875 30.296875 4.046875 C 36.90625 3.90625 50.40625 3.75 57 3 C 64.953125 2.09375 68.703125 0.15625 70.5 -7.5 C 71.859375 -14.40625 71.859375 -21.453125 71.25 -28.359375 C 70.953125 -31.203125 69 -34.65625 65.703125 -34.65625 Z M 65.703125 -34.65625 "/></g></g></g></svg>