<svg width="334" height="334" viewBox="0 0 334 334" fill="none" xmlns="http://www.w3.org/2000/svg">
<g clip-path="url(#clip0_107_5139)">
<path d="M333.96 166.96C333.96 170.85 333.82 174.74 333.54 178.56C332.58 192.88 329.79 206.68 325.44 219.8V219.84C325.4 219.98 325.33 220.16 325.26 220.3C323.28 226.17 320.98 231.9 318.36 237.49C313.37 248.24 307.22 258.39 300.15 267.73C296.15 273.03 291.84 278.06 287.24 282.83C272.39 298.25 254.6 310.8 234.79 319.61C222.77 324.99 210 328.95 196.7 331.32C187.05 333.05 177.11 333.97 166.96 333.97C129.93 333.97 95.7 321.88 68.01 301.47C47.32 286.23 30.27 266.32 18.39 243.29C16.27 239.15 14.32 234.91 12.55 230.56C4.46 210.96 0 189.49 0 166.96C0 165.47 0.04 164.02 0.07 162.54C0.07 161.37 0.14 160.17 0.18 159C0.22 158.4 0.25 157.76 0.29 157.16C0.43 154.58 0.64 152.03 0.93 149.49C1.07 148.04 1.25 146.55 1.43 145.1C1.64 143.72 1.82 142.31 2.03 140.96C2.28 139.55 2.49 138.13 2.77 136.72C3.16 134.39 3.65 132.12 4.18 129.82C4.5 128.37 4.85 126.96 5.21 125.51C6.48 120.56 7.97 115.68 9.67 110.9C9.92 110.19 10.17 109.52 10.41 108.85C10.73 107.97 11.08 107.08 11.44 106.2C11.94 104.89 12.47 103.62 13 102.35C13.53 101.08 14.06 99.84 14.63 98.6C17.99 91.1 21.92 83.92 26.3 77.06C26.79 76.28 27.29 75.5 27.82 74.76C28.49 73.73 29.16 72.71 29.87 71.72C33.34 66.73 37.05 61.96 41.05 57.4C41.05 57.36 41.09 57.36 41.09 57.33C55.02 41.34 71.96 28.01 90.99 18.29C105.56 10.79 121.37 5.42001 138.03 2.52001C147.44 0.86001 157.13 0.0100098 166.99 0.0100098C192.95 0.0100098 217.49 5.92001 239.38 16.49C242.67 18.05 245.89 19.71 249.03 21.51C249.35 21.69 249.7 21.86 250.02 22.04C250.13 22.11 250.27 22.18 250.37 22.25C258.43 26.92 266.04 32.19 273.18 38.09C283.93 46.97 293.55 57.15 301.76 68.4C306.04 74.24 309.96 80.39 313.47 86.79C318 94.96 321.82 103.59 324.89 112.54C325.07 113.07 325.24 113.6 325.46 114.13C325.64 114.66 325.81 115.23 325.99 115.76C329.35 126.19 331.68 137.09 332.96 148.3C333.28 151.34 333.56 154.42 333.7 157.53C333.88 160.64 333.98 163.79 333.98 166.97L333.96 166.96Z" fill="url(#paint0_radial_107_5139)"/>
<g style="mix-blend-mode:multiply" opacity="0.2">
<path d="M333.96 166.96C333.96 170.85 333.82 174.74 333.54 178.56C333.04 180.4 332.23 182.17 330.85 183.55C328.76 185.71 325.16 186.98 322.26 187.62C317.66 188.65 312.89 189.11 308.22 189.78C302.49 190.56 296.97 191.76 291.49 193.64C281.2 197.14 271.12 201.28 261.32 206.12C251.03 211.18 240.45 215.78 229.53 219.35C223.69 221.26 217.65 222.46 211.78 224.3C209.02 225.15 206.23 225.79 203.43 226.46C199.58 227.38 195.86 228.62 192.04 229.5C187.09 230.63 182.31 232.29 177.36 233.32C171.77 234.49 166.29 236.54 160.67 237.39C156.18 238.06 151.79 238.45 147.23 238.13C145.28 237.99 143.34 237.71 141.39 237.6C138.77 237.42 136.12 237.46 133.5 237.28C129.72 237 125.93 237.35 122.18 237.85C117.87 238.45 113.73 238.66 109.38 238.13C105.28 237.63 101.1 236.29 97.14 235.16C92.97 233.99 88.44 233.21 84.13 233.21C82.43 233.21 80.73 233.53 79.07 233.67C77.3 233.85 75.53 233.92 73.77 234.09C71.22 234.37 68.36 234.34 65.81 234.13C61.67 233.85 57.68 232.36 53.86 230.81C49.69 229.15 45.23 227.59 40.77 226.88C36.74 226.24 32.78 224.76 28.64 225.64C27.97 225.78 27.33 225.75 26.62 225.82C25.74 225.93 24.89 226.28 24 226.39C22.83 226.57 21.95 226.53 20.92 227.13C20.42 227.41 20.04 227.87 19.58 228.23C19.12 228.58 18.77 229.04 18.24 229.33C17.5 229.75 16.68 229.86 15.91 230.18C14.81 230.6 13.68 230.71 12.55 230.57C4.46 210.96 0 189.49 0 166.96C0 165.47 0.04 164.02 0.07 162.54C0.07 161.37 0.14 160.17 0.18 159C0.22 158.4 0.25 157.76 0.29 157.16C0.43 154.58 0.64 152.03 0.93 149.49C1.07 148.04 1.25 146.55 1.43 145.1C1.64 143.72 1.82 142.31 2.03 140.96C2.28 139.55 2.49 138.13 2.77 136.72C3.16 134.39 3.65 132.12 4.18 129.82C4.5 128.37 4.85 126.96 5.21 125.51C6.48 120.56 7.97 115.68 9.67 110.9C9.92 110.19 10.17 109.52 10.41 108.85C10.73 107.97 11.08 107.08 11.44 106.2C11.94 104.89 12.47 103.62 13 102.35C13.53 101.08 14.06 99.84 14.63 98.6C17.99 91.1 21.92 83.92 26.3 77.06C26.79 76.28 27.29 75.5 27.82 74.76C28.49 73.73 29.16 72.71 29.87 71.72C33.34 66.73 37.05 61.96 41.05 57.4C39.6 60.76 37.8 64.37 38.65 68.08C38.9 69.18 39.15 70.06 39.64 71.12C39.71 71.26 39.78 71.4 39.82 71.54C41.2 69.49 42.54 67.4 44.03 65.39C45.9 62.81 47.67 60.05 49.69 57.57C51.35 55.45 53.37 53.54 55.17 51.56C55.81 50.89 57.4 48.8 58.46 48.91C58.81 50.04 57.75 51.6 57.29 52.55C56.62 54 55.52 55.24 54.96 56.76C54.78 57.29 54.5 58.28 55.28 58.25C55.42 58.25 56.06 57.72 56.2 57.65C57.12 57.01 57.93 56.27 58.82 55.6C60.09 54.61 61.51 53.8 62.82 52.81C64.55 51.47 66.36 50.19 68.12 48.88C72.97 45.41 77.88 41.81 83.01 38.77C88.42 35.52 93.97 32.76 99.67 30.11C102.68 28.73 105.61 27.25 108.69 25.97C110.95 25.02 113.43 24.41 115.83 23.81C117.85 23.31 119.97 23.31 122.05 23.1C123.78 22.92 125.52 22.75 127.25 22.75C128.77 22.79 130.26 22.47 131.78 22.47C132.7 22.47 133.51 22.68 134.4 22.89C134.65 22.93 135.57 23.03 135.74 23.31C136.55 24.58 132.91 24.34 132.38 24.58C130.22 25.61 128.63 27.83 126.86 29.35C125.3 30.73 123.68 31.93 122.19 33.42C120.78 34.83 118.94 36.18 118.19 38.09C117.94 38.8 117.52 39.82 117.94 40.53C118.47 41.38 119.53 41.17 120.31 41.03C122.61 40.57 124.84 39.86 127.1 39.16C129.93 38.28 132.79 37.46 135.59 36.4C138.03 35.48 140.36 34.74 143.02 34.38C145.57 34.06 148.11 33.53 150.66 33.21C152.18 33.03 153.63 32.79 155.15 32.82C156.42 32.82 157.59 32.43 158.86 32.47C161.16 32.51 159.46 34.98 158.33 35.65C154.62 37.81 150.94 40.25 146.62 41.1C141.85 42.05 136.89 42.83 132.26 44.42C128.97 45.59 125.58 46.58 122.32 47.85C120.55 48.56 118.82 49.3 117.09 50.04C114.61 51.1 112.28 52.45 109.8 53.54C105.95 55.24 102.59 57.75 99.08 60.12C95.83 62.31 92.78 64.75 89.67 67.12C86.88 69.24 84.37 71.47 81.92 74.02C79.73 76.21 77.71 78.79 76.47 81.62C75.2 84.59 73.61 88.09 73.53 91.35C73.49 93.86 74.91 96.9 77.03 98.32C79.47 99.95 82.51 101.54 85.48 101.5C87.64 101.46 89.69 101.5 91.81 101.08C94.85 100.51 97.72 99.31 100.86 99.13C104.22 98.95 107.51 98.6 110.9 98.95C114.83 99.34 118.33 100.22 121.97 101.81C125.4 103.37 128.48 105.91 131.62 108C136.08 110.94 139.93 114.65 143.75 118.29C145.87 120.31 147.75 122.53 150.01 124.37C151.78 125.86 153.62 127.27 155.49 128.54C159.73 131.44 164.72 133.35 169.67 134.59C173.6 135.58 178.19 136.29 182.12 135.12C185.09 134.27 187.78 132.72 190.75 131.94C192.48 131.48 194.53 131.44 196.3 131.83C199.16 132.43 201.89 132.68 204.86 132.64C206.31 132.6 207.72 132.43 209.21 132.32C210.73 132.18 212.07 132.53 213.56 132.89C214.59 133.14 216.07 133.74 214.76 134.83C213.31 136.03 210.34 135.64 208.57 135.64C205.42 135.64 202.27 135.53 199.16 136.03C198.06 136.21 194.81 136.67 194.6 138.15C194.35 140.06 199.02 139.99 199.94 139.85C202.8 139.46 205.67 139.21 208.53 139C212.07 138.75 215.6 139.64 219.07 139.99C222.57 140.34 225.97 141.4 229.5 141.62C231.06 141.73 232.44 141.34 233.96 141.02C236.4 140.49 238.66 139.82 241.03 139.08C244.92 137.88 248.7 136.46 252.7 135.61C256.34 134.87 259.53 134.94 263.17 135.65C264.87 135.97 266.64 136.22 268.37 136.46C270.07 136.71 271.84 136.64 273.53 136.85C278.38 137.42 283.54 135.65 287.89 133.84C293.16 131.61 298.11 128.57 303.59 126.87C307.06 125.77 310.63 125.21 314.24 124.89C315.09 124.78 316.01 124.43 316.86 124.64C317.32 124.75 317.67 125.06 318.1 125.17C319.23 125.52 319.44 124.75 319.83 123.86C320.22 123.05 320.82 122.34 321.07 121.46C321.32 120.61 321.53 119.73 321.81 118.88C322.13 117.85 322.09 116.86 322.45 115.87C322.7 115.34 324.22 112.58 324.85 112.51H324.96C325.35 112.65 325.38 113.5 325.42 114.1C325.42 114.28 325.46 114.42 325.46 114.52C325.53 114.94 325.67 115.37 325.96 115.72C329.32 126.15 331.65 137.05 332.93 148.26C331.66 147.84 330.38 147.41 329.11 147.09C327.24 146.59 325.29 146.38 323.38 146.03C321.61 145.71 319.88 145.25 318.11 145.04C314.4 144.62 310.47 145.61 307.08 146.91C305.35 147.58 303.65 148.15 302.02 149.07C300.46 149.88 298.94 150.7 297.35 151.4C295.69 152.11 294.03 152.78 292.29 153.38C289.67 154.26 287.27 155.61 284.65 156.53C280.62 157.94 276.69 160.03 272.55 161.02C268.7 161.97 264.95 162.86 260.99 163.07C257.59 163.28 254.16 162.36 250.73 162.82C249.39 163 248.11 163.46 246.77 163.7C245.64 163.88 244.54 164.41 243.37 164.44C241.53 164.55 239.76 164.62 237.92 164.79C234.91 165.11 231.94 165.39 228.94 165.43C226.71 165.43 224.38 165.68 222.18 165.96C220.09 166.24 218.01 166.35 215.92 166.67C213.94 166.95 211.78 167.48 209.94 168.37C209.41 168.62 208.07 169.22 208.17 169.96C208.24 170.53 208.98 170.81 209.41 170.99C210.86 171.59 212.45 171.49 214.01 171.49C215.32 171.49 216.59 171.35 217.9 171.21C219.7 171.03 221.51 171.28 223.28 171.07C229.12 170.4 234.67 171.25 240.36 172.48C243.83 173.22 247.4 173.51 250.93 172.98C255.81 172.27 260.48 170.75 265.32 169.97C273.84 168.59 282.33 167 290.75 165.3C294.82 164.52 298.71 163.14 302.77 162.44C304.57 162.09 306.38 161.77 308.22 161.41C310.7 160.91 313.24 160.81 315.75 160.46C319.5 159.93 323.07 158.62 326.82 158.16C329.12 157.88 331.38 157.59 333.65 157.49C333.83 160.6 333.93 163.75 333.93 166.93L333.96 166.96Z" fill="#470024"/>
</g>
<g style="mix-blend-mode:multiply" opacity="0.2">
<path d="M300.15 267.72C275.36 300.47 238.75 323.77 196.7 331.31C196.66 331.24 196.59 331.17 196.52 331.1C194.26 328.73 191.78 326.64 189.34 324.42C186.62 321.91 183.89 319.43 180.92 317.28C175.65 313.5 169.92 310.28 164.26 307.13C158.21 303.74 152.2 300.27 145.59 298.15C142.02 296.98 138.38 295.71 134.66 294.97C130.1 294.09 125.36 293.87 120.73 293.34C106.27 291.68 90.88 292.74 77.09 297.69C74.26 298.72 71.25 299.74 68.6 301.16C68.39 301.27 68.21 301.37 68 301.48C47.31 286.24 30.26 266.33 18.38 243.3C19.87 242.77 21.67 242.2 22.94 242.2C24.21 242.2 25.42 242.13 26.65 242.2C28.81 242.27 30.96 243.3 33.02 244C38.68 245.98 44.2 247.75 50.31 247.04C51.8 246.86 53.35 246.65 54.77 246.26C56.15 245.91 57.42 245.2 58.84 244.95C60.68 244.63 62.91 244.81 64.82 244.84C66.45 244.91 67.93 245.37 69.52 245.69C70.97 245.94 72.42 246.04 73.87 246.33C75.43 246.65 76.84 247.11 78.43 247.18C80.13 247.22 81.79 247 83.49 246.83C86.74 246.41 90 245.56 93.11 244.43C95.55 243.58 97.85 243.51 100.43 243.23C106.87 242.52 112.91 244.79 118.96 246.7C122.43 247.8 125.89 247.87 129.46 248.15C133.1 248.43 136.71 248.57 140.39 248.5C145.94 248.39 151.64 247.83 157.15 247.16C159.38 246.91 161.61 246.59 163.8 246.13C167.9 245.32 172.08 244.72 176.18 243.94C186.22 241.92 196.44 239.55 206.24 236.41C210.55 235.03 214.76 233.3 219.11 231.92C220.91 231.35 222.75 230.93 224.59 230.58C226.39 230.23 228.3 229.77 230.07 230.58C231.17 231.11 231.8 232.03 231.24 233.27C230.67 234.44 228.84 235.39 227.81 236.03C226.22 236.99 224.59 237.3 222.86 237.87C219.71 238.93 216.6 240.2 213.45 241.26C211.54 241.9 209.56 242.22 207.61 242.67C205.31 243.2 203.19 244.08 201 244.9C199.09 245.64 197.46 246.85 195.48 247.59C192.86 248.58 190.1 249.32 187.45 250.35C180.66 253 174.29 256.93 167.08 258.45C164.78 258.95 162.48 259.69 160.22 260.47C159.19 260.79 157.57 261.39 157.57 262.8C157.57 264.96 160.68 265.66 162.2 266.02C164.57 266.59 166.83 267.47 169.2 268.04C170.83 268.39 172.21 269.21 173.69 269.95C175.92 271.05 177.93 271.93 180.37 272.5C185.57 273.74 190.91 274.62 196.25 274.45C203.64 274.17 210.96 272.68 218.39 273.11C221.64 273.32 224.61 274.03 227.73 274.88C230.74 275.66 233.71 276.15 236.78 276.65C244.7 277.99 252.84 277.57 260.83 277.11C266.45 276.79 272.15 275.84 277.7 274.78C281.52 274.04 285.59 273.72 289.16 272.16C290.86 271.45 292.63 271.1 294.32 270.29C295.35 269.8 296.27 269.37 297.33 268.95C298.11 268.63 299.13 268.07 300.12 267.78L300.15 267.72Z" fill="#470024"/>
</g>
<g style="mix-blend-mode:multiply" opacity="0.2">
<path d="M325.44 219.83C323.39 225.88 321.05 231.75 318.37 237.48C318.23 237.55 318.12 237.62 317.98 237.69C316 238.72 314.12 240.06 312.53 241.62C311.29 242.82 309.77 243.71 308.25 244.52C307.22 245.01 306.31 245.69 305.28 246.18C304.15 246.71 303.09 247.42 302.03 248.02C300.26 249.08 298.74 250.46 297.18 251.8C296.61 252.29 296.15 252.86 295.55 253.36C295.09 253.71 294.6 254.03 294.17 254.42C293.29 255.23 292.44 256.08 291.48 256.82C289.57 258.38 287.24 259.61 285.04 260.71C283.55 261.45 282 261.84 280.44 262.34C278.71 262.87 277.01 263.33 275.28 263.75C273.55 264.21 271.89 264.78 270.19 265.31C268.35 265.91 266.44 266.23 264.5 266.51C261.49 266.93 258.49 266.83 255.48 267.5C253.92 267.82 252.4 268.31 250.81 268.67C249.29 268.99 247.8 269.52 246.25 269.73C243.56 270.08 240.98 270.08 238.26 269.66C237.34 269.52 236.42 269.55 235.5 269.52C234.9 269.48 234.3 269.34 233.7 269.34C233.31 269.34 232.99 269.34 232.64 269.3C230.16 268.91 227.51 269.23 225.04 269.44C222.49 269.69 219.91 269.83 217.37 269.97C216.1 270.08 214.86 270.01 213.62 269.86C212.17 269.72 210.68 269.86 209.23 269.97C206.08 270.18 202.83 269.93 199.68 269.51C199.79 267.56 200.53 267.03 200.99 266.33C201.24 265.94 201.27 265.66 201.7 265.41C202.2 265.09 202.73 264.99 203.26 264.77C203.65 264.59 203.97 264.42 204.39 264.31C205.27 264.06 206.19 263.96 207.08 263.81C208.03 263.63 209.02 263.39 210.02 263.31C211.15 263.24 212.32 263.42 213.45 263.45C214.41 263.49 215.4 263.56 216.35 263.63C218.19 263.74 220.06 264.02 221.83 264.48C223.56 264.98 225.3 265.54 227.1 265.97C232.62 267.28 238.17 269.4 243.9 268.16C244.61 268.02 245.28 267.95 245.95 267.77C247.22 267.49 248.35 266.92 249.63 266.64C252.85 265.93 256.17 265.4 259.32 264.34C260.77 263.84 262.22 263.31 263.6 262.64C264.91 261.97 266.08 261.08 267.42 260.48C268.76 259.88 270.04 259.17 271.42 258.57C272.69 258 274 257.44 275.31 256.87C278.39 255.56 281.43 254.01 284.36 252.34C287.15 250.75 289.66 248.87 292.28 246.96C295.32 244.73 298.15 242.19 301.26 240.06C303.49 238.54 305.86 237.23 308.23 235.96C309.64 235.18 311.55 234.55 312.62 233.27C313.89 231.75 314.74 229.84 315.8 228.18C316.93 226.41 318.38 224.96 320.08 223.76C320.89 223.16 321.78 222.66 322.59 222.03C323.51 221.29 324.5 220.54 325.45 219.8L325.44 219.83Z" fill="#470024"/>
</g>
<g style="mix-blend-mode:multiply" opacity="0.2">
<path d="M271.11 31.33C271.18 31.58 271.25 31.86 271.32 32.14C271 32.32 270.9 32.18 271.11 31.33Z" fill="#470024"/>
</g>
<g style="mix-blend-mode:multiply" opacity="0.2">
<path d="M313.45 86.79C309.95 90.26 305.42 93.09 301.32 94.78C295.06 97.36 288.16 96.69 281.62 97.43C280.38 97.57 279.43 98.21 278.26 98.38C277.09 98.56 275.86 98.17 274.69 98.31C271.72 98.63 269.24 99.26 266.17 99.23C262.17 99.23 258.6 100.15 254.61 100.15C250.93 100.15 245.17 101.21 241.7 99.97C242.05 98.24 247.18 97.42 248.74 96.79C252.1 95.38 255.28 94.92 258.85 94.81C260.9 94.74 262.63 94.03 264.65 93.86C266.45 93.68 268.19 94.07 269.99 93.72C271.9 93.33 277.13 92.27 276.57 89.41C276.46 88.88 274.87 87.04 274.48 86.69C273.67 85.95 272.25 85.42 271.12 85.17C268.89 84.67 267.41 84.85 269.56 82.52C270.94 81 272.53 78.45 269.35 77.75C266.8 77.18 264.51 78.35 262.17 78.78C260.97 78.99 259.84 78.6 258.6 78.92C257.43 79.2 256.23 80.02 255.06 80.3C253.54 80.69 252.05 80.34 250.53 80.72C248.83 81.11 247.7 81.32 245.86 81.36C239.85 81.54 233.59 85.29 227.54 83.87C225.06 83.3 222.69 82.77 220.22 82.24C216.58 81.46 212.33 82.74 208.8 83.19C204.24 83.79 199.71 84.25 195.11 84.96C192.49 85.38 189.13 86.69 186.52 85.67C187.55 84.61 190.09 84.47 191.51 84.08C195.33 83.09 199.33 82.35 203.18 81.6C207.32 80.79 211.67 80.29 215.84 79.8C218.6 79.45 221.43 79.98 224.12 79.52C231.58 78.28 239.47 76.94 246.61 74C253.47 71.17 258.7 65.19 263.97 59.96C266.66 57.24 269.95 54.55 271.5 50.94C272.28 49.07 273.06 46.66 273.59 44.72C274.16 42.77 273.8 40.44 273.17 38.11C289.51 51.58 303.23 68.1 313.45 86.81V86.79Z" fill="#470024"/>
</g>
<g style="mix-blend-mode:multiply" opacity="0.2">
<path d="M20.94 98.13C22.64 94.54 24.01 89.76 26.52 86.61C27.11 85.87 28.11 85.39 28.81 84.77C29.98 83.73 31.57 80.75 33.4 80.71C35.74 80.66 32.83 84.3 35.68 84.11C38.71 83.91 40.94 80.75 43.23 79.31C44.15 78.73 46.41 77.7 47.48 77.98C48.74 78.31 48.31 78.73 48.53 79.98C49.71 79.88 50.38 79.27 51.2 78.47C53.19 76.53 54.81 74.65 57.33 73.3C58.55 72.64 63.49 69.32 65.1 70.77C66.73 72.24 62.09 77.45 61.5 78.17C58.82 81.45 56.87 85.98 55.91 90.13C54.4 96.61 59.46 104.24 65.01 106.99C66.44 107.7 67.65 108.66 69 109.52C70.96 110.76 72.85 111.16 75.07 111.68C79.93 112.83 84.62 114.96 89.62 115.52C94.7 116.09 100.27 115.72 105.26 114.7C107.98 114.14 111.76 113.53 114.39 114.85C116.38 115.85 117.66 117.9 118.95 119.59C120.31 121.38 122.96 122.67 124.83 123.94C127.34 125.63 130.21 126.8 132.87 128.29C134.57 129.25 136.02 130.53 137.71 131.49C139.41 132.46 140.84 132.92 142.27 134.29C144.38 136.31 146.44 138.64 146.3 141.74C146.21 143.63 144.78 143.78 143.83 145.21C146.08 146.94 149.01 147.18 151.27 148.73C151.95 149.2 153.9 150.04 153.61 151.09C153.13 152.8 148.19 152.44 147.33 152.44C137.65 152.38 127.91 152.14 118.24 152.38C114.89 152.46 111.41 152.89 108.12 153.59C106.96 153.83 105.6 154.14 104.98 155.26C106.62 156.66 108.76 156.92 110.81 157.18C115.76 157.8 120.64 159.05 125.59 159.76C130.36 160.44 134.48 162.55 139.11 163.65C140.98 164.1 142.78 164.75 144.65 165.17C147.12 165.72 149.52 165.66 152.01 165.89C162.07 166.8 172.21 164.44 182.33 164.48C186.17 164.5 189.81 164.33 193.61 163.89C197.16 163.48 199.99 162.55 203.35 161.38C205.29 160.71 207.28 160.42 209.24 159.83C211.23 159.23 213.13 158.38 215.15 157.92C218.75 157.09 222.34 156.45 226.02 156.45C229.26 156.45 232.36 157.33 235.59 157.07C240.73 156.66 245.27 154.6 250.3 153.91C259.55 152.65 268.34 150.18 277.03 146.7C280.31 145.39 284.09 144.84 287.54 144.4C288.53 144.27 289.41 143.8 290.39 143.67C291.28 143.56 292.11 143.79 293 143.57C294.92 143.11 296.56 142.04 298.17 141.05C300.45 139.65 302.81 137.51 305.27 136.47C307.93 135.34 310.9 134.73 313.64 133.82C314.72 133.46 315.78 132.96 316.85 132.62C317.59 132.39 318.69 132.47 319.27 131.92C317.53 133.6 314.62 134.04 312.47 134.95C310.41 135.83 307.63 137.04 305.91 138.52C304.58 139.66 303.84 140.74 302.29 141.65C299.1 143.52 296.71 145.89 293.01 146.89C287.43 148.39 282.1 150.77 276.47 152.24C270.77 153.73 264.97 154.61 259.29 155.84C247.27 158.44 234.88 160.61 222.62 161.79C217.74 162.26 212.77 163.1 208.01 164.28C206.13 164.75 204.67 165.87 202.76 166.33C200.41 166.9 198.21 167.72 195.91 168.49C191.24 170.06 186.59 171.4 182 173.19C179.61 174.12 175.41 174.13 174.51 177.02C176.25 178.24 178.41 177.86 180.44 177.86C181.92 177.86 183.65 178.12 185.08 177.83C186.74 177.48 188.97 176.56 190.54 175.87C192.23 175.13 193.82 174.49 195.56 173.86C197.42 173.19 198.02 172.46 199.89 172.49C200.96 172.51 202.09 172.64 203.1 172.35C204.03 172.09 204.56 171.52 205.73 171.94C205.28 172.9 203.21 173.7 202.27 174.19C200.93 174.89 199.74 174.87 198.56 176C197.33 177.17 196.72 177.81 198.53 178.73C200.54 179.76 203.64 179.3 205.86 179.23C213.1 179.02 220.04 176.01 227.34 177.49C231.47 178.33 235.41 179.36 239.6 180.05C244.34 180.83 249.89 181.01 254.67 180.44C259.65 179.85 264.46 178.33 269.49 177.86C272.17 177.61 274.97 176.85 277.62 176.35C281.09 175.7 284.58 175.15 288.06 174.51C292.39 173.71 296.77 172.67 301.1 171.96C304.44 171.42 307.84 171.21 311.18 170.64C312.23 170.46 313.28 170.4 314.35 170.48C315.55 170.56 315.14 170.81 315.95 171.02C317.15 171.32 317.99 171.53 319.14 172C320.17 172.42 322.22 172.26 322.44 173.68C315 178.9 304.55 179.46 296.06 181.85C290.31 183.47 284.67 185.45 278.97 187.24C272.22 189.37 265.4 191.26 258.67 193.42C252.31 195.46 246.06 197.89 239.71 199.99C234.49 201.71 229.46 203.81 224.18 205.32C221.49 206.09 219.04 207.38 216.39 208.21C213.75 209.04 211.19 209.75 208.58 210.71C206.4 211.52 204.17 212.11 201.92 212.69C198.96 213.45 196.34 214.69 193.47 215.66C190.55 216.65 187.51 217.05 184.63 218.21C182.34 219.14 180.14 220.15 177.73 220.79C173.94 221.8 170.17 222.7 166.35 223.59C163.65 224.22 161.08 225.45 158.36 225.95C155.2 226.53 152.29 226.64 149.11 226.76C146.17 226.87 143.4 227.45 140.4 227.45C137.91 227.45 135.36 227.25 132.89 227.6C128.81 228.18 124.8 228.12 120.64 228.12C119.08 228.12 117.53 228.12 115.97 228.12C114.4 228.12 112.27 228.52 110.76 227.97C110.99 227.4 113.72 227.11 114.64 226.93C116.36 226.59 118.24 226.78 120 226.78C121.89 226.78 123.79 226.9 125.66 226.63C127.8 226.32 130.06 226.39 132.18 225.98C135.18 225.4 138.51 225.07 141.44 224.17C143.24 223.62 144.58 222.5 146.3 221.86C147.74 221.32 149.22 221.29 150.71 220.92C153.08 220.34 155.36 219.92 157.79 219.57C159.13 219.38 160.51 219.46 161.84 219.29C164.05 219 165.96 218.1 168.03 217.39C171.61 216.16 174.89 214.86 178.35 213.34C180.12 212.56 182 211.67 183.17 210.03C185.6 206.62 179.84 207.28 178.04 207.73C173.06 208.98 168.16 210.97 163.04 211.34C160.78 211.51 158.63 211.86 156.35 211.99C153.51 212.16 150.87 212.72 147.97 212.69C145.27 212.66 142.76 213.27 140.1 213.39C136.36 213.55 132.62 213.85 128.88 214.19C124.69 214.57 120.57 215.42 116.4 215.92C113.28 216.29 110.19 216.36 107.06 216.8C102.47 217.45 98.07 218.66 93.53 219.56C91.01 220.06 88.5 220.8 85.99 221.27C83.27 221.78 80.57 221.27 77.91 220.82C73.37 220.04 68.85 219.73 64.35 218.59C58.17 217.04 52.33 213.58 47.7 209.34C43.08 205.12 37.88 202.48 31.69 201.43C26.79 200.61 22.19 201.7 17.64 203.16C14.04 204.31 10.65 204.87 6.88004 204.66C2.51004 204.42 4.83004 200.7 4.90004 197.79C5.09004 190.23 4.97004 182.71 5.69004 175.18C5.93004 172.64 8.32004 149.9 12.13 151.76C12.55 153.67 12.71 155.34 12.9 157.25C13.05 158.78 14.28 159.6 14.42 161.02C15.52 160.94 16.57 156.53 16.8 155.56C17.64 152.05 18.58 148.56 19.29 145.01C20.19 140.5 20.66 136.07 20.25 131.45C20.11 129.9 19.94 127.85 18.98 126.53C18.16 125.39 17.61 125.61 16.28 125.59C13.95 125.55 12.94 122.99 12.92 120.92C12.88 117.4 13.77 114.11 15.09 110.84C16.32 107.8 17.89 104.91 18.89 101.77C19.23 100.69 20.42 97.61 20.98 98.11L20.94 98.13Z" fill="#470024"/>
</g>
<g style="mix-blend-mode:multiply" opacity="0.2">
<path d="M287.24 282.82C272.39 298.24 254.6 310.79 234.79 319.6C231.71 318.79 228.42 317.37 225.31 317.23C223.36 317.16 219.4 317.09 217.88 315.43C216.36 313.8 220.46 313.45 221.77 313.2C223.26 312.95 226.19 313.2 226.69 311.25C227.82 307.01 213.07 305.63 210.6 304.99C206.36 303.89 201.55 304.04 197.2 303.89C194.58 303.78 191.75 303.32 189.31 302.51C186.83 301.7 184.39 301.24 181.92 300.49C177.11 299 171.98 297.87 166.96 297.27C166.15 297.2 160.52 296.81 160.35 295.96C162.97 295.04 166.01 294.3 168.73 293.84C169.86 293.66 170.29 294.09 171.17 294.3C172.34 294.58 173.5 294.62 174.71 294.94C186.38 297.98 198.37 298.05 210.36 297.84C211.95 297.8 213.3 297.2 214.85 297.13C216.09 297.02 217.36 297.13 218.6 297.13C222.56 297.17 226.56 296.6 230.34 295.54C233.73 294.62 237.41 294.13 240.74 293.14C241.77 292.82 245.23 292.47 245.37 291.23C243.67 290.63 241.16 291.12 239.36 291.12C236.35 291.12 233.42 291.19 230.41 290.77C226.91 290.31 223.41 290.38 219.91 289.92C217.65 289.64 215.31 289.74 213.4 288.29C214.39 286.95 217.18 286.7 218.67 286.42C221.85 285.85 225.11 285.54 228.29 285.08C236.35 283.98 244.42 283.56 252.52 283.17C256.91 282.96 261.33 282.18 265.71 282.36C269.1 282.5 272.39 283.14 275.79 283.1C278.37 283.06 280.99 282.96 283.57 283.06C284.81 283.1 286.05 282.99 287.25 282.81L287.24 282.82Z" fill="#470024"/>
</g>
<g style="mix-blend-mode:screen" opacity="0.5">
<path d="M85.27 121.25C84.78 123.88 83.51 127.08 84.91 129.66C85.68 131.08 86.74 131.48 88.1 132.17C91.73 134.02 95.81 135.36 99.92 134.75C103 134.3 106.68 133.65 109.44 132.15C111.49 131.04 112.6 128.44 113.17 126.26C113.74 124.05 113.66 121.51 111.48 120.32C110.91 120.01 110.38 119.52 109.76 119.3C108.89 118.98 107.63 118.94 106.74 118.82C104.49 118.52 102.26 118.58 100 118.58C98.46 118.58 96.9 118.52 95.35 118.57C93.96 118.61 92.63 119 91.28 119.34C89.08 119.9 86.5 119.79 85.26 121.26L85.27 121.25Z" fill="#B83138"/>
<path d="M114.75 130.3C115.82 129.19 117 128.22 118.3 127.41C119.09 128.02 120.34 128.14 120.75 129.16C121.15 130.15 121.22 130.76 120.46 131.64C119.8 132.39 118.74 132.79 117.77 132.57C116.73 132.33 115.26 131.87 115.08 130.64L114.75 130.31V130.3Z" fill="#B83138"/>
<path d="M103.7 137C105.6 136.07 106.79 135.37 108.59 134.9C109.45 134.68 110.18 134.19 111.05 134.01C111.94 133.83 112.71 133.64 113.61 133.65C114.74 133.66 115.28 133.47 116.1 134.31C116.69 134.92 117.22 135.64 117.69 136.34C118.27 137.2 118.61 137.87 118.37 138.93C118.06 140.28 117.29 141.35 116.38 142.36C115.04 143.85 112.86 144.9 111.02 145.64C109.18 146.37 106.08 147.66 104.06 147.38C102.96 147.23 101.78 146.66 100.7 146.38C98.98 145.94 97.21 145.94 95.47 145.64C93.65 145.32 91.34 144.27 92.05 142.04C92.78 139.73 96.1 138.04 98.27 137.6C99.29 137.39 100.28 137.28 101.3 137.09C102.13 136.93 102.64 137.04 103.71 137.02L103.7 137Z" fill="#B83138"/>
<path d="M123.8 133.31C122.82 134.45 122.21 135.73 121.96 137.15C122.39 137.09 122.61 137.36 123.03 137.36C123.33 137.36 123.61 137.18 123.88 137.08C124.66 136.81 125.23 136.7 125.45 135.82C125.57 135.36 125.59 134.53 125.3 134.17C125.04 133.85 123.86 133.35 123.47 133.31H123.81H123.8Z" fill="#B83138"/>
<path d="M142.23 169.16C136.46 168.61 130.72 167.36 124.9 167.45C118.54 167.55 111.83 170 107 174.11C104.93 175.87 102.6 177.6 102.63 180.57C102.65 182.7 103.93 184.15 105.57 185.34C108.31 187.33 111.37 188.12 114.57 189.01C117.66 189.87 120.78 190.64 123.98 190.95C126.95 191.24 129.87 191.45 132.85 191.05C135.9 190.64 138.95 189.68 141.87 188.77C144.1 188.08 146.92 187.07 148.23 184.97C149.1 183.58 149.59 182.16 149.61 180.53C149.66 177.28 149.88 174.17 147.44 171.67C145.94 170.14 144.44 169.08 142.22 169.14L142.23 169.16Z" fill="#B83138"/>
<path d="M156.97 169.5C157.43 170.96 158.13 172.28 159.06 173.46C159.79 172.77 161.66 173.18 162.6 173.18C163.52 173.18 164.21 172.98 165.1 172.84C166.5 172.61 168.35 172.45 168.36 170.67C168.38 168.47 165.88 168.14 164.17 168.15C161.84 168.17 159.38 167.67 157.63 169.49H156.96L156.97 169.5Z" fill="#B83138"/>
<path d="M106.04 192.95C108.27 193.27 110.46 193.51 112.68 193.69C114.89 193.87 117.1 194.02 119.24 194.62C120.61 195 121.56 195.21 122.3 196.47C122.69 197.14 122.96 197.56 122.62 198.3C122.1 199.43 120.84 199.9 119.76 200.32C118.04 200.98 116.41 201.78 114.6 202.17C110.91 202.96 107.17 204.18 103.34 204.04C101.53 203.97 99.23 203.11 98.31 201.43C97.39 199.75 97.16 198.02 97.97 196.29C98.94 194.21 100.93 192.94 103.18 192.95C104.03 192.95 104.73 193.02 105.54 193.29C106.06 193.46 107.01 193.52 106.03 192.95H106.04Z" fill="#B83138"/>
<path d="M11.56 185.25C11.11 188.67 10.79 191.87 10.87 195.29C10.9 196.58 11.44 198.16 12.6 198.85C13.91 199.63 16.36 199.52 17.74 199.11C19.77 198.52 21.79 197.06 23.59 195.97C24.99 195.12 25.61 193.96 26.63 192.75C28.22 190.85 28.88 188.32 29.37 185.91C29.91 183.22 29.84 180.16 29.62 177.44C29.41 174.79 28.23 172.13 27.19 169.71C26.15 167.29 24.51 165.87 21.79 166.17C19.77 166.39 17.65 167.64 15.88 168.58C14.57 169.28 13.76 170.53 12.98 171.76C12.27 172.88 12.06 174.3 11.65 175.55C11.29 176.63 11.2 177.79 10.98 178.89C10.53 181.14 10.86 184.04 11.57 185.26L11.56 185.25Z" fill="#B83138"/>
<path d="M20.94 159.11C20.61 157.56 19.68 155.33 20.39 153.87C20.52 153.6 20.78 153.21 20.95 152.94C21.25 152.43 21.7 151.9 22.35 151.8C23.96 151.54 25.39 153.2 25.68 154.55C25.96 155.87 26.14 157.74 25.32 158.97C24.79 159.77 22.72 160.72 21.95 159.78L20.94 159.11Z" fill="#B83138"/>
<path d="M24.63 145.71C24.3 141.38 22.74 136.17 25.62 132.32C26.59 131.02 28.17 128.99 30.06 129.24C31.19 129.39 32.29 130.69 33.02 131.49C34.16 132.74 34.85 134.33 35.37 135.92C35.81 137.27 36.41 138.75 36.4 140.19C36.4 141.74 36.1 143.74 35.52 145.2C34.71 147.24 33.03 149.19 30.91 149.83C29.42 150.28 27.94 149.85 26.62 148.99C25.68 148.38 24.55 146.9 24.63 145.72V145.71Z" fill="#B83138"/>
<path d="M21.61 124.6C21.93 126.06 22.51 127.38 23.36 128.56C23.78 128.2 24.38 128.25 24.88 128.05C25.46 127.82 26.11 127.33 26.45 126.78C26.88 126.07 27.18 125.12 26.9 124.26C26.63 123.44 25.28 122.49 24.61 121.99C23.18 120.93 22.33 122.2 21.28 123.26L21.61 124.6Z" fill="#B83138"/>
<path d="M175.4 190.94C177.05 190.15 179.14 188.88 181.03 188.43C182.21 188.15 183.34 187.66 184.51 187.32C187.38 186.48 190.45 186.23 193.41 185.99C195.07 185.85 196.68 185.88 198.33 185.6C199.55 185.39 200.72 185.17 201.94 185C205.56 184.52 209.09 183.46 212.71 182.97C214.43 182.74 216.23 182.34 217.96 182.22C219.07 182.15 220.15 181.89 221.26 181.89C223.34 181.9 225.42 181.56 227.51 181.54C235.47 181.46 242.6 184.5 250.09 186.66C251.8 187.15 253.53 187.54 255.27 187.87C257.51 188.28 260.31 189.1 262.57 188.53C265.05 187.9 264.23 185.42 262.61 184.27C260.76 182.95 258.4 182.55 256.17 182.56C254.91 182.56 253.5 182.37 252.27 182.59C250.34 182.93 247.17 183.6 246.75 185.94C246.61 186.74 246.83 187.58 246.88 188.38C246.91 188.91 246.92 189.46 246.84 189.99C246.57 191.78 244.47 193.66 243 194.57C242.16 195.09 241.3 195.37 240.49 195.97C239.52 196.68 238.53 197.11 237.46 197.66C235.87 198.48 234.24 199.16 232.66 200.01C231.57 200.6 230.47 200.86 229.35 201.32C226.25 202.58 223.23 203.93 220.01 204.77C217.48 205.43 215.07 206.52 212.52 207.11C211.01 207.46 209.71 208.2 208.26 208.72C207.58 208.96 206.9 209.17 206.2 209.31C205.05 209.54 204.09 210.04 202.97 210.32C198.9 211.3 195.07 213.07 190.88 213.07C189.1 213.07 188.04 213.01 187.06 211.41C186.09 209.85 185.36 208.34 184.71 206.62C184.02 204.8 183.14 203 181.38 202.02C179.42 200.93 177.27 200.68 175.4 199.4C173.68 198.22 173.06 196.43 173.06 194.37C173.06 193.61 173 192.94 173.47 192.28C173.88 191.71 174.56 191.41 175.4 190.96V190.94Z" fill="#B83138"/>
<path d="M262.51 181.23C263.94 181 265.32 180.63 266.65 180.1C266.87 180.02 267.09 179.94 267.31 179.85C267.83 179.76 268.6 179.89 269.14 179.89C269.84 179.89 271.08 179.68 271.67 180.21C272.69 181.12 271.8 182.13 270.89 182.83C270.47 183.15 269.55 183.44 269.03 183.55C268.75 183.61 268.47 183.51 268.19 183.56C267.83 183.62 267.55 183.93 267.19 183.95C266.93 183.96 266.17 183.64 265.93 183.58C265.54 183.48 265.01 183.42 264.66 183.18C263.95 182.69 264.08 181.67 263.5 181.24H262.49L262.51 181.23Z" fill="#B83138"/>
<path d="M131.86 262.24C127.39 262.89 123.15 262.75 119.44 265.37C118.09 266.33 116.61 267.63 115.57 268.95C113.03 272.15 118.84 272.61 121 272.88C125.38 273.43 129.57 274.49 133.61 276.26C137.17 277.82 141.02 278.8 144.81 277.53C147.32 276.69 149.41 276.16 150.5 273.56C151.5 271.18 150.41 268.7 148.47 267.18C145.99 265.25 143.54 263.29 140.65 262.09C137.35 260.73 134.67 260.72 131.23 261.61L131.87 262.25L131.86 262.24Z" fill="#B83138"/>
<path d="M124.86 256.3C125.03 256.19 122.62 257.6 122.42 258.06C122.25 258.46 122.32 258.69 122.62 258.96C123.51 259.73 125.12 259.85 126.23 259.9C127.07 259.94 127.86 259.72 128.69 259.69C129.2 259.67 129.65 259.66 130.16 259.54C131.13 259.32 131.86 259 132.67 258.42C133.26 258 133.19 257.23 133.13 256.56C133.05 255.71 132.65 255.09 131.86 254.75C129.5 253.73 126.7 254.89 124.63 256.08L124.84 256.29L124.86 256.3Z" fill="#B83138"/>
<path d="M103.86 274.12C104.49 274.07 106.49 273.74 107.47 273.94C108.1 274.06 108.72 274.3 109.34 274.44C111.12 274.84 112.92 275.09 114.69 275.5C115.99 275.8 116.68 276.08 117.5 277.1C118.04 277.77 118.41 278.15 118.26 279.08C117.68 282.72 113.49 283.61 110.43 283.98C108.02 284.27 105.57 284.12 103.18 283.78C100.56 283.42 97.89 283.16 95.3 282.61C93.43 282.21 91.56 281.84 89.71 281.33C88.49 280.99 87.31 280.73 86.57 279.58C85.36 277.68 86.17 275.59 88.03 274.56C90.79 273.03 94.42 273.06 97.49 273.31C98.65 273.41 99.76 273.65 100.93 273.68C101.91 273.71 102.87 274.19 103.84 274.12H103.86Z" fill="#B83138"/>
</g>
<g style="mix-blend-mode:multiply" opacity="0.2">
<path d="M180.76 86.41C178.94 87.16 177.1 88.31 175.09 88.11C174.05 88.01 173.02 87.87 171.99 87.67C170.42 87.38 168.84 87.07 167.29 86.73C165.63 86.37 164.07 86.4 162.37 86.39C159.42 86.38 156.5 86.73 153.54 86.73C150.89 86.73 148.41 86.62 145.79 86.23C143.41 85.88 141.14 85.17 138.8 84.64C137.86 84.42 136.96 84.06 136.01 83.87C134.86 83.64 133.69 83.72 132.52 83.55C130.25 83.21 128.05 83.22 125.82 82.52C125.11 82.3 124.27 81.95 123.85 81.3C123.67 81.02 123.3 80.1 123.51 79.77C124 79.01 125.88 79.35 126.49 79.56C128.48 80.23 130.37 80.98 132.18 82.06C135.38 83.96 139.6 82.73 143.15 83.32C144.65 83.57 146.19 83.19 147.68 83.38C148.71 83.51 149.46 84.25 150.42 84.58C151.42 84.93 152.86 84.82 153.92 84.71C156.62 84.42 159.39 83.51 161.85 82.4C164.72 81.11 167.72 79.74 170.92 79.69C173.57 79.65 176.19 79.69 178.76 80.44C180.31 80.89 181.58 81.8 182.03 83.4C182.42 84.81 181.27 85.3 180.76 86.41Z" fill="#470024"/>
</g>
<g style="mix-blend-mode:multiply" opacity="0.2">
<path d="M170.29 34.48C171.49 34.44 172.66 34.62 173.83 34.8C172.88 34.91 171.92 35.01 170.97 35.22C170.26 35.36 169.77 35.47 169.02 35.47C168.45 35.47 165.55 35.75 166.65 34.8C167.39 34.2 169.44 34.48 170.29 34.48Z" fill="#470024"/>
</g>
<g style="mix-blend-mode:multiply" opacity="0.2">
<path d="M250.46 22.07C250.42 22.14 250.39 22.18 250.35 22.25C248.58 24.94 247.27 27.27 245.01 29.54C242.89 31.66 241.05 33.01 238.4 34.42C235.39 35.98 232.28 37.43 228.92 38.2C225.63 38.94 222.06 39.79 218.66 39.86C216.08 39.93 213.5 39.51 210.91 39.26C207.69 38.94 204.44 38.55 201.26 38.09C198.75 37.74 196.24 37.42 193.73 37.1C191.25 36.75 188.78 36.07 186.27 35.86C184.47 35.68 182.63 35.54 180.82 35.51C179.72 35.47 178.73 35.16 177.64 35.16C176.9 35.12 176.19 35.2 175.45 35.09C174.92 34.98 174.39 34.91 173.82 34.81C174.56 34.74 175.31 34.67 176.05 34.56C178.07 34.28 180.12 34.42 182.13 34.21C184.08 34.03 185.98 34.1 187.93 33.86C191.29 33.47 194.54 33.15 197.94 33.15C201.02 33.15 204.16 33.36 207.24 33.15C208.02 33.11 209.26 32.87 209.72 32.12C210.18 31.31 210.39 30.46 209.58 29.86C208.66 29.19 204.59 28.13 205.19 26.43C205.37 25.94 206.43 25.86 206.96 25.76C208.83 25.48 210.78 25.37 212.69 25.05C213.86 24.84 214.88 24.38 216.05 24.1C217 23.82 218 23.71 218.95 23.43C220.26 23.08 221.89 22.83 223.23 22.76C226.34 22.58 229.74 23.89 232.78 22.8C234.41 22.2 235.36 21.49 236.35 20.18C236.77 19.65 237.3 19.23 237.73 18.69C238.3 17.91 238.72 17.2 239.36 16.5C242.65 18.06 245.87 19.72 249.01 21.52C248.62 21.7 248.41 22.02 250 22.05C250.14 22.09 250.28 22.09 250.46 22.09V22.07Z" fill="#470024"/>
</g>
<g style="mix-blend-mode:multiply" opacity="0.2">
<path d="M248.77 30.79C246.3 33.27 244.08 35.49 241.18 37.41C238.72 39.05 235.78 40.09 233.08 41.27C230.97 42.19 228.9 42.76 226.64 43.18C225.53 43.38 224.53 43.64 223.47 44.03C223.05 44.18 222.23 44.28 221.91 44.6C221.21 45.28 221.65 45.97 222.36 46.21C224.27 46.84 226.31 46.35 228.26 46.12C232.09 45.68 236.14 45.32 239.88 44.37C242.33 43.74 244.66 42.89 246.81 41.53C249.35 39.92 252.58 38.14 253.94 35.3C254.83 33.44 255.33 31.54 253.45 30.2C252.55 29.55 251.93 29.12 250.78 29.1C250.22 29.1 247.93 29.17 248.76 30.79H248.77Z" fill="#470024"/>
</g>
<g style="mix-blend-mode:soft-light">
<path d="M301.74 68.4C298.13 67.98 294.6 66.91 291.27 65.57C290.32 65.15 285.19 61.93 288.9 61.82C288.83 60.97 286.81 59.24 286.28 58.57C285.5 57.58 284.76 56.55 283.88 55.67C282.71 54.47 281.69 54.4 280.27 53.8C278.5 53.02 277.05 51.61 275.25 50.83C271.25 49.1 267.68 47.12 263.19 47.93C260.15 48.5 257.11 51.04 254.45 52.6C250.91 54.72 246.63 55.68 242.74 56.74C235.77 58.65 228.49 60.35 221.31 61.48C217.07 62.15 212.75 62.33 208.51 63.11C206.74 63.46 205.04 63.92 203.24 63.99C200.76 64.13 198.32 63.78 195.88 64.13C191.11 64.84 186.33 64.66 181.52 64.63C180.18 64.63 174.23 65.55 173.74 63.46C175.76 62.29 178.83 62.33 181.06 62.05C184.56 61.63 187.99 61.45 191.53 61.24C201.18 60.67 210.77 57.56 220.25 55.62C224.78 54.67 229.27 53.43 233.76 52.26C235.92 51.69 238.15 51.31 240.23 50.46C242.46 49.58 244.51 48.37 246.77 47.56C250.17 46.32 252.53 45.19 255.19 42.89C255.97 42.25 256.75 41.86 257.17 40.87C258.41 38.08 254.23 36.56 252.29 35.49C250.56 34.57 248.65 33.26 246.81 32.63C243.84 31.64 240.83 30.86 237.9 29.66C234.33 28.14 230.65 27.54 226.94 26.44C224.15 25.59 221.39 24.71 218.59 23.89C216.61 23.36 214.56 22.83 212.54 22.4C211.69 22.26 210.1 22.33 209.96 21.23C210.6 20.98 211.2 21.19 211.87 20.95C211.55 19.64 203.74 19.04 202.39 19.08C199.53 19.15 196.8 18.37 193.94 18.41C190.93 18.41 188.07 19.01 185.1 19.12C179.55 19.33 173.96 19.08 168.41 19.08C166.22 19.08 163.95 19.22 161.76 19.08C160.52 19.01 159.6 18.48 158.36 18.27C158.5 16.86 163.7 15.94 164.97 15.58C164.12 13.49 156.91 13.71 155.17 13.71C151.74 13.75 148.49 13.85 145.06 14.24C141.88 14.59 138.66 14.24 135.48 14.45C133.11 14.59 130.53 15.55 128.19 14.95C127.94 14.88 125.64 14.42 125.54 14.31C124.62 13.18 126.95 11.48 127.48 10.99C130.45 8.2 135.33 7.1 138.87 5.69C138.41 4.52 138.13 3.46 137.99 2.54C147.4 0.879999 157.09 0.0299988 166.95 0.0299988C192.91 0.0299988 217.45 5.94 239.34 16.51C242.63 18.07 245.85 19.73 248.99 21.53C249.31 21.71 249.66 21.88 249.98 22.06C250.09 22.13 250.23 22.2 250.33 22.27C258.39 26.94 266 32.21 273.14 38.11C283.89 46.99 293.51 57.17 301.72 68.42L301.74 68.4Z" fill="#F9AEA4"/>
</g>
<path d="M333.96 166.96C333.96 170.85 333.82 174.74 333.54 178.56C332.58 192.88 329.79 206.68 325.44 219.8V219.84C325.4 219.98 325.33 220.16 325.26 220.3C325.65 218.64 325.72 217.15 325.79 215.42C325.86 214.36 326.32 213.69 326.53 212.73C326.71 211.81 326.49 210.43 326.49 209.51V195.29C326.49 192.5 327.2 189.91 327.16 187.19C327.16 185.74 327.12 184.33 327.16 182.88C327.16 181.32 327.73 180.19 327.87 178.67C328.29 174.53 326.67 170.57 326.49 166.5C326.38 164.59 326.56 162.68 326.49 160.77C326.49 159.78 326.21 159.36 325.96 158.44C325.71 157.38 325.89 156.35 325.85 155.26C325.78 154.09 325.32 153.39 325.11 152.25C324.97 151.37 325.15 150.3 325.15 149.39C325.15 147.55 325.08 146.1 324.62 144.37C324.41 143.49 324.55 142.6 324.34 141.68C324.16 140.94 323.74 140.12 323.49 139.35C322.96 137.62 322.18 136.06 321.65 134.33C320.62 130.97 319.1 127.82 319.14 124.29C319.18 120.72 317.65 117.61 316.63 114.25C315.53 110.71 313.16 108.31 311.25 105.37C310.12 103.67 310.83 102.33 310.37 100.56C310.09 99.57 309.13 98.3 308.28 97.66C307.15 96.78 304.74 96.25 303.36 96.1C301.59 95.92 300.25 97.27 298.41 96.67C298.66 95.64 301.63 94.41 302.72 94.19C304.13 93.91 306.61 94.26 306.96 92.14C307.17 90.65 305.44 89.52 304.56 88.6C303.99 88 303.71 87.36 303.22 86.73C302.58 85.92 301.73 85.92 300.99 85.28C300.21 84.61 299.82 83.9 299.01 83.26C298.37 82.73 298.09 82.09 297.52 81.53C296.35 80.36 295.01 78.98 293.66 78.03C290.58 75.91 287.86 74.92 284.22 74.18C282.77 73.9 281.28 73.76 280.08 72.87C279.05 72.13 278.38 71 277.75 70.01C276.69 68.35 276.69 68.03 278.1 66.65C279.2 65.55 279.83 64.17 279.41 62.65C278.81 60.25 277.43 56.39 275.41 54.76C273 52.81 270.99 52.07 268.05 51.4C266.71 51.08 265.33 51.4 263.98 51.08C263.03 50.87 262.32 50.58 261.33 50.55C259.28 50.48 257.65 49.88 255.6 49.91H248.88C247.32 49.91 244.95 50.3 243.43 49.77C243.71 48.57 246.37 47.9 247.43 47.4C249.41 46.52 251.74 45.28 253.48 44.01C255.07 42.88 256.06 42.03 257.3 40.47C258.08 39.55 258.93 38.63 259.88 37.85C257.76 36.08 255.99 34.81 253.44 33.64C250.86 32.4 248.06 31.45 245.38 30.46C243.01 29.58 240.36 29.26 237.88 28.62C234.59 27.77 232.4 26.18 229.99 23.77C227.94 21.72 226.21 20.34 223.59 19.14C221.43 18.15 219.17 18.01 216.76 17.58C215.59 17.37 214.6 17.08 213.4 17.05C212.2 17.01 210.85 17.26 209.69 17.09C208.1 16.88 206.83 16.35 205.16 16.38C203.82 16.42 202.44 16.56 201.13 16.24C199.82 15.92 198.48 15.89 197.13 15.57C193.27 14.65 191.19 10.83 188.61 8.17999C187.02 6.58999 185.82 6.65999 183.76 6.19999C181.18 5.59999 178.42 4.99999 175.7 4.99999C172.59 5.03999 169.44 4.99999 166.33 4.99999C164.38 4.99999 162.97 5.13999 161.13 5.52999C159.54 5.84999 158.02 5.45999 156.46 5.63999C153.67 5.95999 151.05 6.90999 148.22 7.01999C146.84 7.05999 146.13 6.51999 144.86 6.30999C143.94 6.16999 142.31 6.76999 141.46 6.37999C139.69 5.59999 143.51 2.44999 139.37 2.94999C134.81 3.51999 130.49 4.89999 125.93 5.84999C121.33 6.80999 116.66 8.10999 112.21 9.66999C109.52 10.59 106.55 11.76 104 13.03C99.61 15.26 95.69 16.71 90.91 18.3C105.48 10.8 121.29 5.42999 137.95 2.52999C147.36 0.869989 157.05 0.019989 166.91 0.019989C192.87 0.019989 217.41 5.92999 239.3 16.5C242.59 18.06 245.81 19.72 248.95 21.52C249.27 21.7 249.62 21.87 249.94 22.05C250.05 22.12 250.19 22.19 250.29 22.26C258.35 26.93 265.96 32.2 273.1 38.1C283.85 46.98 293.47 57.16 301.68 68.41C305.96 74.25 309.88 80.4 313.39 86.8C317.92 94.97 321.74 103.6 324.81 112.55C324.99 113.08 325.16 113.61 325.38 114.14C325.56 114.67 325.73 115.24 325.91 115.77C329.27 126.2 331.6 137.1 332.88 148.31C333.2 151.35 333.48 154.43 333.62 157.54C333.8 160.65 333.9 163.8 333.9 166.98L333.96 166.96Z" fill="url(#paint1_radial_107_5139)"/>
<path d="M333.68 157.52C333.54 154.41 333.26 151.33 332.94 148.29C331.67 137.08 329.33 126.19 325.97 115.75C325.79 115.22 325.62 114.65 325.44 114.12C325.23 113.59 325.05 113.06 324.87 112.53C321.79 103.58 317.97 94.95 313.45 86.78C309.95 80.38 306.02 74.23 301.74 68.39C293.54 57.14 283.92 46.96 273.16 38.08C266.02 32.17 258.41 26.9 250.35 22.24C250.24 22.17 250.1 22.1 250 22.03C249.68 21.85 249.33 21.68 249.01 21.5C245.86 19.7 242.64 18.03 239.36 16.48C217.46 5.91 192.92 0 166.96 0C157.09 0 147.4 0.85 138 2.51C121.34 5.41 105.53 10.79 90.96 18.28C71.93 28.01 54.99 41.34 41.06 57.32C41.06 57.36 41.02 57.36 41.02 57.39C39.93 58.63 38.92 59.92 37.88 61.2C51.6 45.77 68.12 32.86 86.65 23.4C101.22 15.9 117.03 10.53 133.69 7.63C143.1 5.97 152.79 5.12 162.65 5.12C188.61 5.12 213.15 11.03 235.04 21.6C238.33 23.16 241.55 24.82 244.69 26.62C245.01 26.8 245.36 26.97 245.68 27.15C245.79 27.22 245.93 27.29 246.03 27.36C254.09 32.03 261.7 37.3 268.84 43.2C279.59 52.08 289.21 62.26 297.42 73.51C301.7 79.35 305.62 85.5 309.13 91.9C313.66 100.07 317.48 108.7 320.55 117.65C320.73 118.18 320.9 118.71 321.12 119.24C321.3 119.77 321.47 120.34 321.65 120.87C325.01 131.3 327.34 142.2 328.62 153.41C328.94 156.45 329.22 159.53 329.36 162.64C329.54 165.75 329.64 168.9 329.64 172.08C329.64 175.97 329.5 179.86 329.22 183.68C328.27 198 325.47 211.8 321.12 224.92V224.96C321.08 225.1 321.01 225.28 320.94 225.42C318.96 231.29 316.66 237.02 314.04 242.61C309.05 253.36 302.9 263.51 295.83 272.85C294.66 274.41 293.4 275.89 292.17 277.4C294.93 274.27 297.62 271.08 300.14 267.73C307.21 258.39 313.37 248.24 318.35 237.49C320.97 231.9 323.27 226.17 325.25 220.3C325.32 220.16 325.39 219.98 325.43 219.84V219.8C329.78 206.68 332.57 192.89 333.53 178.56C333.81 174.74 333.95 170.85 333.95 166.96C333.95 163.78 333.84 160.63 333.67 157.52H333.68Z" fill="url(#paint2_radial_107_5139)"/>
<path d="M224.65 127.84C226.83 128.15 229.01 128.28 231.21 128.23C231.06 127.5 232.29 127.45 232.21 126.59C231.09 125.92 230.45 125.52 229.12 125.6C228.32 125.65 226.17 126.03 225.99 126.95L224.65 127.84Z" fill="#F9AEA4"/>
<path d="M178.35 51.01C180.53 51.32 182.71 51.45 184.91 51.4C184.76 50.67 185.99 50.62 185.91 49.76C184.79 49.09 184.15 48.69 182.82 48.77C182.02 48.82 179.87 49.2 179.69 50.12L178.35 51.01Z" fill="#F9AEA4"/>
<path d="M152.58 284.27C154.76 284.58 156.94 284.71 159.14 284.66C158.99 283.93 160.22 283.88 160.14 283.02C159.02 282.35 158.38 281.95 157.05 282.03C156.25 282.08 154.1 282.46 153.92 283.38L152.58 284.27Z" fill="#F9AEA4"/>
<path d="M37.6899 157.69C39.8699 158 42.0499 158.13 44.2499 158.08C44.0999 157.35 45.3299 157.3 45.2499 156.44C44.1299 155.77 43.4899 155.37 42.1599 155.45C41.3599 155.5 39.2099 155.88 39.0299 156.8L37.6899 157.69Z" fill="#F9AEA4"/>
<path d="M266.19 224.78C267.22 223.11 268.49 221.66 269.99 220.44C270.29 221.51 271.58 221.65 272.13 222.52C272.77 223.53 272.53 225.4 272.13 226.46C270.66 230.29 266.37 232.12 262.67 232.88C261.42 233.13 260.13 233.72 259.04 232.74C258.13 231.91 257.82 230.68 258.57 229.69C259.23 228.82 260.83 227.88 261.74 227.35C262.38 226.97 263.82 226.37 263.96 225.68L266.19 224.79V224.78Z" fill="#F97F7C"/>
<path d="M282.72 223.44C281.2 224.85 279.71 226.21 278.24 227.65C278.78 228.59 280.72 226.92 281.37 226.66C281.94 226.43 282.6 226.49 283.08 226.02C283.47 225.63 284.09 224.38 283.17 224.32L282.72 223.43V223.44Z" fill="#F9AEA4"/>
<path d="M254.06 164.73C252.54 166.14 251.05 167.5 249.58 168.94C250.12 169.88 252.06 168.21 252.71 167.95C253.28 167.72 253.94 167.78 254.42 167.31C254.81 166.92 255.43 165.67 254.51 165.61L254.06 164.72V164.73Z" fill="#F9AEA4"/>
<path d="M116.72 14.23C115.2 15.64 113.71 17 112.24 18.44C112.78 19.38 114.72 17.71 115.37 17.45C115.94 17.22 116.6 17.28 117.08 16.81C117.47 16.42 118.09 15.17 117.17 15.11L116.72 14.22V14.23Z" fill="#F9AEA4"/>
<path d="M47.74 178.77C47.37 180.75 47.45 182.67 48.01 184.53C47.91 185.16 48.12 185.5 48.65 185.54C49.11 185.97 49.98 186.42 50.55 186.85C51.21 187.35 52.69 188.28 53.56 188.1C54.14 187.98 55.45 186.7 55.71 186.16C56.16 185.2 56.32 183.79 56.03 182.8C55.49 180.99 54.74 178.42 52.88 177.65C52.2 177.37 51.37 177.07 50.65 176.98C49.49 176.83 49.3 177.02 48.64 177.89L47.75 178.78L47.74 178.77Z" fill="#F97F7C"/>
<path d="M116.77 76.96C116.42 77.22 116.15 77.54 115.97 77.93C115.86 78.02 115.85 78.1 115.92 78.19C115.92 78.33 116.01 78.53 116.03 78.68C116.06 78.86 116.16 79.23 116.33 79.32C116.44 79.39 116.84 79.37 116.96 79.32C117.17 79.23 117.41 79.03 117.51 78.83C117.69 78.46 117.95 77.94 117.76 77.54C117.69 77.39 117.6 77.22 117.5 77.1C117.34 76.91 117.28 76.91 117.04 76.95H116.76L116.77 76.96Z" fill="#F97F7C"/>
<path d="M116.95 84.38C116.58 86.36 116.66 88.28 117.22 90.14C117.12 90.77 117.33 91.11 117.86 91.15C118.32 91.58 119.19 92.03 119.76 92.46C120.42 92.96 121.9 93.89 122.77 93.71C123.35 93.59 124.66 92.31 124.92 91.77C125.37 90.81 125.53 89.4 125.24 88.41C124.7 86.6 123.95 84.03 122.09 83.26C121.41 82.98 120.58 82.68 119.86 82.59C118.7 82.44 118.51 82.63 117.85 83.5L116.96 84.39L116.95 84.38Z" fill="#F97F7C"/>
<path d="M60.7 62.17C62.65 62.45 65.53 63.45 67.5 62.63C68.27 62.31 69.3499 61.28 70.0899 60.78C71.1999 60.03 72.8099 59.28 73.57 58.16C74.5 56.79 74.18 55.32 72.68 54.7C69.67 53.47 61.5 54.48 61.59 59.05L60.7 62.18V62.17Z" fill="#F9AEA4"/>
<path d="M225.51 113.96C227.46 114.24 230.34 115.24 232.31 114.42C233.08 114.1 234.16 113.07 234.9 112.57C236.01 111.82 237.62 111.07 238.38 109.95C239.31 108.58 238.99 107.1 237.49 106.49C234.48 105.26 226.31 106.27 226.4 110.84L225.51 113.97V113.96Z" fill="#F97F7C"/>
<path d="M50.76 169.33C50.99 169.81 52.15 173.16 53.41 171.83C54.16 171.04 54.14 169.4 53.59 168.52C53.29 168.03 52.49 166.89 51.77 167.18C51.4 167.33 51.35 167.65 51.26 167.98C51.06 168.71 51.12 169.13 51.43 169.84L50.76 169.34V169.33Z" fill="#CF6854"/>
<path d="M55.28 176.2C55.3 175.49 55.47 174.83 55.8 174.22C56.02 174.42 56.34 174.34 56.59 174.5C56.83 174.66 56.96 174.97 57.13 175.2C57.43 175.6 57.82 176.24 57.62 176.79C57.48 177.18 57.01 177.39 56.62 177.46C56.21 177.54 55.44 177.23 55.45 176.7L55.28 176.2Z" fill="#CF6854"/>
<path d="M63.16 272.36C64.44 274.18 65.46 276.14 67.13 277.59C68.3 278.6 69.21 279.84 70.35 280.88C71.98 282.38 73.84 284 75.9 284.86C76.98 285.31 77.06 284.78 76.65 283.78C75.94 282.01 74.52 281.54 73 280.48C71.13 279.17 68.91 277.89 67.49 276.06C66.43 274.68 65.51 272.33 63.15 272.37L63.16 272.36Z" fill="#F9AEA4"/>
<path d="M64.16 269.34C64.46 270.19 62.53 265.47 62.78 264.9C62.84 264.76 63.09 264.45 63.22 264.38C63.76 264.09 64.35 264.42 64.51 264.96C64.83 266.06 64.49 267.83 64.49 269L64.16 269.33V269.34Z" fill="#F9AEA4"/>
<path d="M274.22 215.19C274.75 214.63 275.34 214.15 276 213.75C276.16 213.91 276.37 213.8 276.57 213.88C276.88 214 277.13 214.41 277.25 214.69C277.54 215.36 277.1 215.93 276.56 216.33C275.86 216.85 273.69 216.88 273.89 215.53L274.23 215.2L274.22 215.19Z" fill="#F9AEA4"/>
<path d="M65.17 130.88C65.7 130.32 66.29 129.84 66.95 129.44C67.11 129.6 67.32 129.49 67.52 129.57C67.83 129.69 68.08 130.1 68.2 130.38C68.49 131.05 68.05 131.62 67.51 132.02C66.81 132.54 64.64 132.57 64.84 131.22L65.18 130.89L65.17 130.88Z" fill="#F9AEA4"/>
<path d="M67.25 182.49C68.31 181.37 69.5 180.41 70.8 179.61C71.13 179.93 71.55 179.71 71.94 179.86C72.56 180.1 73.05 180.92 73.3 181.49C73.89 182.83 73.01 183.97 71.92 184.77C70.52 185.81 66.17 185.87 66.58 183.16L67.25 182.49Z" fill="#CF6854"/>
<path d="M107.37 79.28C108.43 78.16 109.62 77.2 110.92 76.4C111.25 76.72 111.67 76.5 112.06 76.65C112.68 76.89 113.17 77.71 113.42 78.28C114.01 79.62 113.13 80.76 112.04 81.56C110.64 82.6 106.29 82.66 106.7 79.95L107.37 79.28Z" fill="#D57A68"/>
<path d="M237.38 308.21C238.22 307.33 239.73 305.44 240.94 304.55C241.64 304.04 242.61 303.65 243.39 303.22C243.92 302.93 244.74 302.61 245.35 302.92C246.38 303.44 246.25 304.85 245.77 305.7C245 307.06 243.16 308.23 241.74 308.8C241.09 309.06 238.3 309.63 238.38 308.22H237.37L237.38 308.21Z" fill="#F9AEA4"/>
</g>
<defs>
<radialGradient id="paint0_radial_107_5139" cx="0" cy="0" r="1" gradientUnits="userSpaceOnUse" gradientTransform="translate(203.84 75.71) scale(193.83 193.83)">
<stop offset="0.28" stop-color="#E95059"/>
<stop offset="0.41" stop-color="#E44D59"/>
<stop offset="0.56" stop-color="#D6455A"/>
<stop offset="0.73" stop-color="#BE385B"/>
<stop offset="0.89" stop-color="#9E265E"/>
<stop offset="1" stop-color="#861960"/>
</radialGradient>
<radialGradient id="paint1_radial_107_5139" cx="0" cy="0" r="1" gradientUnits="userSpaceOnUse" gradientTransform="translate(293.65 40.81) scale(134.52 134.52)">
<stop stop-color="#FF953D"/>
<stop offset="0.21" stop-color="#F9863E"/>
<stop offset="0.61" stop-color="#EB6244"/>
<stop offset="1" stop-color="#DB384A"/>
</radialGradient>
<radialGradient id="paint2_radial_107_5139" cx="0" cy="0" r="1" gradientUnits="userSpaceOnUse" gradientTransform="translate(286.28 36.75) scale(163.25 163.25)">
<stop stop-color="#FFCC7A"/>
<stop offset="0.14" stop-color="#FBBD75"/>
<stop offset="0.42" stop-color="#F29869"/>
<stop offset="0.79" stop-color="#E45D56"/>
<stop offset="1" stop-color="#DB384A"/>
</radialGradient>
<clipPath id="clip0_107_5139">
<rect width="333.96" height="333.96" fill="white"/>
</clipPath>
</defs>
</svg>
