<svg width="131" height="129" viewBox="0 0 131 129" fill="none" xmlns="http://www.w3.org/2000/svg">
<g clip-path="url(#clip0_107_5196)">
<path d="M128.302 89.0058C127.69 91.1345 126.979 93.1979 126.197 95.1372C115.191 122.686 87.5288 133.172 57.8595 127.518C55.1421 126.995 52.3791 126.355 49.6618 125.552C45.0286 124.227 40.5909 122.568 36.4334 120.583C20.9373 113.342 9.14907 101.954 3.55145 87.8958C-0.579975 77.481 -1.29027 65.5774 2.37197 52.7466C12.3682 17.8782 50.2808 -7.82907 85.0265 2.18743C92.4683 4.34222 99.1737 7.94007 105.012 12.648C115.289 20.8819 122.867 32.5047 127.097 45.3616C131.704 59.3285 132.388 74.7581 128.302 89.0058Z" fill="url(#paint0_radial_107_5196)"/>
<path d="M126.204 91.8723V95.1372C115.198 122.686 87.5354 133.172 57.866 127.518C55.1486 126.995 52.3857 126.355 49.6683 125.552C45.0351 124.227 40.5974 122.568 36.4399 120.583C36.4399 120.583 37.2415 118.925 38.9683 116.326C43.9534 108.706 56.5692 92.8453 78.7707 85.8128C102.888 78.1666 119.023 86.851 124.314 90.475C125.565 91.3043 126.204 91.8723 126.204 91.8723Z" fill="#00AEFF"/>
<path d="M124.314 90.475C112.976 117.057 85.7173 127.113 56.5171 121.556C53.7997 121.034 51.0368 120.394 48.3194 119.591C45.1068 118.67 41.9659 117.58 38.9618 116.326C43.9469 108.706 56.5627 92.8453 78.7642 85.8128C102.882 78.1666 119.016 86.851 124.308 90.475H124.314Z" fill="url(#paint1_radial_107_5196)"/>
<path d="M9.80724 65.7798C3.89031 59.2175 19.6536 20.7643 37.854 17.7737C56.0544 14.7831 69.8367 40.5688 66.8261 53.2363C63.8155 65.9104 16.9688 73.7199 9.80724 65.7798Z" fill="#00AEFF"/>
<path d="M15.9262 64.6371C10.6413 58.7735 24.7234 24.4144 40.9884 21.7438C57.2534 19.0731 69.563 42.1098 66.8717 53.4322C64.1804 64.7547 22.3253 71.7349 15.9262 64.6371Z" fill="url(#paint2_radial_107_5196)"/>
<path d="M97.7271 43.6377C99.7406 39.8179 119.981 40.621 124.399 48.4827C128.817 56.3445 119.323 67.0009 113.021 67.7387C106.72 68.4766 95.2899 48.2542 97.7271 43.6377Z" fill="#00AEFF"/>
<path d="M97.6879 43.4549C99.4865 40.0399 117.576 40.7581 121.519 47.7841C125.468 54.81 116.983 64.3302 111.353 64.9897C105.723 65.6492 95.5115 47.5816 97.6879 43.4549Z" fill="url(#paint3_radial_107_5196)"/>
</g>
<defs>
<radialGradient id="paint0_radial_107_5196" cx="0" cy="0" r="1" gradientUnits="userSpaceOnUse" gradientTransform="translate(79.8981 36.5269) scale(64.9298 65.0616)">
<stop stop-color="#00EFF1"/>
<stop offset="1" stop-color="#006EFF"/>
</radialGradient>
<radialGradient id="paint1_radial_107_5196" cx="0" cy="0" r="1" gradientUnits="userSpaceOnUse" gradientTransform="translate(81.638 102.894) scale(33.3511 33.4188)">
<stop stop-color="#2ECCFF"/>
<stop offset="0.27" stop-color="#2AD0FF"/>
<stop offset="0.56" stop-color="#1EDDFF"/>
<stop offset="0.86" stop-color="#0BF2FF"/>
<stop offset="1" stop-color="#00FFFF"/>
</radialGradient>
<radialGradient id="paint2_radial_107_5196" cx="0" cy="0" r="1" gradientUnits="userSpaceOnUse" gradientTransform="translate(41.0145 44.5127) scale(24.6387 24.6887)">
<stop stop-color="#2ECCFF"/>
<stop offset="0.27" stop-color="#2AD0FF"/>
<stop offset="0.56" stop-color="#1EDDFF"/>
<stop offset="0.86" stop-color="#0BF2FF"/>
<stop offset="1" stop-color="#00FFFF"/>
</radialGradient>
<radialGradient id="paint3_radial_107_5196" cx="0" cy="0" r="1" gradientUnits="userSpaceOnUse" gradientTransform="translate(111.133 51.6121) rotate(69.9674) scale(12.0509 12.0322)">
<stop stop-color="#2ECCFF"/>
<stop offset="0.27" stop-color="#2AD0FF"/>
<stop offset="0.56" stop-color="#1EDDFF"/>
<stop offset="0.86" stop-color="#0BF2FF"/>
<stop offset="1" stop-color="#00FFFF"/>
</radialGradient>
<clipPath id="clip0_107_5196">
<rect width="131" height="129" fill="white"/>
</clipPath>
</defs>
</svg>
