<svg width="150" height="127" viewBox="0 0 150 127" fill="none" xmlns="http://www.w3.org/2000/svg">
<g clip-path="url(#clip0_107_5711)">
<path d="M148.007 0L97.9303 6.31243L85.4488 12.0316L78.2871 13.8589C78.2871 13.8589 69.585 25.5582 69.585 48.8462C69.585 48.8462 88.1484 73.645 103.591 79.9969L132.032 85.3285L148.007 0Z" fill="#5B254E"/>
<path d="M132.024 85.3285L93.4602 46.4731L104.298 17.2445H116.216L148.007 0C148.007 0 152.493 30.4468 148.007 55.0637C148.007 55.0637 140.829 77.703 132.024 85.3285Z" fill="#985965"/>
<path d="M93.4602 46.473C93.4602 46.473 78.4856 43.5304 69.577 48.8461C69.577 48.8461 76.5562 68.0998 103.583 79.9969C103.583 79.9969 124.092 86.9817 132.024 85.3285C132.024 85.3285 103.973 61.8586 93.4602 46.473Z" fill="#461642"/>
<path d="M116.216 17.2445H132.755L125.593 12.1582L116.216 17.2445Z" fill="#6E3E62"/>
<path d="M104.298 17.2445C104.298 17.2445 99.82 32.4877 104.298 44.1C108.776 55.7123 132.024 85.3285 132.024 85.3285C132.024 85.3285 100.416 59.8652 93.4602 46.4731L104.298 17.2445Z" fill="#B06979"/>
<path d="M88.8472 45.6583L95.731 40.3425V50.1197L88.8472 45.6583Z" fill="#D27F7C"/>
<path d="M78.2792 13.8509L104.298 17.2445H116.216L148.007 0L97.9304 6.31243L86.354 12.1581L78.2792 13.8509Z" fill="#6E3E62"/>
<path d="M0 104.084C0 104.084 14.7999 62.2066 25.082 51.8521L48.6396 71.0345L56.4922 75.3773L52.5381 81.0886L80.6294 101.212C80.6294 101.212 74.6745 112.152 65.2419 116.471L47.8695 123.282C47.8695 123.282 36.5631 128.566 29.6951 126.517C29.6951 126.517 14.5855 125.924 0 104.084Z" fill="#5B254E"/>
<path d="M25.082 51.8521C25.082 51.8521 17.42 64.8409 21.8505 84.6799C21.8505 84.6799 39.1435 97.4313 57.9372 102.154L60.8511 97.0833L64.7019 102.81C64.7019 102.81 72.5624 103.483 80.6214 101.212C80.6214 101.212 67.4491 87.314 51.0771 76.5006L56.4921 75.3695C56.4921 75.3695 45.543 63.4486 25.082 51.8363V51.8521Z" fill="#985965"/>
<path d="M21.8505 84.6798C21.8505 84.6798 5.54997 95.7701 0 104.084C0 104.084 9.07527 74.8473 25.082 51.8521C25.082 51.8521 20.4769 72.7985 21.8505 84.6798Z" fill="#461642"/>
<path d="M60.8511 97.0833L59.0964 103.752L38.818 122.127C38.818 122.127 58.628 110.523 64.702 102.818L60.8511 97.0912V97.0833Z" fill="#461642"/>
<g style="mix-blend-mode:soft-light" opacity="0.2">
<path d="M24.9074 52.6669C24.9074 52.6669 22.7319 71.7782 25.3441 79.5698C27.9643 87.3536 47.3217 92.875 49.3701 92.6535C51.4107 92.4399 52.6334 89.7504 61.0815 93.0332C69.5295 96.3159 71.3874 94.8842 70.1726 93.2863C68.9578 91.6884 57.0242 85.3444 51.6886 80.1473C46.3451 74.9502 52.0062 74.7841 49.1399 71.3115C46.2736 67.8388 31.0926 54.7473 24.9074 52.6669Z" fill="#D2CCBF"/>
</g>
<path d="M23.907 57.8718C23.907 57.8718 22.9463 77.703 25.6855 81.9904C28.4248 86.2777 46.9564 99.3139 57.9293 102.154C57.9293 102.154 39.3103 98.1748 21.8426 84.6799C21.8426 84.6799 21.3424 70.3306 23.907 57.8718Z" fill="#B06979"/>
<path d="M21.8109 81.4762L19.8497 86.08L24.1214 86.2619L21.8109 81.4762Z" fill="#D27F7C"/>
<path d="M63.4871 101.015L61.8992 105.808L67.1951 102.723C67.1951 102.723 64.7258 100.943 63.4871 101.015Z" fill="#B06979"/>
</g>
<defs>
<clipPath id="clip0_107_5711">
<rect width="150" height="127" fill="white"/>
</clipPath>
</defs>
</svg>
