<svg width="280" height="242" viewBox="0 0 280 242" fill="none" xmlns="http://www.w3.org/2000/svg">
<g clip-path="url(#clip0_107_5700)">
<path d="M97.5038 241.433C97.5038 241.433 7.61381 105.446 0 52.5092L108.219 26.3615L138.289 13.0952L146.277 37.2974L267.264 0C267.264 0 286.138 41.6268 277.936 78.689L259.5 144.443C259.5 144.443 249.994 189.127 228.81 204.596C228.81 204.596 193.682 247.334 97.5145 241.433H97.5038Z" fill="#5B254E"/>
<path d="M0 52.5092C0 52.5092 21.0877 103.639 88.9597 134.705C88.9597 134.705 164.499 112.534 219.859 68.2235L211.454 48.4898L236.745 49.965C236.745 49.965 256.089 28.5316 267.264 0C267.264 0 197.456 7.58989 129.638 31.3644L138.289 13.0845C138.289 13.0845 79.1965 18.5899 0 52.5092Z" fill="#985965"/>
<path d="M88.9597 134.705C88.9597 134.705 85.4201 206.798 97.5145 241.433C97.5145 241.433 31.9737 150.141 0.0106812 52.5093C0.0106812 52.5093 51.1579 112.363 88.9704 134.705H88.9597Z" fill="#461642"/>
<path d="M211.454 48.4898L227.099 68.3732L236.103 168.239C236.103 168.239 245.898 84.7396 236.745 49.9543L211.454 48.4791V48.4898Z" fill="#461642"/>
<g style="mix-blend-mode:soft-light" opacity="0.2">
<path d="M2.01038 54.8182C2.01038 54.8182 53.1576 103.543 81.7415 113.175C110.325 122.807 169.247 78.5821 173.129 72.136C177.01 65.7007 171.835 56.1972 200.13 38.8367C228.425 21.4762 228.339 12.8814 220.961 12.8921C213.593 12.8921 168.659 33.6093 141.647 37.6608C114.635 41.7123 126.633 24.8435 110.144 25.5063C93.6541 26.1691 21.7721 41.3916 2.01038 54.8182Z" fill="#D2CCBF"/>
</g>
<path d="M15.0351 69.2604C15.0351 69.2604 70.9838 116.029 89.5906 117.547C108.197 119.065 187.308 93.9222 219.859 68.2235C219.859 68.2235 167.065 113.709 88.9597 134.705C88.9597 134.705 45.8433 104.356 15.0351 69.2604Z" fill="#B06979"/>
<path d="M79.4959 127.724L88.6603 143.641L98.6053 131.594L79.4959 127.724Z" fill="#D27F7C"/>
<path d="M228.789 49.4946L239.311 64.7599L241.984 42.4713C241.984 42.4713 231.323 45.7318 228.789 49.4946Z" fill="#B06979"/>
</g>
<defs>
<clipPath id="clip0_107_5700">
<rect width="280" height="242" fill="white"/>
</clipPath>
</defs>
</svg>
