<svg width="602" height="581" viewBox="0 0 602 581" fill="none" xmlns="http://www.w3.org/2000/svg">
<g clip-path="url(#clip0_107_1981)">
<path d="M91.3165 22.6188C97.9762 30.8582 99.5564 41.7499 104.455 50.9374C103.834 52.0887 101.656 49.9667 100.064 49.2444C97.2086 47.9125 94.4093 46.4452 91.5874 45.057C86.7789 42.6754 81.9027 40.3842 77.1619 37.8673C71.7551 34.9778 66.4161 31.7047 62.5671 26.8739C58.6164 21.9077 55.8735 13.3862 64.3844 11.2191C73.8546 8.81501 85.6614 15.6097 91.3165 22.6188Z" fill="white"/>
<path d="M257.153 32.3931C263.61 42.1224 258.079 50.1812 249.625 53.6575C241.735 56.8968 231.316 56.1632 225.718 49.1202C219.588 41.4 223.968 30.5647 232.309 26.5466C240.425 22.63 252.018 24.6842 257.142 32.4044L257.153 32.3931Z" fill="white"/>
<path d="M583.421 22.5398C591.175 24.4021 598.343 30.4744 595.848 39.0975C593.839 46.0276 585.757 50.2602 579.684 53.0593C566.309 59.2445 550.461 60.8472 537.593 68.0482C538.011 67.3823 538.349 66.8179 538.541 66.5471C542.131 61.5357 545.562 56.4002 548.982 51.276C555.924 40.8696 567.347 18.6797 583.409 22.5398H583.421Z" fill="white"/>
<path d="M19.2341 231.921C29.4493 232.158 28.7043 243.682 21.6045 248.163C16.0961 251.639 6.73872 249.766 5.02301 243.084C3.20571 235.996 13.8273 231.786 19.2341 231.921Z" fill="white"/>
<path d="M93.1676 451.292C97.1183 455.355 94.3415 462.308 92.5355 466.766C87.885 478.267 77.9971 485.807 65.2422 485.57C59.2033 485.468 52.2389 483.369 48.0625 478.798C42.1817 472.364 48.3334 464.306 53.537 459.43C57.6231 455.615 62.6799 452.804 67.8496 450.716C74.498 448.03 87.2529 445.208 93.1676 451.281V451.292Z" fill="white"/>
<path d="M320.973 538.042C323.919 542.67 328.197 548.787 327.441 554.544C326.606 560.853 319.506 564.691 314.144 567.083C308.331 569.668 301.976 568.934 298.838 562.772C295.926 557.072 299.29 549.769 301.073 544.137C304.336 533.889 307.033 523.099 307.722 512.275C308.851 513.121 311.639 520.649 312.575 523.031C314.686 528.392 317.869 533.178 320.973 538.031V538.042Z" fill="white"/>
<path d="M576.23 330.117C576.389 336.539 568.803 341.765 562.9 339.44C556.929 337.081 552.617 326.369 558.915 322.577C564.649 319.123 576.039 322.78 576.23 330.117Z" fill="white"/>
<path d="M439.696 394.158C450.16 400.704 452.101 412.488 442.777 420.897C442.665 420.987 442.563 421.077 442.45 421.179C437.134 425.806 427.381 426.179 421.512 422.409C413.859 417.51 409.829 408.526 415.258 400.569C420.654 392.668 431.117 388.797 439.696 394.169V394.158Z" fill="white"/>
<path d="M447.202 216.3C449.505 216.199 451.943 216.109 454.223 216.56C454.923 216.696 455.623 217.023 456.311 217.203C456.266 217.282 456.198 217.339 456.153 217.407C455.262 217.847 454.426 218.851 453.614 219.438C452.022 220.589 450.318 221.594 448.658 222.632C444.629 225.183 440.599 227.689 436.581 230.24C424.853 237.689 415.428 249.337 419.999 263.886C423.995 276.538 437.258 282.272 448.037 288.152C464.946 297.34 481.573 307.001 498.109 316.821C487.183 318.773 474.857 316.245 464.416 315.06C447.958 313.187 431.422 311.945 414.92 310.76C403.801 309.958 389.195 306.956 383.721 319.564C381.463 324.778 381.283 330.67 381.983 336.234C382.919 343.503 387.423 351.144 386.509 358.526C377.919 362.047 369.431 352.397 362.421 348.593C355.344 344.756 347.646 345.218 341.381 350.286C334.913 355.501 330.884 363.232 327.825 370.772C323.513 381.37 319.788 392.217 316.289 403.086C312.564 414.723 309.246 426.472 306.367 438.335C304.99 444.034 304.121 450.005 302.45 455.626C301.491 458.809 300.193 460.073 297.777 456.416C295.712 453.301 295.667 448.459 294.989 444.858C292.687 432.748 290.497 420.626 288.205 408.515C286.185 397.871 285.316 386.122 281.535 375.907C279.051 369.18 272.527 360.061 264.693 366.054C260.314 369.417 257.323 375.332 254.173 379.734C251.431 383.548 248.688 387.363 245.945 391.167C245.832 386.743 245.708 382.329 245.617 377.905C245.437 370.625 246.283 362.442 243.924 355.41C239.669 342.747 223.866 344.699 213.448 347.69C200.67 351.347 189.597 359.011 179.077 366.821C166.604 376.054 154.222 385.264 140.925 393.312C137.765 395.219 119.129 408.887 117.774 400.84C116.68 394.406 121.398 386.28 124.265 380.84C131.929 366.314 143.059 350.523 142.652 333.424C142.449 325.004 138.397 317.487 130.247 314.326C124.457 312.08 117.741 312.758 111.679 311.787C104.861 310.703 96.1362 306.572 104.839 301.347C107.999 299.45 111.487 297.904 114.761 296.211C121.014 292.983 127.256 289.744 133.498 286.516C135.428 285.511 135.473 281.978 135.507 280.218C135.643 273.502 132.268 268.773 126.229 265.951C117.639 261.944 108.191 259.213 99.2967 255.906C90.086 252.486 80.8528 249.066 71.6196 245.657C69.9716 245.037 68.2107 244.484 66.5627 243.806C66.9465 243.558 67.2287 243.4 67.319 243.355C69.2605 242.497 71.3374 241.888 73.324 241.177C82.3202 237.982 91.3277 234.8 100.324 231.605C107.458 229.077 115.156 227.362 117.944 219.574C120.077 213.603 119.084 206.831 116.826 201.052C115.111 196.65 106.972 187.113 108.315 181.876C118.903 185.623 129.852 188.196 141.038 189.325C147.878 190.025 155.87 191.232 160.261 184.844C166.311 176.018 162.451 162.846 159.031 153.805C154.12 140.871 147.111 128.658 139.808 116.931C136.715 111.954 133.509 107.055 130.315 102.157C129.006 100.159 125.089 95.4074 123.497 91.6941C136.252 92.4729 145.61 100.272 155.497 107.45C165.792 114.922 176.221 122.247 187.069 128.929C197.769 135.532 208.899 141.627 220.661 146.221C229.668 149.731 241.17 153.094 247.796 143.715C253.53 135.6 251.78 125.408 253.056 116.209C254.173 108.184 261.815 98.8612 269.716 106.299C277.415 113.534 278.16 132.959 290.971 134.257C300.227 135.205 308.06 124.392 313.004 118.105C320.33 108.782 326.177 98.4436 332.904 88.7256C336.042 84.1771 339.372 78.8158 343.695 75.2943C349.045 70.9376 357.771 71.6148 358.516 79.7865C359.046 85.6556 357.184 92.36 356.428 98.184C355.536 105.035 354.622 111.875 353.809 118.737C352.262 131.751 351.901 152.564 367.139 158.264C378.404 162.462 391.769 157.079 402.018 152.428C417.064 145.6 431.129 136.469 444.55 126.932C449.245 123.591 453.896 120.182 458.591 116.841C464.98 112.293 471.73 104.719 479.677 102.958C490.569 100.532 477.092 112.112 474.744 114.392C469.111 119.866 464.213 126.322 458.794 132.044C448.207 143.196 437.337 154.099 426.772 165.262C417.279 175.284 403.271 186.255 399.625 200.251C398.293 205.375 398.508 211.774 401.736 216.188C405.732 221.617 413.283 221.865 419.401 220.962C428.724 219.596 437.709 216.741 447.191 216.323L447.202 216.3Z" fill="white"/>
<path d="M580.542 326.629C582.156 335.873 576.727 351.02 564.807 349.101C557.55 347.916 552.425 339.801 551.838 332.171C550.1 326.494 554.028 317.78 557.911 314.902C567.347 307.904 578.827 316.911 580.531 326.618L580.542 326.629ZM562.9 339.451C568.803 341.776 576.389 336.55 576.23 330.128C576.039 322.792 564.649 319.135 558.915 322.588C552.617 326.392 556.929 337.092 562.9 339.451Z" fill="#371A45"/>
<path d="M530.911 71.2085C525.448 63.5448 533.62 59.8766 537.83 53.8494C541.487 48.6349 545.099 43.3752 548.666 38.1043C551.195 34.3684 553.689 30.6098 556.195 26.8739C567.55 9.89854 597.677 8.32968 601.605 32.1336C603.163 41.5581 600.047 50.5762 592.71 56.7501C582.337 65.4635 568.781 68.0482 556.139 71.8519C550.619 73.511 544.795 77.1115 539.275 78.1725C533.688 79.2673 533.857 75.3621 530.911 71.2085ZM595.86 39.0975C598.343 30.4744 591.187 24.4021 583.432 22.5398C567.37 18.6797 555.947 40.8696 549.005 51.276C545.585 56.4002 542.153 61.5244 538.564 66.5471C538.361 66.8292 538.033 67.3823 537.616 68.0482C550.484 60.8472 566.331 59.2558 579.707 53.0593C585.78 50.2602 593.862 46.0163 595.871 39.0975H595.86Z" fill="#371A45"/>
<path d="M453.602 219.438C454.415 218.851 455.25 217.847 456.142 217.407C456.187 217.339 456.255 217.282 456.3 217.203C455.611 217.012 454.912 216.696 454.212 216.56C451.932 216.12 449.494 216.199 447.191 216.3C437.709 216.718 428.736 219.574 419.401 220.939C413.283 221.842 405.72 221.594 401.736 216.165C398.496 211.752 398.282 205.352 399.625 200.228C403.271 186.232 417.279 175.262 426.772 165.239C437.348 154.065 448.207 143.173 458.795 132.022C464.201 126.299 469.111 119.843 474.744 114.369C477.092 112.089 490.569 100.509 479.677 102.936C471.73 104.696 464.98 112.27 458.591 116.819C453.896 120.159 449.245 123.568 444.55 126.909C431.14 136.446 417.064 145.577 402.018 152.406C391.769 157.045 378.405 162.44 367.14 158.241C351.913 152.541 352.274 131.728 353.809 118.715C354.61 111.852 355.536 105.013 356.428 98.1614C357.184 92.3374 359.046 85.633 358.516 79.7639C357.771 71.5922 349.046 70.915 343.695 75.2718C339.372 78.7932 336.042 84.1545 332.904 88.7031C326.177 98.4323 320.33 108.771 313.004 118.083C308.06 124.369 300.227 135.193 290.971 134.234C278.171 132.936 277.426 113.511 269.716 106.277C261.815 98.8386 254.173 108.162 253.056 116.186C251.781 125.385 253.519 135.566 247.796 143.692C241.17 153.06 229.668 149.708 220.661 146.198C208.899 141.604 197.77 135.509 187.069 128.907C176.233 122.225 165.792 114.9 155.498 107.428C145.61 100.249 136.264 92.4503 123.497 91.6715C125.089 95.3849 129.017 100.137 130.315 102.134C133.521 107.033 136.726 111.931 139.808 116.909C147.111 128.636 154.12 140.848 159.031 153.783C162.451 162.812 166.311 175.995 160.261 184.822C155.87 191.199 147.878 189.991 141.038 189.302C129.852 188.162 118.903 185.589 108.316 181.853C106.972 187.09 115.111 196.628 116.826 201.029C119.084 206.808 120.066 213.58 117.944 219.551C115.156 227.339 107.458 229.055 100.324 231.583C91.3277 234.777 82.3202 237.96 73.324 241.154C71.3374 241.854 69.2605 242.475 67.3191 243.332C67.2288 243.366 66.9579 243.536 66.5628 243.784C68.2108 244.461 69.9716 245.014 71.6196 245.635C80.8529 249.044 90.0748 252.452 99.2967 255.883C108.191 259.19 117.639 261.922 126.229 265.929C132.268 268.75 135.643 273.491 135.507 280.195C135.473 281.956 135.428 285.489 133.498 286.493C127.256 289.721 121.014 292.961 114.761 296.189C111.487 297.893 107.999 299.428 104.839 301.324C96.1475 306.55 104.862 310.681 111.679 311.764C117.741 312.735 124.457 312.069 130.247 314.304C138.397 317.464 142.449 324.97 142.652 333.401C143.059 350.501 131.929 366.291 124.265 380.817C121.398 386.257 116.668 394.395 117.774 400.817C119.14 408.865 137.765 395.196 140.925 393.289C154.222 385.23 166.605 376.031 179.077 366.799C189.597 358.988 200.67 351.325 213.448 347.668C223.866 344.677 239.658 342.735 243.924 355.388C246.283 362.42 245.448 370.591 245.618 377.882C245.719 382.307 245.843 386.72 245.945 391.144C248.688 387.33 251.431 383.515 254.173 379.711C257.323 375.32 260.314 369.395 264.694 366.031C272.527 360.038 279.051 369.158 281.535 375.885C285.316 386.088 286.185 397.849 288.206 408.492C290.497 420.603 292.687 432.725 294.989 444.836C295.667 448.436 295.712 453.278 297.777 456.394C300.193 460.05 301.491 458.786 302.45 455.603C304.121 449.983 304.99 444.023 306.367 438.312C309.257 426.45 312.575 414.7 316.289 403.063C319.788 392.194 323.513 381.348 327.825 370.749C330.884 363.21 334.913 355.478 341.381 350.264C347.635 345.196 355.344 344.733 362.421 348.571C369.431 352.374 377.919 362.013 386.509 358.503C387.423 351.133 382.92 343.492 381.983 336.212C381.272 330.647 381.463 324.755 383.721 319.541C389.184 306.934 403.802 309.936 414.92 310.737C431.434 311.934 447.959 313.175 464.416 315.038C474.857 316.223 487.183 318.751 498.109 316.798C481.573 306.979 464.946 297.317 448.038 288.13C437.258 282.261 423.984 276.516 419.999 263.863C415.428 249.314 424.853 237.655 436.581 230.217C440.588 227.666 444.629 225.161 448.658 222.61C450.318 221.571 452.022 220.567 453.614 219.416L453.602 219.438ZM509.431 313.265C511.812 314.688 512.422 321.482 509.803 322.972C498.403 329.451 484.79 327.148 472.272 326.798C457.022 326.358 441.807 325.997 426.58 325.173C418.972 324.767 411.364 324.09 403.745 323.853C398.011 323.672 389.771 323.909 388.168 330.749C386.848 336.449 390.053 343.051 390.922 348.65C392.029 355.76 392.435 366.686 382.773 367.149C376.711 367.431 370.244 363.153 365.503 360.072C360.83 357.047 355.886 354.699 350.321 356.584C345.467 358.243 341.844 361.833 338.943 365.918C332.961 374.35 329.879 384.835 326.493 394.485C322.463 405.987 318.817 417.612 315.544 429.362C312.361 440.784 310.058 452.375 307.157 463.854C305.317 471.1 298.139 473.392 293.973 466.089C291.4 461.574 290.994 455.694 290.045 450.705C288.962 445.05 287.867 439.396 286.738 433.752C284.334 421.653 282.065 409.531 279.74 397.431C278.679 391.968 275.891 368.639 265.867 378.943C261.657 383.278 258.418 389.237 254.896 394.147C251.566 398.752 248.248 403.368 244.929 407.996C242.265 411.709 240.109 404.519 240.064 402.871C239.782 392.984 239.5 383.086 239.161 373.198C239.048 369.88 239.861 365.196 238.597 362.092C236.621 357.261 229.77 357.758 225.48 358.006C210.141 358.875 196.686 367.657 184.665 376.427C172.835 385.05 161.39 394.068 148.996 401.935C142.393 406.122 135.643 410.445 128.599 413.887C125.552 415.366 121.725 416.991 118.294 415.806C111.216 413.402 110.675 403.289 111.07 397.183C111.589 389.429 113.982 381.98 117.436 375.049C121.217 367.465 125.597 360.173 129.322 352.566C131.873 347.363 137.065 338.672 135.451 332.589C133.419 324.891 121.127 325.286 115.122 324.699C105.358 323.762 95.3348 320.331 92.2194 310.173C89.9506 302.78 94.0932 296.347 99.3758 291.493C103.36 287.825 109.027 285.76 113.79 283.288C117.267 281.482 120.732 279.676 124.208 277.881C120.912 276.662 117.165 275.455 116.567 275.24C111.95 273.536 107.322 271.82 102.706 270.116C93.0886 266.572 83.4716 263.005 73.8546 259.45C67.4997 257.091 59.3613 255.533 57.1941 248.174C55.3768 241.967 57.3183 235.567 62.9169 232.147C70.536 227.508 80.7513 225.443 89.1492 222.486C94.0255 220.759 98.9017 219.054 103.778 217.316C108.304 215.691 113.688 214.325 111.724 208.58C109.365 201.684 104.117 196.357 102.186 189.167C100.369 182.429 100.742 175.341 105.211 169.731C105.844 168.93 106.803 168.636 107.751 168.997C119.084 173.298 130.789 176.187 142.889 177.259C147.246 177.654 155.667 179.167 156.897 173.275C157.755 169.257 155.249 163.715 153.895 160.092C151.716 154.291 148.928 148.738 146.016 143.286C140.135 132.304 133.476 121.751 126.793 111.254C122.854 105.035 112.729 91.6151 119.377 84.4141C130.168 72.7209 149.244 90.5202 157.552 96.5474C169.98 105.599 182.61 114.414 195.93 122.123C202.341 125.837 208.91 129.29 215.683 132.304C222.117 135.148 230.21 139.381 237.468 138.06C250.979 135.622 246.092 116.491 248.564 106.931C250.482 99.5271 255.584 90.1139 264.705 91.4458C271.24 92.3826 275.146 98.4097 277.889 103.805C280.564 109.053 282.471 117.631 287.856 120.893C296.897 126.367 307.214 110.893 311.559 105.046C319.021 95.0011 325.093 84.0077 332.532 73.9286C337.747 66.8631 346.777 55.1248 356.721 62.0888C365.74 68.3981 364.679 81.5359 363.358 90.9491C361.563 103.861 358.505 117.202 358.155 130.25C357.127 169.054 415.631 134.313 429.131 125.746C440.599 118.478 451.638 110.588 463.152 103.41C470.568 98.7935 483.977 89.1658 493.38 91.5699C506.97 95.0575 474.834 130.306 471.572 133.918C452.101 155.465 430.835 175.487 412.177 197.756C410.337 199.968 408.508 202.305 407.267 204.912C407.154 205.115 407.041 205.375 406.928 205.646C407.188 205.815 407.402 205.973 407.481 205.984C412.38 207.057 416.116 207.643 421.241 206.955C423.137 206.695 425.011 206.368 426.896 206.041C435.768 204.54 445.656 202.61 454.562 204.698C464.371 207 466.402 218.885 460.668 226.447C456.063 232.531 447.507 236.177 441.231 240.24C436.242 243.468 424.345 250.082 425.327 257.396C426.015 262.599 433.939 267.023 437.879 269.518C442.947 272.746 448.286 275.534 453.388 278.728C472.035 290.353 490.547 302.046 509.431 313.311V313.265Z" fill="#371A45"/>
<path d="M447.643 392.939C455.928 403.165 457.327 418.628 446.706 427.691C435.204 437.477 417.042 438.323 409.705 423.56C406.386 416.856 406.025 408.56 408.238 401.472C413.656 384.181 435.915 378.469 447.643 392.95V392.939ZM442.778 420.885C452.101 412.477 450.148 400.693 439.696 394.147C431.129 388.786 420.654 392.646 415.259 400.546C409.829 408.492 413.859 417.488 421.512 422.386C427.381 426.156 437.145 425.784 442.45 421.156C442.563 421.055 442.665 420.964 442.778 420.874V420.885Z" fill="#371A45"/>
<path d="M327.577 533.844C334.992 546.97 337.148 565.458 323.141 575.018C317.147 579.104 309.144 583.438 302.089 579.386C296.141 575.955 292.89 568.912 291.987 562.388C290.723 553.201 293.68 544.611 296.344 535.966C298.68 528.403 299.99 520.616 301.254 512.839C301.728 509.893 301.683 503.516 304.505 501.642C309.291 498.471 313.727 505.683 314.776 509.487C317.361 518.844 322.858 525.503 327.565 533.844H327.577ZM327.441 554.544C328.197 548.787 323.919 542.67 320.973 538.042C317.869 533.189 314.686 528.403 312.575 523.042C311.65 520.661 308.85 513.132 307.722 512.286C307.033 523.11 304.335 533.889 301.073 544.149C299.29 549.781 295.926 557.072 298.838 562.783C301.988 568.934 308.343 569.679 314.144 567.095C319.517 564.702 326.606 560.864 327.441 554.555V554.544Z" fill="#371A45"/>
<path d="M263.982 35.5309C266.646 51.671 252.492 71.7277 234.465 65.4409C227.151 62.8788 220.853 56.5695 218.573 49.1879C214.633 36.4 219.95 19.8535 233.732 15.6435C248.214 11.2191 261.646 21.3321 263.982 35.5196V35.5309ZM249.636 53.6575C258.09 50.1812 263.621 42.1337 257.165 32.3932C252.04 24.673 240.448 22.6301 232.332 26.5353C223.991 30.5647 219.611 41.4 225.74 49.1089C231.339 56.1519 241.757 56.8968 249.647 53.6462L249.636 53.6575Z" fill="#371A45"/>
<path d="M109.173 46.0389C110.979 52.2579 111.544 58.4093 107.875 61.3551C105.742 63.0933 103.417 62.3596 101.024 61.4793C95.9444 59.5944 91.0343 56.5921 86.1468 54.1993C70.9311 46.7048 53.3564 37.8447 52.4985 18.6797C52.1938 11.9415 54.4174 3.7698 61.348 1.0271C68.0528 -1.6253 77.049 1.35442 82.9637 4.69532C92.9532 10.3387 99.0372 20.3614 103.202 30.6663C104.546 33.9959 107.424 40.0682 109.162 46.0502L109.173 46.0389ZM100.064 49.2331C101.656 49.9667 103.834 52.0774 104.455 50.9261C99.5564 41.7386 97.9874 30.8469 91.3165 22.6075C85.6727 15.5984 73.8546 8.81501 64.3843 11.2078C55.8622 13.3636 58.6164 21.8964 62.567 26.8626C66.4161 31.6934 71.7551 34.9666 77.1619 37.856C81.9027 40.3729 86.7789 42.6642 91.5874 45.0457C94.4093 46.434 97.2199 47.9012 100.064 49.2331Z" fill="#371A45"/>
<path d="M92.4903 440.795C100.177 445.355 100.73 456.8 99.0371 464.52C95.3574 481.247 83.5393 495.864 64.9486 495.209C47.769 494.611 35.5671 479.509 42.8476 463.087C46.3242 455.242 52.8032 449.193 60.2982 445.152C66.021 442.071 75.1978 438.594 83.2232 438.594C86.6434 438.594 89.849 439.215 92.4903 440.784V440.795ZM92.5467 466.755C94.3528 462.308 97.1295 455.344 93.1789 451.281C87.2642 445.208 74.5205 448.019 67.8608 450.716C62.6911 452.804 57.6343 455.615 53.5482 459.43C48.3446 464.306 42.1929 472.364 48.0737 478.798C52.2501 483.369 59.2146 485.468 65.2534 485.57C78.0084 485.796 87.8963 478.267 92.5467 466.766V466.755Z" fill="#371A45"/>
<path d="M31.0183 235.217C32.5421 245.319 24.8214 263.773 11.8294 259.269C6.17435 257.305 2.16726 252.655 0.699874 246.989C-2.09944 236.199 3.66851 224.72 15.3737 223.152C23.7717 222.023 29.7992 227.113 31.0183 235.217ZM21.6045 248.174C28.7043 243.694 29.438 232.17 19.2341 231.933C13.816 231.809 3.20571 236.019 5.02301 243.095C6.75001 249.777 16.1074 251.651 21.6045 248.174Z" fill="#371A45"/>
<path d="M191.244 189.847C190.897 188.866 191.042 188.136 191.678 187.656C192.015 187.409 192.373 187.283 192.752 187.276C193.156 187.217 193.525 187.299 193.858 187.521C194.242 187.766 194.552 188.102 194.787 188.528C195.417 189.705 196.034 190.909 196.638 192.137C197.23 193.328 197.809 194.544 198.376 195.786C199.206 197.529 199.991 199.267 200.732 200.999C201.459 202.693 202.238 204.412 203.067 206.155C203.675 207.51 204.294 208.84 204.926 210.144C205.557 211.447 206.195 212.77 206.84 214.112C206.931 214.249 207.023 214.387 207.114 214.524C207.205 214.662 207.296 214.799 207.387 214.937C207.409 214.759 207.438 214.601 207.473 214.461C207.508 214.321 207.537 214.162 207.559 213.985C207.455 212.494 207.358 211.022 207.268 209.568C207.164 208.078 207.061 206.587 206.957 205.096C206.911 204.009 207.36 203.298 208.302 202.964C209.17 202.657 209.934 202.959 210.597 203.87C211.505 205.118 212.389 206.354 213.247 207.578C214.104 208.802 214.981 210.019 215.877 211.23C215.903 211.305 215.981 211.405 216.11 211.529C216.174 211.591 216.283 211.659 216.436 211.732C216.447 211.643 216.465 211.573 216.489 211.522C216.5 211.433 216.492 211.351 216.466 211.276C216.49 211.225 216.475 211.124 216.422 210.973L213.644 199.354C213.289 197.994 212.929 196.679 212.564 195.408C212.186 194.099 211.819 192.765 211.465 191.405C211.329 190.902 211.2 190.417 211.077 189.951C210.979 189.434 210.887 188.936 210.803 188.457L209.869 184.205C209.827 183.965 209.766 183.732 209.686 183.506C209.605 183.28 209.563 183.04 209.558 182.787C209.522 182.206 209.653 181.735 209.949 181.376C210.271 180.965 210.715 180.722 211.283 180.649C211.776 180.601 212.202 180.726 212.562 181.023C212.921 181.32 213.157 181.746 213.269 182.301C213.761 184.29 214.209 186.275 214.613 188.253C215.055 190.219 215.541 192.189 216.071 194.166C216.57 195.814 216.993 197.489 217.341 199.19C217.713 200.84 218.105 202.484 218.515 204.121C218.789 205.255 219.088 206.4 219.414 207.558C219.726 208.678 220 209.812 220.236 210.959C220.513 212.219 220.758 213.511 220.973 214.835C221.211 216.109 221.45 217.382 221.689 218.655C221.883 219.563 221.592 220.238 220.816 220.683C220.091 221.152 219.35 221.096 218.593 220.516C217.809 219.86 217.138 219.164 216.58 218.428C215.816 217.468 215.064 216.483 214.324 215.472C213.57 214.423 212.805 213.4 212.027 212.402C212 212.327 211.923 212.227 211.794 212.103C211.665 211.979 211.517 211.861 211.351 211.751C211.253 211.955 211.212 212.139 211.228 212.303C211.274 213.39 211.326 214.496 211.385 215.621C211.431 216.708 211.457 217.802 211.465 218.903C211.49 219.573 211.49 220.231 211.464 220.876C211.438 221.522 211.387 222.156 211.31 222.777C211.23 223.272 210.992 223.738 210.596 224.176C210.148 224.589 209.639 224.769 209.069 224.716C208.523 224.613 208.086 224.279 207.759 223.716C207.408 223.204 207.076 222.685 206.763 222.16C206.474 221.583 206.191 221.025 205.915 220.486C205.126 218.857 204.336 217.227 203.547 215.597C202.758 213.967 201.968 212.337 201.179 210.707C200.756 209.753 200.296 208.813 199.798 207.886C199.3 206.959 198.839 206.019 198.417 205.065C197.849 203.823 197.289 202.6 196.735 201.396C196.206 200.141 195.657 198.892 195.09 197.65C194.866 197.136 194.635 196.666 194.4 196.24C194.188 195.763 193.952 195.274 193.689 194.773C193.269 193.946 192.849 193.119 192.428 192.291C191.995 191.427 191.6 190.612 191.244 189.847ZM228.237 207.679L230.841 215.032C230.895 215.183 230.948 215.333 231.001 215.484C231.055 215.635 231.089 215.793 231.105 215.957C231.299 216.864 230.983 217.528 230.155 217.948C229.843 218.144 229.483 218.207 229.077 218.139C228.658 218.033 228.306 217.818 228.022 217.494C227.764 217.246 227.562 216.915 227.415 216.5C226.547 214.049 225.685 211.617 224.831 209.204C224 206.74 223.151 204.282 222.283 201.832C222.096 201.304 221.897 200.801 221.686 200.325C221.474 199.848 221.282 199.364 221.108 198.874C220.719 197.654 220.329 196.434 219.94 195.214C219.537 193.957 219.14 192.718 218.751 191.498C218.227 189.901 217.68 188.355 217.108 186.86C216.574 185.352 216.045 183.8 215.522 182.203L215.222 181.354C215.15 180.913 215.2 180.513 215.37 180.156C215.54 179.799 215.801 179.515 216.151 179.306C216.515 179.135 216.881 179.09 217.249 179.172C217.655 179.24 217.994 179.418 218.265 179.703C218.407 179.865 218.537 180.053 218.655 180.266C218.759 180.441 218.845 180.623 218.912 180.811C219.62 182.809 220.321 184.789 221.015 186.75C221.696 188.673 222.372 190.64 223.042 192.652C223.175 193.029 223.29 193.412 223.386 193.803C223.468 194.155 223.57 194.502 223.69 194.841C223.772 195.194 223.89 195.406 224.043 195.479C224.183 195.515 224.397 195.46 224.686 195.316C225.087 195.131 225.476 194.972 225.853 194.838C226.255 194.654 226.656 194.469 227.058 194.285C227.623 194.084 227.812 193.72 227.625 193.192C227.519 192.891 227.412 192.589 227.305 192.287C227.222 191.935 227.109 191.614 226.964 191.326C226.215 189.809 225.611 188.283 225.152 186.748C224.693 185.213 224.24 183.634 223.792 182.011C223.683 181.582 223.562 181.18 223.428 180.803C223.295 180.426 223.173 180.023 223.064 179.595C222.997 179.407 222.935 179.11 222.877 178.707C222.778 177.469 223.308 176.75 224.469 176.552C224.91 176.48 225.33 176.586 225.727 176.87C226.111 177.116 226.378 177.509 226.527 178.05C226.745 178.906 226.964 179.763 227.182 180.619C227.425 181.424 227.7 182.26 228.007 183.127C228.33 184.159 228.672 185.184 229.032 186.202C229.431 187.206 229.791 188.224 230.114 189.256C230.595 190.613 231.075 191.97 231.556 193.328C232.061 194.634 232.517 195.979 232.922 197.363C233.325 198.621 233.709 199.885 234.074 201.156C234.44 202.427 234.83 203.71 235.247 205.006C235.636 206.226 236.064 207.432 236.529 208.625C236.98 209.781 237.42 210.962 237.847 212.169C237.914 212.357 237.974 212.527 238.028 212.678C238.119 212.815 238.179 212.985 238.208 213.187C238.313 214.083 237.99 214.728 237.238 215.121C236.837 215.306 236.44 215.383 236.047 215.352C235.678 215.271 235.352 215.068 235.068 214.744C234.926 214.582 234.796 214.395 234.678 214.182C234.56 213.969 234.449 213.775 234.344 213.6C234.026 212.822 233.708 212.043 233.39 211.265C233.096 210.435 232.828 209.618 232.585 208.813C232.305 208.021 232.043 207.223 231.8 206.417C231.558 205.612 231.321 204.826 231.092 204.058C230.809 203.14 230.533 202.241 230.264 201.36C229.981 200.442 229.698 199.524 229.415 198.605C229.279 198.102 229.116 197.82 228.925 197.761C228.772 197.688 228.457 197.757 227.98 197.968C227.654 198.126 227.328 198.284 227.002 198.442C226.663 198.562 226.323 198.682 225.984 198.802C225.545 199 225.419 199.363 225.606 199.891L228.35 207.639L228.237 207.679ZM241.877 202.085L239.392 193.99C239.123 193.109 238.848 192.273 238.567 191.481C238.273 190.652 237.98 189.822 237.686 188.993C237.592 188.729 237.456 188.523 237.276 188.374C235.714 186.721 234.221 185.022 232.797 183.277C231.373 181.532 229.992 179.73 228.654 177.87C228.499 177.67 228.362 177.464 228.244 177.251C228.164 177.025 228.077 176.78 227.984 176.516C227.861 176.05 227.904 175.632 228.112 175.261C228.307 174.853 228.605 174.556 229.006 174.371C229.885 173.976 230.648 174.214 231.297 175.088C231.673 175.549 232.017 176.042 232.33 176.568C232.682 177.08 233.045 177.567 233.42 178.028C234.016 178.75 234.592 179.48 235.15 180.216C235.732 180.901 236.328 181.623 236.936 182.384L237.456 182.773C237.505 182.67 237.535 182.575 237.546 182.486C237.581 182.346 237.597 182.213 237.595 182.087C237.542 180.62 237.515 179.166 237.514 177.724C237.512 176.281 237.485 174.827 237.432 173.36C237.425 172.981 237.469 172.626 237.564 172.295C237.697 171.951 237.957 171.668 238.346 171.446C239.022 171.079 239.666 171.041 240.279 171.334C240.932 171.739 241.259 172.302 241.259 173.023L241.277 180.082L241.185 187.371C241.188 187.498 241.216 187.636 241.269 187.787C241.309 187.9 241.33 188.02 241.333 188.147C241.653 189.052 241.955 189.963 242.238 190.881C242.507 191.762 242.795 192.636 243.102 193.503C243.786 195.553 244.482 197.576 245.189 199.575C245.884 201.535 246.573 203.54 247.256 205.59C247.47 206.193 247.702 206.79 247.954 207.38C248.229 207.919 248.5 208.502 248.764 209.129C248.804 209.243 248.851 209.375 248.905 209.525C248.945 209.638 248.972 209.777 248.988 209.941C249.06 210.383 248.979 210.814 248.747 211.236C248.501 211.62 248.17 211.886 247.756 212.033C247.341 212.18 246.911 212.162 246.464 211.981C246.056 211.786 245.734 211.476 245.498 211.05C245.145 210.411 244.841 209.734 244.587 209.018C244.136 207.862 243.684 206.707 243.232 205.551C242.818 204.382 242.404 203.213 241.99 202.044L241.877 202.085ZM261.943 189.376C261.342 187.679 260.774 186.014 260.237 184.379C259.687 182.707 259.055 181.042 258.341 179.386C257.587 177.616 256.959 175.844 256.458 174.069C255.981 172.244 255.423 170.426 254.782 168.616C254.477 167.875 254.465 167.243 254.746 166.719C255.065 166.182 255.595 165.761 256.336 165.456C257.402 164.993 258.467 164.765 259.53 164.77C260.617 164.724 261.694 164.831 262.762 165.089C263.13 165.171 263.507 165.335 263.891 165.581C264.262 165.789 264.62 166.023 264.967 166.282C265.853 166.986 266.608 167.801 267.232 168.725C267.881 169.599 268.468 170.537 268.993 171.539C269.951 173.406 270.752 175.308 271.395 177.244C272.076 179.167 272.727 181.123 273.346 183.11C273.684 184.305 274.004 185.508 274.305 186.717C274.592 187.888 274.823 189.079 274.998 190.29C275.224 192.247 275.126 194.128 274.704 195.932C274.32 197.723 273.733 199.48 272.943 201.202C272.334 202.479 271.336 203.257 269.95 203.535C269.358 203.66 268.794 203.627 268.259 203.434C267.724 203.242 267.319 202.876 267.043 202.337C266.767 201.798 266.492 201.259 266.216 200.721C265.978 200.168 265.759 199.609 265.558 199.044C264.946 197.436 264.36 195.84 263.799 194.257C263.263 192.622 262.701 190.975 262.113 189.316L261.943 189.376ZM265.547 188.227L265.603 188.207L268.227 195.616C268.401 196.106 268.574 196.597 268.748 197.087C268.959 197.564 269.171 198.04 269.382 198.517C269.409 198.593 269.454 198.661 269.519 198.723C269.583 198.785 269.647 198.847 269.712 198.91C269.761 198.807 269.823 198.743 269.898 198.716C269.973 198.69 270.017 198.632 270.028 198.543C270.426 197.511 270.754 196.461 271.013 195.394C271.309 194.313 271.427 193.21 271.368 192.085C271.318 190.745 271.136 189.451 270.822 188.205C270.545 186.945 270.231 185.698 269.879 184.465C269.394 182.855 268.896 181.27 268.386 179.711C267.901 178.1 267.283 176.537 266.534 175.02C266.138 174.142 265.711 173.296 265.253 172.482C264.782 171.63 264.223 170.831 263.576 170.084C263.008 169.437 262.386 168.999 261.711 168.771C261.074 168.53 260.345 168.449 259.524 168.528C259.196 168.559 258.988 168.632 258.902 168.748C258.816 168.863 258.832 169.091 258.953 169.43C259.708 171.921 260.526 174.411 261.407 176.899C261.781 177.955 262.167 178.985 262.565 179.99C262.964 180.995 263.35 182.025 263.724 183.081C264.069 183.934 264.376 184.802 264.645 185.682C264.939 186.512 265.239 187.36 265.547 188.227ZM277.975 178.924L281.681 189.387L283.884 195.609C283.951 195.797 284.011 195.967 284.065 196.118C284.105 196.231 284.12 196.395 284.112 196.61C284.183 197.052 284.108 197.439 283.887 197.772C283.703 198.092 283.429 198.337 283.066 198.508C282.664 198.693 282.26 198.751 281.854 198.683C281.472 198.563 281.158 198.335 280.912 197.998C280.665 197.661 280.455 197.248 280.281 196.757C279.961 195.853 279.64 194.948 279.32 194.043C279.037 193.124 278.729 192.194 278.395 191.251L274.117 178.635C272.74 174.625 271.317 170.61 269.851 166.589C269.664 166.061 269.458 165.54 269.233 165.025C269.033 164.46 268.82 163.92 268.596 163.405L268.396 162.839C268.22 162.223 268.222 161.691 268.404 161.245C268.61 160.748 268.958 160.413 269.448 160.239C269.976 160.052 270.457 160.094 270.892 160.364C271.365 160.621 271.721 161.025 271.959 161.577C272.252 162.407 272.546 163.237 272.84 164.066C273.158 164.844 273.464 165.648 273.758 166.478L278.145 178.864L277.975 178.924ZM281.44 182.471C280.839 180.774 280.271 179.108 279.734 177.474C279.184 175.801 278.552 174.137 277.838 172.48C277.084 170.71 276.456 168.938 275.955 167.164C275.478 165.338 274.919 163.52 274.278 161.711C273.974 160.97 273.962 160.338 274.243 159.814C274.562 159.276 275.092 158.855 275.832 158.55C276.899 158.088 277.964 157.859 279.027 157.865C280.114 157.819 281.191 157.926 282.259 158.184C282.627 158.266 283.004 158.429 283.388 158.675C283.758 158.883 284.117 159.117 284.463 159.376C285.35 160.081 286.105 160.896 286.729 161.82C287.378 162.694 287.965 163.632 288.49 164.634C289.448 166.501 290.249 168.403 290.892 170.339C291.573 172.262 292.223 174.217 292.842 176.205C293.181 177.4 293.501 178.602 293.802 179.811C294.089 180.982 294.32 182.174 294.494 183.385C294.721 185.342 294.623 187.222 294.201 189.027C293.817 190.818 293.23 192.574 292.44 194.297C291.831 195.574 290.833 196.351 289.447 196.63C288.855 196.755 288.291 196.721 287.756 196.529C287.221 196.336 286.816 195.971 286.54 195.432C286.264 194.893 285.989 194.354 285.713 193.815C285.475 193.263 285.256 192.704 285.055 192.139C284.443 190.531 283.857 188.935 283.296 187.351C282.76 185.717 282.197 184.07 281.61 182.411L281.44 182.471ZM285.043 181.322L285.1 181.302L287.724 188.711C287.898 189.201 288.071 189.691 288.245 190.181C288.456 190.658 288.667 191.135 288.879 191.612C288.906 191.687 288.951 191.756 289.015 191.818C289.08 191.88 289.144 191.942 289.209 192.004C289.257 191.902 289.319 191.838 289.395 191.811C289.47 191.784 289.514 191.726 289.525 191.638C289.923 190.606 290.251 189.556 290.51 188.488C290.806 187.407 290.924 186.304 290.865 185.18C290.815 183.839 290.633 182.546 290.319 181.299C290.042 180.039 289.728 178.793 289.376 177.56C288.89 175.949 288.393 174.364 287.883 172.805C287.397 171.195 286.78 169.631 286.031 168.115C285.635 167.236 285.208 166.39 284.75 165.576C284.278 164.725 283.72 163.926 283.073 163.179C282.504 162.531 281.883 162.094 281.208 161.866C280.571 161.625 279.842 161.544 279.021 161.622C278.693 161.654 278.485 161.727 278.399 161.843C278.312 161.958 278.329 162.185 278.45 162.525C279.204 165.016 280.023 167.505 280.904 169.994C281.278 171.05 281.664 172.08 282.062 173.085C282.461 174.089 282.847 175.119 283.221 176.175C283.565 177.029 283.873 177.896 284.142 178.777C284.436 179.606 284.736 180.455 285.043 181.322ZM180.527 276.369L175.639 262.569C175.519 262.23 175.405 261.909 175.298 261.608C175.216 261.255 175.121 260.928 175.014 260.626C174.878 260.123 174.565 259.958 174.075 260.131C173.66 260.278 173.271 260.437 172.908 260.608C172.568 260.729 172.178 260.824 171.736 260.896C171.233 261.032 170.695 261.01 170.122 260.831C169.74 260.712 169.452 260.496 169.256 260.183C169.085 259.819 169.014 259.441 169.045 259.048C169.069 258.276 169.495 257.743 170.325 257.449C171.758 256.942 173.197 256.453 174.643 255.984C176.076 255.476 177.515 254.988 178.962 254.518L180.828 253.857C181.418 253.605 181.961 253.583 182.459 253.788C182.956 253.994 183.317 254.354 183.542 254.869C183.766 255.383 183.75 255.877 183.493 256.35C183.236 256.823 182.806 257.166 182.203 257.38C181.788 257.527 181.348 257.661 180.882 257.784C180.454 257.893 180.033 258.021 179.618 258.168C179.001 258.344 178.644 258.534 178.547 258.738C178.436 258.905 178.488 259.29 178.701 259.893C179.235 261.401 179.77 262.91 180.304 264.418C180.838 265.926 181.398 267.446 181.983 268.979C182.944 271.694 183.931 274.421 184.944 277.16C185.943 279.861 186.949 282.581 187.962 285.32C188.306 286.174 188.632 287.035 188.94 287.902C189.247 288.769 189.554 289.636 189.861 290.504C189.928 290.692 189.995 290.881 190.061 291.069C190.115 291.22 190.137 291.403 190.129 291.618C190.172 292.579 189.779 293.206 188.949 293.5C188.157 293.781 187.464 293.559 186.868 292.837C186.659 292.486 186.515 292.198 186.435 291.972C185.462 289.346 184.496 286.739 183.537 284.15C182.616 281.549 181.669 278.935 180.696 276.309L180.527 276.369ZM198.362 279.791L200.966 287.143C201.019 287.294 201.073 287.445 201.126 287.596C201.179 287.747 201.214 287.904 201.23 288.068C201.424 288.976 201.107 289.639 200.28 290.06C199.967 290.255 199.608 290.319 199.202 290.251C198.782 290.145 198.43 289.93 198.146 289.606C197.888 289.358 197.686 289.026 197.539 288.612C196.671 286.161 195.81 283.729 194.955 281.316C194.125 278.852 193.276 276.394 192.408 273.943C192.221 273.415 192.022 272.913 191.81 272.436C191.599 271.959 191.407 271.476 191.233 270.986C190.843 269.766 190.454 268.546 190.064 267.326C189.661 266.068 189.265 264.83 188.875 263.61C188.352 262.013 187.804 260.467 187.233 258.972C186.698 257.464 186.17 255.911 185.647 254.314L185.346 253.466C185.275 253.024 185.324 252.625 185.494 252.268C185.665 251.91 185.925 251.627 186.276 251.418C186.639 251.247 187.005 251.202 187.374 251.284C187.78 251.352 188.119 251.529 188.39 251.815C188.532 251.977 188.662 252.164 188.78 252.377C188.884 252.552 188.97 252.734 189.036 252.923C189.744 254.921 190.445 256.901 191.14 258.861C191.821 260.784 192.496 262.752 193.166 264.763C193.3 265.14 193.415 265.524 193.511 265.914C193.593 266.267 193.694 266.613 193.815 266.952C193.897 267.305 194.015 267.518 194.168 267.591C194.308 267.626 194.522 267.572 194.81 267.427C195.212 267.243 195.601 267.084 195.978 266.95C196.379 266.766 196.781 266.581 197.182 266.396C197.748 266.196 197.937 265.832 197.75 265.304C197.643 265.002 197.536 264.701 197.429 264.399C197.347 264.046 197.233 263.726 197.089 263.438C196.34 261.921 195.735 260.395 195.277 258.86C194.818 257.325 194.365 255.746 193.917 254.122C193.808 253.694 193.686 253.291 193.553 252.914C193.419 252.537 193.298 252.135 193.189 251.707C193.122 251.518 193.059 251.222 193.001 250.818C192.902 249.58 193.433 248.862 194.593 248.663C195.035 248.592 195.454 248.698 195.852 248.981C196.236 249.227 196.502 249.621 196.652 250.162C196.87 251.018 197.088 251.874 197.307 252.731C197.55 253.536 197.824 254.372 198.132 255.239C198.454 256.271 198.796 257.295 199.157 258.313C199.555 259.318 199.916 260.336 200.238 261.367C200.719 262.725 201.2 264.082 201.681 265.439C202.186 266.746 202.641 268.091 203.046 269.475C203.449 270.733 203.834 271.997 204.199 273.268C204.564 274.539 204.955 275.822 205.371 277.117C205.761 278.337 206.188 279.544 206.653 280.737C207.105 281.893 207.544 283.074 207.972 284.28C208.039 284.469 208.099 284.638 208.152 284.789C208.243 284.927 208.303 285.096 208.332 285.298C208.438 286.195 208.114 286.839 207.363 287.233C206.961 287.418 206.564 287.495 206.171 287.464C205.803 287.382 205.477 287.18 205.192 286.856C205.05 286.694 204.92 286.507 204.802 286.294C204.684 286.081 204.573 285.887 204.469 285.712C204.151 284.933 203.832 284.155 203.514 283.376C203.221 282.547 202.952 281.73 202.71 280.924C202.429 280.133 202.168 279.334 201.925 278.529C201.682 277.724 201.446 276.938 201.217 276.17C200.934 275.252 200.658 274.352 200.388 273.472C200.105 272.554 199.823 271.635 199.54 270.717C199.404 270.214 199.241 269.932 199.05 269.872C198.896 269.799 198.581 269.868 198.105 270.08C197.779 270.238 197.453 270.395 197.127 270.553C196.787 270.673 196.448 270.794 196.109 270.914C195.67 271.112 195.543 271.475 195.73 272.003L198.475 279.751L198.362 279.791ZM206.378 271.796C206.004 270.74 205.649 269.678 205.313 268.609C205.014 267.526 204.633 266.452 204.171 265.385C204.01 264.933 203.831 264.487 203.633 264.048C203.422 263.571 203.248 263.081 203.113 262.577C203.057 262.3 202.989 262.048 202.909 261.822C202.829 261.596 202.735 261.332 202.628 261.03C201.987 259.22 201.365 257.404 200.762 255.581C200.159 253.757 199.53 251.922 198.875 250.075C198.408 248.755 198.758 247.825 199.924 247.284C200.651 246.942 201.399 246.656 202.166 246.426C202.958 246.146 203.731 245.872 204.485 245.605C204.824 245.485 205.158 245.409 205.487 245.378C205.839 245.295 206.173 245.22 206.488 245.15C207.118 245.012 207.651 245.078 208.086 245.348C208.559 245.605 208.851 246.011 208.963 246.565C209.112 247.107 209.045 247.576 208.761 247.974C208.478 248.371 208.021 248.639 207.391 248.777C206.85 248.926 206.289 249.082 205.711 249.245C205.156 249.356 204.615 249.506 204.087 249.693C203.47 249.869 203.125 250.033 203.052 250.186C203.017 250.326 203.087 250.704 203.263 251.321C204.198 253.96 205.09 256.658 205.938 259.412C206.072 259.789 206.186 260.173 206.282 260.564C206.402 260.903 206.529 261.261 206.663 261.638C206.85 262.166 207.02 262.466 207.173 262.539C207.326 262.613 207.648 262.562 208.138 262.389C208.515 262.255 208.873 262.128 209.213 262.008C209.539 261.85 209.883 261.686 210.247 261.514C211.238 261.078 212.033 261.285 212.631 262.134C212.917 262.584 213.04 263.05 212.998 263.532C212.943 263.975 212.716 264.353 212.317 264.664C212.156 264.806 211.949 264.943 211.699 265.074C211.473 265.154 211.246 265.234 211.02 265.314C210.694 265.472 210.361 265.611 210.022 265.731C209.669 265.814 209.323 265.915 208.984 266.035C208.494 266.209 208.342 266.56 208.529 267.088L209.431 269.633C210.069 271.316 210.696 273.025 211.31 274.759C211.949 276.443 212.606 278.119 213.283 279.789C213.523 280.468 213.745 280.856 213.949 280.954C214.14 281.013 214.574 280.86 215.25 280.493C215.525 280.311 215.807 280.147 216.095 280.003C216.408 279.807 216.715 279.656 217.017 279.549C217.544 279.362 218.013 279.366 218.421 279.561C218.854 279.705 219.169 279.996 219.367 280.435C219.63 280.936 219.67 281.41 219.489 281.856C219.331 282.251 219.009 282.599 218.521 282.899C217.096 283.786 215.571 284.453 213.947 284.901C213.279 285.052 212.678 285.032 212.143 284.84C211.608 284.647 211.171 284.25 210.831 283.65C210.255 282.623 209.767 281.544 209.366 280.413C208.965 279.282 208.571 278.169 208.184 277.076C207.877 276.209 207.57 275.342 207.263 274.474C206.98 273.556 206.685 272.663 206.378 271.796ZM225.143 250.001C224.636 248.568 224.135 247.154 223.641 245.759C223.133 244.326 222.645 242.887 222.175 241.44L221.834 240.479C221.676 239.432 222.049 238.748 222.954 238.428C223.355 238.243 223.772 238.223 224.205 238.366C224.638 238.51 224.972 238.795 225.208 239.221C225.299 239.358 225.398 239.578 225.505 239.879C226.533 242.782 227.554 245.667 228.569 248.532C229.584 251.398 230.58 254.27 231.558 257.149C231.998 258.393 232.401 259.651 232.767 260.922C233.119 262.155 233.508 263.375 233.935 264.582C234.376 265.826 234.817 267.07 235.258 268.315C235.736 269.545 236.214 270.776 236.693 272.007C236.866 272.497 237.217 272.649 237.745 272.462C238.146 272.278 238.542 272.137 238.933 272.041C239.347 271.895 239.762 271.748 240.177 271.601C240.743 271.4 241.248 271.391 241.695 271.572C242.141 271.754 242.476 272.102 242.701 272.616C242.874 273.107 242.877 273.594 242.709 274.077C242.565 274.51 242.23 274.82 241.702 275.007C240.069 275.67 238.392 276.264 236.668 276.79C236.102 276.99 235.59 276.981 235.13 276.762C234.709 276.529 234.36 276.144 234.084 275.605C233.966 275.392 233.848 275.179 233.731 274.966C233.637 274.702 233.55 274.457 233.47 274.231C232.656 271.931 231.848 269.65 231.046 267.387C230.207 265.138 229.399 262.857 228.623 260.544C228.033 258.758 227.456 257.011 226.893 255.301C226.354 253.539 225.808 251.759 225.256 249.961L225.143 250.001ZM244.375 272.024C244.207 271.192 244.04 270.36 243.873 269.528C243.692 268.658 243.537 267.801 243.407 266.956C243.193 265.631 243.004 264.319 242.84 263.019C242.664 261.681 242.475 260.369 242.274 259.083C241.905 256.964 241.543 254.864 241.188 252.783C240.871 250.689 240.509 248.59 240.103 246.484C239.782 244.858 239.429 243.265 239.046 241.703C238.649 240.104 238.271 238.498 237.912 236.885C237.761 236.217 237.674 235.612 237.651 235.068C237.626 234.398 237.704 233.84 237.885 233.394C238.213 232.641 238.698 232.215 239.342 232.114C239.972 231.976 240.564 232.211 241.12 232.821C241.895 233.692 242.647 234.678 243.376 235.777C244.796 237.99 246.2 240.336 247.587 242.815C248.083 243.616 248.522 244.436 248.905 245.277C249.287 246.117 249.708 246.944 250.166 247.758C250.822 249.011 251.496 250.257 252.19 251.497C252.908 252.685 253.576 253.913 254.194 255.179C255.102 257.022 256.045 258.788 257.026 260.477C258.044 262.154 259.056 263.874 260.063 265.64C260.128 265.702 260.18 265.789 260.22 265.902C260.247 265.978 260.292 266.046 260.357 266.108C260.581 266.623 260.61 267.122 260.442 267.606C260.274 268.09 259.958 268.456 259.494 268.705C259.055 268.903 258.582 268.944 258.073 268.827C257.589 268.659 257.223 268.343 256.974 267.879C255.978 266.026 254.932 264.211 253.836 262.435C252.778 260.645 251.801 258.785 250.904 256.853C250.535 256.05 250.25 255.663 250.048 255.693C249.87 255.671 249.555 256.037 249.101 256.792C248.682 257.407 248.27 258.041 247.865 258.694C247.459 259.346 247.079 260.011 246.725 260.688C246.493 261.11 246.399 261.504 246.444 261.87C246.687 263.397 246.943 264.897 247.211 266.373C247.479 267.848 247.746 269.323 248.014 270.798C248.213 271.958 247.918 272.742 247.128 273.149C246.552 273.438 245.996 273.486 245.461 273.294C244.95 273.05 244.588 272.627 244.375 272.024ZM245.304 254.699C245.317 254.737 245.337 254.794 245.364 254.869C245.415 254.893 245.454 254.943 245.481 255.019C245.707 254.938 245.845 254.847 245.893 254.745C246.201 254.297 246.516 253.867 246.837 253.456C247.145 253.008 247.453 252.559 247.761 252.111C247.958 251.829 247.952 251.512 247.743 251.162C247.561 250.887 247.397 250.606 247.253 250.317C247.133 249.978 246.975 249.652 246.779 249.339C246.217 248.35 245.673 247.355 245.148 246.352C244.624 245.35 244.08 244.354 243.518 243.365C243.491 243.29 243.427 243.228 243.324 243.179C243.26 243.117 243.196 243.055 243.131 242.993C243.12 243.082 243.117 243.253 243.122 243.506C243.189 243.694 243.223 243.852 243.225 243.978C243.486 245.074 243.728 246.176 243.951 247.286C244.199 248.344 244.427 249.408 244.637 250.48C244.751 251.161 244.853 251.867 244.942 252.6C245.056 253.281 245.177 253.981 245.304 254.699ZM267.923 235.995L268.123 236.56C268.644 238.031 269.165 239.501 269.686 240.972C270.193 242.404 270.644 243.857 271.038 245.33C271.769 247.872 272.613 250.374 273.569 252.836C274.526 255.298 275.445 257.773 276.327 260.261C276.407 260.488 276.487 260.714 276.567 260.94C276.634 261.128 276.67 261.349 276.674 261.602C276.755 262.55 276.324 263.19 275.382 263.524C274.45 263.769 273.73 263.473 273.221 262.634C273.143 262.535 273.084 262.428 273.044 262.315C272.991 262.164 272.944 262.032 272.904 261.919C272.303 260.222 271.69 258.551 271.064 256.906C270.439 255.26 269.826 253.589 269.225 251.892C268.891 250.949 268.583 250.019 268.3 249.101C268.042 248.131 267.764 247.169 267.468 246.213C266.945 244.616 266.41 243.044 265.862 241.498C265.301 239.915 264.74 238.331 264.18 236.748C264.139 236.634 264.055 236.516 263.926 236.392C263.878 236.494 263.822 236.577 263.76 236.642C263.685 236.668 263.641 236.726 263.63 236.815C263.622 237.03 263.613 237.245 263.605 237.46C263.583 237.638 263.567 237.834 263.559 238.05C263.517 238.531 263.501 239.025 263.51 239.531C263.557 240.023 263.56 240.51 263.519 240.992C263.42 241.791 262.974 242.33 262.182 242.611C261.353 242.905 260.686 242.759 260.182 242.174C259.846 241.826 259.523 241.452 259.212 241.053C258.901 240.654 258.578 240.281 258.242 239.933C258.1 239.771 257.958 239.609 257.816 239.447C257.66 239.248 257.511 239.067 257.369 238.905C257.305 238.843 257.235 238.825 257.159 238.852C257.122 238.865 257.052 238.848 256.95 238.799C256.928 238.977 256.923 239.084 256.937 239.122C256.952 239.286 256.968 239.45 256.984 239.614C257.024 239.728 257.096 239.872 257.201 240.047C257.839 241.73 258.485 243.432 259.137 245.154C259.775 246.837 260.421 248.539 261.073 250.26C261.671 251.83 262.239 253.433 262.775 255.068C263.336 256.651 263.904 258.254 264.478 259.875C264.718 260.554 264.946 261.258 265.163 261.988C265.403 262.666 265.643 263.345 265.884 264.024C265.95 264.212 266.01 264.382 266.064 264.533C266.117 264.683 266.159 264.86 266.188 265.062C266.435 266.12 266.05 266.829 265.032 267.19C264.617 267.337 264.193 267.338 263.76 267.194C263.365 267.037 263.05 266.746 262.814 266.32C262.71 266.145 262.584 265.85 262.437 265.435C261.874 263.725 261.299 262.041 260.711 260.382C260.161 258.709 259.604 257.018 259.041 255.308C258.841 254.742 258.622 254.183 258.384 253.631C258.146 253.079 257.927 252.52 257.726 251.955C256.887 249.706 256.062 247.494 255.249 245.321C254.475 243.134 253.656 240.942 252.793 238.744C252.352 237.499 251.892 236.262 251.414 235.031C250.936 233.8 250.483 232.581 250.055 231.375C249.962 231.111 249.887 230.84 249.832 230.563C249.776 230.286 249.771 230.033 249.817 229.804C249.848 229.411 249.962 229.074 250.159 228.792C250.381 228.459 250.642 228.239 250.944 228.132C251.232 227.988 251.554 227.937 251.909 227.981C252.25 227.988 252.576 228.127 252.884 228.4C253.346 228.745 253.777 229.123 254.177 229.533C254.577 229.943 254.965 230.379 255.34 230.84C255.935 231.562 256.512 232.292 257.07 233.028C257.652 233.713 258.241 234.417 258.836 235.139C258.978 235.301 259.126 235.419 259.279 235.492C259.47 235.551 259.655 235.655 259.835 235.804C259.882 235.575 259.941 235.384 260.014 235.231C260.087 235.078 260.128 234.894 260.137 234.679C260.158 233.78 260.16 232.888 260.144 232.003C260.114 231.08 260.11 230.169 260.131 229.27C260.132 228.676 260.16 228.093 260.212 227.523C260.302 226.939 260.393 226.356 260.483 225.772C260.569 224.935 261.084 224.413 262.029 224.206C262.823 224.052 263.506 224.362 264.077 225.136C264.246 225.373 264.377 225.623 264.47 225.887C264.564 226.151 264.657 226.415 264.751 226.679C265.274 228.276 265.784 229.835 266.28 231.357C266.815 232.865 267.362 234.411 267.923 235.995ZM275.007 250.226C274.54 248.906 274.066 247.568 273.585 246.21C273.104 244.853 272.649 243.508 272.219 242.175C272.072 241.76 271.958 241.376 271.875 241.024C271.779 240.633 271.684 240.243 271.588 239.852C271.534 239.702 271.488 239.57 271.448 239.457C271.432 239.292 271.378 239.142 271.287 239.004C270.685 237.902 270.221 236.772 269.896 235.614C269.57 234.456 269.239 233.28 268.9 232.084C268.668 231.19 268.392 230.291 268.072 229.386C267.738 228.443 267.411 227.519 267.09 226.614C267.021 226.299 266.921 226.017 266.79 225.766C266.683 225.464 266.614 225.149 266.582 224.821C266.402 223.952 266.749 223.256 267.625 222.733C268.226 222.393 268.802 222.104 269.355 221.866C269.907 221.628 270.544 221.509 271.265 221.508C273.466 221.492 275.27 222.274 276.679 223.855C278.476 225.934 279.553 228.375 279.909 231.177C280.001 232.035 279.959 232.877 279.785 233.703C279.635 234.477 279.403 235.26 279.089 236.05C278.894 236.459 278.816 236.719 278.857 236.832C278.897 236.946 279.14 237.093 279.586 237.274C281.038 237.779 282.294 238.691 283.356 240.013C287.074 244.637 288.22 249.79 286.795 255.472C286.605 256.133 286.364 256.77 286.071 257.383C285.766 257.958 285.416 258.527 285.022 259.091C284.144 260.208 283.019 260.925 281.646 261.242C280.437 261.543 279.475 261.162 278.759 260.1C278.408 259.588 278.112 258.992 277.872 258.314L275.007 250.226ZM278.53 248.851L278.474 248.871L279.475 251.699C279.742 252.453 279.991 253.214 280.22 253.981C280.487 254.735 280.773 255.483 281.078 256.223C281.158 256.45 281.34 256.725 281.625 257.048C281.749 256.919 281.879 256.809 282.017 256.718C282.141 256.589 282.24 256.448 282.313 256.295C282.78 255.578 283.083 254.877 283.222 254.191C283.712 251.98 283.737 249.892 283.295 247.927C282.84 245.924 281.857 244.045 280.344 242.289C279.826 241.666 279.249 241.234 278.612 240.993C277.961 240.714 277.262 240.537 276.514 240.463C275.855 240.399 275.632 240.669 275.846 241.272L278.53 248.851ZM273.515 234.332L273.402 234.372L273.943 235.899C274.194 236.489 274.486 236.534 274.819 236.035C275.175 235.484 275.487 234.928 275.755 234.366C276.01 233.767 276.15 233.144 276.176 232.499C276.242 229.929 275.315 227.733 273.396 225.909C272.894 225.45 272.271 225.246 271.525 225.298C271.183 225.292 270.969 225.347 270.883 225.462C270.797 225.578 270.795 225.812 270.877 226.164C271.32 227.535 271.763 228.906 272.206 230.277C272.636 231.61 273.072 232.961 273.515 234.332ZM301.382 235.283C301.994 236.891 302.587 238.506 303.161 240.127C303.76 241.697 304.384 243.28 305.033 244.875C305.311 245.54 305.665 246.178 306.094 246.79C306.523 247.402 307.092 247.752 307.802 247.84C308.537 247.877 309.164 247.612 309.685 247.046C310.106 246.557 310.444 246.013 310.699 245.414C310.94 244.777 311.003 244.118 310.889 243.437C310.824 242.654 311.072 242.036 311.633 241.582C312.107 241.245 312.605 241.153 313.127 241.308C313.686 241.449 314.104 241.789 314.38 242.328C314.642 242.829 314.778 243.333 314.787 243.839C314.797 244.345 314.743 244.852 314.626 245.36C314.4 246.161 314.124 246.938 313.796 247.691C313.469 248.443 312.988 249.123 312.354 249.729C311.41 250.657 310.364 251.24 309.218 251.476C308.095 251.662 306.93 251.608 305.723 251.314C305.279 251.259 304.903 251.095 304.594 250.822C304.272 250.512 303.962 250.176 303.664 249.815C303.018 249.068 302.478 248.262 302.044 247.397C301.648 246.519 301.29 245.627 300.969 244.723C299.89 241.795 298.836 238.879 297.808 235.976C296.729 233.049 295.687 230.108 294.683 227.153C294.414 226.273 294.163 225.385 293.931 224.491C293.737 223.584 293.543 222.677 293.349 221.77C293.07 220.383 293.173 219.116 293.658 217.969C294.129 216.783 294.811 215.714 295.705 214.761C296.498 213.886 297.417 213.306 298.462 213.021C299.506 212.736 300.633 212.74 301.84 213.034C302.297 213.126 302.649 213.341 302.896 213.678C303.142 214.015 303.264 214.418 303.26 214.886C303.218 215.368 303.042 215.769 302.732 216.091C302.422 216.413 302.046 216.61 301.604 216.682C301.389 216.673 301.193 216.658 301.015 216.636C300.838 216.614 300.641 216.598 300.426 216.59C299.476 216.544 298.711 216.9 298.131 217.657C297.105 218.954 296.777 220.365 297.147 221.889C297.339 222.669 297.537 223.469 297.742 224.288C297.934 225.068 298.144 225.843 298.374 226.61C298.843 228.056 299.339 229.514 299.859 230.985C300.405 232.404 300.931 233.831 301.438 235.263L301.382 235.283ZM315.324 239.448C314.825 237.8 314.333 236.17 313.847 234.56C313.362 232.95 312.87 231.321 312.371 229.673C312.059 228.553 311.697 227.471 311.285 226.429C310.898 225.335 310.511 224.242 310.124 223.149L309.042 220.094C308.695 219.114 308.348 218.134 308 217.153C307.653 216.173 307.4 215.159 307.241 214.112C307.157 213.633 307.034 213.167 306.874 212.715C306.7 212.225 306.552 211.747 306.43 211.281C306.062 209.883 306.531 208.932 307.838 208.427C308.026 208.36 308.221 208.312 308.423 208.283C308.612 208.217 308.8 208.15 308.989 208.083C309.98 207.647 310.921 207.547 311.811 207.784C312.687 207.982 313.549 208.378 314.395 208.969C315.19 209.536 315.81 210.208 316.254 210.984C316.736 211.747 317.15 212.555 317.495 213.409C317.947 214.564 318.379 215.726 318.793 216.895C319.232 218.013 319.658 219.156 320.072 220.325C320.953 222.814 320.628 225.072 319.097 227.099C318.79 227.548 318.637 227.835 318.639 227.962C318.642 228.088 318.824 228.363 319.186 228.787C320.221 230.032 321.188 231.324 322.086 232.661C323.008 233.947 323.906 235.284 324.779 236.672C325.275 237.472 325.796 238.285 326.343 239.109C326.876 239.896 327.391 240.69 327.886 241.491C328.029 241.653 328.133 241.828 328.2 242.016C328.267 242.205 328.333 242.393 328.4 242.582C328.581 243.451 328.309 244.121 327.584 244.59C326.794 244.996 326.072 244.934 325.417 244.402C325.224 244.216 325.049 244.023 324.894 243.824C324.762 243.573 324.619 243.348 324.464 243.149C323.357 241.461 322.257 239.793 321.163 238.143C320.056 236.456 318.931 234.775 317.786 233.101C317.708 233.002 317.637 232.921 317.573 232.859C317.495 232.759 317.398 232.666 317.283 232.579C317.248 232.719 317.212 232.859 317.177 232.999C317.179 233.125 317.201 233.245 317.241 233.358L320.426 242.351C320.572 242.766 320.726 243.199 320.886 243.652C321.071 244.053 321.218 244.468 321.327 244.896C321.599 245.903 321.277 246.611 320.361 247.02C319.345 247.508 318.556 247.257 317.994 246.268C317.785 245.917 317.647 245.648 317.58 245.459L315.457 239.464C315.443 239.426 315.399 239.421 315.324 239.448ZM313.106 220.246L314.768 224.941C314.915 225.355 315.059 225.58 315.199 225.616C315.325 225.613 315.543 225.451 315.854 225.129C316.795 224.074 317.039 222.906 316.585 221.624C316.358 220.983 316.145 220.38 315.944 219.814C315.768 219.197 315.555 218.594 315.303 218.004C314.985 217.226 314.667 216.447 314.349 215.669C314.017 214.853 313.667 214.043 313.298 213.24C312.918 212.526 312.3 211.981 311.446 211.605C311.139 211.459 310.905 211.457 310.743 211.599C310.668 211.626 310.638 211.721 310.654 211.885C310.656 212.012 310.658 212.138 310.661 212.265C311.205 215 312.02 217.66 313.106 220.246ZM323.313 222.869C321.793 218.697 320.72 214.409 320.094 210.006C320 209.021 319.989 208.091 320.061 207.217C320.135 205.748 320.738 204.516 321.871 203.52C323.578 202.11 325.551 201.39 327.79 201.361C329.358 201.357 330.711 202.002 331.849 203.296C332.533 204.03 333.111 204.823 333.582 205.674C334.091 206.512 334.562 207.364 334.996 208.229C335.456 209.169 335.904 210.135 336.34 211.126C336.801 212.066 337.23 213.039 337.628 214.043C338.305 215.713 338.918 217.385 339.468 219.057C340.055 220.716 340.612 222.407 341.137 224.131C341.556 225.553 342.019 226.98 342.527 228.413C343.058 229.794 343.402 231.243 343.557 232.758C343.63 233.326 343.66 233.888 343.645 234.445C343.63 235.002 343.615 235.559 343.6 236.116C343.526 236.864 343.31 237.513 342.953 238.064C342.597 238.615 342.131 239.098 341.557 239.513C340.484 240.318 339.338 240.915 338.118 241.304C336.935 241.681 335.685 241.805 334.367 241.678C333.835 241.612 333.345 241.488 332.899 241.307C332.453 241.125 332.055 240.842 331.707 240.456C331.242 239.984 330.797 239.505 330.37 239.02C329.944 238.534 329.586 238.003 329.297 237.427C328.746 236.349 328.251 235.251 327.812 234.133C327.374 233.016 326.917 231.904 326.441 230.8C325.898 229.507 325.367 228.189 324.849 226.844C324.368 225.487 323.856 224.162 323.313 222.869ZM335.614 218.958C335.124 217.816 334.713 216.774 334.379 215.831C334.031 214.851 333.634 213.909 333.187 213.007C332.725 211.94 332.212 210.912 331.65 209.923C331.125 208.921 330.563 207.932 329.962 206.956C329.349 205.943 328.788 205.378 328.28 205.261C327.796 205.093 327.026 205.195 325.97 205.569C324.99 205.917 324.358 206.289 324.074 206.686C323.791 207.084 323.684 207.801 323.754 208.837C323.732 209.014 323.748 209.178 323.801 209.329C323.971 210.288 324.122 211.253 324.254 212.224C324.423 213.183 324.631 214.128 324.876 215.059C325.254 216.368 325.626 217.658 325.992 218.929C326.395 220.186 326.842 221.449 327.334 222.718C327.948 224.453 328.581 226.18 329.233 227.901C329.872 229.585 330.529 231.261 331.206 232.931C331.548 233.659 331.903 234.361 332.27 235.037C332.674 235.7 333.104 236.375 333.56 237.062C333.898 237.537 334.302 237.839 334.772 237.97C335.23 238.062 335.729 238.034 336.27 237.885C337 237.669 337.697 237.422 338.363 237.144C338.864 236.881 339.27 236.589 339.58 236.267C339.877 235.907 339.988 235.443 339.914 234.876C339.876 234.168 339.793 233.454 339.666 232.736C339.576 232.004 339.449 231.285 339.284 230.579C338.652 228.554 338.014 226.574 337.37 224.637C336.765 222.688 336.179 220.795 335.614 218.958ZM346.839 229.686C346.612 229.045 346.373 228.429 346.121 227.84C345.894 227.199 345.686 226.551 345.497 225.897C345.345 225.229 345.367 224.691 345.562 224.282C345.781 223.823 346.168 223.537 346.722 223.426C347.264 223.276 347.733 223.344 348.13 223.627C348.566 223.897 348.871 224.341 349.047 224.957L350.89 230.161C351.01 230.5 351.156 230.852 351.327 231.215C351.485 231.541 351.662 231.861 351.857 232.173C352.066 232.524 352.297 232.696 352.55 232.692C352.841 232.674 353.065 232.467 353.222 232.072C353.45 231.397 353.489 230.789 353.34 230.248C352.761 228.374 352.082 226.577 351.303 224.858C350.512 223.102 349.519 221.438 348.326 219.866C346.744 217.795 344.824 215.908 342.565 214.205C342.168 213.921 341.777 213.656 341.393 213.41C341.046 213.151 340.705 212.848 340.37 212.5C339.071 211.347 338.16 209.973 337.636 208.376C337.394 207.57 337.132 206.772 336.852 205.98C336.609 205.175 336.392 204.382 336.2 203.601C335.988 202.403 335.967 201.265 336.136 200.187C336.344 199.095 336.856 198.086 337.674 197.159C337.947 196.851 338.315 196.572 338.778 196.323C339.279 196.061 339.826 195.867 340.418 195.742C340.997 195.579 341.584 195.499 342.179 195.5C342.811 195.489 343.357 195.592 343.816 195.811C344.378 196.079 344.84 196.425 345.202 196.848C345.602 197.258 345.933 197.714 346.195 198.215C346.418 198.603 346.609 199.023 346.769 199.476C346.929 199.928 347.064 200.369 347.173 200.797C347.512 201.992 347.153 202.777 346.098 203.151C344.977 203.463 344.173 203.048 343.683 201.906C343.59 201.642 343.496 201.378 343.403 201.114C343.347 200.836 343.254 200.573 343.122 200.322C342.94 200.047 342.771 199.81 342.616 199.61C342.485 199.36 342.217 199.263 341.813 199.322C341.245 199.395 340.817 199.505 340.529 199.649C340.278 199.78 340.095 200.1 339.978 200.608C339.909 201.014 339.873 201.452 339.869 201.92C339.852 202.35 339.879 202.786 339.951 203.228C340.115 203.933 340.299 204.632 340.502 205.324C340.742 206.002 340.989 206.7 341.243 207.416C341.67 208.623 342.46 209.595 343.613 210.333C344.894 211.194 346.082 212.153 347.177 213.208C348.272 214.263 349.336 215.35 350.369 216.469C351.364 217.602 352.234 218.8 352.979 220.064C353.724 221.328 354.387 222.663 354.97 224.069C355.353 224.909 355.698 225.763 356.005 226.631C356.312 227.498 356.619 228.365 356.926 229.232C357.625 231.446 357.232 233.389 355.745 235.061C354.865 236.052 353.755 236.572 352.415 236.622C351.618 236.65 350.931 236.448 350.354 236.016C349.777 235.584 349.292 235.055 348.901 234.43C348.563 233.955 348.282 233.461 348.057 232.946C347.87 232.418 347.665 231.897 347.44 231.383C347.295 231.094 347.176 230.818 347.083 230.554C346.989 230.29 346.889 230.008 346.782 229.706L346.839 229.686ZM359.432 225.226C359.205 224.585 358.966 223.969 358.714 223.379C358.487 222.738 358.279 222.091 358.09 221.436C357.938 220.769 357.96 220.231 358.155 219.822C358.374 219.363 358.761 219.077 359.315 218.966C359.856 218.816 360.326 218.883 360.723 219.167C361.158 219.437 361.464 219.881 361.64 220.497L363.483 225.701C363.603 226.04 363.749 226.391 363.92 226.755C364.078 227.081 364.255 227.4 364.45 227.713C364.659 228.063 364.89 228.236 365.143 228.232C365.434 228.213 365.658 228.007 365.815 227.612C366.042 226.937 366.082 226.329 365.932 225.788C365.354 223.914 364.675 222.117 363.896 220.398C363.105 218.642 362.112 216.978 360.919 215.406C359.337 213.335 357.416 211.448 355.158 209.744C354.761 209.461 354.37 209.196 353.986 208.95C353.639 208.691 353.298 208.387 352.963 208.039C351.664 206.887 350.752 205.512 350.229 203.915C349.987 203.11 349.725 202.312 349.445 201.52C349.202 200.715 348.985 199.922 348.793 199.141C348.581 197.943 348.56 196.805 348.729 195.726C348.937 194.635 349.449 193.626 350.267 192.699C350.539 192.391 350.907 192.112 351.371 191.863C351.872 191.6 352.419 191.407 353.011 191.282C353.59 191.119 354.177 191.039 354.771 191.04C355.404 191.029 355.95 191.132 356.409 191.351C356.971 191.619 357.433 191.965 357.795 192.388C358.195 192.798 358.526 193.254 358.788 193.755C359.011 194.143 359.202 194.563 359.362 195.016C359.522 195.468 359.657 195.909 359.766 196.337C360.105 197.532 359.746 198.317 358.69 198.691C357.57 199.003 356.766 198.588 356.276 197.445C356.183 197.182 356.089 196.918 355.996 196.654C355.94 196.376 355.846 196.112 355.715 195.862C355.533 195.587 355.364 195.35 355.209 195.15C355.077 194.9 354.81 194.803 354.406 194.861C353.838 194.935 353.41 195.045 353.122 195.189C352.871 195.32 352.687 195.64 352.57 196.148C352.502 196.554 352.466 196.991 352.462 197.46C352.445 197.89 352.472 198.326 352.543 198.768C352.708 199.473 352.892 200.172 353.095 200.864C353.335 201.542 353.582 202.24 353.836 202.956C354.263 204.163 355.053 205.135 356.206 205.873C357.487 206.734 358.675 207.693 359.77 208.747C360.865 209.802 361.929 210.89 362.962 212.009C363.957 213.142 364.827 214.34 365.572 215.604C366.317 216.868 366.98 218.203 367.563 219.609C367.946 220.449 368.291 221.303 368.598 222.17C368.905 223.038 369.212 223.905 369.519 224.772C370.218 226.986 369.824 228.929 368.337 230.601C367.458 231.592 366.348 232.112 365.008 232.162C364.211 232.19 363.524 231.988 362.947 231.556C362.369 231.123 361.885 230.595 361.494 229.97C361.156 229.495 360.875 229.001 360.65 228.486C360.463 227.958 360.258 227.437 360.033 226.923C359.888 226.634 359.769 226.358 359.676 226.094C359.582 225.83 359.482 225.547 359.375 225.246L359.432 225.226ZM230.737 320.116L225.85 306.316C225.729 305.977 225.616 305.656 225.509 305.354C225.427 305.002 225.332 304.675 225.225 304.373C225.089 303.869 224.776 303.704 224.286 303.878C223.871 304.025 223.482 304.184 223.118 304.355C222.779 304.475 222.389 304.571 221.947 304.643C221.444 304.779 220.905 304.757 220.333 304.578C219.951 304.459 219.662 304.243 219.467 303.93C219.296 303.566 219.225 303.188 219.256 302.795C219.279 302.023 219.706 301.49 220.535 301.196C221.968 300.689 223.408 300.2 224.854 299.73C226.287 299.223 227.726 298.734 229.172 298.265L231.039 297.604C231.629 297.352 232.172 297.329 232.669 297.535C233.167 297.741 233.528 298.101 233.752 298.616C233.977 299.13 233.961 299.624 233.704 300.097C233.447 300.57 233.017 300.913 232.414 301.127C231.999 301.274 231.559 301.408 231.093 301.531C230.665 301.64 230.243 301.768 229.829 301.915C229.212 302.091 228.855 302.281 228.758 302.485C228.647 302.652 228.698 303.037 228.912 303.64C229.446 305.148 229.98 306.656 230.514 308.165C231.049 309.673 231.608 311.193 232.194 312.726C233.155 315.44 234.142 318.167 235.155 320.906C236.154 323.608 237.16 326.328 238.172 329.067C238.517 329.921 238.843 330.782 239.15 331.649C239.457 332.516 239.765 333.383 240.072 334.25C240.139 334.439 240.205 334.628 240.272 334.816C240.325 334.967 240.348 335.15 240.339 335.365C240.382 336.326 239.989 336.953 239.16 337.247C238.368 337.527 237.674 337.306 237.079 336.584C236.87 336.233 236.725 335.945 236.645 335.719C235.673 333.093 234.707 330.486 233.748 327.897C232.826 325.296 231.879 322.682 230.907 320.056L230.737 320.116ZM248.572 323.538L251.176 330.89C251.23 331.041 251.283 331.192 251.337 331.343C251.39 331.494 251.425 331.651 251.44 331.815C251.634 332.723 251.318 333.386 250.491 333.807C250.178 334.002 249.819 334.066 249.413 333.997C248.993 333.891 248.641 333.677 248.357 333.353C248.099 333.105 247.897 332.773 247.75 332.358C246.882 329.908 246.021 327.476 245.166 325.063C244.336 322.598 243.486 320.141 242.618 317.69C242.431 317.162 242.232 316.66 242.021 316.183C241.81 315.706 241.617 315.223 241.444 314.733C241.054 313.513 240.664 312.293 240.275 311.073C239.872 309.815 239.475 308.576 239.086 307.357C238.563 305.76 238.015 304.214 237.443 302.719C236.909 301.211 236.38 299.658 235.857 298.061L235.557 297.213C235.485 296.771 235.535 296.372 235.705 296.014C235.876 295.657 236.136 295.374 236.486 295.165C236.85 294.994 237.216 294.949 237.585 295.031C237.991 295.099 238.329 295.276 238.6 295.562C238.742 295.724 238.872 295.911 238.99 296.124C239.095 296.299 239.18 296.481 239.247 296.67C239.955 298.668 240.656 300.647 241.35 302.608C242.031 304.531 242.707 306.498 243.377 308.51C243.511 308.887 243.625 309.271 243.721 309.661C243.804 310.014 243.905 310.36 244.025 310.699C244.108 311.052 244.226 311.265 244.379 311.338C244.519 311.373 244.733 311.319 245.021 311.174C245.422 310.99 245.812 310.83 246.189 310.697C246.59 310.512 246.991 310.328 247.393 310.143C247.958 309.943 248.148 309.579 247.961 309.051C247.854 308.749 247.747 308.448 247.64 308.146C247.558 307.793 247.444 307.473 247.3 307.184C246.55 305.668 245.946 304.142 245.487 302.607C245.029 301.072 244.575 299.493 244.128 297.869C244.018 297.441 243.897 297.038 243.763 296.661C243.63 296.284 243.509 295.882 243.399 295.454C243.333 295.265 243.27 294.969 243.212 294.565C243.113 293.327 243.644 292.609 244.804 292.41C245.245 292.338 245.665 292.445 246.062 292.728C246.446 292.974 246.713 293.368 246.862 293.909C247.081 294.765 247.299 295.621 247.518 296.477C247.76 297.283 248.035 298.119 248.342 298.986C248.665 300.017 249.007 301.042 249.367 302.06C249.766 303.065 250.126 304.083 250.449 305.114C250.93 306.472 251.411 307.829 251.891 309.186C252.397 310.493 252.852 311.838 253.257 313.222C253.66 314.48 254.044 315.744 254.41 317.015C254.775 318.286 255.166 319.569 255.582 320.864C255.972 322.084 256.399 323.291 256.864 324.484C257.316 325.639 257.755 326.82 258.182 328.027C258.249 328.216 258.309 328.385 258.363 328.536C258.454 328.673 258.514 328.843 258.543 329.045C258.648 329.941 258.325 330.586 257.573 330.98C257.172 331.164 256.775 331.241 256.382 331.211C256.014 331.129 255.687 330.926 255.403 330.603C255.261 330.441 255.131 330.254 255.013 330.041C254.895 329.828 254.784 329.634 254.679 329.459C254.361 328.68 254.043 327.902 253.725 327.123C253.431 326.294 253.163 325.476 252.92 324.671C252.64 323.88 252.378 323.081 252.135 322.276C251.893 321.471 251.657 320.684 251.427 319.917C251.145 318.999 250.868 318.099 250.599 317.219C250.316 316.3 250.033 315.382 249.751 314.464C249.615 313.96 249.451 313.679 249.26 313.619C249.107 313.546 248.792 313.615 248.315 313.826C247.989 313.984 247.663 314.142 247.337 314.3C246.998 314.42 246.659 314.54 246.319 314.661C245.88 314.859 245.754 315.222 245.941 315.749L248.685 323.498L248.572 323.538ZM256.588 315.543C256.215 314.487 255.859 313.425 255.523 312.356C255.225 311.273 254.844 310.199 254.381 309.132C254.221 308.679 254.042 308.234 253.844 307.795C253.633 307.318 253.459 306.828 253.323 306.324C253.268 306.047 253.2 305.795 253.119 305.569C253.039 305.343 252.946 305.079 252.839 304.777C252.198 302.967 251.576 301.151 250.973 299.327C250.369 297.504 249.74 295.669 249.086 293.821C248.619 292.502 248.968 291.572 250.135 291.031C250.862 290.689 251.61 290.403 252.377 290.173C253.169 289.893 253.942 289.619 254.696 289.352C255.035 289.232 255.369 289.156 255.697 289.125C256.05 289.042 256.384 288.966 256.699 288.897C257.329 288.759 257.861 288.825 258.297 289.095C258.77 289.352 259.062 289.758 259.173 290.312C259.323 290.854 259.255 291.323 258.972 291.72C258.688 292.118 258.231 292.386 257.602 292.524C257.06 292.673 256.5 292.829 255.921 292.992C255.367 293.103 254.825 293.253 254.298 293.44C253.681 293.615 253.336 293.78 253.263 293.933C253.228 294.073 253.298 294.451 253.474 295.068C254.409 297.707 255.3 300.404 256.149 303.159C256.282 303.536 256.397 303.92 256.493 304.31C256.613 304.65 256.74 305.008 256.873 305.385C257.06 305.913 257.23 306.213 257.384 306.286C257.537 306.359 257.859 306.309 258.349 306.135C258.726 306.002 259.084 305.875 259.423 305.755C259.749 305.597 260.094 305.432 260.458 305.261C261.449 304.825 262.244 305.032 262.841 305.881C263.128 306.331 263.251 306.797 263.209 307.278C263.154 307.722 262.927 308.1 262.528 308.411C262.366 308.553 262.16 308.69 261.909 308.821C261.683 308.901 261.457 308.981 261.231 309.061C260.905 309.219 260.572 309.358 260.233 309.478C259.88 309.561 259.534 309.662 259.195 309.782C258.705 309.956 258.553 310.307 258.74 310.834L259.641 313.38C260.28 315.063 260.906 316.772 261.521 318.506C262.159 320.19 262.817 321.866 263.493 323.536C263.734 324.215 263.956 324.603 264.16 324.7C264.351 324.76 264.785 324.607 265.461 324.24C265.736 324.057 266.018 323.894 266.306 323.75C266.618 323.554 266.926 323.403 267.227 323.296C267.755 323.109 268.223 323.113 268.632 323.308C269.065 323.451 269.38 323.743 269.578 324.182C269.84 324.683 269.881 325.157 269.699 325.603C269.542 325.998 269.22 326.346 268.732 326.646C267.306 327.533 265.782 328.2 264.158 328.648C263.49 328.799 262.889 328.779 262.354 328.586C261.819 328.394 261.381 327.997 261.041 327.396C260.465 326.37 259.977 325.291 259.577 324.16C259.176 323.029 258.782 321.916 258.395 320.823C258.088 319.956 257.781 319.088 257.473 318.221C257.191 317.303 256.896 316.41 256.588 315.543ZM281.858 312.831C281.359 311.183 280.867 309.554 280.382 307.943C279.896 306.333 279.404 304.704 278.905 303.056C278.593 301.936 278.232 300.854 277.82 299.812C277.433 298.719 277.045 297.625 276.658 296.532L275.576 293.478C275.229 292.497 274.882 291.517 274.535 290.537C274.188 289.556 273.935 288.543 273.776 287.495C273.691 287.016 273.569 286.551 273.408 286.098C273.235 285.608 273.087 285.13 272.964 284.664C272.596 283.267 273.066 282.315 274.372 281.81C274.561 281.743 274.756 281.696 274.958 281.667C275.146 281.6 275.335 281.533 275.523 281.466C276.515 281.03 277.455 280.93 278.345 281.167C279.222 281.366 280.083 281.761 280.929 282.352C281.724 282.919 282.344 283.591 282.789 284.367C283.271 285.13 283.684 285.938 284.029 286.792C284.481 287.947 284.914 289.11 285.328 290.278C285.766 291.396 286.192 292.54 286.606 293.708C287.488 296.197 287.163 298.455 285.632 300.482C285.324 300.931 285.171 301.218 285.174 301.345C285.176 301.471 285.358 301.746 285.72 302.17C286.756 303.416 287.722 304.707 288.62 306.044C289.542 307.33 290.44 308.667 291.314 310.055C291.809 310.855 292.331 311.668 292.877 312.493C293.411 313.28 293.925 314.073 294.421 314.874C294.563 315.036 294.668 315.211 294.734 315.399C294.801 315.588 294.868 315.776 294.935 315.965C295.115 316.835 294.843 317.504 294.118 317.973C293.329 318.38 292.606 318.317 291.951 317.785C291.758 317.599 291.584 317.406 291.428 317.207C291.297 316.956 291.154 316.731 290.998 316.532C289.891 314.844 288.791 313.176 287.698 311.526C286.591 309.839 285.465 308.159 284.321 306.485C284.243 306.385 284.172 306.304 284.107 306.242C284.03 306.142 283.933 306.049 283.817 305.963C283.782 306.102 283.747 306.242 283.711 306.382C283.714 306.509 283.735 306.628 283.775 306.741L286.96 315.734C287.107 316.149 287.261 316.582 287.421 317.035C287.605 317.436 287.752 317.851 287.861 318.279C288.133 319.286 287.811 319.994 286.895 320.404C285.88 320.891 285.091 320.64 284.528 319.651C284.319 319.3 284.181 319.031 284.115 318.842L281.991 312.847C281.978 312.81 281.933 312.804 281.858 312.831ZM279.64 293.63L281.303 298.324C281.45 298.739 281.593 298.964 281.733 298.999C281.859 298.997 282.078 298.834 282.388 298.512C283.33 297.457 283.574 296.289 283.12 295.007C282.893 294.366 282.679 293.763 282.479 293.197C282.303 292.58 282.089 291.977 281.838 291.387C281.52 290.609 281.201 289.83 280.883 289.052C280.552 288.236 280.201 287.426 279.832 286.623C279.452 285.909 278.835 285.364 277.98 284.988C277.674 284.842 277.44 284.84 277.278 284.982C277.202 285.009 277.172 285.104 277.188 285.268C277.191 285.395 277.193 285.521 277.195 285.648C277.74 288.383 278.555 291.044 279.64 293.63ZM289.848 296.252C288.328 292.08 287.255 287.792 286.629 283.389C286.534 282.404 286.523 281.474 286.596 280.6C286.67 279.131 287.273 277.899 288.406 276.904C290.112 275.493 292.085 274.773 294.324 274.744C295.893 274.74 297.246 275.385 298.383 276.68C299.067 277.413 299.645 278.206 300.117 279.057C300.626 279.895 301.097 280.747 301.53 281.612C301.991 282.552 302.439 283.518 302.875 284.509C303.335 285.449 303.765 286.422 304.163 287.427C304.839 289.097 305.452 290.768 306.002 292.44C306.59 294.099 307.146 295.79 307.672 297.514C308.091 298.936 308.554 300.363 309.061 301.796C309.593 303.177 309.936 304.626 310.091 306.141C310.165 306.709 310.194 307.272 310.179 307.829C310.164 308.386 310.15 308.942 310.135 309.499C310.06 310.247 309.844 310.896 309.488 311.447C309.131 311.998 308.666 312.481 308.091 312.896C307.018 313.701 305.872 314.298 304.652 314.687C303.47 315.064 302.22 315.188 300.902 315.061C300.369 314.995 299.88 314.871 299.433 314.69C298.987 314.508 298.59 314.225 298.241 313.839C297.777 313.367 297.331 312.888 296.905 312.403C296.478 311.917 296.121 311.386 295.831 310.81C295.28 309.732 294.785 308.634 294.347 307.516C293.908 306.399 293.451 305.288 292.975 304.183C292.432 302.89 291.902 301.572 291.383 300.228C290.903 298.87 290.391 297.545 289.848 296.252ZM302.148 292.341C301.659 291.199 301.247 290.157 300.913 289.214C300.566 288.234 300.169 287.292 299.722 286.39C299.259 285.323 298.747 284.295 298.184 283.306C297.659 282.304 297.097 281.315 296.497 280.339C295.883 279.326 295.322 278.761 294.814 278.644C294.33 278.476 293.561 278.579 292.505 278.953C291.524 279.3 290.893 279.672 290.609 280.07C290.325 280.467 290.219 281.184 290.288 282.22C290.266 282.397 290.282 282.562 290.336 282.712C290.505 283.671 290.656 284.636 290.788 285.608C290.958 286.566 291.165 287.511 291.41 288.442C291.789 289.751 292.161 291.041 292.526 292.312C292.929 293.57 293.376 294.833 293.868 296.101C294.483 297.836 295.116 299.563 295.768 301.285C296.406 302.968 297.064 304.645 297.74 306.315C298.083 307.042 298.437 307.744 298.804 308.42C299.209 309.083 299.639 309.758 300.094 310.446C300.432 310.92 300.836 311.223 301.307 311.353C301.764 311.446 302.263 311.417 302.805 311.268C303.534 311.052 304.232 310.805 304.897 310.527C305.398 310.265 305.804 309.972 306.114 309.65C306.411 309.29 306.523 308.827 306.449 308.259C306.41 307.551 306.328 306.838 306.2 306.119C306.111 305.387 305.983 304.668 305.818 303.963C305.186 301.938 304.548 299.957 303.905 298.021C303.299 296.071 302.714 294.178 302.148 292.341ZM313.806 308.963C313.639 308.131 313.471 307.299 313.304 306.467C313.123 305.598 312.968 304.74 312.839 303.895C312.624 302.571 312.435 301.258 312.272 299.958C312.095 298.621 311.906 297.308 311.705 296.022C311.337 293.903 310.975 291.804 310.62 289.723C310.302 287.629 309.941 285.529 309.534 283.424C309.213 281.798 308.861 280.204 308.477 278.642C308.081 277.043 307.703 275.437 307.344 273.824C307.192 273.156 307.105 272.551 307.082 272.007C307.057 271.337 307.135 270.779 307.317 270.333C307.644 269.58 308.13 269.154 308.773 269.053C309.403 268.915 309.996 269.151 310.551 269.76C311.326 270.631 312.079 271.617 312.808 272.717C314.228 274.929 315.632 277.275 317.019 279.754C317.515 280.555 317.954 281.375 318.336 282.216C318.719 283.056 319.139 283.883 319.597 284.697C320.253 285.95 320.928 287.196 321.621 288.436C322.339 289.624 323.007 290.852 323.626 292.118C324.533 293.961 325.477 295.727 326.457 297.417C327.475 299.093 328.488 300.814 329.495 302.579C329.559 302.641 329.611 302.728 329.651 302.842C329.678 302.917 329.724 302.986 329.788 303.048C330.013 303.562 330.041 304.061 329.873 304.545C329.705 305.029 329.389 305.396 328.926 305.645C328.487 305.843 328.013 305.883 327.505 305.766C327.021 305.598 326.654 305.282 326.405 304.819C325.409 302.965 324.363 301.15 323.267 299.374C322.209 297.584 321.232 295.724 320.336 293.792C319.967 292.99 319.681 292.603 319.479 292.632C319.302 292.61 318.986 292.976 318.532 293.731C318.113 294.346 317.701 294.98 317.296 295.633C316.891 296.286 316.511 296.951 316.157 297.628C315.924 298.05 315.83 298.444 315.875 298.81C316.118 300.336 316.374 301.837 316.642 303.312C316.91 304.787 317.178 306.262 317.446 307.737C317.644 308.898 317.349 309.681 316.56 310.088C315.983 310.377 315.427 310.426 314.892 310.233C314.382 309.99 314.02 309.566 313.806 308.963ZM314.735 291.639C314.749 291.676 314.769 291.733 314.796 291.808C314.847 291.833 314.885 291.882 314.912 291.958C315.138 291.878 315.276 291.787 315.325 291.685C315.633 291.236 315.947 290.806 316.268 290.395C316.576 289.947 316.884 289.498 317.192 289.05C317.389 288.768 317.383 288.452 317.174 288.101C316.992 287.826 316.829 287.545 316.684 287.256C316.564 286.917 316.406 286.591 316.211 286.279C315.648 285.29 315.105 284.294 314.58 283.292C314.055 282.289 313.512 281.294 312.949 280.305C312.922 280.229 312.858 280.167 312.756 280.118C312.691 280.056 312.627 279.994 312.563 279.932C312.552 280.021 312.548 280.192 312.553 280.445C312.62 280.633 312.654 280.791 312.657 280.917C312.918 282.013 313.16 283.116 313.383 284.225C313.63 285.283 313.859 286.348 314.069 287.419C314.182 288.1 314.284 288.807 314.374 289.539C314.488 290.22 314.608 290.92 314.735 291.639ZM327.072 289.37C326.471 287.673 325.902 286.007 325.365 284.373C324.816 282.7 324.184 281.036 323.47 279.379C322.715 277.609 322.088 275.837 321.587 274.063C321.11 272.237 320.551 270.42 319.91 268.61C319.605 267.869 319.593 267.237 319.874 266.713C320.193 266.175 320.723 265.754 321.464 265.45C322.531 264.987 323.595 264.758 324.658 264.764C325.745 264.718 326.823 264.825 327.89 265.083C328.259 265.165 328.635 265.329 329.019 265.574C329.39 265.783 329.748 266.016 330.095 266.275C330.981 266.98 331.736 267.795 332.361 268.719C333.01 269.593 333.596 270.531 334.121 271.533C335.079 273.4 335.88 275.302 336.524 277.238C337.205 279.161 337.855 281.116 338.474 283.104C338.812 284.299 339.132 285.501 339.433 286.71C339.72 287.882 339.951 289.073 340.126 290.284C340.352 292.241 340.254 294.121 339.833 295.926C339.448 297.717 338.861 299.474 338.071 301.196C337.462 302.473 336.465 303.25 335.078 303.529C334.486 303.654 333.922 303.62 333.387 303.428C332.852 303.235 332.447 302.87 332.171 302.331C331.896 301.792 331.62 301.253 331.344 300.714C331.106 300.162 330.887 299.603 330.687 299.038C330.075 297.43 329.488 295.834 328.927 294.25C328.391 292.616 327.829 290.969 327.241 289.31L327.072 289.37ZM330.675 288.221L330.731 288.201L333.355 295.61C333.529 296.1 333.703 296.59 333.876 297.08C334.088 297.557 334.299 298.034 334.51 298.511C334.537 298.586 334.583 298.655 334.647 298.717C334.711 298.779 334.776 298.841 334.84 298.903C334.889 298.801 334.951 298.737 335.026 298.71C335.102 298.683 335.145 298.626 335.156 298.537C335.554 297.505 335.883 296.455 336.141 295.387C336.437 294.306 336.556 293.204 336.497 292.079C336.446 290.739 336.264 289.445 335.95 288.199C335.673 286.939 335.359 285.692 335.007 284.459C334.522 282.848 334.024 281.264 333.514 279.704C333.029 278.094 332.411 276.53 331.662 275.014C331.266 274.135 330.839 273.289 330.381 272.476C329.91 271.624 329.351 270.825 328.705 270.078C328.136 269.431 327.514 268.993 326.839 268.765C326.202 268.524 325.473 268.443 324.652 268.521C324.324 268.553 324.117 268.626 324.03 268.742C323.944 268.857 323.961 269.085 324.081 269.424C324.836 271.915 325.654 274.404 326.535 276.893C326.909 277.949 327.295 278.979 327.694 279.984C328.092 280.988 328.478 282.019 328.852 283.074C329.197 283.928 329.504 284.795 329.773 285.676C330.067 286.505 330.368 287.354 330.675 288.221ZM346.461 260.542C347.24 262.261 347.709 264.005 347.868 265.773C348.065 267.528 347.941 269.333 347.495 271.188C347.367 271.785 347.283 272.388 347.244 272.996C347.191 273.566 347.101 274.15 346.973 274.747C346.828 275.774 346.828 276.793 346.973 277.802C347.143 278.76 347.42 279.723 347.805 280.69C347.912 280.992 348.018 281.293 348.125 281.595C348.219 281.859 348.3 282.148 348.369 282.463C348.532 283.042 348.504 283.561 348.284 284.021C348.103 284.467 347.748 284.784 347.22 284.971C346.693 285.158 346.218 285.135 345.796 284.902C345.374 284.67 345.056 284.252 344.843 283.649L344.282 282.065C343.672 280.584 343.297 279.104 343.155 277.626C343.038 276.098 343.13 274.559 343.43 273.01C343.531 272.338 343.632 271.665 343.734 270.993C343.835 270.32 343.955 269.641 344.094 268.955C344.335 267.597 344.298 266.295 343.983 265.048C343.669 263.802 343.254 262.57 342.738 261.352C342.553 260.951 342.357 260.575 342.148 260.224C341.925 259.836 341.703 259.448 341.481 259.06C340.738 257.923 339.901 257.477 338.97 257.722C338.404 257.922 337.924 258.304 337.53 258.868C337.122 259.395 336.943 259.967 336.993 260.586C337.066 261.154 337.178 261.709 337.327 262.25C337.463 262.753 337.606 263.276 337.755 263.817C337.88 264.409 337.839 264.954 337.634 265.451C337.452 265.897 337.091 266.195 336.55 266.344C336.059 266.518 335.591 266.514 335.145 266.333C334.737 266.138 334.452 265.814 334.292 265.362C334.078 264.759 333.89 264.167 333.728 263.588C333.552 262.972 333.413 262.342 333.313 261.699C333.014 259.895 333.319 258.302 334.23 256.918C335.127 255.497 336.443 254.543 338.18 254.055C339.3 253.743 340.332 253.781 341.276 254.168C342.243 254.504 343.089 255.096 343.814 255.942C344.345 256.603 344.814 257.328 345.221 258.118C345.665 258.894 346.079 259.702 346.461 260.542ZM348.958 288.62C349.449 288.446 349.923 288.469 350.383 288.688C350.842 288.907 351.178 289.255 351.389 289.732C351.576 290.26 351.555 290.798 351.324 291.346C351.081 291.857 350.695 292.206 350.167 292.393C349.677 292.566 349.209 292.562 348.763 292.381C348.341 292.148 348.043 291.787 347.87 291.297C347.683 290.769 347.692 290.256 347.898 289.759C348.09 289.224 348.444 288.844 348.958 288.62Z" fill="#371A45"/>
</g>
<defs>
<clipPath id="clip0_107_1981">
<rect width="602" height="581" fill="white"/>
</clipPath>
</defs>
</svg>
