<svg xmlns="http://www.w3.org/2000/svg" xmlns:xlink="http://www.w3.org/1999/xlink" width="500" zoomAndPan="magnify" viewBox="0 0 375 374.999991" height="500" preserveAspectRatio="xMidYMid meet" version="1.0"><defs><g/></defs><path fill="#ffffff" d="M 328.789062 111.636719 C 331.257812 101.71875 338.785156 61.105469 303.082031 41.140625 C 267.046875 20.996094 225.734375 45.878906 215.949219 52.425781 C 210.328125 42.84375 186.179688 6.347656 147.933594 13.730469 C 108.957031 21.246094 97.707031 66.375 95.492188 77.558594 C 84.117188 74.929688 36.496094 66.035156 18.089844 96.4375 C 0.0234375 126.261719 25.820312 154.417969 32.792969 161.191406 C 26.597656 168.75 4.015625 200.054688 24.285156 232.648438 C 44.585938 265.316406 86.21875 253.523438 96.835938 249.84375 C 99.351562 259.527344 111.191406 292.605469 156.296875 300.820312 C 161.421875 301.757812 166.214844 302.171875 170.71875 302.171875 C 206.085938 302.171875 222.617188 276.105469 227.066406 267.609375 C 235.519531 273.804688 266.167969 293.269531 300.441406 278.578125 C 335.796875 263.410156 330.773438 229.148438 328.753906 220.132812 C 338.144531 217.050781 375.023438 202.550781 374.1875 165.398438 C 373.351562 128.496094 338.0625 114.640625 328.789062 111.636719 Z M 328.789062 111.636719 " fill-opacity="1" fill-rule="nonzero"/><path fill="#ffffff" d="M 80.246094 297.703125 C 68.726562 298.222656 60.070312 303.449219 57.101562 311.710938 C 54.722656 318.3125 56.773438 325.601562 62.460938 330.746094 C 68.511719 336.21875 77.28125 339.367188 86.273438 339.367188 C 87.007812 339.367188 87.742188 339.347656 88.472656 339.300781 C 97.457031 338.78125 105.355469 335.136719 110.71875 329.019531 C 114.992188 324.144531 115.917969 318.46875 113.3125 313.042969 C 108.796875 303.664062 94.578125 297.074219 80.246094 297.703125 Z M 80.246094 297.703125 " fill-opacity="1" fill-rule="nonzero"/><path fill="#ffffff" d="M 24.625 344.121094 C 18.394531 344.796875 13.914062 347.6875 12.335938 352.042969 C 10.933594 355.878906 12.050781 360.199219 15.3125 363.574219 C 18.472656 366.847656 23.066406 368.742188 27.773438 368.742188 C 28.101562 368.742188 28.4375 368.734375 28.765625 368.710938 C 33.5625 368.4375 37.757812 366.238281 40.601562 362.515625 C 43.242188 359.0625 43.582031 354.988281 41.539062 351.355469 C 38.652344 346.253906 31.847656 343.328125 24.625 344.121094 Z M 24.625 344.121094 " fill-opacity="1" fill-rule="nonzero"/><g fill="#000000" fill-opacity="1"><g transform="translate(93.632844, 138.479777)"><g><path d="M 28.484375 -10.6875 C 31.671875 -22.90625 33.453125 -31.03125 26.359375 -30.3125 C 21.96875 -29.828125 20.921875 -22.390625 20.5625 -16.859375 C 20.484375 -15.53125 20.03125 -15.4375 19.75 -16.640625 C 19.203125 -19.046875 19.921875 -21.65625 18.703125 -23.9375 C 17.34375 -26.453125 12.515625 -25.390625 12.125 -22.609375 C 11.890625 -19.828125 11.6875 -17.796875 11.6875 -16.734375 C 11.6875 -15.859375 10.578125 -15.65625 10.578125 -16.4375 C 10.296875 -23.390625 10.6875 -23.796875 9.9375 -26.578125 C 9.078125 -29.765625 6.109375 -30.8125 3.625 -28.859375 C 2.046875 -27.625 1.25 -23.953125 1.203125 -17.84375 C 1.125 -8.484375 3.53125 0.484375 10.53125 -0.015625 C 14.796875 -0.34375 15.171875 -5.75 15.375 -10.40625 C 15.421875 -11.328125 16.171875 -11.265625 16.171875 -10.15625 C 16.171875 -6.6875 15.53125 -0.40625 21.890625 -0.40625 C 25.765625 -0.40625 27.46875 -5.453125 28.484375 -10.6875 Z M 28.484375 -10.6875 "/></g></g></g><g fill="#000000" fill-opacity="1"><g transform="translate(124.899757, 138.479777)"><g><path d="M 23.15625 -23.015625 C 23.03125 -26.9375 21.953125 -29.59375 18.296875 -29.484375 C 15.65625 -29.359375 13.75 -28.125 13.578125 -25.734375 C 13.65625 -21.734375 14.234375 -19.21875 13.234375 -18.765625 C 6.28125 -15.46875 15.65625 -29.359375 6.859375 -29.0625 C 1.53125 -29.0625 1.203125 -24.75 1.203125 -18 C 1.203125 -12.46875 1.140625 -7.859375 2.171875 -4.375 C 2.90625 -1.65625 4.015625 0.21875 6.640625 0.21875 C 11.046875 0.21875 11.34375 -1.578125 10.1875 -6.21875 C 10.140625 -7.671875 11.25 -8.796875 12.625 -8.796875 C 14.125 -8.796875 13.9375 -7.5625 13.734375 -5.6875 C 13.3125 -1.859375 14.640625 0.71875 18.125 -0.046875 C 23.515625 -1.15625 23.671875 -10.96875 23.15625 -23.015625 Z M 23.15625 -23.015625 "/></g></g></g><g fill="#000000" fill-opacity="1"><g transform="translate(148.249667, 138.479777)"><g><path d="M 12.546875 -12.984375 C 16.09375 -12.984375 18.5 -14.078125 18.5 -17.4375 C 18.625 -19.25 16.953125 -20.390625 15.171875 -20.390625 C 14.046875 -20.390625 13.125 -20.109375 12.40625 -19.53125 C 11.171875 -19.765625 11.703125 -20.125 12.03125 -23.796875 C 18.84375 -23.796875 19.6875 -30.3125 13.734375 -30.3125 C 12.75 -30.3125 11.703125 -30.203125 10.625 -29.96875 L 4.296875 -29.328125 C 3.265625 -28.625 2.578125 -27.078125 2.25 -24.71875 C 0.6875 -13.109375 -0.40625 0 9.046875 0 C 13.234375 0 17.765625 -3.40625 17.34375 -7.15625 C 17.140625 -9 15.21875 -9.78125 13.09375 -9.203125 C 12.03125 -9.828125 12.3125 -10.078125 12.546875 -12.984375 Z M 12.546875 -12.984375 "/></g></g></g><g fill="#000000" fill-opacity="1"><g transform="translate(166.74916, 138.479777)"><g><path d="M 23.671875 -13.765625 C 23.671875 -16.734375 23.328125 -23.390625 22.875 -25.59375 C 22.265625 -28.328125 20.75 -29.6875 18.28125 -29.6875 C 15.640625 -29.6875 14.078125 -27.828125 14.078125 -25.21875 C 14.078125 -23.265625 14.59375 -19.984375 15.171875 -15.9375 C 14.015625 -20.921875 11.8125 -28.78125 7.5625 -28.78125 C 4.90625 -28.78125 2.671875 -26.453125 1.984375 -23.8125 C 1.46875 -21.609375 1.203125 -17.3125 1.203125 -10.90625 C 1.203125 -5.15625 1.796875 -0.21875 6.234375 0.203125 C 11.140625 0.796875 11.265625 -7.3125 10.015625 -12.609375 C 12.375 -5.9375 13.671875 -0.0625 18.28125 -0.0625 C 22.828125 -0.0625 23.671875 -6.9375 23.671875 -13.765625 Z M 23.671875 -13.765625 "/></g></g></g><g fill="#000000" fill-opacity="1"><g transform="translate(190.420341, 138.479777)"><g/></g></g><g fill="#000000" fill-opacity="1"><g transform="translate(193.22614, 138.479777)"><g/></g></g><g fill="#000000" fill-opacity="1"><g transform="translate(196.035962, 138.479777)"><g><path d="M 22.90625 -23.796875 C 22.90625 -28.40625 17.703125 -30.109375 11.46875 -30.109375 C 6.859375 -30.109375 1.203125 -28.703125 1.203125 -24.953125 C 1.203125 -21.734375 3.390625 -19.96875 7.75 -20.03125 C 7.015625 -6.390625 5.078125 -0.234375 12.984375 0.015625 C 20.0625 0.21875 16.796875 -15.453125 16.15625 -19.34375 C 21.03125 -19.34375 22.859375 -20.078125 22.90625 -23.796875 Z M 22.90625 -23.796875 "/></g></g></g><g fill="#000000" fill-opacity="1"><g transform="translate(218.944927, 138.479777)"><g><path d="M 23.15625 -23.015625 C 23.03125 -26.9375 21.953125 -29.59375 18.296875 -29.484375 C 15.65625 -29.359375 13.75 -28.125 13.578125 -25.734375 C 13.65625 -21.734375 14.234375 -19.21875 13.234375 -18.765625 C 6.28125 -15.46875 15.65625 -29.359375 6.859375 -29.0625 C 1.53125 -29.0625 1.203125 -24.75 1.203125 -18 C 1.203125 -12.46875 1.140625 -7.859375 2.171875 -4.375 C 2.90625 -1.65625 4.015625 0.21875 6.640625 0.21875 C 11.046875 0.21875 11.34375 -1.578125 10.1875 -6.21875 C 10.140625 -7.671875 11.25 -8.796875 12.625 -8.796875 C 14.125 -8.796875 13.9375 -7.5625 13.734375 -5.6875 C 13.3125 -1.859375 14.640625 0.71875 18.125 -0.046875 C 23.515625 -1.15625 23.671875 -10.96875 23.15625 -23.015625 Z M 23.15625 -23.015625 "/></g></g></g><g fill="#000000" fill-opacity="1"><g transform="translate(242.294837, 138.479777)"><g><path d="M 12.546875 -12.984375 C 16.09375 -12.984375 18.5 -14.078125 18.5 -17.4375 C 18.625 -19.25 16.953125 -20.390625 15.171875 -20.390625 C 14.046875 -20.390625 13.125 -20.109375 12.40625 -19.53125 C 11.171875 -19.765625 11.703125 -20.125 12.03125 -23.796875 C 18.84375 -23.796875 19.6875 -30.3125 13.734375 -30.3125 C 12.75 -30.3125 11.703125 -30.203125 10.625 -29.96875 L 4.296875 -29.328125 C 3.265625 -28.625 2.578125 -27.078125 2.25 -24.71875 C 0.6875 -13.109375 -0.40625 0 9.046875 0 C 13.234375 0 17.765625 -3.40625 17.34375 -7.15625 C 17.140625 -9 15.21875 -9.78125 13.09375 -9.203125 C 12.03125 -9.828125 12.3125 -10.078125 12.546875 -12.984375 Z M 12.546875 -12.984375 "/></g></g></g><g fill="#000000" fill-opacity="1"><g transform="translate(260.794329, 138.479777)"><g><path d="M 17.203125 -12.59375 C 19.671875 -17.15625 22.453125 -21.6875 22.71875 -25.3125 C 22.953125 -28.40625 21.1875 -30.9375 17.453125 -30.9375 C 13.59375 -30.9375 12.546875 -26.40625 11.328125 -21.1875 C 9.359375 -27.75 8.125 -31.4375 3.734375 -29.5625 C 2.328125 -28.984375 1.203125 -27.609375 1.203125 -25.703125 C 1.203125 -22.71875 3.265625 -17.6875 7.375 -10.609375 C 6.890625 -4.796875 6.65625 0 12.109375 0 C 16.921875 0 17.203125 -5.8125 17.203125 -12.59375 Z M 17.203125 -12.59375 "/></g></g></g><g fill="#000000" fill-opacity="1"><g transform="translate(57.979721, 173.509719)"><g><path d="M 20.1875 -16.21875 C 20.1875 -21.171875 16.953125 -26.796875 12.65625 -28.8125 C 9.234375 -29.828125 2.546875 -30.015625 1.359375 -27.421875 C 0.921875 -23.1875 1.4375 -9.78125 1.890625 -3.0625 C 2.0625 -0.796875 6.515625 0.1875 9.703125 -0.046875 C 16.5625 -1.984375 20.1875 -8.71875 20.1875 -16.21875 Z M 8.734375 -19.96875 C 12.890625 -20.984375 12.875 -13.515625 9.28125 -11.03125 C 9.203125 -15.1875 9.015625 -18.1875 8.734375 -19.96875 Z M 8.734375 -19.96875 "/></g></g></g><g fill="#000000" fill-opacity="1"><g transform="translate(78.162831, 173.509719)"><g><path d="M 12.546875 -12.984375 C 16.09375 -12.984375 18.5 -14.078125 18.5 -17.4375 C 18.625 -19.25 16.953125 -20.390625 15.171875 -20.390625 C 14.046875 -20.390625 13.125 -20.109375 12.40625 -19.53125 C 11.171875 -19.765625 11.703125 -20.125 12.03125 -23.796875 C 18.84375 -23.796875 19.6875 -30.3125 13.734375 -30.3125 C 12.75 -30.3125 11.703125 -30.203125 10.625 -29.96875 L 4.296875 -29.328125 C 3.265625 -28.625 2.578125 -27.078125 2.25 -24.71875 C 0.6875 -13.109375 -0.40625 0 9.046875 0 C 13.234375 0 17.765625 -3.40625 17.34375 -7.15625 C 17.140625 -9 15.21875 -9.78125 13.09375 -9.203125 C 12.03125 -9.828125 12.3125 -10.078125 12.546875 -12.984375 Z M 12.546875 -12.984375 "/></g></g></g><g fill="#000000" fill-opacity="1"><g transform="translate(96.662324, 173.509719)"><g><path d="M 21.0625 -8.59375 C 21.0625 -13.53125 18.34375 -14.53125 14.671875 -11.28125 C 11.390625 -8.375 10.6875 -8.640625 10.6875 -12.921875 L 11.046875 -21.140625 C 11.046875 -21.828125 11.8125 -22.6875 12 -21.265625 C 12 -19.1875 14.734375 -17.734375 16.859375 -17.953125 C 18.96875 -18.203125 20.390625 -20.484375 20.34375 -22.734375 C 20.25 -26.96875 16.03125 -30.515625 11.5 -30.515625 C 3.75 -30.515625 1.203125 -22.9375 1.203125 -13.828125 C 1.15625 -6.5 4.890625 0 11.8125 0 C 17.40625 0 21.0625 -2.96875 21.0625 -8.59375 Z M 21.0625 -8.59375 "/></g></g></g><g fill="#000000" fill-opacity="1"><g transform="translate(117.727324, 173.509719)"><g><path d="M 7.625 0.140625 C 12.390625 -1.125 12.3125 -11.78125 12.0625 -20.734375 C 11.84375 -26.484375 12.203125 -28.765625 8.765625 -28.765625 C 6.328125 -28.765625 3.609375 -28.328125 3.140625 -25.921875 C -0.921875 -8.59375 1.828125 0.78125 7.625 0.140625 Z M 7.625 0.140625 "/></g></g></g><g fill="#000000" fill-opacity="1"><g transform="translate(129.873176, 173.509719)"><g><path d="M 20.1875 -16.21875 C 20.1875 -21.171875 16.953125 -26.796875 12.65625 -28.8125 C 9.234375 -29.828125 2.546875 -30.015625 1.359375 -27.421875 C 0.921875 -23.1875 1.4375 -9.78125 1.890625 -3.0625 C 2.0625 -0.796875 6.515625 0.1875 9.703125 -0.046875 C 16.5625 -1.984375 20.1875 -8.71875 20.1875 -16.21875 Z M 8.734375 -19.96875 C 12.890625 -20.984375 12.875 -13.515625 9.28125 -11.03125 C 9.203125 -15.1875 9.015625 -18.1875 8.734375 -19.96875 Z M 8.734375 -19.96875 "/></g></g></g><g fill="#000000" fill-opacity="1"><g transform="translate(150.056286, 173.509719)"><g><path d="M 12.546875 -12.984375 C 16.09375 -12.984375 18.5 -14.078125 18.5 -17.4375 C 18.625 -19.25 16.953125 -20.390625 15.171875 -20.390625 C 14.046875 -20.390625 13.125 -20.109375 12.40625 -19.53125 C 11.171875 -19.765625 11.703125 -20.125 12.03125 -23.796875 C 18.84375 -23.796875 19.6875 -30.3125 13.734375 -30.3125 C 12.75 -30.3125 11.703125 -30.203125 10.625 -29.96875 L 4.296875 -29.328125 C 3.265625 -28.625 2.578125 -27.078125 2.25 -24.71875 C 0.6875 -13.109375 -0.40625 0 9.046875 0 C 13.234375 0 17.765625 -3.40625 17.34375 -7.15625 C 17.140625 -9 15.21875 -9.78125 13.09375 -9.203125 C 12.03125 -9.828125 12.3125 -10.078125 12.546875 -12.984375 Z M 12.546875 -12.984375 "/></g></g></g><g fill="#000000" fill-opacity="1"><g transform="translate(168.555779, 173.509719)"><g><path d="M 20.1875 -16.21875 C 20.1875 -21.171875 16.953125 -26.796875 12.65625 -28.8125 C 9.234375 -29.828125 2.546875 -30.015625 1.359375 -27.421875 C 0.921875 -23.1875 1.4375 -9.78125 1.890625 -3.0625 C 2.0625 -0.796875 6.515625 0.1875 9.703125 -0.046875 C 16.5625 -1.984375 20.1875 -8.71875 20.1875 -16.21875 Z M 8.734375 -19.96875 C 12.890625 -20.984375 12.875 -13.515625 9.28125 -11.03125 C 9.203125 -15.1875 9.015625 -18.1875 8.734375 -19.96875 Z M 8.734375 -19.96875 "/></g></g></g><g fill="#000000" fill-opacity="1"><g transform="translate(188.742213, 173.509719)"><g/></g></g><g fill="#000000" fill-opacity="1"><g transform="translate(191.548012, 173.509719)"><g/></g></g><g fill="#000000" fill-opacity="1"><g transform="translate(194.35784, 173.509719)"><g><path d="M 22.90625 -23.796875 C 22.90625 -28.40625 17.703125 -30.109375 11.46875 -30.109375 C 6.859375 -30.109375 1.203125 -28.703125 1.203125 -24.953125 C 1.203125 -21.734375 3.390625 -19.96875 7.75 -20.03125 C 7.015625 -6.390625 5.078125 -0.234375 12.984375 0.015625 C 20.0625 0.21875 16.796875 -15.453125 16.15625 -19.34375 C 21.03125 -19.34375 22.859375 -20.078125 22.90625 -23.796875 Z M 22.90625 -23.796875 "/></g></g></g><g fill="#000000" fill-opacity="1"><g transform="translate(217.266805, 173.509719)"><g><path d="M 13.40625 0.015625 C 20.625 0.015625 23.671875 -7.5625 23.859375 -15.109375 C 24.03125 -23.265625 19.203125 -29.890625 11.765625 -29.890625 C 4.96875 -29.890625 1.203125 -21.90625 1.203125 -13.9375 C 1.203125 -6.09375 5.734375 0.015625 13.40625 0.015625 Z M 14.265625 -13.625 C 14.265625 -10.625 13.328125 -9.09375 12.421875 -9.15625 C 11.5625 -9.203125 10.75 -10.640625 10.75 -13.59375 C 10.75 -17.984375 11.734375 -20.140625 12.65625 -19.96875 C 13.46875 -19.78125 14.265625 -17.71875 14.265625 -13.625 Z M 14.265625 -13.625 "/></g></g></g><g fill="#000000" fill-opacity="1"><g transform="translate(241.120337, 173.509719)"><g/></g></g><g fill="#000000" fill-opacity="1"><g transform="translate(243.926137, 173.509719)"><g/></g></g><g fill="#000000" fill-opacity="1"><g transform="translate(246.731936, 173.509719)"><g/></g></g><g fill="#000000" fill-opacity="1"><g transform="translate(249.539087, 173.509719)"><g><path d="M 23.15625 -23.015625 C 23.03125 -26.9375 21.953125 -29.59375 18.296875 -29.484375 C 15.65625 -29.359375 13.75 -28.125 13.578125 -25.734375 C 13.65625 -21.734375 14.234375 -19.21875 13.234375 -18.765625 C 6.28125 -15.46875 15.65625 -29.359375 6.859375 -29.0625 C 1.53125 -29.0625 1.203125 -24.75 1.203125 -18 C 1.203125 -12.46875 1.140625 -7.859375 2.171875 -4.375 C 2.90625 -1.65625 4.015625 0.21875 6.640625 0.21875 C 11.046875 0.21875 11.34375 -1.578125 10.1875 -6.21875 C 10.140625 -7.671875 11.25 -8.796875 12.625 -8.796875 C 14.125 -8.796875 13.9375 -7.5625 13.734375 -5.6875 C 13.3125 -1.859375 14.640625 0.71875 18.125 -0.046875 C 23.515625 -1.15625 23.671875 -10.96875 23.15625 -23.015625 Z M 23.15625 -23.015625 "/></g></g></g><g fill="#000000" fill-opacity="1"><g transform="translate(272.888997, 173.509719)"><g><path d="M 13.40625 0.015625 C 20.625 0.015625 23.671875 -7.5625 23.859375 -15.109375 C 24.03125 -23.265625 19.203125 -29.890625 11.765625 -29.890625 C 4.96875 -29.890625 1.203125 -21.90625 1.203125 -13.9375 C 1.203125 -6.09375 5.734375 0.015625 13.40625 0.015625 Z M 14.265625 -13.625 C 14.265625 -10.625 13.328125 -9.09375 12.421875 -9.15625 C 11.5625 -9.203125 10.75 -10.640625 10.75 -13.59375 C 10.75 -17.984375 11.734375 -20.140625 12.65625 -19.96875 C 13.46875 -19.78125 14.265625 -17.71875 14.265625 -13.625 Z M 14.265625 -13.625 "/></g></g></g><g fill="#000000" fill-opacity="1"><g transform="translate(296.739984, 173.509719)"><g><path d="M 20.3125 -25.59375 C 17.375 -30.015625 11.984375 -31.234375 4.390625 -29.3125 C 1.828125 -28.6875 1.203125 -24.28125 1.203125 -20.40625 L 1.203125 -12.3125 C 1.15625 -6.15625 1.5625 0.015625 6.96875 0.015625 C 12.46875 0.015625 12.375 -4.15625 11.53125 -9.046875 C 20.671875 -9.046875 25.5 -17.625 20.3125 -25.59375 Z M 10.71875 -22.875 C 14.75 -22.53125 14.078125 -19.15625 10.765625 -16.15625 C 10.53125 -19.4375 10.421875 -20.140625 10.71875 -22.875 Z M 10.71875 -22.875 "/></g></g></g><g fill="#000000" fill-opacity="1"><g transform="translate(51.870474, 210.713043)"><g><path d="M 7.625 0.140625 C 12.390625 -1.125 12.3125 -11.78125 12.0625 -20.734375 C 11.84375 -26.484375 12.203125 -28.765625 8.765625 -28.765625 C 6.328125 -28.765625 3.609375 -28.328125 3.140625 -25.921875 C -0.921875 -8.59375 1.828125 0.78125 7.625 0.140625 Z M 7.625 0.140625 "/></g></g></g><g fill="#000000" fill-opacity="1"><g transform="translate(64.020473, 210.713043)"><g/></g></g><g fill="#000000" fill-opacity="1"><g transform="translate(66.826272, 210.713043)"><g/></g></g><g fill="#000000" fill-opacity="1"><g transform="translate(69.632071, 210.713043)"><g/></g></g><g fill="#000000" fill-opacity="1"><g transform="translate(72.439222, 210.713043)"><g><path d="M 20.1875 -16.21875 C 20.1875 -21.171875 16.953125 -26.796875 12.65625 -28.8125 C 9.234375 -29.828125 2.546875 -30.015625 1.359375 -27.421875 C 0.921875 -23.1875 1.4375 -9.78125 1.890625 -3.0625 C 2.0625 -0.796875 6.515625 0.1875 9.703125 -0.046875 C 16.5625 -1.984375 20.1875 -8.71875 20.1875 -16.21875 Z M 8.734375 -19.96875 C 12.890625 -20.984375 12.875 -13.515625 9.28125 -11.03125 C 9.203125 -15.1875 9.015625 -18.1875 8.734375 -19.96875 Z M 8.734375 -19.96875 "/></g></g></g><g fill="#000000" fill-opacity="1"><g transform="translate(92.622332, 210.713043)"><g><path d="M 12.546875 -12.984375 C 16.09375 -12.984375 18.5 -14.078125 18.5 -17.4375 C 18.625 -19.25 16.953125 -20.390625 15.171875 -20.390625 C 14.046875 -20.390625 13.125 -20.109375 12.40625 -19.53125 C 11.171875 -19.765625 11.703125 -20.125 12.03125 -23.796875 C 18.84375 -23.796875 19.6875 -30.3125 13.734375 -30.3125 C 12.75 -30.3125 11.703125 -30.203125 10.625 -29.96875 L 4.296875 -29.328125 C 3.265625 -28.625 2.578125 -27.078125 2.25 -24.71875 C 0.6875 -13.109375 -0.40625 0 9.046875 0 C 13.234375 0 17.765625 -3.40625 17.34375 -7.15625 C 17.140625 -9 15.21875 -9.78125 13.09375 -9.203125 C 12.03125 -9.828125 12.3125 -10.078125 12.546875 -12.984375 Z M 12.546875 -12.984375 "/></g></g></g><g fill="#000000" fill-opacity="1"><g transform="translate(111.121824, 210.713043)"><g><path d="M 21.0625 -8.59375 C 21.0625 -13.53125 18.34375 -14.53125 14.671875 -11.28125 C 11.390625 -8.375 10.6875 -8.640625 10.6875 -12.921875 L 11.046875 -21.140625 C 11.046875 -21.828125 11.8125 -22.6875 12 -21.265625 C 12 -19.1875 14.734375 -17.734375 16.859375 -17.953125 C 18.96875 -18.203125 20.390625 -20.484375 20.34375 -22.734375 C 20.25 -26.96875 16.03125 -30.515625 11.5 -30.515625 C 3.75 -30.515625 1.203125 -22.9375 1.203125 -13.828125 C 1.15625 -6.5 4.890625 0 11.8125 0 C 17.40625 0 21.0625 -2.96875 21.0625 -8.59375 Z M 21.0625 -8.59375 "/></g></g></g><g fill="#000000" fill-opacity="1"><g transform="translate(132.186825, 210.713043)"><g><path d="M 7.625 0.140625 C 12.390625 -1.125 12.3125 -11.78125 12.0625 -20.734375 C 11.84375 -26.484375 12.203125 -28.765625 8.765625 -28.765625 C 6.328125 -28.765625 3.609375 -28.328125 3.140625 -25.921875 C -0.921875 -8.59375 1.828125 0.78125 7.625 0.140625 Z M 7.625 0.140625 "/></g></g></g><g fill="#000000" fill-opacity="1"><g transform="translate(144.332677, 210.713043)"><g><path d="M 20.1875 -16.21875 C 20.1875 -21.171875 16.953125 -26.796875 12.65625 -28.8125 C 9.234375 -29.828125 2.546875 -30.015625 1.359375 -27.421875 C 0.921875 -23.1875 1.4375 -9.78125 1.890625 -3.0625 C 2.0625 -0.796875 6.515625 0.1875 9.703125 -0.046875 C 16.5625 -1.984375 20.1875 -8.71875 20.1875 -16.21875 Z M 8.734375 -19.96875 C 12.890625 -20.984375 12.875 -13.515625 9.28125 -11.03125 C 9.203125 -15.1875 9.015625 -18.1875 8.734375 -19.96875 Z M 8.734375 -19.96875 "/></g></g></g><g fill="#000000" fill-opacity="1"><g transform="translate(164.515787, 210.713043)"><g><path d="M 12.546875 -12.984375 C 16.09375 -12.984375 18.5 -14.078125 18.5 -17.4375 C 18.625 -19.25 16.953125 -20.390625 15.171875 -20.390625 C 14.046875 -20.390625 13.125 -20.109375 12.40625 -19.53125 C 11.171875 -19.765625 11.703125 -20.125 12.03125 -23.796875 C 18.84375 -23.796875 19.6875 -30.3125 13.734375 -30.3125 C 12.75 -30.3125 11.703125 -30.203125 10.625 -29.96875 L 4.296875 -29.328125 C 3.265625 -28.625 2.578125 -27.078125 2.25 -24.71875 C 0.6875 -13.109375 -0.40625 0 9.046875 0 C 13.234375 0 17.765625 -3.40625 17.34375 -7.15625 C 17.140625 -9 15.21875 -9.78125 13.09375 -9.203125 C 12.03125 -9.828125 12.3125 -10.078125 12.546875 -12.984375 Z M 12.546875 -12.984375 "/></g></g></g><g fill="#000000" fill-opacity="1"><g transform="translate(183.01528, 210.713043)"><g><path d="M 20.1875 -16.21875 C 20.1875 -21.171875 16.953125 -26.796875 12.65625 -28.8125 C 9.234375 -29.828125 2.546875 -30.015625 1.359375 -27.421875 C 0.921875 -23.1875 1.4375 -9.78125 1.890625 -3.0625 C 2.0625 -0.796875 6.515625 0.1875 9.703125 -0.046875 C 16.5625 -1.984375 20.1875 -8.71875 20.1875 -16.21875 Z M 8.734375 -19.96875 C 12.890625 -20.984375 12.875 -13.515625 9.28125 -11.03125 C 9.203125 -15.1875 9.015625 -18.1875 8.734375 -19.96875 Z M 8.734375 -19.96875 "/></g></g></g><g fill="#000000" fill-opacity="1"><g transform="translate(203.201717, 210.713043)"><g/></g></g><g fill="#000000" fill-opacity="1"><g transform="translate(206.007516, 210.713043)"><g/></g></g><g fill="#000000" fill-opacity="1"><g transform="translate(208.817338, 210.713043)"><g><path d="M 22.90625 -23.796875 C 22.90625 -28.40625 17.703125 -30.109375 11.46875 -30.109375 C 6.859375 -30.109375 1.203125 -28.703125 1.203125 -24.953125 C 1.203125 -21.734375 3.390625 -19.96875 7.75 -20.03125 C 7.015625 -6.390625 5.078125 -0.234375 12.984375 0.015625 C 20.0625 0.21875 16.796875 -15.453125 16.15625 -19.34375 C 21.03125 -19.34375 22.859375 -20.078125 22.90625 -23.796875 Z M 22.90625 -23.796875 "/></g></g></g><g fill="#000000" fill-opacity="1"><g transform="translate(231.726303, 210.713043)"><g><path d="M 13.40625 0.015625 C 20.625 0.015625 23.671875 -7.5625 23.859375 -15.109375 C 24.03125 -23.265625 19.203125 -29.890625 11.765625 -29.890625 C 4.96875 -29.890625 1.203125 -21.90625 1.203125 -13.9375 C 1.203125 -6.09375 5.734375 0.015625 13.40625 0.015625 Z M 14.265625 -13.625 C 14.265625 -10.625 13.328125 -9.09375 12.421875 -9.15625 C 11.5625 -9.203125 10.75 -10.640625 10.75 -13.59375 C 10.75 -17.984375 11.734375 -20.140625 12.65625 -19.96875 C 13.46875 -19.78125 14.265625 -17.71875 14.265625 -13.625 Z M 14.265625 -13.625 "/></g></g></g><g fill="#000000" fill-opacity="1"><g transform="translate(255.579835, 210.713043)"><g/></g></g><g fill="#000000" fill-opacity="1"><g transform="translate(258.385634, 210.713043)"><g/></g></g><g fill="#000000" fill-opacity="1"><g transform="translate(261.191434, 210.713043)"><g/></g></g><g fill="#000000" fill-opacity="1"><g transform="translate(263.998585, 210.713043)"><g><path d="M 23.15625 -23.015625 C 23.03125 -26.9375 21.953125 -29.59375 18.296875 -29.484375 C 15.65625 -29.359375 13.75 -28.125 13.578125 -25.734375 C 13.65625 -21.734375 14.234375 -19.21875 13.234375 -18.765625 C 6.28125 -15.46875 15.65625 -29.359375 6.859375 -29.0625 C 1.53125 -29.0625 1.203125 -24.75 1.203125 -18 C 1.203125 -12.46875 1.140625 -7.859375 2.171875 -4.375 C 2.90625 -1.65625 4.015625 0.21875 6.640625 0.21875 C 11.046875 0.21875 11.34375 -1.578125 10.1875 -6.21875 C 10.140625 -7.671875 11.25 -8.796875 12.625 -8.796875 C 14.125 -8.796875 13.9375 -7.5625 13.734375 -5.6875 C 13.3125 -1.859375 14.640625 0.71875 18.125 -0.046875 C 23.515625 -1.15625 23.671875 -10.96875 23.15625 -23.015625 Z M 23.15625 -23.015625 "/></g></g></g><g fill="#000000" fill-opacity="1"><g transform="translate(287.348494, 210.713043)"><g><path d="M 7.625 0.140625 C 12.390625 -1.125 12.3125 -11.78125 12.0625 -20.734375 C 11.84375 -26.484375 12.203125 -28.765625 8.765625 -28.765625 C 6.328125 -28.765625 3.609375 -28.328125 3.140625 -25.921875 C -0.921875 -8.59375 1.828125 0.78125 7.625 0.140625 Z M 7.625 0.140625 "/></g></g></g><g fill="#000000" fill-opacity="1"><g transform="translate(299.494346, 210.713043)"><g><path d="M 20.3125 -25.59375 C 17.375 -30.015625 11.984375 -31.234375 4.390625 -29.3125 C 1.828125 -28.6875 1.203125 -24.28125 1.203125 -20.40625 L 1.203125 -12.3125 C 1.15625 -6.15625 1.5625 0.015625 6.96875 0.015625 C 12.46875 0.015625 12.375 -4.15625 11.53125 -9.046875 C 20.671875 -9.046875 25.5 -17.625 20.3125 -25.59375 Z M 10.71875 -22.875 C 14.75 -22.53125 14.078125 -19.15625 10.765625 -16.15625 C 10.53125 -19.4375 10.421875 -20.140625 10.71875 -22.875 Z M 10.71875 -22.875 "/></g></g></g></svg>