<svg xmlns="http://www.w3.org/2000/svg" xmlns:xlink="http://www.w3.org/1999/xlink" width="500" zoomAndPan="magnify" viewBox="0 0 375 154.499995" height="206" preserveAspectRatio="xMidYMid meet" version="1.0"><defs><g/></defs><g fill="#427b24" fill-opacity="0.4"><g transform="translate(40.677322, 69.013786)"><g><path d="M -2.28125 3.9375 C -1.109375 3.9375 0.078125 3.15625 0.625 1.578125 C 5.515625 -8.75 9.921875 -18.359375 14.96875 -28.515625 C 18.671875 -36 22.53125 -43.484375 24.578125 -43.484375 C 27.171875 -43.484375 24.96875 -27.265625 23.953125 -18.28125 C 23.71875 -16 23.390625 -14.265625 23.390625 -12.453125 C 23.390625 -9.53125 24.578125 -6.453125 27.734375 -5.90625 C 33.015625 -5.28125 37.578125 -15.046875 46.25 -28.828125 C 47.265625 -30.171875 54.984375 -44.359375 57.984375 -44.359375 C 59.09375 -44.359375 59.25 -43.484375 59.25 -42.78125 C 59.25 -36 51.921875 -18.984375 47.578125 -6.703125 C 46.953125 -4.890625 45.453125 -1.734375 45.453125 0.46875 C 45.453125 1.890625 46.171875 3 48.296875 3.15625 C 51.203125 3 50.5 1.734375 55.140625 -11.34375 C 58.21875 -20.171875 65.078125 -37.578125 65.078125 -43.09375 C 65.078125 -46.5625 62.875 -50.5 59.171875 -50.5 C 51.046875 -50.5 42.625 -33.09375 35.0625 -21.03125 C 33.015625 -17.71875 31.59375 -14.265625 30.09375 -14.265625 C 28.75 -14.265625 29.703125 -18.984375 30.09375 -22.0625 C 30.328125 -24.109375 32.140625 -37.96875 32.140625 -40.421875 C 32.140625 -45.453125 30.71875 -50.03125 26.390625 -50.03125 C 25.375 -50.03125 23.078125 -49.625 22.0625 -48.84375 C 18.046875 -46.09375 11.890625 -36.640625 -2.515625 -4.8125 C -3.078125 -3.546875 -4.734375 -0.859375 -4.734375 1.1875 C -4.734375 1.96875 -4.484375 2.671875 -3.78125 3.3125 C -3.390625 3.703125 -2.84375 3.9375 -2.28125 3.9375 Z M -2.28125 3.9375 "/></g></g></g><g fill="#427b24" fill-opacity="0.4"><g transform="translate(106.374378, 69.013786)"><g><path d="M 12.53125 0.546875 C 21.03125 0.546875 28.671875 -6.78125 33.875 -14.265625 C 35.21875 -16.15625 33.953125 -18.828125 31.75 -18.828125 C 31.4375 -18.828125 30.796875 -19.296875 29.390625 -17.25 C 24.96875 -10.875 19.859375 -4.96875 12.53125 -4.96875 C 7.484375 -4.96875 3.703125 -9.21875 4.09375 -13.625 C 4.09375 -14.1875 4.40625 -14.421875 4.96875 -14.34375 C 5.90625 -14.1875 7.015625 -14.015625 8.75 -14.015625 C 9.921875 -14.015625 11.421875 -14.265625 13.3125 -14.8125 C 17.171875 -16 21.90625 -20.09375 21.90625 -24.890625 C 21.90625 -28.75 18.59375 -32.140625 13.46875 -32.140625 C 4.484375 -32.140625 -2.046875 -23.078125 -2.046875 -14.109375 C -2.046875 -5.203125 4.8125 0.546875 12.53125 0.546875 Z M 8.90625 -19.375 C 8.03125 -19.375 7.09375 -19.453125 6.140625 -19.609375 C 5.59375 -19.703125 5.4375 -20.09375 5.671875 -20.5625 C 6.9375 -23.078125 9.921875 -26.625 13.3125 -26.625 C 15.046875 -26.625 16.546875 -25.84375 16.546875 -24.265625 C 16.546875 -20.953125 12.21875 -19.375 8.90625 -19.375 Z M 8.90625 -19.375 "/></g></g></g><g fill="#427b24" fill-opacity="0.4"><g transform="translate(137.88376, 69.013786)"><g><path d="M 12.53125 0.546875 C 21.03125 0.546875 28.671875 -6.78125 33.875 -14.265625 C 35.21875 -16.15625 33.953125 -18.828125 31.75 -18.828125 C 31.4375 -18.828125 30.796875 -19.296875 29.390625 -17.25 C 24.96875 -10.875 19.859375 -4.96875 12.53125 -4.96875 C 7.484375 -4.96875 3.703125 -9.21875 4.09375 -13.625 C 4.09375 -14.1875 4.40625 -14.421875 4.96875 -14.34375 C 5.90625 -14.1875 7.015625 -14.015625 8.75 -14.015625 C 9.921875 -14.015625 11.421875 -14.265625 13.3125 -14.8125 C 17.171875 -16 21.90625 -20.09375 21.90625 -24.890625 C 21.90625 -28.75 18.59375 -32.140625 13.46875 -32.140625 C 4.484375 -32.140625 -2.046875 -23.078125 -2.046875 -14.109375 C -2.046875 -5.203125 4.8125 0.546875 12.53125 0.546875 Z M 8.90625 -19.375 C 8.03125 -19.375 7.09375 -19.453125 6.140625 -19.609375 C 5.59375 -19.703125 5.4375 -20.09375 5.671875 -20.5625 C 6.9375 -23.078125 9.921875 -26.625 13.3125 -26.625 C 15.046875 -26.625 16.546875 -25.84375 16.546875 -24.265625 C 16.546875 -20.953125 12.21875 -19.375 8.90625 -19.375 Z M 8.90625 -19.375 "/></g></g></g><g fill="#427b24" fill-opacity="0.4"><g transform="translate(169.393143, 69.013786)"><g><path d="M 32.609375 -17.25 C 27.5 -10.328125 22.375 -3.859375 16.46875 -3.859375 C 12.125 -3.859375 10.40625 -6.625 10.40625 -11.65625 C 10.40625 -17.484375 11.890625 -25.53125 14.5 -30.796875 C 14.578125 -30.96875 14.578125 -31.046875 14.65625 -31.125 C 14.8125 -31.359375 15.046875 -31.4375 15.4375 -31.359375 C 17.25 -31.125 20.40625 -30.640625 23.484375 -30.875 C 26.390625 -31.125 32.6875 -33.484375 32.453125 -37.109375 C 32.375 -38.28125 31.59375 -39.625 29.703125 -39.546875 C 27.65625 -39.46875 25.84375 -36.796875 22.84375 -36.3125 C 21.75 -36.15625 20.25 -36.15625 18.984375 -36.3125 C 18.359375 -36.390625 18.203125 -36.796875 18.59375 -37.34375 C 21.03125 -40.8125 23.3125 -43.640625 23.3125 -45.84375 C 23.3125 -47.8125 22.453125 -50.265625 20.171875 -50.265625 C 17.40625 -50.265625 16.625 -47.984375 15.671875 -46.015625 C 14.8125 -44.125 14.1875 -41.984375 11.890625 -38.046875 C 11.65625 -37.65625 11.34375 -37.5 10.953125 -37.578125 C 10 -37.578125 8.984375 -37.65625 7.875 -37.578125 C 4.09375 -37.5 -3.703125 -35.609375 -3.390625 -31.359375 C -3.234375 -29.3125 -1.96875 -28.75 -0.859375 -28.828125 C 0.46875 -28.90625 2.046875 -30.015625 3.703125 -30.96875 C 5.28125 -31.828125 7.015625 -32.296875 7.71875 -32.21875 C 7.796875 -32.21875 7.875 -32.140625 7.953125 -32.140625 C 8.109375 -32.140625 7.953125 -31.828125 7.640625 -31.28125 C 3.546875 -24.96875 0.3125 -20.484375 -2.125 -17.25 C -4.96875 -13.46875 -0.859375 -9.84375 2.359375 -14.265625 L 4.40625 -17.328125 C 4.8125 -17.96875 5.4375 -17.71875 5.28125 -16.9375 C 4.96875 -14.890625 4.734375 -13.078125 4.734375 -11.890625 C 4.734375 -4.40625 8.984375 1.8125 15.671875 1.8125 C 24.5 1.8125 30.5625 -4.734375 37.109375 -14.265625 C 39.3125 -17.40625 35.21875 -20.953125 32.609375 -17.25 Z M 32.609375 -17.25 "/></g></g></g><g fill="#427b24" fill-opacity="0.4"><g transform="translate(204.132238, 69.013786)"><g/></g></g><g fill="#427b24" fill-opacity="0.4"><g transform="translate(225.401072, 69.013786)"><g><path d="M 32.609375 -17.25 C 27.5 -10.328125 22.375 -3.859375 16.46875 -3.859375 C 12.125 -3.859375 10.40625 -6.625 10.40625 -11.65625 C 10.40625 -17.484375 11.890625 -25.53125 14.5 -30.796875 C 14.578125 -30.96875 14.578125 -31.046875 14.65625 -31.125 C 14.8125 -31.359375 15.046875 -31.4375 15.4375 -31.359375 C 17.25 -31.125 20.40625 -30.640625 23.484375 -30.875 C 26.390625 -31.125 32.6875 -33.484375 32.453125 -37.109375 C 32.375 -38.28125 31.59375 -39.625 29.703125 -39.546875 C 27.65625 -39.46875 25.84375 -36.796875 22.84375 -36.3125 C 21.75 -36.15625 20.25 -36.15625 18.984375 -36.3125 C 18.359375 -36.390625 18.203125 -36.796875 18.59375 -37.34375 C 21.03125 -40.8125 23.3125 -43.640625 23.3125 -45.84375 C 23.3125 -47.8125 22.453125 -50.265625 20.171875 -50.265625 C 17.40625 -50.265625 16.625 -47.984375 15.671875 -46.015625 C 14.8125 -44.125 14.1875 -41.984375 11.890625 -38.046875 C 11.65625 -37.65625 11.34375 -37.5 10.953125 -37.578125 C 10 -37.578125 8.984375 -37.65625 7.875 -37.578125 C 4.09375 -37.5 -3.703125 -35.609375 -3.390625 -31.359375 C -3.234375 -29.3125 -1.96875 -28.75 -0.859375 -28.828125 C 0.46875 -28.90625 2.046875 -30.015625 3.703125 -30.96875 C 5.28125 -31.828125 7.015625 -32.296875 7.71875 -32.21875 C 7.796875 -32.21875 7.875 -32.140625 7.953125 -32.140625 C 8.109375 -32.140625 7.953125 -31.828125 7.640625 -31.28125 C 3.546875 -24.96875 0.3125 -20.484375 -2.125 -17.25 C -4.96875 -13.46875 -0.859375 -9.84375 2.359375 -14.265625 L 4.40625 -17.328125 C 4.8125 -17.96875 5.4375 -17.71875 5.28125 -16.9375 C 4.96875 -14.890625 4.734375 -13.078125 4.734375 -11.890625 C 4.734375 -4.40625 8.984375 1.8125 15.671875 1.8125 C 24.5 1.8125 30.5625 -4.734375 37.109375 -14.265625 C 39.3125 -17.40625 35.21875 -20.953125 32.609375 -17.25 Z M 32.609375 -17.25 "/></g></g></g><g fill="#427b24" fill-opacity="0.4"><g transform="translate(260.140168, 69.013786)"><g><path d="M 50.265625 -18.984375 C 49.3125 -18.984375 48.375 -18.59375 47.5 -17.25 C 44.59375 -12.6875 37.8125 -3.234375 32.9375 -3.234375 C 31.671875 -3.234375 30.09375 -3.9375 30.09375 -5.90625 C 30.09375 -9.53125 31.59375 -14.421875 31.59375 -19.859375 C 31.59375 -24.34375 29.3125 -29.078125 23.796875 -29.078125 C 20.953125 -29.078125 18.359375 -28.125 14.265625 -24.8125 C 13.625 -24.34375 13.15625 -24.578125 13.3125 -25.28125 C 13.46875 -26.390625 13.703125 -27.421875 14.109375 -28.671875 C 14.265625 -28.984375 14.5 -29.234375 14.8125 -29.46875 C 24.65625 -36 33.875 -43.71875 33.875 -51.765625 C 33.875 -55.859375 31.75 -59.328125 27.5 -59.328125 C 17.5625 -59.328125 11.5 -43.015625 9.609375 -34.65625 C 9.53125 -34.34375 9.453125 -34.109375 9.296875 -33.796875 C 5.125 -27.09375 0.78125 -21.265625 -2.125 -17.25 C -5.046875 -13.3125 0.15625 -10.953125 2.359375 -14.265625 C 2.75 -14.890625 3.546875 -16 4.484375 -17.25 C 4.890625 -17.890625 5.4375 -17.640625 5.28125 -16.859375 C 3.859375 -10 2.75 -5.984375 2.59375 -1.421875 C 2.59375 -0.703125 2.671875 -0.15625 3.234375 0.46875 C 3.9375 1.1875 4.8125 1.5 5.59375 1.5 C 7.171875 1.5 8.59375 -0.078125 8.75 -3.703125 C 9.140625 -6.9375 9.53125 -9.53125 10.40625 -13.15625 C 10.5625 -13.46875 10.640625 -13.703125 10.796875 -14.015625 C 12.53125 -16.390625 18.515625 -23.640625 23.15625 -23.640625 C 25.453125 -23.640625 25.921875 -22.140625 25.921875 -19.9375 C 25.921875 -15.046875 24.1875 -10.875 24.1875 -6.296875 C 24.1875 -1.03125 27.734375 2.4375 32.609375 2.4375 C 40.25 2.4375 46.875 -6.21875 52.078125 -14.265625 C 52.859375 -15.515625 53.09375 -18.984375 50.265625 -18.984375 Z M 26.78125 -53.8125 C 27.5 -53.8125 28.671875 -53.328125 28.59375 -51.28125 C 28.4375 -47.578125 23.15625 -41.75 17.25 -37.421875 C 16.625 -36.953125 16.15625 -37.34375 16.390625 -38.046875 C 18.59375 -45.53125 23.078125 -53.8125 26.78125 -53.8125 Z M 26.78125 -53.8125 "/></g></g></g><g fill="#427b24" fill-opacity="0.4"><g transform="translate(309.767437, 69.013786)"><g><path d="M 12.53125 0.546875 C 21.03125 0.546875 28.671875 -6.78125 33.875 -14.265625 C 35.21875 -16.15625 33.953125 -18.828125 31.75 -18.828125 C 31.4375 -18.828125 30.796875 -19.296875 29.390625 -17.25 C 24.96875 -10.875 19.859375 -4.96875 12.53125 -4.96875 C 7.484375 -4.96875 3.703125 -9.21875 4.09375 -13.625 C 4.09375 -14.1875 4.40625 -14.421875 4.96875 -14.34375 C 5.90625 -14.1875 7.015625 -14.015625 8.75 -14.015625 C 9.921875 -14.015625 11.421875 -14.265625 13.3125 -14.8125 C 17.171875 -16 21.90625 -20.09375 21.90625 -24.890625 C 21.90625 -28.75 18.59375 -32.140625 13.46875 -32.140625 C 4.484375 -32.140625 -2.046875 -23.078125 -2.046875 -14.109375 C -2.046875 -5.203125 4.8125 0.546875 12.53125 0.546875 Z M 8.90625 -19.375 C 8.03125 -19.375 7.09375 -19.453125 6.140625 -19.609375 C 5.59375 -19.703125 5.4375 -20.09375 5.671875 -20.5625 C 6.9375 -23.078125 9.921875 -26.625 13.3125 -26.625 C 15.046875 -26.625 16.546875 -25.84375 16.546875 -24.265625 C 16.546875 -20.953125 12.21875 -19.375 8.90625 -19.375 Z M 8.90625 -19.375 "/></g></g></g><g fill="#427b24" fill-opacity="1"><g transform="translate(37.19541, 65.531874)"><g><path d="M -2.28125 3.9375 C -1.109375 3.9375 0.078125 3.15625 0.625 1.578125 C 5.515625 -8.75 9.921875 -18.359375 14.96875 -28.515625 C 18.671875 -36 22.53125 -43.484375 24.578125 -43.484375 C 27.171875 -43.484375 24.96875 -27.265625 23.953125 -18.28125 C 23.71875 -16 23.390625 -14.265625 23.390625 -12.453125 C 23.390625 -9.53125 24.578125 -6.453125 27.734375 -5.90625 C 33.015625 -5.28125 37.578125 -15.046875 46.25 -28.828125 C 47.265625 -30.171875 54.984375 -44.359375 57.984375 -44.359375 C 59.09375 -44.359375 59.25 -43.484375 59.25 -42.78125 C 59.25 -36 51.921875 -18.984375 47.578125 -6.703125 C 46.953125 -4.890625 45.453125 -1.734375 45.453125 0.46875 C 45.453125 1.890625 46.171875 3 48.296875 3.15625 C 51.203125 3 50.5 1.734375 55.140625 -11.34375 C 58.21875 -20.171875 65.078125 -37.578125 65.078125 -43.09375 C 65.078125 -46.5625 62.875 -50.5 59.171875 -50.5 C 51.046875 -50.5 42.625 -33.09375 35.0625 -21.03125 C 33.015625 -17.71875 31.59375 -14.265625 30.09375 -14.265625 C 28.75 -14.265625 29.703125 -18.984375 30.09375 -22.0625 C 30.328125 -24.109375 32.140625 -37.96875 32.140625 -40.421875 C 32.140625 -45.453125 30.71875 -50.03125 26.390625 -50.03125 C 25.375 -50.03125 23.078125 -49.625 22.0625 -48.84375 C 18.046875 -46.09375 11.890625 -36.640625 -2.515625 -4.8125 C -3.078125 -3.546875 -4.734375 -0.859375 -4.734375 1.1875 C -4.734375 1.96875 -4.484375 2.671875 -3.78125 3.3125 C -3.390625 3.703125 -2.84375 3.9375 -2.28125 3.9375 Z M -2.28125 3.9375 "/></g></g></g><g fill="#427b24" fill-opacity="1"><g transform="translate(102.892466, 65.531874)"><g><path d="M 12.53125 0.546875 C 21.03125 0.546875 28.671875 -6.78125 33.875 -14.265625 C 35.21875 -16.15625 33.953125 -18.828125 31.75 -18.828125 C 31.4375 -18.828125 30.796875 -19.296875 29.390625 -17.25 C 24.96875 -10.875 19.859375 -4.96875 12.53125 -4.96875 C 7.484375 -4.96875 3.703125 -9.21875 4.09375 -13.625 C 4.09375 -14.1875 4.40625 -14.421875 4.96875 -14.34375 C 5.90625 -14.1875 7.015625 -14.015625 8.75 -14.015625 C 9.921875 -14.015625 11.421875 -14.265625 13.3125 -14.8125 C 17.171875 -16 21.90625 -20.09375 21.90625 -24.890625 C 21.90625 -28.75 18.59375 -32.140625 13.46875 -32.140625 C 4.484375 -32.140625 -2.046875 -23.078125 -2.046875 -14.109375 C -2.046875 -5.203125 4.8125 0.546875 12.53125 0.546875 Z M 8.90625 -19.375 C 8.03125 -19.375 7.09375 -19.453125 6.140625 -19.609375 C 5.59375 -19.703125 5.4375 -20.09375 5.671875 -20.5625 C 6.9375 -23.078125 9.921875 -26.625 13.3125 -26.625 C 15.046875 -26.625 16.546875 -25.84375 16.546875 -24.265625 C 16.546875 -20.953125 12.21875 -19.375 8.90625 -19.375 Z M 8.90625 -19.375 "/></g></g></g><g fill="#427b24" fill-opacity="1"><g transform="translate(134.401848, 65.531874)"><g><path d="M 12.53125 0.546875 C 21.03125 0.546875 28.671875 -6.78125 33.875 -14.265625 C 35.21875 -16.15625 33.953125 -18.828125 31.75 -18.828125 C 31.4375 -18.828125 30.796875 -19.296875 29.390625 -17.25 C 24.96875 -10.875 19.859375 -4.96875 12.53125 -4.96875 C 7.484375 -4.96875 3.703125 -9.21875 4.09375 -13.625 C 4.09375 -14.1875 4.40625 -14.421875 4.96875 -14.34375 C 5.90625 -14.1875 7.015625 -14.015625 8.75 -14.015625 C 9.921875 -14.015625 11.421875 -14.265625 13.3125 -14.8125 C 17.171875 -16 21.90625 -20.09375 21.90625 -24.890625 C 21.90625 -28.75 18.59375 -32.140625 13.46875 -32.140625 C 4.484375 -32.140625 -2.046875 -23.078125 -2.046875 -14.109375 C -2.046875 -5.203125 4.8125 0.546875 12.53125 0.546875 Z M 8.90625 -19.375 C 8.03125 -19.375 7.09375 -19.453125 6.140625 -19.609375 C 5.59375 -19.703125 5.4375 -20.09375 5.671875 -20.5625 C 6.9375 -23.078125 9.921875 -26.625 13.3125 -26.625 C 15.046875 -26.625 16.546875 -25.84375 16.546875 -24.265625 C 16.546875 -20.953125 12.21875 -19.375 8.90625 -19.375 Z M 8.90625 -19.375 "/></g></g></g><g fill="#427b24" fill-opacity="1"><g transform="translate(165.911231, 65.531874)"><g><path d="M 32.609375 -17.25 C 27.5 -10.328125 22.375 -3.859375 16.46875 -3.859375 C 12.125 -3.859375 10.40625 -6.625 10.40625 -11.65625 C 10.40625 -17.484375 11.890625 -25.53125 14.5 -30.796875 C 14.578125 -30.96875 14.578125 -31.046875 14.65625 -31.125 C 14.8125 -31.359375 15.046875 -31.4375 15.4375 -31.359375 C 17.25 -31.125 20.40625 -30.640625 23.484375 -30.875 C 26.390625 -31.125 32.6875 -33.484375 32.453125 -37.109375 C 32.375 -38.28125 31.59375 -39.625 29.703125 -39.546875 C 27.65625 -39.46875 25.84375 -36.796875 22.84375 -36.3125 C 21.75 -36.15625 20.25 -36.15625 18.984375 -36.3125 C 18.359375 -36.390625 18.203125 -36.796875 18.59375 -37.34375 C 21.03125 -40.8125 23.3125 -43.640625 23.3125 -45.84375 C 23.3125 -47.8125 22.453125 -50.265625 20.171875 -50.265625 C 17.40625 -50.265625 16.625 -47.984375 15.671875 -46.015625 C 14.8125 -44.125 14.1875 -41.984375 11.890625 -38.046875 C 11.65625 -37.65625 11.34375 -37.5 10.953125 -37.578125 C 10 -37.578125 8.984375 -37.65625 7.875 -37.578125 C 4.09375 -37.5 -3.703125 -35.609375 -3.390625 -31.359375 C -3.234375 -29.3125 -1.96875 -28.75 -0.859375 -28.828125 C 0.46875 -28.90625 2.046875 -30.015625 3.703125 -30.96875 C 5.28125 -31.828125 7.015625 -32.296875 7.71875 -32.21875 C 7.796875 -32.21875 7.875 -32.140625 7.953125 -32.140625 C 8.109375 -32.140625 7.953125 -31.828125 7.640625 -31.28125 C 3.546875 -24.96875 0.3125 -20.484375 -2.125 -17.25 C -4.96875 -13.46875 -0.859375 -9.84375 2.359375 -14.265625 L 4.40625 -17.328125 C 4.8125 -17.96875 5.4375 -17.71875 5.28125 -16.9375 C 4.96875 -14.890625 4.734375 -13.078125 4.734375 -11.890625 C 4.734375 -4.40625 8.984375 1.8125 15.671875 1.8125 C 24.5 1.8125 30.5625 -4.734375 37.109375 -14.265625 C 39.3125 -17.40625 35.21875 -20.953125 32.609375 -17.25 Z M 32.609375 -17.25 "/></g></g></g><g fill="#427b24" fill-opacity="1"><g transform="translate(200.650326, 65.531874)"><g/></g></g><g fill="#427b24" fill-opacity="1"><g transform="translate(221.91916, 65.531874)"><g><path d="M 32.609375 -17.25 C 27.5 -10.328125 22.375 -3.859375 16.46875 -3.859375 C 12.125 -3.859375 10.40625 -6.625 10.40625 -11.65625 C 10.40625 -17.484375 11.890625 -25.53125 14.5 -30.796875 C 14.578125 -30.96875 14.578125 -31.046875 14.65625 -31.125 C 14.8125 -31.359375 15.046875 -31.4375 15.4375 -31.359375 C 17.25 -31.125 20.40625 -30.640625 23.484375 -30.875 C 26.390625 -31.125 32.6875 -33.484375 32.453125 -37.109375 C 32.375 -38.28125 31.59375 -39.625 29.703125 -39.546875 C 27.65625 -39.46875 25.84375 -36.796875 22.84375 -36.3125 C 21.75 -36.15625 20.25 -36.15625 18.984375 -36.3125 C 18.359375 -36.390625 18.203125 -36.796875 18.59375 -37.34375 C 21.03125 -40.8125 23.3125 -43.640625 23.3125 -45.84375 C 23.3125 -47.8125 22.453125 -50.265625 20.171875 -50.265625 C 17.40625 -50.265625 16.625 -47.984375 15.671875 -46.015625 C 14.8125 -44.125 14.1875 -41.984375 11.890625 -38.046875 C 11.65625 -37.65625 11.34375 -37.5 10.953125 -37.578125 C 10 -37.578125 8.984375 -37.65625 7.875 -37.578125 C 4.09375 -37.5 -3.703125 -35.609375 -3.390625 -31.359375 C -3.234375 -29.3125 -1.96875 -28.75 -0.859375 -28.828125 C 0.46875 -28.90625 2.046875 -30.015625 3.703125 -30.96875 C 5.28125 -31.828125 7.015625 -32.296875 7.71875 -32.21875 C 7.796875 -32.21875 7.875 -32.140625 7.953125 -32.140625 C 8.109375 -32.140625 7.953125 -31.828125 7.640625 -31.28125 C 3.546875 -24.96875 0.3125 -20.484375 -2.125 -17.25 C -4.96875 -13.46875 -0.859375 -9.84375 2.359375 -14.265625 L 4.40625 -17.328125 C 4.8125 -17.96875 5.4375 -17.71875 5.28125 -16.9375 C 4.96875 -14.890625 4.734375 -13.078125 4.734375 -11.890625 C 4.734375 -4.40625 8.984375 1.8125 15.671875 1.8125 C 24.5 1.8125 30.5625 -4.734375 37.109375 -14.265625 C 39.3125 -17.40625 35.21875 -20.953125 32.609375 -17.25 Z M 32.609375 -17.25 "/></g></g></g><g fill="#427b24" fill-opacity="1"><g transform="translate(256.658256, 65.531874)"><g><path d="M 50.265625 -18.984375 C 49.3125 -18.984375 48.375 -18.59375 47.5 -17.25 C 44.59375 -12.6875 37.8125 -3.234375 32.9375 -3.234375 C 31.671875 -3.234375 30.09375 -3.9375 30.09375 -5.90625 C 30.09375 -9.53125 31.59375 -14.421875 31.59375 -19.859375 C 31.59375 -24.34375 29.3125 -29.078125 23.796875 -29.078125 C 20.953125 -29.078125 18.359375 -28.125 14.265625 -24.8125 C 13.625 -24.34375 13.15625 -24.578125 13.3125 -25.28125 C 13.46875 -26.390625 13.703125 -27.421875 14.109375 -28.671875 C 14.265625 -28.984375 14.5 -29.234375 14.8125 -29.46875 C 24.65625 -36 33.875 -43.71875 33.875 -51.765625 C 33.875 -55.859375 31.75 -59.328125 27.5 -59.328125 C 17.5625 -59.328125 11.5 -43.015625 9.609375 -34.65625 C 9.53125 -34.34375 9.453125 -34.109375 9.296875 -33.796875 C 5.125 -27.09375 0.78125 -21.265625 -2.125 -17.25 C -5.046875 -13.3125 0.15625 -10.953125 2.359375 -14.265625 C 2.75 -14.890625 3.546875 -16 4.484375 -17.25 C 4.890625 -17.890625 5.4375 -17.640625 5.28125 -16.859375 C 3.859375 -10 2.75 -5.984375 2.59375 -1.421875 C 2.59375 -0.703125 2.671875 -0.15625 3.234375 0.46875 C 3.9375 1.1875 4.8125 1.5 5.59375 1.5 C 7.171875 1.5 8.59375 -0.078125 8.75 -3.703125 C 9.140625 -6.9375 9.53125 -9.53125 10.40625 -13.15625 C 10.5625 -13.46875 10.640625 -13.703125 10.796875 -14.015625 C 12.53125 -16.390625 18.515625 -23.640625 23.15625 -23.640625 C 25.453125 -23.640625 25.921875 -22.140625 25.921875 -19.9375 C 25.921875 -15.046875 24.1875 -10.875 24.1875 -6.296875 C 24.1875 -1.03125 27.734375 2.4375 32.609375 2.4375 C 40.25 2.4375 46.875 -6.21875 52.078125 -14.265625 C 52.859375 -15.515625 53.09375 -18.984375 50.265625 -18.984375 Z M 26.78125 -53.8125 C 27.5 -53.8125 28.671875 -53.328125 28.59375 -51.28125 C 28.4375 -47.578125 23.15625 -41.75 17.25 -37.421875 C 16.625 -36.953125 16.15625 -37.34375 16.390625 -38.046875 C 18.59375 -45.53125 23.078125 -53.8125 26.78125 -53.8125 Z M 26.78125 -53.8125 "/></g></g></g><g fill="#427b24" fill-opacity="1"><g transform="translate(306.285525, 65.531874)"><g><path d="M 12.53125 0.546875 C 21.03125 0.546875 28.671875 -6.78125 33.875 -14.265625 C 35.21875 -16.15625 33.953125 -18.828125 31.75 -18.828125 C 31.4375 -18.828125 30.796875 -19.296875 29.390625 -17.25 C 24.96875 -10.875 19.859375 -4.96875 12.53125 -4.96875 C 7.484375 -4.96875 3.703125 -9.21875 4.09375 -13.625 C 4.09375 -14.1875 4.40625 -14.421875 4.96875 -14.34375 C 5.90625 -14.1875 7.015625 -14.015625 8.75 -14.015625 C 9.921875 -14.015625 11.421875 -14.265625 13.3125 -14.8125 C 17.171875 -16 21.90625 -20.09375 21.90625 -24.890625 C 21.90625 -28.75 18.59375 -32.140625 13.46875 -32.140625 C 4.484375 -32.140625 -2.046875 -23.078125 -2.046875 -14.109375 C -2.046875 -5.203125 4.8125 0.546875 12.53125 0.546875 Z M 8.90625 -19.375 C 8.03125 -19.375 7.09375 -19.453125 6.140625 -19.609375 C 5.59375 -19.703125 5.4375 -20.09375 5.671875 -20.5625 C 6.9375 -23.078125 9.921875 -26.625 13.3125 -26.625 C 15.046875 -26.625 16.546875 -25.84375 16.546875 -24.265625 C 16.546875 -20.953125 12.21875 -19.375 8.90625 -19.375 Z M 8.90625 -19.375 "/></g></g></g><g fill="#427b24" fill-opacity="0.4"><g transform="translate(121.772295, 128.820233)"><g><path d="M 15.046875 -0.46875 C 17.484375 -0.46875 21.109375 -2.125 25.6875 -6.859375 C 26.859375 -8.109375 27.65625 -8.671875 27.8125 -7.953125 C 28.671875 -2.671875 32.21875 -0.703125 35.453125 -0.703125 C 39.3125 -0.703125 43.484375 -3.234375 46.875 -8.1875 C 47.1875 -8.671875 47.578125 -8.671875 47.90625 -8.1875 C 50.1875 -5.515625 53.40625 -4.734375 55.78125 -4.734375 C 61.375 -4.734375 66.09375 -8.34375 70.1875 -14.265625 C 72.640625 -17.796875 68.46875 -21.109375 65.78125 -17.25 C 63.65625 -14.1875 60.109375 -10.234375 56.328125 -10.234375 C 53.5 -10.234375 51.921875 -11.8125 51.4375 -13.46875 C 51.359375 -13.859375 51.4375 -14.1875 51.609375 -14.5 C 54.125 -19.375 57.75 -26.546875 57.75 -30.71875 C 57.75 -33.484375 56.40625 -35.609375 53.890625 -35.609375 C 48.609375 -35.609375 45.6875 -22.921875 45.296875 -15.203125 C 45.296875 -14.890625 45.21875 -14.578125 45.0625 -14.265625 C 43.25 -11.109375 39.390625 -6.296875 36 -6.296875 C 34.1875 -6.296875 32.609375 -7.640625 32.9375 -12.53125 C 33.015625 -14.1875 33.171875 -15.90625 33.640625 -18.046875 C 34.03125 -19.78125 38.609375 -25.125 38.28125 -29.15625 C 38.28125 -31.359375 36.390625 -33.640625 34.34375 -33.640625 C 29.703125 -33.640625 28.671875 -24.8125 27.265625 -17.96875 C 27.171875 -17.640625 27.09375 -17.40625 26.9375 -17.015625 C 23.71875 -11.265625 18.90625 -6.140625 15.90625 -6.140625 C 14.578125 -6.140625 13.9375 -7.40625 13.9375 -8.984375 C 13.9375 -13.546875 16.234375 -20.015625 16.234375 -26.15625 C 16.234375 -29.546875 15.203125 -32.53125 11.734375 -32.53125 C 7.40625 -32.53125 5.359375 -27.578125 -2.125 -17.25 C -4.8125 -13.546875 -0.078125 -10.71875 2.359375 -14.265625 C 5.359375 -18.59375 6.703125 -20.953125 7.875 -22.53125 C 10.15625 -25.53125 10.484375 -25.125 10 -21.984375 C 9.21875 -17.09375 7.875 -13.546875 7.875 -8.75 C 7.875 -3.625 11.1875 -0.46875 15.046875 -0.46875 Z M 15.046875 -0.46875 "/></g></g></g><g fill="#427b24" fill-opacity="0.4"><g transform="translate(189.596232, 128.820233)"><g><path d="M 33.171875 -17.25 C 30.40625 -13.46875 26.546875 -7.71875 20.71875 -7.71875 C 20.71875 -7.71875 20.875 -8.109375 21.1875 -8.75 L 21.828125 -9.921875 C 23.234375 -13.625 24.34375 -15.828125 24.34375 -21.671875 C 24.34375 -26.390625 21.828125 -32.453125 15.359375 -32.453125 C 14.578125 -32.453125 13.703125 -32.296875 12.84375 -31.984375 C 12.453125 -31.90625 12.21875 -31.828125 11.890625 -31.75 C 7.953125 -30.875 5.671875 -30.015625 2.59375 -26.3125 C -0.703125 -22.296875 -2.75 -16.3125 -2.75 -9.84375 C -2.75 -3.078125 0.78125 1.109375 7.171875 1.109375 C 10.328125 1.109375 13 -0.15625 15.59375 -2.203125 C 15.90625 -2.4375 16.234375 -2.515625 16.625 -2.359375 C 17.71875 -2.046875 18.984375 -1.96875 20.015625 -1.96875 C 26.9375 -1.96875 31.75 -6.0625 37.65625 -14.265625 C 40.015625 -17.5625 35.609375 -20.5625 33.171875 -17.25 Z M 15.046875 -26.625 C 16.78125 -26.625 18.828125 -24.96875 18.828125 -21.34375 C 18.828125 -18.046875 17.640625 -14.265625 15.90625 -11.109375 C 15.59375 -10.5625 15.203125 -10.5625 14.8125 -10.875 C 12.296875 -13.3125 11.265625 -16.625 11.265625 -19.9375 C 11.265625 -22.84375 12.375 -26.625 15.046875 -26.625 Z M 7.015625 -4.25 C 4.40625 -4.25 2.84375 -6.453125 2.84375 -10.15625 C 2.84375 -12.765625 3.234375 -15.359375 4.890625 -19.0625 C 5.203125 -19.703125 5.4375 -19.703125 5.515625 -18.90625 C 5.59375 -14.015625 7.640625 -9.53125 10.953125 -6.53125 C 11.34375 -6.21875 11.421875 -5.75 10.875 -5.4375 C 9.6875 -4.640625 8.34375 -4.25 7.015625 -4.25 Z M 7.015625 -4.25 "/></g></g></g><g fill="#427b24" fill-opacity="0.4"><g transform="translate(224.886736, 128.820233)"><g><path d="M 33.171875 -17.25 C 30.40625 -13.46875 26.546875 -7.71875 20.71875 -7.71875 C 20.71875 -7.71875 20.875 -8.109375 21.1875 -8.75 L 21.828125 -9.921875 C 23.234375 -13.625 24.34375 -15.828125 24.34375 -21.671875 C 24.34375 -26.390625 21.828125 -32.453125 15.359375 -32.453125 C 14.578125 -32.453125 13.703125 -32.296875 12.84375 -31.984375 C 12.453125 -31.90625 12.21875 -31.828125 11.890625 -31.75 C 7.953125 -30.875 5.671875 -30.015625 2.59375 -26.3125 C -0.703125 -22.296875 -2.75 -16.3125 -2.75 -9.84375 C -2.75 -3.078125 0.78125 1.109375 7.171875 1.109375 C 10.328125 1.109375 13 -0.15625 15.59375 -2.203125 C 15.90625 -2.4375 16.234375 -2.515625 16.625 -2.359375 C 17.71875 -2.046875 18.984375 -1.96875 20.015625 -1.96875 C 26.9375 -1.96875 31.75 -6.0625 37.65625 -14.265625 C 40.015625 -17.5625 35.609375 -20.5625 33.171875 -17.25 Z M 15.046875 -26.625 C 16.78125 -26.625 18.828125 -24.96875 18.828125 -21.34375 C 18.828125 -18.046875 17.640625 -14.265625 15.90625 -11.109375 C 15.59375 -10.5625 15.203125 -10.5625 14.8125 -10.875 C 12.296875 -13.3125 11.265625 -16.625 11.265625 -19.9375 C 11.265625 -22.84375 12.375 -26.625 15.046875 -26.625 Z M 7.015625 -4.25 C 4.40625 -4.25 2.84375 -6.453125 2.84375 -10.15625 C 2.84375 -12.765625 3.234375 -15.359375 4.890625 -19.0625 C 5.203125 -19.703125 5.4375 -19.703125 5.515625 -18.90625 C 5.59375 -14.015625 7.640625 -9.53125 10.953125 -6.53125 C 11.34375 -6.21875 11.421875 -5.75 10.875 -5.4375 C 9.6875 -4.640625 8.34375 -4.25 7.015625 -4.25 Z M 7.015625 -4.25 "/></g></g></g><g fill="#427b24" fill-opacity="1"><g transform="translate(118.290383, 125.338321)"><g><path d="M 15.046875 -0.46875 C 17.484375 -0.46875 21.109375 -2.125 25.6875 -6.859375 C 26.859375 -8.109375 27.65625 -8.671875 27.8125 -7.953125 C 28.671875 -2.671875 32.21875 -0.703125 35.453125 -0.703125 C 39.3125 -0.703125 43.484375 -3.234375 46.875 -8.1875 C 47.1875 -8.671875 47.578125 -8.671875 47.90625 -8.1875 C 50.1875 -5.515625 53.40625 -4.734375 55.78125 -4.734375 C 61.375 -4.734375 66.09375 -8.34375 70.1875 -14.265625 C 72.640625 -17.796875 68.46875 -21.109375 65.78125 -17.25 C 63.65625 -14.1875 60.109375 -10.234375 56.328125 -10.234375 C 53.5 -10.234375 51.921875 -11.8125 51.4375 -13.46875 C 51.359375 -13.859375 51.4375 -14.1875 51.609375 -14.5 C 54.125 -19.375 57.75 -26.546875 57.75 -30.71875 C 57.75 -33.484375 56.40625 -35.609375 53.890625 -35.609375 C 48.609375 -35.609375 45.6875 -22.921875 45.296875 -15.203125 C 45.296875 -14.890625 45.21875 -14.578125 45.0625 -14.265625 C 43.25 -11.109375 39.390625 -6.296875 36 -6.296875 C 34.1875 -6.296875 32.609375 -7.640625 32.9375 -12.53125 C 33.015625 -14.1875 33.171875 -15.90625 33.640625 -18.046875 C 34.03125 -19.78125 38.609375 -25.125 38.28125 -29.15625 C 38.28125 -31.359375 36.390625 -33.640625 34.34375 -33.640625 C 29.703125 -33.640625 28.671875 -24.8125 27.265625 -17.96875 C 27.171875 -17.640625 27.09375 -17.40625 26.9375 -17.015625 C 23.71875 -11.265625 18.90625 -6.140625 15.90625 -6.140625 C 14.578125 -6.140625 13.9375 -7.40625 13.9375 -8.984375 C 13.9375 -13.546875 16.234375 -20.015625 16.234375 -26.15625 C 16.234375 -29.546875 15.203125 -32.53125 11.734375 -32.53125 C 7.40625 -32.53125 5.359375 -27.578125 -2.125 -17.25 C -4.8125 -13.546875 -0.078125 -10.71875 2.359375 -14.265625 C 5.359375 -18.59375 6.703125 -20.953125 7.875 -22.53125 C 10.15625 -25.53125 10.484375 -25.125 10 -21.984375 C 9.21875 -17.09375 7.875 -13.546875 7.875 -8.75 C 7.875 -3.625 11.1875 -0.46875 15.046875 -0.46875 Z M 15.046875 -0.46875 "/></g></g></g><g fill="#427b24" fill-opacity="1"><g transform="translate(186.11432, 125.338321)"><g><path d="M 33.171875 -17.25 C 30.40625 -13.46875 26.546875 -7.71875 20.71875 -7.71875 C 20.71875 -7.71875 20.875 -8.109375 21.1875 -8.75 L 21.828125 -9.921875 C 23.234375 -13.625 24.34375 -15.828125 24.34375 -21.671875 C 24.34375 -26.390625 21.828125 -32.453125 15.359375 -32.453125 C 14.578125 -32.453125 13.703125 -32.296875 12.84375 -31.984375 C 12.453125 -31.90625 12.21875 -31.828125 11.890625 -31.75 C 7.953125 -30.875 5.671875 -30.015625 2.59375 -26.3125 C -0.703125 -22.296875 -2.75 -16.3125 -2.75 -9.84375 C -2.75 -3.078125 0.78125 1.109375 7.171875 1.109375 C 10.328125 1.109375 13 -0.15625 15.59375 -2.203125 C 15.90625 -2.4375 16.234375 -2.515625 16.625 -2.359375 C 17.71875 -2.046875 18.984375 -1.96875 20.015625 -1.96875 C 26.9375 -1.96875 31.75 -6.0625 37.65625 -14.265625 C 40.015625 -17.5625 35.609375 -20.5625 33.171875 -17.25 Z M 15.046875 -26.625 C 16.78125 -26.625 18.828125 -24.96875 18.828125 -21.34375 C 18.828125 -18.046875 17.640625 -14.265625 15.90625 -11.109375 C 15.59375 -10.5625 15.203125 -10.5625 14.8125 -10.875 C 12.296875 -13.3125 11.265625 -16.625 11.265625 -19.9375 C 11.265625 -22.84375 12.375 -26.625 15.046875 -26.625 Z M 7.015625 -4.25 C 4.40625 -4.25 2.84375 -6.453125 2.84375 -10.15625 C 2.84375 -12.765625 3.234375 -15.359375 4.890625 -19.0625 C 5.203125 -19.703125 5.4375 -19.703125 5.515625 -18.90625 C 5.59375 -14.015625 7.640625 -9.53125 10.953125 -6.53125 C 11.34375 -6.21875 11.421875 -5.75 10.875 -5.4375 C 9.6875 -4.640625 8.34375 -4.25 7.015625 -4.25 Z M 7.015625 -4.25 "/></g></g></g><g fill="#427b24" fill-opacity="1"><g transform="translate(221.404824, 125.338321)"><g><path d="M 33.171875 -17.25 C 30.40625 -13.46875 26.546875 -7.71875 20.71875 -7.71875 C 20.71875 -7.71875 20.875 -8.109375 21.1875 -8.75 L 21.828125 -9.921875 C 23.234375 -13.625 24.34375 -15.828125 24.34375 -21.671875 C 24.34375 -26.390625 21.828125 -32.453125 15.359375 -32.453125 C 14.578125 -32.453125 13.703125 -32.296875 12.84375 -31.984375 C 12.453125 -31.90625 12.21875 -31.828125 11.890625 -31.75 C 7.953125 -30.875 5.671875 -30.015625 2.59375 -26.3125 C -0.703125 -22.296875 -2.75 -16.3125 -2.75 -9.84375 C -2.75 -3.078125 0.78125 1.109375 7.171875 1.109375 C 10.328125 1.109375 13 -0.15625 15.59375 -2.203125 C 15.90625 -2.4375 16.234375 -2.515625 16.625 -2.359375 C 17.71875 -2.046875 18.984375 -1.96875 20.015625 -1.96875 C 26.9375 -1.96875 31.75 -6.0625 37.65625 -14.265625 C 40.015625 -17.5625 35.609375 -20.5625 33.171875 -17.25 Z M 15.046875 -26.625 C 16.78125 -26.625 18.828125 -24.96875 18.828125 -21.34375 C 18.828125 -18.046875 17.640625 -14.265625 15.90625 -11.109375 C 15.59375 -10.5625 15.203125 -10.5625 14.8125 -10.875 C 12.296875 -13.3125 11.265625 -16.625 11.265625 -19.9375 C 11.265625 -22.84375 12.375 -26.625 15.046875 -26.625 Z M 7.015625 -4.25 C 4.40625 -4.25 2.84375 -6.453125 2.84375 -10.15625 C 2.84375 -12.765625 3.234375 -15.359375 4.890625 -19.0625 C 5.203125 -19.703125 5.4375 -19.703125 5.515625 -18.90625 C 5.59375 -14.015625 7.640625 -9.53125 10.953125 -6.53125 C 11.34375 -6.21875 11.421875 -5.75 10.875 -5.4375 C 9.6875 -4.640625 8.34375 -4.25 7.015625 -4.25 Z M 7.015625 -4.25 "/></g></g></g></svg>