<svg xmlns="http://www.w3.org/2000/svg" xmlns:xlink="http://www.w3.org/1999/xlink" width="500" zoomAndPan="magnify" viewBox="0 0 375 154.499995" height="206" preserveAspectRatio="xMidYMid meet" version="1.0"><defs><g/><clipPath id="7f2c852362"><path d="M 24 39 L 347 39 L 347 154 L 24 154 Z M 24 39 " clip-rule="nonzero"/></clipPath></defs><path stroke-linecap="butt" transform="matrix(0.934476, 0, 0, 0.934476, 0.604845, 16.939136)" fill="none" stroke-linejoin="miter" d="M 132.440402 53.357881 C 133.180289 53.357881 133.941077 53.090352 134.622441 52.413167 C 135.980991 51.40157 135.466832 45.929752 138.409659 36.47843 C 138.593585 35.985172 138.923817 35.717643 139.521579 35.985172 C 143.225193 37.490027 147.363543 38.518344 152.241779 38.518344 C 164.899278 38.518344 179.308259 29.915593 179.308259 16.514027 C 179.308259 8.074302 173.995287 -1.535866 158.557988 -1.535866 C 157.22034 -1.535866 155.86179 -1.456443 154.444719 -1.289237 C 153.846957 -1.209814 153.679751 -1.535866 153.679751 -2.133628 C 153.679751 -2.300834 153.679751 -2.547463 153.679751 -2.710489 C 153.679751 -4.562296 152.672335 -5.757819 151.15076 -5.757819 C 150.636601 -5.757819 150.05974 -5.674216 149.378376 -5.323083 C 148.533985 -4.913428 147.610172 -2.626886 146.251622 0.0693121 C 146.084416 0.395364 145.837787 0.662894 145.407232 0.746497 C 142.05057 2.004722 130.751621 6.138892 130.835224 11.61489 C 130.914647 13.220068 132.252296 14.394691 133.857474 14.064459 C 136.390645 13.5503 135.052997 12.375678 140.859227 9.328347 C 141.620015 8.918692 142.134173 9.248924 141.783041 10.009712 C 139.437976 15.071875 137.665592 20.217642 135.546255 25.447011 C 135.299626 25.940269 135.052997 25.940269 134.455235 25.777243 C 132.850057 25.016455 130.668018 25.940269 130.668018 28.310415 C 130.668018 29.83199 131.328482 30.755803 132.603428 31.7674 C 133.017263 32.097632 133.096686 32.444584 133.017263 32.858419 C 131.412085 39.174628 130.237463 42.81972 129.393072 49.140109 C 129.309469 49.900896 129.230046 50.394154 129.476675 51.154942 C 129.990834 52.413167 131.161276 53.357881 132.440402 53.357881 Z M 151.911547 32.691213 C 147.689595 32.691213 144.153187 31.683797 141.022253 29.995016 C 140.612598 29.748387 140.528995 29.397254 140.692021 28.903996 C 143.718451 21.145635 146.519152 13.303671 150.389972 6.059469 C 150.636601 5.624733 150.904131 5.461707 151.313786 5.378104 C 153.08617 5.047872 155.452136 4.533714 158.557988 4.533714 C 168.523469 4.533714 173.071473 10.009712 173.071473 15.586034 C 173.071473 26.207798 163.87096 32.691213 151.911547 32.691213 Z M 196.827273 53.257558 C 206.521044 53.257558 217.326736 48.458744 224.407912 36.74596 C 226.857481 32.691213 222.472502 28.47344 220.273742 32.365161 C 215.044373 41.624197 206.521044 47.451327 197.504458 47.451327 C 191.351275 47.451327 188.492052 44.403997 188.492052 40.533177 C 188.492052 35.717643 194.728838 29.83199 203.331589 26.868262 C 205.183396 26.207798 207.281832 25.530614 207.202409 23.327674 C 207.202409 20.899006 206.274415 20.054616 203.661821 20.054616 C 201.97304 20.054616 198.699981 20.46427 197.588061 20.46427 C 193.800844 20.46427 191.702408 18.779669 191.702408 15.586034 C 191.702408 9.67948 199.791001 4.947549 207.118806 4.947549 C 210.906023 4.947549 214.036957 6.138892 216.051789 8.404534 C 216.565948 9.081718 217.16371 9.328347 217.903596 9.328347 C 219.429352 9.328347 220.704298 7.827673 220.704298 6.469124 C 220.704298 5.708336 220.273742 4.780343 219.262146 3.442694 C 217.247313 0.662894 212.427598 -0.775078 206.95578 -0.775078 C 196.827273 -0.775078 185.549225 6.222495 185.549225 15.071875 C 185.549225 19.026298 187.212925 22.913839 192.626221 25.179481 C 193.286685 25.530614 193.286685 25.940269 192.709824 26.291401 C 186.289112 29.915593 182.418292 35.554617 182.418292 41.130939 C 182.418292 47.367724 187.564058 53.257558 196.827273 53.257558 Z M 230.393889 53.357881 C 231.133775 53.357881 231.894563 53.090352 232.575928 52.413167 C 233.934477 51.40157 233.416138 45.929752 236.363145 36.47843 C 236.547071 35.985172 236.877303 35.717643 237.475065 35.985172 C 241.178679 37.490027 245.317029 38.518344 250.195266 38.518344 C 262.852764 38.518344 277.261745 29.915593 277.261745 16.514027 C 277.261745 8.074302 271.948773 -1.535866 256.511474 -1.535866 C 255.173826 -1.535866 253.815277 -1.456443 252.394025 -1.289237 C 251.800444 -1.209814 251.633238 -1.535866 251.633238 -2.133628 C 251.633238 -2.300834 251.633238 -2.547463 251.633238 -2.710489 C 251.633238 -4.562296 250.625821 -5.757819 249.104246 -5.757819 C 248.590087 -5.757819 248.013227 -5.674216 247.331862 -5.323083 C 246.487471 -4.913428 245.563658 -2.626886 244.205109 0.0693121 C 244.037903 0.395364 243.791274 0.662894 243.360718 0.746497 C 240.004057 2.004722 228.705108 6.138892 228.788711 11.61489 C 228.868133 13.220068 230.205782 14.394691 231.81096 14.064459 C 234.344132 13.5503 233.006483 12.375678 238.812713 9.328347 C 239.573501 8.918692 240.08766 9.248924 239.736527 10.009712 C 237.391462 15.071875 235.619078 20.217642 233.499741 25.447011 C 233.253112 25.940269 233.006483 25.940269 232.408722 25.777243 C 230.803544 25.016455 228.621505 25.940269 228.621505 28.310415 C 228.621505 29.83199 229.281968 30.755803 230.556915 31.7674 C 230.966569 32.097632 231.050172 32.444584 230.966569 32.858419 C 229.361391 39.174628 228.190949 42.81972 227.346558 49.140109 C 227.262955 49.900896 227.179352 50.394154 227.430161 51.154942 C 227.94432 52.413167 229.114762 53.357881 230.393889 53.357881 Z M 249.865034 32.691213 C 245.643081 32.691213 242.102493 31.683797 238.975739 29.995016 C 238.561904 29.748387 238.482482 29.397254 238.645507 28.903996 C 241.671937 21.145635 244.472638 13.303671 248.339278 6.059469 C 248.590087 5.624733 248.857617 5.461707 249.267272 5.378104 C 251.035476 5.047872 253.405622 4.533714 256.511474 4.533714 C 266.476955 4.533714 271.02496 10.009712 271.02496 15.586034 C 271.02496 26.207798 261.824447 32.691213 249.865034 32.691213 Z M 249.865034 32.691213 " stroke="#153e00" stroke-width="6.323332" stroke-opacity="1" stroke-miterlimit="4"/><g clip-path="url(#7f2c852362)"><path stroke-linecap="butt" transform="matrix(0.934476, 0, 0, 0.934476, 0.604845, 16.939136)" fill="none" stroke-linejoin="miter" d="M 88.920847 118.530621 C 99.893744 118.283992 103.680961 110.77226 103.680961 101.92288 C 103.680961 97.454298 102.673545 92.638763 100.901161 87.513898 C 100.738135 87.079162 100.738135 86.74893 101.068367 86.401978 C 105.532768 80.165192 109.340886 75.019426 109.340886 68.536011 C 109.340886 62.892807 105.449165 59.766053 101.335896 59.766053 C 95.425162 59.766053 91.537622 65.242052 91.537622 71.992996 C 91.537622 76.457398 92.975594 80.411821 93.903587 84.796799 C 94.066613 85.310958 93.903587 85.64119 93.656958 85.988143 C 87.583199 92.308531 81.513619 98.708343 74.679071 103.854109 C 74.265236 104.205242 73.834681 104.205242 73.504449 103.691084 C 71.736245 101.404541 71.138483 98.89645 71.138483 96.609907 C 71.138483 93.236525 72.660058 89.449308 75.523462 89.449308 C 76.200646 89.449308 76.961434 89.612334 77.642799 89.612334 C 79.494606 89.612334 80.422599 88.437711 80.422599 86.4814 C 80.422599 84.550171 78.303263 83.70578 75.870414 83.70578 C 69.040047 83.70578 65.064723 89.612334 65.064723 96.363278 C 65.064723 100.397124 66.506875 104.368268 68.872841 107.561904 C 69.203073 107.992459 69.11947 108.406294 68.688914 108.753247 C 66.506875 110.442028 64.220333 111.863279 62.966287 112.870696 C 61.691341 113.715086 61.607738 114.827007 61.607738 115.320265 C 61.607738 116.925443 63.129313 118.183668 64.387539 118.183668 C 67.18406 118.183668 70.645225 114.827007 73.073893 112.870696 C 73.504449 112.624067 73.834681 112.624067 74.265236 112.9752 C 78.382685 116.411284 83.795981 118.530621 88.920847 118.530621 Z M 98.372169 77.983153 C 97.874731 75.617187 97.607201 73.681777 97.607201 72.156022 C 97.607201 67.444991 99.563512 65.839813 101.068367 65.839813 C 102.25971 65.839813 103.350729 66.680024 103.350729 68.452408 C 103.350729 71.82579 101.415319 75.203352 99.563512 78.229782 C 99.132957 78.906966 98.535195 78.74394 98.372169 77.983153 Z M 88.674218 112.461041 C 85.731391 112.461041 82.027777 111.449444 79.227076 109.167082 C 78.733818 108.753247 78.733818 108.322691 79.143473 107.908856 C 84.540048 103.176925 89.848841 98.215085 94.911004 93.152922 C 95.425162 92.638763 95.9226 92.739087 96.106527 93.399551 C 96.950918 96.179352 97.607201 99.473311 97.607201 102.516461 C 97.607201 107.478301 94.911004 112.461041 88.674218 112.461041 Z M 112.526162 120.219402 C 113.801108 120.219402 115.059333 119.375011 115.652915 117.68623 C 120.882284 106.63391 125.597495 96.363278 130.98989 85.473984 C 134.961034 77.468994 139.078483 69.459824 141.281423 69.459824 C 144.061223 69.459824 141.691077 86.832533 140.600058 96.446881 C 140.353429 98.89645 140.027377 100.748257 140.027377 102.683667 C 140.027377 105.789519 141.281423 109.083479 144.658985 109.68124 C 150.298009 110.358425 155.197146 99.903866 164.460362 85.143752 C 165.568102 83.70578 173.823901 68.536011 177.034257 68.536011 C 178.208879 68.536011 178.371905 69.459824 178.371905 70.220612 C 178.371905 77.468994 170.529941 95.686094 165.898334 108.83685 C 165.221149 110.77226 163.615971 114.145642 163.615971 116.515788 C 163.615971 118.016462 164.376759 119.211985 166.659121 119.375011 C 169.769154 119.211985 169.029267 117.853436 173.986927 103.854109 C 177.280886 94.406967 184.608691 75.780213 184.608691 69.873659 C 184.608691 66.165865 182.263626 61.948092 178.292482 61.948092 C 169.606128 61.948092 160.589542 80.595747 152.500949 93.483154 C 150.298009 97.023742 148.772254 100.748257 147.187976 100.748257 C 145.745824 100.748257 146.757421 95.686094 147.187976 92.392134 C 147.434605 90.210095 149.370015 75.366378 149.370015 72.753784 C 149.370015 67.361388 147.84844 62.462251 143.216833 62.462251 C 142.125813 62.462251 139.676244 62.892807 138.585225 63.716296 C 134.283849 66.680024 127.695931 76.78763 112.279533 110.855863 C 111.681771 112.214412 109.913567 115.073636 109.913567 117.255675 C 109.913567 118.100065 110.181097 118.860853 110.920983 119.542217 C 111.351539 119.972773 111.949301 120.219402 112.526162 120.219402 Z M 198.595477 117.853436 C 201.97304 117.853436 205.430025 116.081052 208.540058 113.221829 C 209.054216 112.787093 209.384448 112.70767 209.898607 112.870696 C 211.583208 113.552061 213.439195 113.899013 215.291002 113.899013 C 222.719131 113.899013 228.955917 109.518214 234.431915 100.748257 C 236.613954 97.023742 232.228975 93.997313 229.616381 97.537901 C 226.673554 101.592648 222.288575 107.74583 216.051789 107.74583 C 215.637954 107.74583 215.207399 107.74583 214.797744 107.641327 C 214.116379 107.561904 213.953353 107.148069 214.363008 106.550307 C 220.516191 97.863953 224.821747 85.825117 224.821747 77.138762 C 224.821747 67.010256 218.254729 59.435821 208.807587 59.435821 C 199.439868 59.435821 190.753514 69.973983 190.92072 79.237198 C 190.92072 80.595747 190.590488 81.853973 189.8297 83.70578 C 187.296528 89.942566 185.95888 95.602491 185.95888 100.664654 C 185.95888 104.288845 186.535741 107.829433 188.140919 111.202815 C 189.746097 114.743404 193.717241 117.853436 198.595477 117.853436 Z M 207.612064 104.6985 C 201.889437 100.313521 198.001896 91.794373 197.073902 83.868806 C 196.990299 83.459151 197.073902 83.128919 197.178406 82.777786 C 198.595477 79.074172 202.382695 72.323228 208.04262 69.62703 C 208.372851 69.459824 208.723984 69.459824 209.133639 69.543427 C 209.731401 69.706453 210.329162 69.790056 210.82242 69.790056 C 212.180969 69.790056 213.02536 69.213195 213.439195 68.021852 C 213.685824 67.444991 214.032776 67.177462 214.530214 67.524414 C 217.740571 69.296798 218.83159 72.753784 218.83159 76.871233 C 218.83159 84.299361 214.446611 96.609907 208.807587 104.535474 C 208.456454 104.945129 208.04262 105.049633 207.612064 104.6985 Z M 198.762684 111.946882 C 193.800844 111.946882 192.112063 106.90144 192.112063 100.664654 C 192.112063 98.62892 192.358692 96.446881 192.793427 94.160338 C 192.956453 93.315948 193.449711 93.315948 193.717241 94.076735 C 195.569048 99.473311 199.030213 105.133236 203.494615 108.999876 C 203.987873 109.330108 203.987873 109.844266 203.494615 110.174498 C 201.97304 111.370022 200.284259 111.946882 198.762684 111.946882 Z M 231.898743 122.071209 C 237.537767 122.071209 245.216705 115.157239 250.688523 96.609907 C 250.956053 95.686094 251.123259 95.088332 251.453491 93.997313 C 251.532914 93.562577 251.800444 93.315948 252.130676 93.069319 C 252.460908 92.985716 252.81204 92.82269 253.221695 92.739087 C 253.735854 92.471557 254.149689 92.739087 254.229112 93.315948 C 256.599257 105.542891 262.238282 116.327681 270.678007 116.327681 C 278.189739 116.327681 284.589551 109.518214 290.232755 100.748257 C 292.761747 96.772933 288.543974 92.985716 285.433941 97.537901 C 281.81393 102.76309 276.070402 110.011472 271.004059 110.011472 C 267.137419 110.011472 263.429625 105.710097 259.889036 90.866379 C 259.809614 90.373121 259.97264 90.021989 260.386475 89.77536 C 264.441221 88.007156 268.228438 85.64119 271.355192 82.368132 C 272.613417 81.089005 281.546401 70.141189 281.546401 65.672607 C 281.546401 63.983826 280.371778 63.143616 279.03413 63.143616 C 277.161422 63.143616 276.317031 64.748794 275.062986 66.930833 C 272.362608 71.909393 266.970213 81.933396 254.826873 85.90872 C 254.149689 86.071746 253.819457 85.741514 253.982483 85.064329 C 254.417218 83.622177 255.240708 81.356535 256.762283 77.301788 C 257.606674 75.098848 258.530487 72.590758 259.374878 70.057586 C 259.621507 69.129592 260.139846 68.368805 260.654004 67.524414 C 261.310288 66.433395 262.071075 65.242052 262.071075 63.904403 C 262.071075 62.462251 260.733427 61.208206 259.211852 61.208206 C 258.697693 61.208206 258.204436 61.454834 257.853303 61.61786 C 257.113416 62.052596 256.515654 62.892807 255.83429 63.716296 C 255.073502 64.748794 254.229112 65.839813 252.975066 66.600601 C 251.123259 68.101275 247.8293 68.862063 244.535341 68.862063 C 241.922746 68.862063 240.070939 68.452408 237.721694 67.444991 C 232.659531 65.158449 230.97075 70.550844 234.427735 72.402651 C 236.960906 73.681777 240.748124 74.605591 245.049499 74.605591 C 246.901306 74.605591 248.757293 74.442565 250.87663 73.681777 C 251.616517 73.330644 251.96765 73.681777 251.70012 74.442565 C 250.03224 78.74394 248.075929 83.70578 246.901306 87.409394 C 246.821883 87.83995 246.575254 88.090759 246.140519 88.253785 C 233.583344 92.55516 224.303408 100.234098 224.303408 112.026305 C 224.303408 118.016462 227.430161 122.071209 231.898743 122.071209 Z M 231.978166 116.081052 C 231.731537 116.081052 231.568511 116.001629 231.384585 115.918026 C 230.619617 115.320265 230.126359 114.066219 230.126359 112.377438 C 230.126359 104.100738 235.109099 98.215085 243.527924 95.334961 C 244.205109 95.167755 244.618944 95.518888 244.451738 96.179352 C 242.683534 102.600064 237.123932 116.081052 231.978166 116.081052 Z M 306.493544 117.255675 C 316.187315 117.255675 326.993006 112.461041 334.074182 100.748257 C 336.523751 96.69351 332.138772 92.471557 329.935832 96.363278 C 324.710643 105.626494 316.187315 111.449444 307.170728 111.449444 C 301.017545 111.449444 298.158322 108.406294 298.158322 104.535474 C 298.158322 99.71994 304.395108 93.830107 312.997859 90.866379 C 314.849666 90.210095 316.948102 89.528731 316.868679 87.325791 C 316.868679 84.897123 315.940686 84.052733 313.328091 84.052733 C 311.63931 84.052733 308.366252 84.466568 307.254331 84.466568 C 303.467114 84.466568 301.368678 82.777786 301.368678 79.588331 C 301.368678 73.681777 309.457271 68.945666 316.785076 68.945666 C 320.572293 68.945666 323.699047 70.141189 325.71806 72.402651 C 326.232218 73.084015 326.82998 73.330644 327.569867 73.330644 C 329.091442 73.330644 330.370568 71.82579 330.370568 70.467241 C 330.370568 69.706453 329.935832 68.78264 328.928416 67.444991 C 326.913583 64.665191 322.093869 63.223038 316.61787 63.223038 C 306.493544 63.223038 295.211315 70.220612 295.211315 79.074172 C 295.211315 83.024415 296.879196 86.916136 302.292492 89.181778 C 302.952956 89.528731 302.952956 89.942566 302.376095 90.289518 C 295.955382 93.91371 292.084562 99.552734 292.084562 105.133236 C 292.084562 111.370022 297.230328 117.255675 306.493544 117.255675 Z M 306.493544 117.255675 " stroke="#153e00" stroke-width="6.323332" stroke-opacity="1" stroke-miterlimit="4"/></g><g fill="#427b24" fill-opacity="1"><g transform="translate(116.479836, 65.531874)"><g><path d="M 7.875 1.265625 C 8.59375 1.265625 9.296875 1.03125 9.921875 0.390625 C 11.1875 -0.546875 10.71875 -5.671875 13.46875 -14.5 C 13.625 -14.96875 13.9375 -15.203125 14.5 -14.96875 C 17.96875 -13.546875 21.828125 -12.609375 26.390625 -12.609375 C 38.203125 -12.609375 51.6875 -20.640625 51.6875 -33.171875 C 51.6875 -41.046875 46.71875 -50.03125 32.296875 -50.03125 C 31.046875 -50.03125 29.78125 -49.953125 28.4375 -49.796875 C 27.890625 -49.71875 27.734375 -50.03125 27.734375 -50.578125 C 27.734375 -50.734375 27.734375 -50.96875 27.734375 -51.125 C 27.734375 -52.859375 26.78125 -53.96875 25.375 -53.96875 C 24.890625 -53.96875 24.34375 -53.890625 23.71875 -53.578125 C 22.921875 -53.171875 22.0625 -51.046875 20.796875 -48.53125 C 20.640625 -48.21875 20.40625 -47.984375 20.015625 -47.90625 C 16.859375 -46.71875 6.296875 -42.859375 6.375 -37.734375 C 6.453125 -36.234375 7.71875 -35.140625 9.21875 -35.453125 C 11.578125 -35.921875 10.328125 -37.03125 15.75 -39.859375 C 16.46875 -40.25 16.9375 -39.9375 16.625 -39.234375 C 14.421875 -34.5 12.765625 -29.703125 10.796875 -24.8125 C 10.5625 -24.34375 10.328125 -24.34375 9.765625 -24.5 C 8.265625 -25.203125 6.21875 -24.34375 6.21875 -22.140625 C 6.21875 -20.71875 6.859375 -19.859375 8.03125 -18.90625 C 8.421875 -18.59375 8.515625 -18.28125 8.421875 -17.890625 C 6.9375 -11.96875 5.828125 -8.59375 5.046875 -2.671875 C 4.96875 -1.96875 4.890625 -1.5 5.125 -0.78125 C 5.59375 0.390625 6.703125 1.265625 7.875 1.265625 Z M 26.078125 -18.046875 C 22.140625 -18.046875 18.828125 -18.984375 15.90625 -20.5625 C 15.515625 -20.796875 15.4375 -21.109375 15.59375 -21.59375 C 18.4375 -28.828125 21.03125 -36.15625 24.65625 -42.9375 C 24.890625 -43.328125 25.125 -43.484375 25.53125 -43.5625 C 27.171875 -43.875 29.390625 -44.359375 32.296875 -44.359375 C 41.59375 -44.359375 45.84375 -39.234375 45.84375 -34.03125 C 45.84375 -24.109375 37.265625 -18.046875 26.078125 -18.046875 Z M 26.078125 -18.046875 "/></g></g></g><g fill="#427b24" fill-opacity="1"><g transform="translate(166.973608, 65.531874)"><g><path d="M 17.5625 1.1875 C 26.625 1.1875 36.71875 -3.3125 43.328125 -14.265625 C 45.609375 -18.046875 41.515625 -21.984375 39.46875 -18.359375 C 34.578125 -9.6875 26.625 -4.25 18.203125 -4.25 C 12.453125 -4.25 9.765625 -7.09375 9.765625 -10.71875 C 9.765625 -15.203125 15.59375 -20.71875 23.640625 -23.484375 C 25.375 -24.109375 27.34375 -24.734375 27.265625 -26.78125 C 27.265625 -29.078125 26.390625 -29.859375 23.953125 -29.859375 C 22.375 -29.859375 19.296875 -29.46875 18.28125 -29.46875 C 14.734375 -29.46875 12.765625 -31.046875 12.765625 -34.03125 C 12.765625 -39.546875 20.328125 -43.953125 27.171875 -43.953125 C 30.71875 -43.953125 33.640625 -42.859375 35.53125 -40.734375 C 36 -40.09375 36.546875 -39.859375 37.265625 -39.859375 C 38.6875 -39.859375 39.859375 -41.28125 39.859375 -42.546875 C 39.859375 -43.25 39.46875 -44.125 38.53125 -45.375 C 36.640625 -47.984375 32.140625 -49.3125 27.015625 -49.3125 C 17.5625 -49.3125 7.015625 -42.78125 7.015625 -34.5 C 7.015625 -30.796875 8.59375 -27.171875 13.625 -25.046875 C 14.265625 -24.734375 14.265625 -24.34375 13.703125 -24.03125 C 7.71875 -20.640625 4.09375 -15.359375 4.09375 -10.15625 C 4.09375 -4.328125 8.90625 1.1875 17.5625 1.1875 Z M 17.5625 1.1875 "/></g></g></g><g fill="#427b24" fill-opacity="1"><g transform="translate(208.014569, 65.531874)"><g><path d="M 7.875 1.265625 C 8.59375 1.265625 9.296875 1.03125 9.921875 0.390625 C 11.1875 -0.546875 10.71875 -5.671875 13.46875 -14.5 C 13.625 -14.96875 13.9375 -15.203125 14.5 -14.96875 C 17.96875 -13.546875 21.828125 -12.609375 26.390625 -12.609375 C 38.203125 -12.609375 51.6875 -20.640625 51.6875 -33.171875 C 51.6875 -41.046875 46.71875 -50.03125 32.296875 -50.03125 C 31.046875 -50.03125 29.78125 -49.953125 28.4375 -49.796875 C 27.890625 -49.71875 27.734375 -50.03125 27.734375 -50.578125 C 27.734375 -50.734375 27.734375 -50.96875 27.734375 -51.125 C 27.734375 -52.859375 26.78125 -53.96875 25.375 -53.96875 C 24.890625 -53.96875 24.34375 -53.890625 23.71875 -53.578125 C 22.921875 -53.171875 22.0625 -51.046875 20.796875 -48.53125 C 20.640625 -48.21875 20.40625 -47.984375 20.015625 -47.90625 C 16.859375 -46.71875 6.296875 -42.859375 6.375 -37.734375 C 6.453125 -36.234375 7.71875 -35.140625 9.21875 -35.453125 C 11.578125 -35.921875 10.328125 -37.03125 15.75 -39.859375 C 16.46875 -40.25 16.9375 -39.9375 16.625 -39.234375 C 14.421875 -34.5 12.765625 -29.703125 10.796875 -24.8125 C 10.5625 -24.34375 10.328125 -24.34375 9.765625 -24.5 C 8.265625 -25.203125 6.21875 -24.34375 6.21875 -22.140625 C 6.21875 -20.71875 6.859375 -19.859375 8.03125 -18.90625 C 8.421875 -18.59375 8.515625 -18.28125 8.421875 -17.890625 C 6.9375 -11.96875 5.828125 -8.59375 5.046875 -2.671875 C 4.96875 -1.96875 4.890625 -1.5 5.125 -0.78125 C 5.59375 0.390625 6.703125 1.265625 7.875 1.265625 Z M 26.078125 -18.046875 C 22.140625 -18.046875 18.828125 -18.984375 15.90625 -20.5625 C 15.515625 -20.796875 15.4375 -21.109375 15.59375 -21.59375 C 18.4375 -28.828125 21.03125 -36.15625 24.65625 -42.9375 C 24.890625 -43.328125 25.125 -43.484375 25.53125 -43.5625 C 27.171875 -43.875 29.390625 -44.359375 32.296875 -44.359375 C 41.59375 -44.359375 45.84375 -39.234375 45.84375 -34.03125 C 45.84375 -24.109375 37.265625 -18.046875 26.078125 -18.046875 Z M 26.078125 -18.046875 "/></g></g></g><g fill="#427b24" fill-opacity="1"><g transform="translate(64.485022, 125.338321)"><g><path d="M 19.21875 2.359375 C 29.46875 2.125 33.015625 -4.890625 33.015625 -13.15625 C 33.015625 -17.328125 32.0625 -21.828125 30.40625 -26.625 C 30.25 -27.015625 30.25 -27.34375 30.5625 -27.65625 C 34.75 -33.484375 38.28125 -38.28125 38.28125 -44.359375 C 38.28125 -49.625 34.65625 -52.546875 30.796875 -52.546875 C 25.28125 -52.546875 21.671875 -47.421875 21.671875 -41.125 C 21.671875 -36.953125 23 -33.25 23.875 -29.15625 C 24.03125 -28.671875 23.875 -28.359375 23.640625 -28.046875 C 17.96875 -22.140625 12.296875 -16.15625 5.90625 -11.34375 C 5.515625 -11.03125 5.125 -11.03125 4.8125 -11.5 C 3.15625 -13.625 2.59375 -16 2.59375 -18.125 C 2.59375 -21.265625 4.015625 -24.8125 6.703125 -24.8125 C 7.328125 -24.8125 8.03125 -24.65625 8.671875 -24.65625 C 10.40625 -24.65625 11.265625 -25.765625 11.265625 -27.578125 C 11.265625 -29.390625 9.296875 -30.171875 7.015625 -30.171875 C 0.625 -30.171875 -3.078125 -24.65625 -3.078125 -18.359375 C -3.078125 -14.578125 -1.734375 -10.875 0.46875 -7.875 C 0.78125 -7.484375 0.703125 -7.09375 0.3125 -6.78125 C -1.734375 -5.203125 -3.859375 -3.859375 -5.046875 -2.921875 C -6.21875 -2.125 -6.296875 -1.109375 -6.296875 -0.625 C -6.296875 0.859375 -4.890625 2.046875 -3.703125 2.046875 C -1.109375 2.046875 2.125 -1.109375 4.40625 -2.921875 C 4.8125 -3.15625 5.125 -3.15625 5.515625 -2.84375 C 9.375 0.390625 14.421875 2.359375 19.21875 2.359375 Z M 28.046875 -35.53125 C 27.578125 -37.734375 27.34375 -39.546875 27.34375 -40.96875 C 27.34375 -45.375 29.15625 -46.875 30.5625 -46.875 C 31.671875 -46.875 32.6875 -46.09375 32.6875 -44.4375 C 32.6875 -41.28125 30.875 -38.125 29.15625 -35.296875 C 28.75 -34.65625 28.203125 -34.828125 28.046875 -35.53125 Z M 18.984375 -3.3125 C 16.234375 -3.3125 12.765625 -4.25 10.15625 -6.375 C 9.6875 -6.78125 9.6875 -7.171875 10.078125 -7.5625 C 15.125 -11.96875 20.09375 -16.625 24.8125 -21.34375 C 25.28125 -21.828125 25.765625 -21.75 25.921875 -21.109375 C 26.703125 -18.515625 27.34375 -15.4375 27.34375 -12.609375 C 27.34375 -7.953125 24.8125 -3.3125 18.984375 -3.3125 Z M 18.984375 -3.3125 "/></g></g></g><g fill="#427b24" fill-opacity="1"><g transform="translate(108.04674, 125.338321)"><g><path d="M -2.28125 3.9375 C -1.109375 3.9375 0.078125 3.15625 0.625 1.578125 C 5.515625 -8.75 9.921875 -18.359375 14.96875 -28.515625 C 18.671875 -36 22.53125 -43.484375 24.578125 -43.484375 C 27.171875 -43.484375 24.96875 -27.265625 23.953125 -18.28125 C 23.71875 -16 23.390625 -14.265625 23.390625 -12.453125 C 23.390625 -9.53125 24.578125 -6.453125 27.734375 -5.90625 C 33.015625 -5.28125 37.578125 -15.046875 46.25 -28.828125 C 47.265625 -30.171875 54.984375 -44.359375 57.984375 -44.359375 C 59.09375 -44.359375 59.25 -43.484375 59.25 -42.78125 C 59.25 -36 51.921875 -18.984375 47.578125 -6.703125 C 46.953125 -4.890625 45.453125 -1.734375 45.453125 0.46875 C 45.453125 1.890625 46.171875 3 48.296875 3.15625 C 51.203125 3 50.5 1.734375 55.140625 -11.34375 C 58.21875 -20.171875 65.078125 -37.578125 65.078125 -43.09375 C 65.078125 -46.5625 62.875 -50.5 59.171875 -50.5 C 51.046875 -50.5 42.625 -33.09375 35.0625 -21.03125 C 33.015625 -17.71875 31.59375 -14.265625 30.09375 -14.265625 C 28.75 -14.265625 29.703125 -18.984375 30.09375 -22.0625 C 30.328125 -24.109375 32.140625 -37.96875 32.140625 -40.421875 C 32.140625 -45.453125 30.71875 -50.03125 26.390625 -50.03125 C 25.375 -50.03125 23.078125 -49.625 22.0625 -48.84375 C 18.046875 -46.09375 11.890625 -36.640625 -2.515625 -4.8125 C -3.078125 -3.546875 -4.734375 -0.859375 -4.734375 1.1875 C -4.734375 1.96875 -4.484375 2.671875 -3.78125 3.3125 C -3.390625 3.703125 -2.84375 3.9375 -2.28125 3.9375 Z M -2.28125 3.9375 "/></g></g></g><g fill="#427b24" fill-opacity="1"><g transform="translate(173.743795, 125.338321)"><g><path d="M 12.453125 1.734375 C 15.59375 1.734375 18.828125 0.078125 21.75 -2.59375 C 22.21875 -3 22.53125 -3.078125 23 -2.921875 C 24.578125 -2.28125 26.3125 -1.96875 28.046875 -1.96875 C 34.984375 -1.96875 40.8125 -6.0625 45.921875 -14.265625 C 47.984375 -17.71875 43.875 -20.5625 41.4375 -17.25 C 38.6875 -13.46875 34.578125 -7.71875 28.75 -7.71875 C 28.359375 -7.71875 27.96875 -7.71875 27.578125 -7.796875 C 26.9375 -7.875 26.78125 -8.265625 27.171875 -8.828125 C 32.9375 -16.9375 36.953125 -28.203125 36.953125 -36.3125 C 36.953125 -45.765625 30.796875 -52.859375 21.984375 -52.859375 C 13.234375 -52.859375 5.125 -43.015625 5.28125 -34.34375 C 5.28125 -33.09375 4.96875 -31.90625 4.25 -30.171875 C 1.890625 -24.34375 0.625 -19.0625 0.625 -14.34375 C 0.625 -10.953125 1.1875 -7.640625 2.671875 -4.484375 C 4.171875 -1.1875 7.875 1.734375 12.453125 1.734375 Z M 20.875 -10.5625 C 15.515625 -14.65625 11.890625 -22.609375 11.03125 -30.015625 C 10.953125 -30.40625 11.03125 -30.71875 11.109375 -31.046875 C 12.453125 -34.5 16 -40.8125 21.265625 -43.328125 C 21.59375 -43.484375 21.90625 -43.484375 22.296875 -43.40625 C 22.84375 -43.25 23.390625 -43.171875 23.875 -43.171875 C 25.125 -43.171875 25.921875 -43.71875 26.3125 -44.828125 C 26.546875 -45.375 26.859375 -45.609375 27.34375 -45.296875 C 30.328125 -43.640625 31.359375 -40.421875 31.359375 -36.546875 C 31.359375 -29.625 27.265625 -18.125 21.984375 -10.71875 C 21.671875 -10.328125 21.265625 -10.234375 20.875 -10.5625 Z M 12.609375 -3.78125 C 7.953125 -3.78125 6.375 -8.515625 6.375 -14.34375 C 6.375 -16.234375 6.625 -18.28125 7.015625 -20.40625 C 7.171875 -21.1875 7.640625 -21.1875 7.875 -20.484375 C 9.609375 -15.4375 12.84375 -10.15625 17.015625 -6.53125 C 17.484375 -6.21875 17.484375 -5.75 17.015625 -5.4375 C 15.59375 -4.328125 14.015625 -3.78125 12.609375 -3.78125 Z M 12.609375 -3.78125 "/></g></g></g><g fill="#427b24" fill-opacity="1"><g transform="translate(217.38428, 125.338321)"><g><path d="M -0.078125 5.671875 C 5.203125 5.671875 12.375 -0.78125 17.484375 -18.125 C 17.71875 -18.984375 17.890625 -19.53125 18.203125 -20.5625 C 18.28125 -20.953125 18.515625 -21.1875 18.828125 -21.421875 C 19.140625 -21.5 19.453125 -21.671875 19.859375 -21.75 C 20.328125 -21.984375 20.71875 -21.75 20.796875 -21.1875 C 23 -9.765625 28.28125 0.3125 36.15625 0.3125 C 43.171875 0.3125 49.15625 -6.0625 54.4375 -14.265625 C 56.796875 -17.96875 52.859375 -21.5 49.953125 -17.25 C 46.5625 -12.375 41.203125 -5.59375 36.46875 -5.59375 C 32.859375 -5.59375 29.390625 -9.609375 26.078125 -23.484375 C 26 -23.953125 26.15625 -24.265625 26.546875 -24.5 C 30.328125 -26.15625 33.875 -28.359375 36.796875 -31.4375 C 37.96875 -32.609375 46.328125 -42.859375 46.328125 -47.03125 C 46.328125 -48.609375 45.21875 -49.390625 43.953125 -49.390625 C 42.234375 -49.390625 41.4375 -47.90625 40.25 -45.84375 C 37.734375 -41.203125 32.6875 -31.828125 21.34375 -28.125 C 20.71875 -27.96875 20.40625 -28.28125 20.5625 -28.90625 C 20.953125 -30.25 21.75 -32.375 23.15625 -36.15625 C 23.953125 -38.203125 24.8125 -40.578125 25.609375 -42.9375 C 25.84375 -43.796875 26.3125 -44.515625 26.78125 -45.296875 C 27.421875 -46.328125 28.125 -47.421875 28.125 -48.6875 C 28.125 -50.03125 26.859375 -51.203125 25.453125 -51.203125 C 24.96875 -51.203125 24.5 -50.96875 24.1875 -50.8125 C 23.484375 -50.421875 22.921875 -49.625 22.296875 -48.84375 C 21.59375 -47.90625 20.796875 -46.875 19.609375 -46.171875 C 17.890625 -44.75 14.8125 -44.03125 11.734375 -44.03125 C 9.296875 -44.03125 7.5625 -44.4375 5.359375 -45.375 C 0.625 -47.5 -0.953125 -42.46875 2.28125 -40.734375 C 4.640625 -39.546875 8.1875 -38.6875 12.21875 -38.6875 C 13.9375 -38.6875 15.671875 -38.84375 17.640625 -39.546875 C 18.359375 -39.859375 18.671875 -39.546875 18.4375 -38.84375 C 16.859375 -34.828125 15.046875 -30.171875 13.9375 -26.703125 C 13.859375 -26.3125 13.625 -26.078125 13.234375 -25.921875 C 1.5 -21.90625 -7.171875 -14.734375 -7.171875 -3.703125 C -7.171875 1.890625 -4.25 5.671875 -0.078125 5.671875 Z M 0 0.078125 C -0.234375 0.078125 -0.390625 0 -0.546875 -0.078125 C -1.265625 -0.625 -1.734375 -1.8125 -1.734375 -3.390625 C -1.734375 -11.109375 2.921875 -16.625 10.796875 -19.296875 C 11.421875 -19.453125 11.8125 -19.140625 11.65625 -18.515625 C 10 -12.53125 4.8125 0.078125 0 0.078125 Z M 0 0.078125 "/></g></g></g><g fill="#427b24" fill-opacity="1"><g transform="translate(269.453526, 125.338321)"><g><path d="M 17.5625 1.1875 C 26.625 1.1875 36.71875 -3.3125 43.328125 -14.265625 C 45.609375 -18.046875 41.515625 -21.984375 39.46875 -18.359375 C 34.578125 -9.6875 26.625 -4.25 18.203125 -4.25 C 12.453125 -4.25 9.765625 -7.09375 9.765625 -10.71875 C 9.765625 -15.203125 15.59375 -20.71875 23.640625 -23.484375 C 25.375 -24.109375 27.34375 -24.734375 27.265625 -26.78125 C 27.265625 -29.078125 26.390625 -29.859375 23.953125 -29.859375 C 22.375 -29.859375 19.296875 -29.46875 18.28125 -29.46875 C 14.734375 -29.46875 12.765625 -31.046875 12.765625 -34.03125 C 12.765625 -39.546875 20.328125 -43.953125 27.171875 -43.953125 C 30.71875 -43.953125 33.640625 -42.859375 35.53125 -40.734375 C 36 -40.09375 36.546875 -39.859375 37.265625 -39.859375 C 38.6875 -39.859375 39.859375 -41.28125 39.859375 -42.546875 C 39.859375 -43.25 39.46875 -44.125 38.53125 -45.375 C 36.640625 -47.984375 32.140625 -49.3125 27.015625 -49.3125 C 17.5625 -49.3125 7.015625 -42.78125 7.015625 -34.5 C 7.015625 -30.796875 8.59375 -27.171875 13.625 -25.046875 C 14.265625 -24.734375 14.265625 -24.34375 13.703125 -24.03125 C 7.71875 -20.640625 4.09375 -15.359375 4.09375 -10.15625 C 4.09375 -4.328125 8.90625 1.1875 17.5625 1.1875 Z M 17.5625 1.1875 "/></g></g></g></svg>