<svg xmlns="http://www.w3.org/2000/svg" xmlns:xlink="http://www.w3.org/1999/xlink" width="500" zoomAndPan="magnify" viewBox="0 0 375 154.499995" height="206" preserveAspectRatio="xMidYMid meet" version="1.0"><defs><g/></defs><g fill="#427b24" fill-opacity="0.4"><g transform="translate(119.961748, 69.013786)"><g><path d="M 7.875 1.265625 C 8.59375 1.265625 9.296875 1.03125 9.921875 0.390625 C 11.1875 -0.546875 10.71875 -5.671875 13.46875 -14.5 C 13.625 -14.96875 13.9375 -15.203125 14.5 -14.96875 C 17.96875 -13.546875 21.828125 -12.609375 26.390625 -12.609375 C 38.203125 -12.609375 51.6875 -20.640625 51.6875 -33.171875 C 51.6875 -41.046875 46.71875 -50.03125 32.296875 -50.03125 C 31.046875 -50.03125 29.78125 -49.953125 28.4375 -49.796875 C 27.890625 -49.71875 27.734375 -50.03125 27.734375 -50.578125 C 27.734375 -50.734375 27.734375 -50.96875 27.734375 -51.125 C 27.734375 -52.859375 26.78125 -53.96875 25.375 -53.96875 C 24.890625 -53.96875 24.34375 -53.890625 23.71875 -53.578125 C 22.921875 -53.171875 22.0625 -51.046875 20.796875 -48.53125 C 20.640625 -48.21875 20.40625 -47.984375 20.015625 -47.90625 C 16.859375 -46.71875 6.296875 -42.859375 6.375 -37.734375 C 6.453125 -36.234375 7.71875 -35.140625 9.21875 -35.453125 C 11.578125 -35.921875 10.328125 -37.03125 15.75 -39.859375 C 16.46875 -40.25 16.9375 -39.9375 16.625 -39.234375 C 14.421875 -34.5 12.765625 -29.703125 10.796875 -24.8125 C 10.5625 -24.34375 10.328125 -24.34375 9.765625 -24.5 C 8.265625 -25.203125 6.21875 -24.34375 6.21875 -22.140625 C 6.21875 -20.71875 6.859375 -19.859375 8.03125 -18.90625 C 8.421875 -18.59375 8.515625 -18.28125 8.421875 -17.890625 C 6.9375 -11.96875 5.828125 -8.59375 5.046875 -2.671875 C 4.96875 -1.96875 4.890625 -1.5 5.125 -0.78125 C 5.59375 0.390625 6.703125 1.265625 7.875 1.265625 Z M 26.078125 -18.046875 C 22.140625 -18.046875 18.828125 -18.984375 15.90625 -20.5625 C 15.515625 -20.796875 15.4375 -21.109375 15.59375 -21.59375 C 18.4375 -28.828125 21.03125 -36.15625 24.65625 -42.9375 C 24.890625 -43.328125 25.125 -43.484375 25.53125 -43.5625 C 27.171875 -43.875 29.390625 -44.359375 32.296875 -44.359375 C 41.59375 -44.359375 45.84375 -39.234375 45.84375 -34.03125 C 45.84375 -24.109375 37.265625 -18.046875 26.078125 -18.046875 Z M 26.078125 -18.046875 "/></g></g></g><g fill="#427b24" fill-opacity="0.4"><g transform="translate(170.45552, 69.013786)"><g><path d="M 17.5625 1.1875 C 26.625 1.1875 36.71875 -3.3125 43.328125 -14.265625 C 45.609375 -18.046875 41.515625 -21.984375 39.46875 -18.359375 C 34.578125 -9.6875 26.625 -4.25 18.203125 -4.25 C 12.453125 -4.25 9.765625 -7.09375 9.765625 -10.71875 C 9.765625 -15.203125 15.59375 -20.71875 23.640625 -23.484375 C 25.375 -24.109375 27.34375 -24.734375 27.265625 -26.78125 C 27.265625 -29.078125 26.390625 -29.859375 23.953125 -29.859375 C 22.375 -29.859375 19.296875 -29.46875 18.28125 -29.46875 C 14.734375 -29.46875 12.765625 -31.046875 12.765625 -34.03125 C 12.765625 -39.546875 20.328125 -43.953125 27.171875 -43.953125 C 30.71875 -43.953125 33.640625 -42.859375 35.53125 -40.734375 C 36 -40.09375 36.546875 -39.859375 37.265625 -39.859375 C 38.6875 -39.859375 39.859375 -41.28125 39.859375 -42.546875 C 39.859375 -43.25 39.46875 -44.125 38.53125 -45.375 C 36.640625 -47.984375 32.140625 -49.3125 27.015625 -49.3125 C 17.5625 -49.3125 7.015625 -42.78125 7.015625 -34.5 C 7.015625 -30.796875 8.59375 -27.171875 13.625 -25.046875 C 14.265625 -24.734375 14.265625 -24.34375 13.703125 -24.03125 C 7.71875 -20.640625 4.09375 -15.359375 4.09375 -10.15625 C 4.09375 -4.328125 8.90625 1.1875 17.5625 1.1875 Z M 17.5625 1.1875 "/></g></g></g><g fill="#427b24" fill-opacity="0.4"><g transform="translate(211.496481, 69.013786)"><g><path d="M 7.875 1.265625 C 8.59375 1.265625 9.296875 1.03125 9.921875 0.390625 C 11.1875 -0.546875 10.71875 -5.671875 13.46875 -14.5 C 13.625 -14.96875 13.9375 -15.203125 14.5 -14.96875 C 17.96875 -13.546875 21.828125 -12.609375 26.390625 -12.609375 C 38.203125 -12.609375 51.6875 -20.640625 51.6875 -33.171875 C 51.6875 -41.046875 46.71875 -50.03125 32.296875 -50.03125 C 31.046875 -50.03125 29.78125 -49.953125 28.4375 -49.796875 C 27.890625 -49.71875 27.734375 -50.03125 27.734375 -50.578125 C 27.734375 -50.734375 27.734375 -50.96875 27.734375 -51.125 C 27.734375 -52.859375 26.78125 -53.96875 25.375 -53.96875 C 24.890625 -53.96875 24.34375 -53.890625 23.71875 -53.578125 C 22.921875 -53.171875 22.0625 -51.046875 20.796875 -48.53125 C 20.640625 -48.21875 20.40625 -47.984375 20.015625 -47.90625 C 16.859375 -46.71875 6.296875 -42.859375 6.375 -37.734375 C 6.453125 -36.234375 7.71875 -35.140625 9.21875 -35.453125 C 11.578125 -35.921875 10.328125 -37.03125 15.75 -39.859375 C 16.46875 -40.25 16.9375 -39.9375 16.625 -39.234375 C 14.421875 -34.5 12.765625 -29.703125 10.796875 -24.8125 C 10.5625 -24.34375 10.328125 -24.34375 9.765625 -24.5 C 8.265625 -25.203125 6.21875 -24.34375 6.21875 -22.140625 C 6.21875 -20.71875 6.859375 -19.859375 8.03125 -18.90625 C 8.421875 -18.59375 8.515625 -18.28125 8.421875 -17.890625 C 6.9375 -11.96875 5.828125 -8.59375 5.046875 -2.671875 C 4.96875 -1.96875 4.890625 -1.5 5.125 -0.78125 C 5.59375 0.390625 6.703125 1.265625 7.875 1.265625 Z M 26.078125 -18.046875 C 22.140625 -18.046875 18.828125 -18.984375 15.90625 -20.5625 C 15.515625 -20.796875 15.4375 -21.109375 15.59375 -21.59375 C 18.4375 -28.828125 21.03125 -36.15625 24.65625 -42.9375 C 24.890625 -43.328125 25.125 -43.484375 25.53125 -43.5625 C 27.171875 -43.875 29.390625 -44.359375 32.296875 -44.359375 C 41.59375 -44.359375 45.84375 -39.234375 45.84375 -34.03125 C 45.84375 -24.109375 37.265625 -18.046875 26.078125 -18.046875 Z M 26.078125 -18.046875 "/></g></g></g><g fill="#427b24" fill-opacity="1"><g transform="translate(116.479836, 65.531874)"><g><path d="M 7.875 1.265625 C 8.59375 1.265625 9.296875 1.03125 9.921875 0.390625 C 11.1875 -0.546875 10.71875 -5.671875 13.46875 -14.5 C 13.625 -14.96875 13.9375 -15.203125 14.5 -14.96875 C 17.96875 -13.546875 21.828125 -12.609375 26.390625 -12.609375 C 38.203125 -12.609375 51.6875 -20.640625 51.6875 -33.171875 C 51.6875 -41.046875 46.71875 -50.03125 32.296875 -50.03125 C 31.046875 -50.03125 29.78125 -49.953125 28.4375 -49.796875 C 27.890625 -49.71875 27.734375 -50.03125 27.734375 -50.578125 C 27.734375 -50.734375 27.734375 -50.96875 27.734375 -51.125 C 27.734375 -52.859375 26.78125 -53.96875 25.375 -53.96875 C 24.890625 -53.96875 24.34375 -53.890625 23.71875 -53.578125 C 22.921875 -53.171875 22.0625 -51.046875 20.796875 -48.53125 C 20.640625 -48.21875 20.40625 -47.984375 20.015625 -47.90625 C 16.859375 -46.71875 6.296875 -42.859375 6.375 -37.734375 C 6.453125 -36.234375 7.71875 -35.140625 9.21875 -35.453125 C 11.578125 -35.921875 10.328125 -37.03125 15.75 -39.859375 C 16.46875 -40.25 16.9375 -39.9375 16.625 -39.234375 C 14.421875 -34.5 12.765625 -29.703125 10.796875 -24.8125 C 10.5625 -24.34375 10.328125 -24.34375 9.765625 -24.5 C 8.265625 -25.203125 6.21875 -24.34375 6.21875 -22.140625 C 6.21875 -20.71875 6.859375 -19.859375 8.03125 -18.90625 C 8.421875 -18.59375 8.515625 -18.28125 8.421875 -17.890625 C 6.9375 -11.96875 5.828125 -8.59375 5.046875 -2.671875 C 4.96875 -1.96875 4.890625 -1.5 5.125 -0.78125 C 5.59375 0.390625 6.703125 1.265625 7.875 1.265625 Z M 26.078125 -18.046875 C 22.140625 -18.046875 18.828125 -18.984375 15.90625 -20.5625 C 15.515625 -20.796875 15.4375 -21.109375 15.59375 -21.59375 C 18.4375 -28.828125 21.03125 -36.15625 24.65625 -42.9375 C 24.890625 -43.328125 25.125 -43.484375 25.53125 -43.5625 C 27.171875 -43.875 29.390625 -44.359375 32.296875 -44.359375 C 41.59375 -44.359375 45.84375 -39.234375 45.84375 -34.03125 C 45.84375 -24.109375 37.265625 -18.046875 26.078125 -18.046875 Z M 26.078125 -18.046875 "/></g></g></g><g fill="#427b24" fill-opacity="1"><g transform="translate(166.973608, 65.531874)"><g><path d="M 17.5625 1.1875 C 26.625 1.1875 36.71875 -3.3125 43.328125 -14.265625 C 45.609375 -18.046875 41.515625 -21.984375 39.46875 -18.359375 C 34.578125 -9.6875 26.625 -4.25 18.203125 -4.25 C 12.453125 -4.25 9.765625 -7.09375 9.765625 -10.71875 C 9.765625 -15.203125 15.59375 -20.71875 23.640625 -23.484375 C 25.375 -24.109375 27.34375 -24.734375 27.265625 -26.78125 C 27.265625 -29.078125 26.390625 -29.859375 23.953125 -29.859375 C 22.375 -29.859375 19.296875 -29.46875 18.28125 -29.46875 C 14.734375 -29.46875 12.765625 -31.046875 12.765625 -34.03125 C 12.765625 -39.546875 20.328125 -43.953125 27.171875 -43.953125 C 30.71875 -43.953125 33.640625 -42.859375 35.53125 -40.734375 C 36 -40.09375 36.546875 -39.859375 37.265625 -39.859375 C 38.6875 -39.859375 39.859375 -41.28125 39.859375 -42.546875 C 39.859375 -43.25 39.46875 -44.125 38.53125 -45.375 C 36.640625 -47.984375 32.140625 -49.3125 27.015625 -49.3125 C 17.5625 -49.3125 7.015625 -42.78125 7.015625 -34.5 C 7.015625 -30.796875 8.59375 -27.171875 13.625 -25.046875 C 14.265625 -24.734375 14.265625 -24.34375 13.703125 -24.03125 C 7.71875 -20.640625 4.09375 -15.359375 4.09375 -10.15625 C 4.09375 -4.328125 8.90625 1.1875 17.5625 1.1875 Z M 17.5625 1.1875 "/></g></g></g><g fill="#427b24" fill-opacity="1"><g transform="translate(208.014569, 65.531874)"><g><path d="M 7.875 1.265625 C 8.59375 1.265625 9.296875 1.03125 9.921875 0.390625 C 11.1875 -0.546875 10.71875 -5.671875 13.46875 -14.5 C 13.625 -14.96875 13.9375 -15.203125 14.5 -14.96875 C 17.96875 -13.546875 21.828125 -12.609375 26.390625 -12.609375 C 38.203125 -12.609375 51.6875 -20.640625 51.6875 -33.171875 C 51.6875 -41.046875 46.71875 -50.03125 32.296875 -50.03125 C 31.046875 -50.03125 29.78125 -49.953125 28.4375 -49.796875 C 27.890625 -49.71875 27.734375 -50.03125 27.734375 -50.578125 C 27.734375 -50.734375 27.734375 -50.96875 27.734375 -51.125 C 27.734375 -52.859375 26.78125 -53.96875 25.375 -53.96875 C 24.890625 -53.96875 24.34375 -53.890625 23.71875 -53.578125 C 22.921875 -53.171875 22.0625 -51.046875 20.796875 -48.53125 C 20.640625 -48.21875 20.40625 -47.984375 20.015625 -47.90625 C 16.859375 -46.71875 6.296875 -42.859375 6.375 -37.734375 C 6.453125 -36.234375 7.71875 -35.140625 9.21875 -35.453125 C 11.578125 -35.921875 10.328125 -37.03125 15.75 -39.859375 C 16.46875 -40.25 16.9375 -39.9375 16.625 -39.234375 C 14.421875 -34.5 12.765625 -29.703125 10.796875 -24.8125 C 10.5625 -24.34375 10.328125 -24.34375 9.765625 -24.5 C 8.265625 -25.203125 6.21875 -24.34375 6.21875 -22.140625 C 6.21875 -20.71875 6.859375 -19.859375 8.03125 -18.90625 C 8.421875 -18.59375 8.515625 -18.28125 8.421875 -17.890625 C 6.9375 -11.96875 5.828125 -8.59375 5.046875 -2.671875 C 4.96875 -1.96875 4.890625 -1.5 5.125 -0.78125 C 5.59375 0.390625 6.703125 1.265625 7.875 1.265625 Z M 26.078125 -18.046875 C 22.140625 -18.046875 18.828125 -18.984375 15.90625 -20.5625 C 15.515625 -20.796875 15.4375 -21.109375 15.59375 -21.59375 C 18.4375 -28.828125 21.03125 -36.15625 24.65625 -42.9375 C 24.890625 -43.328125 25.125 -43.484375 25.53125 -43.5625 C 27.171875 -43.875 29.390625 -44.359375 32.296875 -44.359375 C 41.59375 -44.359375 45.84375 -39.234375 45.84375 -34.03125 C 45.84375 -24.109375 37.265625 -18.046875 26.078125 -18.046875 Z M 26.078125 -18.046875 "/></g></g></g><g fill="#427b24" fill-opacity="0.4"><g transform="translate(67.966934, 128.820233)"><g><path d="M 19.21875 2.359375 C 29.46875 2.125 33.015625 -4.890625 33.015625 -13.15625 C 33.015625 -17.328125 32.0625 -21.828125 30.40625 -26.625 C 30.25 -27.015625 30.25 -27.34375 30.5625 -27.65625 C 34.75 -33.484375 38.28125 -38.28125 38.28125 -44.359375 C 38.28125 -49.625 34.65625 -52.546875 30.796875 -52.546875 C 25.28125 -52.546875 21.671875 -47.421875 21.671875 -41.125 C 21.671875 -36.953125 23 -33.25 23.875 -29.15625 C 24.03125 -28.671875 23.875 -28.359375 23.640625 -28.046875 C 17.96875 -22.140625 12.296875 -16.15625 5.90625 -11.34375 C 5.515625 -11.03125 5.125 -11.03125 4.8125 -11.5 C 3.15625 -13.625 2.59375 -16 2.59375 -18.125 C 2.59375 -21.265625 4.015625 -24.8125 6.703125 -24.8125 C 7.328125 -24.8125 8.03125 -24.65625 8.671875 -24.65625 C 10.40625 -24.65625 11.265625 -25.765625 11.265625 -27.578125 C 11.265625 -29.390625 9.296875 -30.171875 7.015625 -30.171875 C 0.625 -30.171875 -3.078125 -24.65625 -3.078125 -18.359375 C -3.078125 -14.578125 -1.734375 -10.875 0.46875 -7.875 C 0.78125 -7.484375 0.703125 -7.09375 0.3125 -6.78125 C -1.734375 -5.203125 -3.859375 -3.859375 -5.046875 -2.921875 C -6.21875 -2.125 -6.296875 -1.109375 -6.296875 -0.625 C -6.296875 0.859375 -4.890625 2.046875 -3.703125 2.046875 C -1.109375 2.046875 2.125 -1.109375 4.40625 -2.921875 C 4.8125 -3.15625 5.125 -3.15625 5.515625 -2.84375 C 9.375 0.390625 14.421875 2.359375 19.21875 2.359375 Z M 28.046875 -35.53125 C 27.578125 -37.734375 27.34375 -39.546875 27.34375 -40.96875 C 27.34375 -45.375 29.15625 -46.875 30.5625 -46.875 C 31.671875 -46.875 32.6875 -46.09375 32.6875 -44.4375 C 32.6875 -41.28125 30.875 -38.125 29.15625 -35.296875 C 28.75 -34.65625 28.203125 -34.828125 28.046875 -35.53125 Z M 18.984375 -3.3125 C 16.234375 -3.3125 12.765625 -4.25 10.15625 -6.375 C 9.6875 -6.78125 9.6875 -7.171875 10.078125 -7.5625 C 15.125 -11.96875 20.09375 -16.625 24.8125 -21.34375 C 25.28125 -21.828125 25.765625 -21.75 25.921875 -21.109375 C 26.703125 -18.515625 27.34375 -15.4375 27.34375 -12.609375 C 27.34375 -7.953125 24.8125 -3.3125 18.984375 -3.3125 Z M 18.984375 -3.3125 "/></g></g></g><g fill="#427b24" fill-opacity="0.4"><g transform="translate(111.528652, 128.820233)"><g><path d="M -2.28125 3.9375 C -1.109375 3.9375 0.078125 3.15625 0.625 1.578125 C 5.515625 -8.75 9.921875 -18.359375 14.96875 -28.515625 C 18.671875 -36 22.53125 -43.484375 24.578125 -43.484375 C 27.171875 -43.484375 24.96875 -27.265625 23.953125 -18.28125 C 23.71875 -16 23.390625 -14.265625 23.390625 -12.453125 C 23.390625 -9.53125 24.578125 -6.453125 27.734375 -5.90625 C 33.015625 -5.28125 37.578125 -15.046875 46.25 -28.828125 C 47.265625 -30.171875 54.984375 -44.359375 57.984375 -44.359375 C 59.09375 -44.359375 59.25 -43.484375 59.25 -42.78125 C 59.25 -36 51.921875 -18.984375 47.578125 -6.703125 C 46.953125 -4.890625 45.453125 -1.734375 45.453125 0.46875 C 45.453125 1.890625 46.171875 3 48.296875 3.15625 C 51.203125 3 50.5 1.734375 55.140625 -11.34375 C 58.21875 -20.171875 65.078125 -37.578125 65.078125 -43.09375 C 65.078125 -46.5625 62.875 -50.5 59.171875 -50.5 C 51.046875 -50.5 42.625 -33.09375 35.0625 -21.03125 C 33.015625 -17.71875 31.59375 -14.265625 30.09375 -14.265625 C 28.75 -14.265625 29.703125 -18.984375 30.09375 -22.0625 C 30.328125 -24.109375 32.140625 -37.96875 32.140625 -40.421875 C 32.140625 -45.453125 30.71875 -50.03125 26.390625 -50.03125 C 25.375 -50.03125 23.078125 -49.625 22.0625 -48.84375 C 18.046875 -46.09375 11.890625 -36.640625 -2.515625 -4.8125 C -3.078125 -3.546875 -4.734375 -0.859375 -4.734375 1.1875 C -4.734375 1.96875 -4.484375 2.671875 -3.78125 3.3125 C -3.390625 3.703125 -2.84375 3.9375 -2.28125 3.9375 Z M -2.28125 3.9375 "/></g></g></g><g fill="#427b24" fill-opacity="0.4"><g transform="translate(177.225707, 128.820233)"><g><path d="M 12.453125 1.734375 C 15.59375 1.734375 18.828125 0.078125 21.75 -2.59375 C 22.21875 -3 22.53125 -3.078125 23 -2.921875 C 24.578125 -2.28125 26.3125 -1.96875 28.046875 -1.96875 C 34.984375 -1.96875 40.8125 -6.0625 45.921875 -14.265625 C 47.984375 -17.71875 43.875 -20.5625 41.4375 -17.25 C 38.6875 -13.46875 34.578125 -7.71875 28.75 -7.71875 C 28.359375 -7.71875 27.96875 -7.71875 27.578125 -7.796875 C 26.9375 -7.875 26.78125 -8.265625 27.171875 -8.828125 C 32.9375 -16.9375 36.953125 -28.203125 36.953125 -36.3125 C 36.953125 -45.765625 30.796875 -52.859375 21.984375 -52.859375 C 13.234375 -52.859375 5.125 -43.015625 5.28125 -34.34375 C 5.28125 -33.09375 4.96875 -31.90625 4.25 -30.171875 C 1.890625 -24.34375 0.625 -19.0625 0.625 -14.34375 C 0.625 -10.953125 1.1875 -7.640625 2.671875 -4.484375 C 4.171875 -1.1875 7.875 1.734375 12.453125 1.734375 Z M 20.875 -10.5625 C 15.515625 -14.65625 11.890625 -22.609375 11.03125 -30.015625 C 10.953125 -30.40625 11.03125 -30.71875 11.109375 -31.046875 C 12.453125 -34.5 16 -40.8125 21.265625 -43.328125 C 21.59375 -43.484375 21.90625 -43.484375 22.296875 -43.40625 C 22.84375 -43.25 23.390625 -43.171875 23.875 -43.171875 C 25.125 -43.171875 25.921875 -43.71875 26.3125 -44.828125 C 26.546875 -45.375 26.859375 -45.609375 27.34375 -45.296875 C 30.328125 -43.640625 31.359375 -40.421875 31.359375 -36.546875 C 31.359375 -29.625 27.265625 -18.125 21.984375 -10.71875 C 21.671875 -10.328125 21.265625 -10.234375 20.875 -10.5625 Z M 12.609375 -3.78125 C 7.953125 -3.78125 6.375 -8.515625 6.375 -14.34375 C 6.375 -16.234375 6.625 -18.28125 7.015625 -20.40625 C 7.171875 -21.1875 7.640625 -21.1875 7.875 -20.484375 C 9.609375 -15.4375 12.84375 -10.15625 17.015625 -6.53125 C 17.484375 -6.21875 17.484375 -5.75 17.015625 -5.4375 C 15.59375 -4.328125 14.015625 -3.78125 12.609375 -3.78125 Z M 12.609375 -3.78125 "/></g></g></g><g fill="#427b24" fill-opacity="0.4"><g transform="translate(220.866192, 128.820233)"><g><path d="M -0.078125 5.671875 C 5.203125 5.671875 12.375 -0.78125 17.484375 -18.125 C 17.71875 -18.984375 17.890625 -19.53125 18.203125 -20.5625 C 18.28125 -20.953125 18.515625 -21.1875 18.828125 -21.421875 C 19.140625 -21.5 19.453125 -21.671875 19.859375 -21.75 C 20.328125 -21.984375 20.71875 -21.75 20.796875 -21.1875 C 23 -9.765625 28.28125 0.3125 36.15625 0.3125 C 43.171875 0.3125 49.15625 -6.0625 54.4375 -14.265625 C 56.796875 -17.96875 52.859375 -21.5 49.953125 -17.25 C 46.5625 -12.375 41.203125 -5.59375 36.46875 -5.59375 C 32.859375 -5.59375 29.390625 -9.609375 26.078125 -23.484375 C 26 -23.953125 26.15625 -24.265625 26.546875 -24.5 C 30.328125 -26.15625 33.875 -28.359375 36.796875 -31.4375 C 37.96875 -32.609375 46.328125 -42.859375 46.328125 -47.03125 C 46.328125 -48.609375 45.21875 -49.390625 43.953125 -49.390625 C 42.234375 -49.390625 41.4375 -47.90625 40.25 -45.84375 C 37.734375 -41.203125 32.6875 -31.828125 21.34375 -28.125 C 20.71875 -27.96875 20.40625 -28.28125 20.5625 -28.90625 C 20.953125 -30.25 21.75 -32.375 23.15625 -36.15625 C 23.953125 -38.203125 24.8125 -40.578125 25.609375 -42.9375 C 25.84375 -43.796875 26.3125 -44.515625 26.78125 -45.296875 C 27.421875 -46.328125 28.125 -47.421875 28.125 -48.6875 C 28.125 -50.03125 26.859375 -51.203125 25.453125 -51.203125 C 24.96875 -51.203125 24.5 -50.96875 24.1875 -50.8125 C 23.484375 -50.421875 22.921875 -49.625 22.296875 -48.84375 C 21.59375 -47.90625 20.796875 -46.875 19.609375 -46.171875 C 17.890625 -44.75 14.8125 -44.03125 11.734375 -44.03125 C 9.296875 -44.03125 7.5625 -44.4375 5.359375 -45.375 C 0.625 -47.5 -0.953125 -42.46875 2.28125 -40.734375 C 4.640625 -39.546875 8.1875 -38.6875 12.21875 -38.6875 C 13.9375 -38.6875 15.671875 -38.84375 17.640625 -39.546875 C 18.359375 -39.859375 18.671875 -39.546875 18.4375 -38.84375 C 16.859375 -34.828125 15.046875 -30.171875 13.9375 -26.703125 C 13.859375 -26.3125 13.625 -26.078125 13.234375 -25.921875 C 1.5 -21.90625 -7.171875 -14.734375 -7.171875 -3.703125 C -7.171875 1.890625 -4.25 5.671875 -0.078125 5.671875 Z M 0 0.078125 C -0.234375 0.078125 -0.390625 0 -0.546875 -0.078125 C -1.265625 -0.625 -1.734375 -1.8125 -1.734375 -3.390625 C -1.734375 -11.109375 2.921875 -16.625 10.796875 -19.296875 C 11.421875 -19.453125 11.8125 -19.140625 11.65625 -18.515625 C 10 -12.53125 4.8125 0.078125 0 0.078125 Z M 0 0.078125 "/></g></g></g><g fill="#427b24" fill-opacity="0.4"><g transform="translate(272.935438, 128.820233)"><g><path d="M 17.5625 1.1875 C 26.625 1.1875 36.71875 -3.3125 43.328125 -14.265625 C 45.609375 -18.046875 41.515625 -21.984375 39.46875 -18.359375 C 34.578125 -9.6875 26.625 -4.25 18.203125 -4.25 C 12.453125 -4.25 9.765625 -7.09375 9.765625 -10.71875 C 9.765625 -15.203125 15.59375 -20.71875 23.640625 -23.484375 C 25.375 -24.109375 27.34375 -24.734375 27.265625 -26.78125 C 27.265625 -29.078125 26.390625 -29.859375 23.953125 -29.859375 C 22.375 -29.859375 19.296875 -29.46875 18.28125 -29.46875 C 14.734375 -29.46875 12.765625 -31.046875 12.765625 -34.03125 C 12.765625 -39.546875 20.328125 -43.953125 27.171875 -43.953125 C 30.71875 -43.953125 33.640625 -42.859375 35.53125 -40.734375 C 36 -40.09375 36.546875 -39.859375 37.265625 -39.859375 C 38.6875 -39.859375 39.859375 -41.28125 39.859375 -42.546875 C 39.859375 -43.25 39.46875 -44.125 38.53125 -45.375 C 36.640625 -47.984375 32.140625 -49.3125 27.015625 -49.3125 C 17.5625 -49.3125 7.015625 -42.78125 7.015625 -34.5 C 7.015625 -30.796875 8.59375 -27.171875 13.625 -25.046875 C 14.265625 -24.734375 14.265625 -24.34375 13.703125 -24.03125 C 7.71875 -20.640625 4.09375 -15.359375 4.09375 -10.15625 C 4.09375 -4.328125 8.90625 1.1875 17.5625 1.1875 Z M 17.5625 1.1875 "/></g></g></g><g fill="#427b24" fill-opacity="1"><g transform="translate(64.485022, 125.338321)"><g><path d="M 19.21875 2.359375 C 29.46875 2.125 33.015625 -4.890625 33.015625 -13.15625 C 33.015625 -17.328125 32.0625 -21.828125 30.40625 -26.625 C 30.25 -27.015625 30.25 -27.34375 30.5625 -27.65625 C 34.75 -33.484375 38.28125 -38.28125 38.28125 -44.359375 C 38.28125 -49.625 34.65625 -52.546875 30.796875 -52.546875 C 25.28125 -52.546875 21.671875 -47.421875 21.671875 -41.125 C 21.671875 -36.953125 23 -33.25 23.875 -29.15625 C 24.03125 -28.671875 23.875 -28.359375 23.640625 -28.046875 C 17.96875 -22.140625 12.296875 -16.15625 5.90625 -11.34375 C 5.515625 -11.03125 5.125 -11.03125 4.8125 -11.5 C 3.15625 -13.625 2.59375 -16 2.59375 -18.125 C 2.59375 -21.265625 4.015625 -24.8125 6.703125 -24.8125 C 7.328125 -24.8125 8.03125 -24.65625 8.671875 -24.65625 C 10.40625 -24.65625 11.265625 -25.765625 11.265625 -27.578125 C 11.265625 -29.390625 9.296875 -30.171875 7.015625 -30.171875 C 0.625 -30.171875 -3.078125 -24.65625 -3.078125 -18.359375 C -3.078125 -14.578125 -1.734375 -10.875 0.46875 -7.875 C 0.78125 -7.484375 0.703125 -7.09375 0.3125 -6.78125 C -1.734375 -5.203125 -3.859375 -3.859375 -5.046875 -2.921875 C -6.21875 -2.125 -6.296875 -1.109375 -6.296875 -0.625 C -6.296875 0.859375 -4.890625 2.046875 -3.703125 2.046875 C -1.109375 2.046875 2.125 -1.109375 4.40625 -2.921875 C 4.8125 -3.15625 5.125 -3.15625 5.515625 -2.84375 C 9.375 0.390625 14.421875 2.359375 19.21875 2.359375 Z M 28.046875 -35.53125 C 27.578125 -37.734375 27.34375 -39.546875 27.34375 -40.96875 C 27.34375 -45.375 29.15625 -46.875 30.5625 -46.875 C 31.671875 -46.875 32.6875 -46.09375 32.6875 -44.4375 C 32.6875 -41.28125 30.875 -38.125 29.15625 -35.296875 C 28.75 -34.65625 28.203125 -34.828125 28.046875 -35.53125 Z M 18.984375 -3.3125 C 16.234375 -3.3125 12.765625 -4.25 10.15625 -6.375 C 9.6875 -6.78125 9.6875 -7.171875 10.078125 -7.5625 C 15.125 -11.96875 20.09375 -16.625 24.8125 -21.34375 C 25.28125 -21.828125 25.765625 -21.75 25.921875 -21.109375 C 26.703125 -18.515625 27.34375 -15.4375 27.34375 -12.609375 C 27.34375 -7.953125 24.8125 -3.3125 18.984375 -3.3125 Z M 18.984375 -3.3125 "/></g></g></g><g fill="#427b24" fill-opacity="1"><g transform="translate(108.04674, 125.338321)"><g><path d="M -2.28125 3.9375 C -1.109375 3.9375 0.078125 3.15625 0.625 1.578125 C 5.515625 -8.75 9.921875 -18.359375 14.96875 -28.515625 C 18.671875 -36 22.53125 -43.484375 24.578125 -43.484375 C 27.171875 -43.484375 24.96875 -27.265625 23.953125 -18.28125 C 23.71875 -16 23.390625 -14.265625 23.390625 -12.453125 C 23.390625 -9.53125 24.578125 -6.453125 27.734375 -5.90625 C 33.015625 -5.28125 37.578125 -15.046875 46.25 -28.828125 C 47.265625 -30.171875 54.984375 -44.359375 57.984375 -44.359375 C 59.09375 -44.359375 59.25 -43.484375 59.25 -42.78125 C 59.25 -36 51.921875 -18.984375 47.578125 -6.703125 C 46.953125 -4.890625 45.453125 -1.734375 45.453125 0.46875 C 45.453125 1.890625 46.171875 3 48.296875 3.15625 C 51.203125 3 50.5 1.734375 55.140625 -11.34375 C 58.21875 -20.171875 65.078125 -37.578125 65.078125 -43.09375 C 65.078125 -46.5625 62.875 -50.5 59.171875 -50.5 C 51.046875 -50.5 42.625 -33.09375 35.0625 -21.03125 C 33.015625 -17.71875 31.59375 -14.265625 30.09375 -14.265625 C 28.75 -14.265625 29.703125 -18.984375 30.09375 -22.0625 C 30.328125 -24.109375 32.140625 -37.96875 32.140625 -40.421875 C 32.140625 -45.453125 30.71875 -50.03125 26.390625 -50.03125 C 25.375 -50.03125 23.078125 -49.625 22.0625 -48.84375 C 18.046875 -46.09375 11.890625 -36.640625 -2.515625 -4.8125 C -3.078125 -3.546875 -4.734375 -0.859375 -4.734375 1.1875 C -4.734375 1.96875 -4.484375 2.671875 -3.78125 3.3125 C -3.390625 3.703125 -2.84375 3.9375 -2.28125 3.9375 Z M -2.28125 3.9375 "/></g></g></g><g fill="#427b24" fill-opacity="1"><g transform="translate(173.743795, 125.338321)"><g><path d="M 12.453125 1.734375 C 15.59375 1.734375 18.828125 0.078125 21.75 -2.59375 C 22.21875 -3 22.53125 -3.078125 23 -2.921875 C 24.578125 -2.28125 26.3125 -1.96875 28.046875 -1.96875 C 34.984375 -1.96875 40.8125 -6.0625 45.921875 -14.265625 C 47.984375 -17.71875 43.875 -20.5625 41.4375 -17.25 C 38.6875 -13.46875 34.578125 -7.71875 28.75 -7.71875 C 28.359375 -7.71875 27.96875 -7.71875 27.578125 -7.796875 C 26.9375 -7.875 26.78125 -8.265625 27.171875 -8.828125 C 32.9375 -16.9375 36.953125 -28.203125 36.953125 -36.3125 C 36.953125 -45.765625 30.796875 -52.859375 21.984375 -52.859375 C 13.234375 -52.859375 5.125 -43.015625 5.28125 -34.34375 C 5.28125 -33.09375 4.96875 -31.90625 4.25 -30.171875 C 1.890625 -24.34375 0.625 -19.0625 0.625 -14.34375 C 0.625 -10.953125 1.1875 -7.640625 2.671875 -4.484375 C 4.171875 -1.1875 7.875 1.734375 12.453125 1.734375 Z M 20.875 -10.5625 C 15.515625 -14.65625 11.890625 -22.609375 11.03125 -30.015625 C 10.953125 -30.40625 11.03125 -30.71875 11.109375 -31.046875 C 12.453125 -34.5 16 -40.8125 21.265625 -43.328125 C 21.59375 -43.484375 21.90625 -43.484375 22.296875 -43.40625 C 22.84375 -43.25 23.390625 -43.171875 23.875 -43.171875 C 25.125 -43.171875 25.921875 -43.71875 26.3125 -44.828125 C 26.546875 -45.375 26.859375 -45.609375 27.34375 -45.296875 C 30.328125 -43.640625 31.359375 -40.421875 31.359375 -36.546875 C 31.359375 -29.625 27.265625 -18.125 21.984375 -10.71875 C 21.671875 -10.328125 21.265625 -10.234375 20.875 -10.5625 Z M 12.609375 -3.78125 C 7.953125 -3.78125 6.375 -8.515625 6.375 -14.34375 C 6.375 -16.234375 6.625 -18.28125 7.015625 -20.40625 C 7.171875 -21.1875 7.640625 -21.1875 7.875 -20.484375 C 9.609375 -15.4375 12.84375 -10.15625 17.015625 -6.53125 C 17.484375 -6.21875 17.484375 -5.75 17.015625 -5.4375 C 15.59375 -4.328125 14.015625 -3.78125 12.609375 -3.78125 Z M 12.609375 -3.78125 "/></g></g></g><g fill="#427b24" fill-opacity="1"><g transform="translate(217.38428, 125.338321)"><g><path d="M -0.078125 5.671875 C 5.203125 5.671875 12.375 -0.78125 17.484375 -18.125 C 17.71875 -18.984375 17.890625 -19.53125 18.203125 -20.5625 C 18.28125 -20.953125 18.515625 -21.1875 18.828125 -21.421875 C 19.140625 -21.5 19.453125 -21.671875 19.859375 -21.75 C 20.328125 -21.984375 20.71875 -21.75 20.796875 -21.1875 C 23 -9.765625 28.28125 0.3125 36.15625 0.3125 C 43.171875 0.3125 49.15625 -6.0625 54.4375 -14.265625 C 56.796875 -17.96875 52.859375 -21.5 49.953125 -17.25 C 46.5625 -12.375 41.203125 -5.59375 36.46875 -5.59375 C 32.859375 -5.59375 29.390625 -9.609375 26.078125 -23.484375 C 26 -23.953125 26.15625 -24.265625 26.546875 -24.5 C 30.328125 -26.15625 33.875 -28.359375 36.796875 -31.4375 C 37.96875 -32.609375 46.328125 -42.859375 46.328125 -47.03125 C 46.328125 -48.609375 45.21875 -49.390625 43.953125 -49.390625 C 42.234375 -49.390625 41.4375 -47.90625 40.25 -45.84375 C 37.734375 -41.203125 32.6875 -31.828125 21.34375 -28.125 C 20.71875 -27.96875 20.40625 -28.28125 20.5625 -28.90625 C 20.953125 -30.25 21.75 -32.375 23.15625 -36.15625 C 23.953125 -38.203125 24.8125 -40.578125 25.609375 -42.9375 C 25.84375 -43.796875 26.3125 -44.515625 26.78125 -45.296875 C 27.421875 -46.328125 28.125 -47.421875 28.125 -48.6875 C 28.125 -50.03125 26.859375 -51.203125 25.453125 -51.203125 C 24.96875 -51.203125 24.5 -50.96875 24.1875 -50.8125 C 23.484375 -50.421875 22.921875 -49.625 22.296875 -48.84375 C 21.59375 -47.90625 20.796875 -46.875 19.609375 -46.171875 C 17.890625 -44.75 14.8125 -44.03125 11.734375 -44.03125 C 9.296875 -44.03125 7.5625 -44.4375 5.359375 -45.375 C 0.625 -47.5 -0.953125 -42.46875 2.28125 -40.734375 C 4.640625 -39.546875 8.1875 -38.6875 12.21875 -38.6875 C 13.9375 -38.6875 15.671875 -38.84375 17.640625 -39.546875 C 18.359375 -39.859375 18.671875 -39.546875 18.4375 -38.84375 C 16.859375 -34.828125 15.046875 -30.171875 13.9375 -26.703125 C 13.859375 -26.3125 13.625 -26.078125 13.234375 -25.921875 C 1.5 -21.90625 -7.171875 -14.734375 -7.171875 -3.703125 C -7.171875 1.890625 -4.25 5.671875 -0.078125 5.671875 Z M 0 0.078125 C -0.234375 0.078125 -0.390625 0 -0.546875 -0.078125 C -1.265625 -0.625 -1.734375 -1.8125 -1.734375 -3.390625 C -1.734375 -11.109375 2.921875 -16.625 10.796875 -19.296875 C 11.421875 -19.453125 11.8125 -19.140625 11.65625 -18.515625 C 10 -12.53125 4.8125 0.078125 0 0.078125 Z M 0 0.078125 "/></g></g></g><g fill="#427b24" fill-opacity="1"><g transform="translate(269.453526, 125.338321)"><g><path d="M 17.5625 1.1875 C 26.625 1.1875 36.71875 -3.3125 43.328125 -14.265625 C 45.609375 -18.046875 41.515625 -21.984375 39.46875 -18.359375 C 34.578125 -9.6875 26.625 -4.25 18.203125 -4.25 C 12.453125 -4.25 9.765625 -7.09375 9.765625 -10.71875 C 9.765625 -15.203125 15.59375 -20.71875 23.640625 -23.484375 C 25.375 -24.109375 27.34375 -24.734375 27.265625 -26.78125 C 27.265625 -29.078125 26.390625 -29.859375 23.953125 -29.859375 C 22.375 -29.859375 19.296875 -29.46875 18.28125 -29.46875 C 14.734375 -29.46875 12.765625 -31.046875 12.765625 -34.03125 C 12.765625 -39.546875 20.328125 -43.953125 27.171875 -43.953125 C 30.71875 -43.953125 33.640625 -42.859375 35.53125 -40.734375 C 36 -40.09375 36.546875 -39.859375 37.265625 -39.859375 C 38.6875 -39.859375 39.859375 -41.28125 39.859375 -42.546875 C 39.859375 -43.25 39.46875 -44.125 38.53125 -45.375 C 36.640625 -47.984375 32.140625 -49.3125 27.015625 -49.3125 C 17.5625 -49.3125 7.015625 -42.78125 7.015625 -34.5 C 7.015625 -30.796875 8.59375 -27.171875 13.625 -25.046875 C 14.265625 -24.734375 14.265625 -24.34375 13.703125 -24.03125 C 7.71875 -20.640625 4.09375 -15.359375 4.09375 -10.15625 C 4.09375 -4.328125 8.90625 1.1875 17.5625 1.1875 Z M 17.5625 1.1875 "/></g></g></g></svg>